%TF.GenerationSoftware,KiCad,Pcbnew,10.0.4*%
%TF.CreationDate,2026-08-02T04:07:58-05:00*%
%TF.ProjectId,glitchwave567,676c6974-6368-4776-9176-653536372e6b,rev?*%
%TF.SameCoordinates,Original*%
%TF.FileFunction,Copper,L3,Inr*%
%TF.FilePolarity,Positive*%
%FSLAX46Y46*%
G04 Gerber Fmt 4.6, Leading zero omitted, Abs format (unit mm)*
G04 Created by KiCad (PCBNEW 10.0.4) date 2026-08-02 04:07:58*
%MOMM*%
%LPD*%
G01*
G04 APERTURE LIST*
%TA.AperFunction,ComponentPad*%
%ADD10O,2.100000X3.600000*%
%TD*%
%TA.AperFunction,ComponentPad*%
%ADD11O,3.600000X2.100000*%
%TD*%
%TA.AperFunction,ComponentPad*%
%ADD12O,2.000000X3.700000*%
%TD*%
%TA.AperFunction,ComponentPad*%
%ADD13O,3.700000X2.000000*%
%TD*%
%TA.AperFunction,WasherPad*%
%ADD14R,2.000000X2.000000*%
%TD*%
%TA.AperFunction,ComponentPad*%
%ADD15O,2.600000X1.900000*%
%TD*%
%TA.AperFunction,ComponentPad*%
%ADD16O,3.000000X1.500000*%
%TD*%
%TA.AperFunction,ComponentPad*%
%ADD17R,1.700000X1.700000*%
%TD*%
%TA.AperFunction,ComponentPad*%
%ADD18O,1.700000X1.700000*%
%TD*%
%TA.AperFunction,ViaPad*%
%ADD19C,0.500000*%
%TD*%
%TA.AperFunction,Conductor*%
%ADD20C,0.250000*%
%TD*%
%TA.AperFunction,Conductor*%
%ADD21C,0.300000*%
%TD*%
G04 APERTURE END LIST*
D10*
%TO.N,GND*%
%TO.C,J1*%
X113500000Y-9200000D03*
X113500000Y-16700000D03*
D11*
%TO.N,IN_TIP*%
X116000000Y-24100000D03*
%TO.N,GND*%
X111000000Y-24100000D03*
%TD*%
D12*
%TO.N,GND*%
%TO.C,J6*%
X136400000Y-57000000D03*
D13*
X134400000Y-55100000D03*
%TO.N,CVOUT_TIP*%
X134400000Y-60200000D03*
D12*
%TO.N,N/C*%
X129400000Y-57000000D03*
%TD*%
D14*
%TO.N,*%
%TO.C,J5*%
X65350000Y-6150000D03*
D15*
%TO.N,GND*%
X69000000Y-13100000D03*
%TO.N,/power/VIN_RAW*%
X60400000Y-13100000D03*
%TO.N,unconnected-(J5-Pad3)*%
X65600000Y-13100000D03*
D16*
%TO.N,N/C*%
X69000000Y-2600000D03*
X59200000Y-2600000D03*
%TD*%
D17*
%TO.N,GND*%
%TO.C,J10*%
X96000000Y-104000000D03*
D18*
%TO.N,+5V*%
X96000000Y-101460000D03*
%TO.N,3V3*%
X98540000Y-104000000D03*
%TO.N,GND*%
X98540000Y-101460000D03*
%TO.N,/mcu/POT1_W*%
X101080000Y-104000000D03*
%TO.N,/mcu/POT2_W*%
X101080000Y-101460000D03*
%TO.N,/mcu/POT3_W*%
X103620000Y-104000000D03*
%TO.N,/mcu/POT4_W*%
X103620000Y-101460000D03*
%TO.N,/mcu/POT5_W*%
X106160000Y-104000000D03*
%TO.N,/mcu/POT6_W*%
X106160000Y-101460000D03*
%TO.N,/mcu/STOMP1*%
X108700000Y-104000000D03*
%TO.N,/mcu/STOMP2*%
X108700000Y-101460000D03*
%TO.N,/mcu/WS_HDR*%
X111240000Y-104000000D03*
%TO.N,GND*%
X111240000Y-101460000D03*
%TO.N,unconnected-(J10-Pin_15-Pad15)*%
X113780000Y-104000000D03*
%TO.N,GND*%
X113780000Y-101460000D03*
%TD*%
D10*
%TO.N,GND*%
%TO.C,J2*%
X28000000Y-9200000D03*
X28000000Y-16700000D03*
D11*
%TO.N,OUT_TIP*%
X30500000Y-24100000D03*
%TO.N,N/C*%
X25500000Y-24100000D03*
%TD*%
D12*
%TO.N,GND*%
%TO.C,J3*%
X1600000Y-40000000D03*
D13*
X3600000Y-41900000D03*
%TO.N,CV1_TIP*%
X3600000Y-36800000D03*
D12*
%TO.N,GND*%
X8600000Y-40000000D03*
%TD*%
%TO.N,GND*%
%TO.C,J4*%
X1600000Y-75000000D03*
D13*
X3600000Y-76900000D03*
%TO.N,CV2_TIP*%
X3600000Y-71800000D03*
D12*
%TO.N,GND*%
X8600000Y-75000000D03*
%TD*%
D19*
%TO.N,/output/JF_G*%
X26400000Y-68200000D03*
X28600000Y-70400000D03*
%TO.N,VA*%
X64350000Y-34100000D03*
X85250000Y-9500000D03*
X62700000Y-33000000D03*
X108500000Y-74000000D03*
X73150000Y-81400000D03*
X72500000Y-66000000D03*
X101200000Y-107800000D03*
X76450000Y-40150000D03*
X85250000Y-7700000D03*
X76450000Y-47850000D03*
X94050000Y-97350000D03*
X100650000Y-67650000D03*
%TO.N,GND*%
X95750478Y-35773369D03*
X96000000Y-78000000D03*
X90597530Y-37054347D03*
X69000000Y-96000000D03*
X96000000Y-24000000D03*
X46317347Y-83889259D03*
X78000000Y-33000000D03*
X123000000Y-6000000D03*
X79545634Y-43860433D03*
X39780377Y-63220464D03*
X85807171Y-25925500D03*
X51000000Y-15000000D03*
X123000000Y-96000000D03*
X96000000Y-6000000D03*
X72538969Y-42125500D03*
X80295240Y-32305137D03*
X15000000Y-105000000D03*
X90766772Y-106357265D03*
X96000000Y-105000000D03*
X87000000Y-6000000D03*
X96000000Y-15000000D03*
X114750000Y-107550000D03*
X24000000Y-96000000D03*
X69000000Y-69000000D03*
X73489552Y-31542827D03*
X132000000Y-96000000D03*
X71825500Y-92425500D03*
X86862079Y-10585913D03*
X54563921Y-48180626D03*
X31650000Y-88310000D03*
X6000000Y-42000000D03*
X42000000Y-6000000D03*
X87775500Y-21225500D03*
X38317823Y-83925500D03*
X20967079Y-67155189D03*
X61630444Y-37565127D03*
X98200000Y-78000000D03*
X78000000Y-60000000D03*
X86412706Y-44248432D03*
X132000000Y-60000000D03*
X92587703Y-10128350D03*
X132000000Y-24000000D03*
X18950000Y-107690000D03*
X69305733Y-104695518D03*
X36975500Y-75554983D03*
X132000000Y-15000000D03*
X6000000Y-87000000D03*
X105000000Y-69000000D03*
X6000000Y-96000000D03*
X62400500Y-46827218D03*
X89980187Y-61066121D03*
X15000000Y-24000000D03*
X123000000Y-24000000D03*
X102798454Y-81611323D03*
X78000000Y-96000000D03*
X46769316Y-4103469D03*
X105000000Y-78000000D03*
X67713532Y-17608963D03*
X123000000Y-15000000D03*
X78000000Y-69000000D03*
X44350000Y-107690000D03*
X6486127Y-54946299D03*
X87719064Y-2197441D03*
X56958062Y-41602778D03*
X101828247Y-21231046D03*
X6000000Y-15000000D03*
X74631276Y-33791423D03*
X87000000Y-24000000D03*
X33000000Y-15000000D03*
X24000000Y-33000000D03*
X49625500Y-12925500D03*
X24000000Y-6000000D03*
X34185030Y-61925500D03*
X5251116Y-67749859D03*
X132000000Y-42000000D03*
X57050000Y-88310000D03*
X15000000Y-15000000D03*
X96000000Y-33000000D03*
X78137500Y-27000000D03*
X42000000Y-69000000D03*
X31650000Y-107690000D03*
X79271849Y-19473707D03*
X33000000Y-24000000D03*
X81224971Y-7947196D03*
X114000000Y-6000000D03*
X105000000Y-51000000D03*
X54919362Y-83715572D03*
X86599299Y-6955844D03*
X44250500Y-51406094D03*
X79854845Y-21882885D03*
X132000000Y-51000000D03*
X75869529Y-3187027D03*
X15000000Y-60000000D03*
X95448675Y-44906060D03*
X97575500Y-8575500D03*
X6000000Y-24000000D03*
X32206277Y-74630732D03*
X60000000Y-6000000D03*
X83763960Y-40208119D03*
X96002122Y-17218463D03*
X63400500Y-43250500D03*
X105000000Y-105000000D03*
X85721644Y-47725268D03*
X98335722Y-93846282D03*
X119000000Y-101175000D03*
X48435318Y-31259285D03*
X32329059Y-70526515D03*
X29258224Y-47000500D03*
X68542165Y-101675500D03*
X78000000Y-15000000D03*
X38644698Y-44131769D03*
X78105443Y-73902297D03*
X15000000Y-6000000D03*
X123000000Y-42000000D03*
X76725702Y-16963201D03*
X6000000Y-78000000D03*
X78000000Y-78000000D03*
X122750000Y-107550000D03*
X18950000Y-88310000D03*
X126377150Y-85019480D03*
X6000000Y-33000000D03*
X43256847Y-12432941D03*
X84826467Y-21850992D03*
X60000000Y-105000000D03*
X124924999Y-31900000D03*
X132000000Y-33000000D03*
X70775000Y-49000000D03*
X80400000Y-11836413D03*
%TO.N,/mix_svf/WOTA_P*%
X106150000Y-40150000D03*
X65450000Y-63800000D03*
X79750000Y-70950000D03*
X67100000Y-72050000D03*
X90200000Y-68750000D03*
X71500000Y-75900000D03*
%TO.N,VREF*%
X51700000Y-61600000D03*
X88550000Y-40700000D03*
X58850000Y-48400000D03*
X90750000Y-72600000D03*
X57200000Y-28600000D03*
X116600000Y-63250000D03*
X57200000Y-31350000D03*
X74250000Y-72050000D03*
X78100000Y-42350000D03*
X95700000Y-39600000D03*
X50600000Y-57750000D03*
X84150000Y-36300000D03*
X91300000Y-40700000D03*
X121550000Y-77000000D03*
X105050000Y-59950000D03*
X90200000Y-74250000D03*
X97900000Y-65450000D03*
X97900000Y-108350000D03*
X76450000Y-72050000D03*
X121550000Y-79200000D03*
X56650000Y-54450000D03*
X64350000Y-43450000D03*
%TO.N,/output/H60_P*%
X39600000Y-34100000D03*
X43450000Y-30250000D03*
%TO.N,/mcu/STOMP1*%
X69500000Y-100750000D03*
X101750000Y-112200000D03*
X62150000Y-88550000D03*
X73700000Y-101200000D03*
%TO.N,/core567/TC_C*%
X94050000Y-78100000D03*
X98450000Y-83050000D03*
%TO.N,/mcu/PWM_SVFQ*%
X55550000Y-71500000D03*
X29150000Y-107800000D03*
%TO.N,SVF_Q_CV*%
X18150000Y-51700000D03*
X58300000Y-70950000D03*
X83600000Y-42900000D03*
X22550000Y-67100000D03*
X55000000Y-19250000D03*
X28600000Y-39050000D03*
X18150000Y-56650000D03*
X32450000Y-29700000D03*
X50050000Y-68200000D03*
X81400000Y-42900000D03*
%TO.N,/output/LP1*%
X19250000Y-58300000D03*
X28600000Y-44000000D03*
%TO.N,/output/LAD_OUT*%
X38000000Y-43000000D03*
X17500000Y-53000000D03*
X17500000Y-48250000D03*
X20500000Y-42750000D03*
X21500000Y-58500000D03*
X30500000Y-39000000D03*
X18500000Y-44750000D03*
X23000000Y-72750000D03*
%TO.N,DIRT_OUT*%
X98450000Y-45650000D03*
X94250000Y-39500000D03*
%TO.N,BYPASS_CV*%
X19800000Y-36300000D03*
X46750000Y-12100000D03*
X18700000Y-33000000D03*
%TO.N,/input_dirt/GAIN_SH*%
X106700000Y-37950000D03*
X84500000Y-34500000D03*
%TO.N,/output/ODC*%
X54450000Y-53900000D03*
X47850000Y-15950000D03*
%TO.N,/output/H60_M*%
X49500000Y-15950000D03*
X39600000Y-25850000D03*
%TO.N,/mix_svf/Q_IABC*%
X33550000Y-58300000D03*
X44550000Y-69300000D03*
%TO.N,/mix_svf/QOTA_P*%
X13750000Y-68200000D03*
X35200000Y-72050000D03*
%TO.N,/mix_svf/QOTA_M*%
X35200000Y-73700000D03*
X8250000Y-86350000D03*
%TO.N,/mix_svf/QFB_I*%
X45650000Y-74800000D03*
X72600000Y-44550000D03*
X68200000Y-97900000D03*
%TO.N,/mix_svf/SVF_BP*%
X105050000Y-10450000D03*
X9350000Y-66550000D03*
X11550000Y-64350000D03*
X44550000Y-54450000D03*
X100650000Y-83050000D03*
X75900000Y-82500000D03*
X38500000Y-62150000D03*
X22550000Y-63800000D03*
%TO.N,/input_dirt/GAIN_FB*%
X112750000Y-34650000D03*
X119900000Y-39600000D03*
X105600000Y-37400000D03*
%TO.N,/env_cv/RECT_OUT*%
X122650000Y-81950000D03*
X129250000Y-86350000D03*
%TO.N,/env_cv/FW_SUM*%
X133100000Y-86350000D03*
X122100000Y-80850000D03*
X132550000Y-72050000D03*
%TO.N,/env_cv/CVF1*%
X72050000Y-74250000D03*
X59250000Y-45750000D03*
X51150000Y-79750000D03*
X61050000Y-71500000D03*
X66550000Y-73150000D03*
X61050000Y-45650000D03*
X85800000Y-70950000D03*
X79750000Y-77000000D03*
X69300000Y-74800000D03*
%TO.N,/mix_svf/MIX_OUT*%
X75900000Y-84700000D03*
X63250000Y-75900000D03*
X74250000Y-104500000D03*
X72600000Y-86350000D03*
X64900000Y-38500000D03*
X86250000Y-69500000D03*
X76450000Y-96800000D03*
%TO.N,/mix_svf/MIX_SUM*%
X67500000Y-64750000D03*
X77000000Y-66250000D03*
X71500000Y-64350000D03*
X69750000Y-64750000D03*
X63800000Y-40700000D03*
%TO.N,/env_cv/CVF2*%
X124300000Y-78100000D03*
X84150000Y-71500000D03*
%TO.N,/input_dirt/HP1_P*%
X118250000Y-43450000D03*
X125950000Y-48950000D03*
%TO.N,/input_dirt/HP1_OUT*%
X116600000Y-44550000D03*
X112500000Y-41750000D03*
%TO.N,DRY_CLEAN*%
X117700000Y-60500000D03*
X111650000Y-52800000D03*
X121550000Y-45650000D03*
X97350000Y-60500000D03*
%TO.N,/input_dirt/HP2_P*%
X111100000Y-38500000D03*
X121000000Y-43450000D03*
X114400000Y-46200000D03*
%TO.N,/input_dirt/TRIM_OUT*%
X118250000Y-48950000D03*
X122650000Y-40700000D03*
%TO.N,V567_DRIVE*%
X119900000Y-37400000D03*
X117700000Y-35200000D03*
%TO.N,/output/LP2*%
X25850000Y-36300000D03*
X15950000Y-53900000D03*
%TO.N,/core567/TC_D*%
X97350000Y-88000000D03*
X83600000Y-84700000D03*
%TO.N,/mcu/PWM_SVFF*%
X26950000Y-107250000D03*
X58850000Y-67100000D03*
%TO.N,SVF_F_CV*%
X37400000Y-50600000D03*
X33000000Y-43450000D03*
X88550000Y-34100000D03*
X107800000Y-30250000D03*
X101200000Y-30250000D03*
X62150000Y-67100000D03*
X58850000Y-69850000D03*
X54450000Y-31900000D03*
X51700000Y-66550000D03*
X54450000Y-34650000D03*
X92000000Y-34750000D03*
%TO.N,/mix_svf/I1_OUT*%
X48400000Y-50600000D03*
X52250000Y-50050000D03*
%TO.N,CVOUT_PWM*%
X41800000Y-107800000D03*
X40150000Y-74800000D03*
%TO.N,/mix_svf/Q4_B*%
X71500000Y-94050000D03*
X11550000Y-99550000D03*
%TO.N,/output/BOTA_P*%
X43450000Y-57750000D03*
X77550000Y-50050000D03*
X54450000Y-61050000D03*
X56650000Y-56100000D03*
X94050000Y-55000000D03*
%TO.N,/env_cv/CVD0*%
X70400000Y-45100000D03*
X58850000Y-64900000D03*
X55550000Y-64350000D03*
X79750000Y-47850000D03*
X66000000Y-51150000D03*
X36300000Y-28050000D03*
X42350000Y-26950000D03*
X62700000Y-61050000D03*
%TO.N,CV1_ADC*%
X42900000Y-90750000D03*
X51150000Y-64900000D03*
X44550000Y-83600000D03*
%TO.N,/env_cv/CVO_FB*%
X115500000Y-77550000D03*
X124850000Y-75350000D03*
%TO.N,/output/OUT_AC*%
X28050000Y-59400000D03*
X15950000Y-40150000D03*
X20500000Y-66000000D03*
%TO.N,/mix_svf/FMODE_A_S*%
X126500000Y-93500000D03*
X79200000Y-88000000D03*
%TO.N,/input_dirt/IN_A*%
X123500000Y-37250000D03*
X123250000Y-32000000D03*
%TO.N,/power/V9RAW*%
X86350000Y-29150000D03*
X78650000Y-25300000D03*
%TO.N,/power/QBASE*%
X61050000Y-31900000D03*
X39500000Y-18750000D03*
X40700000Y-36850000D03*
X36250000Y-16000000D03*
%TO.N,FREQ_B*%
X50600000Y-107800000D03*
X72750000Y-90750000D03*
X68000000Y-89750000D03*
%TO.N,/core567/Q3_B*%
X83000000Y-80250000D03*
X97900000Y-80300000D03*
X78250000Y-89000000D03*
%TO.N,OUT_TIP*%
X17600000Y-40150000D03*
%TO.N,/power/VPROT*%
X51150000Y-3850000D03*
X55550000Y-12100000D03*
X61050000Y-17600000D03*
%TO.N,/env_cv/CVD1*%
X19750000Y-26000000D03*
X46750000Y-8250000D03*
X16500000Y-38500000D03*
X31250000Y-22000000D03*
X17050000Y-36300000D03*
X13750000Y-57750000D03*
%TO.N,3V3*%
X53750000Y-11750000D03*
X78650000Y-32450000D03*
X84150000Y-44550000D03*
X73150000Y-55550000D03*
X90750000Y-89100000D03*
%TO.N,/mix_svf/I1_M*%
X9350000Y-59400000D03*
X10450000Y-50050000D03*
X42350000Y-48950000D03*
%TO.N,/core567/V567_MID*%
X81400000Y-48950000D03*
X88000000Y-52800000D03*
X78100000Y-44000000D03*
X83750000Y-55250000D03*
%TO.N,Q_OUT*%
X98450000Y-4950000D03*
X98450000Y-31350000D03*
%TO.N,LOCK_SENSE*%
X108500000Y-36250000D03*
X88550000Y-89650000D03*
X89100000Y-62700000D03*
X91300000Y-50600000D03*
%TO.N,/output/BYP_IABC*%
X23100000Y-37400000D03*
X40700000Y-55550000D03*
%TO.N,/env_cv/FW_N*%
X125950000Y-67650000D03*
X122650000Y-70950000D03*
%TO.N,/env_cv/FW_A*%
X121550000Y-74250000D03*
X124850000Y-70950000D03*
%TO.N,/mcu/TRIM_HO*%
X115500000Y-110000000D03*
X107250000Y-98450000D03*
X100650000Y-93500000D03*
%TO.N,/core567/FREQ_B_S*%
X103400000Y-82500000D03*
X110000000Y-86900000D03*
X98450000Y-90200000D03*
%TO.N,/core567/FREQ_A_S*%
X102850000Y-90750000D03*
X105600000Y-93500000D03*
%TO.N,/core567/CT_NODE*%
X98450000Y-85250000D03*
X95150000Y-67100000D03*
X90750000Y-64900000D03*
X99550000Y-50600000D03*
%TO.N,V567*%
X87250000Y-51750000D03*
X94600000Y-51700000D03*
X87450000Y-32450000D03*
X82250000Y-40250000D03*
%TO.N,/power/VREF_RAW*%
X49500000Y-35750000D03*
X50050000Y-28600000D03*
X43450000Y-15950000D03*
X36250000Y-23000000D03*
%TO.N,/input_dirt/BF_AC*%
X101750000Y-58850000D03*
X118250000Y-89100000D03*
%TO.N,/mcu/PWM_BYP*%
X14850000Y-35200000D03*
X36850000Y-107800000D03*
X13750000Y-48950000D03*
X35750000Y-97350000D03*
%TO.N,/mix_svf/SVF_HP*%
X75900000Y-86350000D03*
X67650000Y-45650000D03*
X105050000Y-94600000D03*
%TO.N,/mix_svf/I1_P*%
X97350000Y-62150000D03*
X26950000Y-31900000D03*
X94050000Y-108900000D03*
X50050000Y-34100000D03*
X10450000Y-56650000D03*
X73150000Y-23650000D03*
X97350000Y-29150000D03*
X45650000Y-47850000D03*
X25300000Y-96250000D03*
X108900000Y-94600000D03*
X101750000Y-33550000D03*
X39600000Y-36300000D03*
X6600000Y-52250000D03*
X105600000Y-35200000D03*
X107800000Y-37400000D03*
X67650000Y-106700000D03*
X48400000Y-45650000D03*
X54450000Y-29150000D03*
%TO.N,MIX_WET_CV*%
X81950000Y-58300000D03*
X89650000Y-49500000D03*
X89650000Y-35750000D03*
X89650000Y-30250000D03*
X88550000Y-9900000D03*
X64900000Y-44550000D03*
X81950000Y-31900000D03*
X64900000Y-56650000D03*
X89650000Y-53900000D03*
X63250000Y-39050000D03*
%TO.N,/mix_svf/WET_IABC*%
X78100000Y-70400000D03*
X67100000Y-59400000D03*
X69300000Y-57200000D03*
%TO.N,CV2_ADC*%
X15950000Y-58300000D03*
X28050000Y-88550000D03*
X38500000Y-80300000D03*
%TO.N,/env_cv/FW_IN*%
X123000000Y-76000000D03*
X128150000Y-67100000D03*
X121000000Y-70400000D03*
X114400000Y-64350000D03*
%TO.N,/mix_svf/WET_AC*%
X101750000Y-3850000D03*
X88000000Y-4950000D03*
X103950000Y-39050000D03*
%TO.N,/mcu/STOMP2*%
X67650000Y-104500000D03*
X86500000Y-86250000D03*
X58850000Y-89650000D03*
X61600000Y-101200000D03*
X91300000Y-85250000D03*
X70400000Y-108350000D03*
%TO.N,/mcu/PWM_MIXD*%
X62150000Y-7150000D03*
X24750000Y-105600000D03*
X82500000Y-56650000D03*
X12100000Y-40700000D03*
X105050000Y-44550000D03*
%TO.N,MIX_DRY_CV*%
X84700000Y-53350000D03*
X92950000Y-22550000D03*
X78100000Y-57200000D03*
X94050000Y-72600000D03*
X94600000Y-17050000D03*
X90750000Y-69850000D03*
%TO.N,/mix_svf/WOTA_M*%
X68750000Y-64000000D03*
X69750000Y-65750000D03*
%TO.N,/mcu/PICO_VSYS*%
X42900000Y-85800000D03*
X36300000Y-85800000D03*
%TO.N,GATE_VOL_CV*%
X56650000Y-66550000D03*
X56650000Y-58300000D03*
X73150000Y-50050000D03*
%TO.N,/output/GV_IABC*%
X52800000Y-58850000D03*
X42350000Y-54450000D03*
%TO.N,/mcu/PWM_MIXW*%
X17600000Y-102300000D03*
X58300000Y-68750000D03*
X62150000Y-63800000D03*
X54450000Y-68750000D03*
%TO.N,/mix_svf/F_IABC1*%
X87450000Y-20350000D03*
X110550000Y-30250000D03*
X101750000Y-23650000D03*
X45650000Y-45650000D03*
%TO.N,/mcu/ADC_MUXED*%
X40250000Y-84750000D03*
X61600000Y-84700000D03*
%TO.N,+5V*%
X69300000Y-23650000D03*
X91850000Y-26400000D03*
X84500000Y-24250000D03*
X59950000Y-79200000D03*
X59950000Y-23650000D03*
%TO.N,/mix_svf/I2_OUT*%
X50600000Y-53350000D03*
X50600000Y-50600000D03*
X49500000Y-57200000D03*
%TO.N,/output/PRE_OUT*%
X19250000Y-63250000D03*
X21450000Y-48400000D03*
X21450000Y-53350000D03*
%TO.N,/output/OUT_SUM*%
X21450000Y-62700000D03*
X23100000Y-60500000D03*
X22550000Y-50050000D03*
%TO.N,/output/OB_FB*%
X22000000Y-56100000D03*
X25300000Y-59400000D03*
%TO.N,/mix_svf/I2_P*%
X31350000Y-42350000D03*
X15950000Y-64350000D03*
X14300000Y-69850000D03*
X48000000Y-47000000D03*
%TO.N,/core567/FREQ_IABC*%
X100650000Y-44550000D03*
X94600000Y-61600000D03*
%TO.N,/core567/OTA2_INP*%
X85800000Y-61050000D03*
X91850000Y-64350000D03*
%TO.N,/core567/OTA2_INM*%
X92400000Y-65450000D03*
X90750000Y-67100000D03*
%TO.N,/output/BOTA_M*%
X47850000Y-61600000D03*
X42350000Y-58850000D03*
%TO.N,/input_dirt/BF_BASE*%
X117700000Y-79750000D03*
X117700000Y-74250000D03*
%TO.N,/output/LAD_IN*%
X32450000Y-35200000D03*
X29700000Y-32450000D03*
X39000000Y-40750000D03*
%TO.N,/mix_svf/SVF_SUM*%
X114400000Y-81400000D03*
X20900000Y-17050000D03*
X11550000Y-91300000D03*
X89650000Y-1650000D03*
X63800000Y-95150000D03*
X44550000Y-6050000D03*
X65750000Y-44500000D03*
X111650000Y-84150000D03*
X62700000Y-79200000D03*
X63000000Y-55500000D03*
X65750000Y-50250000D03*
X110550000Y-90750000D03*
X75900000Y-104500000D03*
X12100000Y-29150000D03*
X12100000Y-91300000D03*
X64000000Y-74250000D03*
X44550000Y-95700000D03*
X58300000Y-97900000D03*
X65450000Y-100650000D03*
%TO.N,/power/BUCK_FB*%
X101750000Y-17600000D03*
X100100000Y-21450000D03*
X86900000Y-18150000D03*
%TO.N,/output/POST_JFET*%
X22550000Y-44550000D03*
X23650000Y-78650000D03*
%TO.N,/mcu/TRIM_TH*%
X88550000Y-102850000D03*
X106150000Y-111100000D03*
%TO.N,/output/B6_OUT*%
X25300000Y-78650000D03*
X41800000Y-47850000D03*
X22550000Y-82500000D03*
X24750000Y-68200000D03*
%TO.N,/env_cv/ENV_C*%
X130350000Y-89650000D03*
X132550000Y-89650000D03*
%TO.N,/mix_svf/FMODE_C_S*%
X74250000Y-90200000D03*
X74800000Y-78100000D03*
X58850000Y-63250000D03*
X18700000Y-3850000D03*
%TO.N,/power/SRV_FB*%
X41800000Y-12650000D03*
X37950000Y-18150000D03*
%TO.N,/power/SRV_OUT*%
X36500000Y-24500000D03*
X38500000Y-19750000D03*
%TO.N,/mix_svf/FMODE_B_S*%
X75500000Y-88750000D03*
X102850000Y-107800000D03*
X69300000Y-78100000D03*
%TO.N,/mix_svf/SVF_NOTCH*%
X6600000Y-62150000D03*
X54450000Y-18150000D03*
X13200000Y-3850000D03*
X18700000Y-96800000D03*
X51700000Y-14850000D03*
X69850000Y-38500000D03*
X40150000Y-97350000D03*
X51700000Y-85800000D03*
X15950000Y-97900000D03*
%TO.N,FILT_OUT*%
X62150000Y-53900000D03*
X69300000Y-84150000D03*
%TO.N,/mix_svf/SVF_LP*%
X44000000Y-59950000D03*
X71500000Y-83050000D03*
X33550000Y-61600000D03*
X64750000Y-78500000D03*
X67100000Y-74800000D03*
%TO.N,/input_dirt/HP1_M*%
X115750000Y-50000000D03*
X122650000Y-48950000D03*
X125950000Y-45650000D03*
%TO.N,/mcu/FREQ_F1*%
X80850000Y-51700000D03*
X52250000Y-7700000D03*
X80300000Y-41250000D03*
X45100000Y-25850000D03*
X57750000Y-61050000D03*
%TO.N,/mcu/POT1_W*%
X83050000Y-99550000D03*
%TO.N,/mcu/POT2_W*%
X83050000Y-97900000D03*
X85250000Y-96250000D03*
%TO.N,/mcu/POT3_W*%
X82500000Y-96800000D03*
%TO.N,/mcu/POT4_W*%
X81400000Y-95150000D03*
X85800000Y-95150000D03*
%TO.N,/mcu/POT5_W*%
X79750000Y-94600000D03*
%TO.N,/mcu/POT6_W*%
X83050000Y-92950000D03*
X85800000Y-92400000D03*
%TO.N,/mcu/WS_HDR*%
X99550000Y-110000000D03*
%TO.N,/mix_svf/NOTCH_SUM*%
X13750000Y-66000000D03*
X14850000Y-61050000D03*
X7700000Y-35750000D03*
X63250000Y-27500000D03*
X96800000Y-30250000D03*
X9900000Y-69300000D03*
X122100000Y-88000000D03*
X72600000Y-39600000D03*
X74800000Y-39600000D03*
X81950000Y-33550000D03*
X117150000Y-92950000D03*
X56650000Y-19250000D03*
X99550000Y-29150000D03*
X15950000Y-3850000D03*
%TO.N,/input_dirt/OTA_INP*%
X106700000Y-63800000D03*
X112200000Y-57750000D03*
X103400000Y-69850000D03*
%TO.N,/mcu/PWM_DIRT*%
X55000000Y-69850000D03*
X16500000Y-107800000D03*
%TO.N,DIRT_CV*%
X49500000Y-42900000D03*
X76450000Y-61600000D03*
X56100000Y-69300000D03*
%TO.N,/mix_svf/DOTA_M*%
X72600000Y-63250000D03*
X80300000Y-74250000D03*
%TO.N,/mix_svf/DOTA_P*%
X81400000Y-68750000D03*
X73150000Y-61600000D03*
X85800000Y-74250000D03*
X95700000Y-42350000D03*
%TO.N,/mix_svf/DRY_IABC*%
X96250000Y-73700000D03*
X73150000Y-59400000D03*
%TO.N,/mix_svf/I2_M*%
X47300000Y-49500000D03*
X20350000Y-38500000D03*
X12100000Y-46200000D03*
X15950000Y-29700000D03*
%TO.N,/mix_svf/QFB_OUT*%
X66550000Y-97900000D03*
X72600000Y-46200000D03*
X68750000Y-91850000D03*
X75350000Y-101750000D03*
%TO.N,/core567/IN567*%
X108350000Y-43450000D03*
X95700000Y-50600000D03*
%TO.N,/core567/RT_SQ*%
X91300000Y-62700000D03*
X99000000Y-52250000D03*
X84150000Y-61050000D03*
%TO.N,/core567/Q_OC*%
X99550000Y-47850000D03*
X97350000Y-5500000D03*
%TO.N,/input_dirt/DIRT_PRE*%
X116050000Y-67650000D03*
X110550000Y-61600000D03*
%TO.N,/core567/IN567A*%
X119350000Y-35200000D03*
X108900000Y-44550000D03*
%TO.N,/power/BUCK_COMPC*%
X69750000Y-14750000D03*
X93500000Y-6600000D03*
%TO.N,/mcu/WS_DATA_5V*%
X86900000Y-111100000D03*
X89100000Y-111100000D03*
%TO.N,/mcu/PWM_FREQ*%
X13750000Y-107800000D03*
X35200000Y-75350000D03*
X55000000Y-62150000D03*
X46750000Y-67100000D03*
X28050000Y-84700000D03*
%TO.N,/mcu/PWM_STARVE*%
X39050000Y-107800000D03*
X52250000Y-74250000D03*
%TO.N,STARVE_CV*%
X57200000Y-74250000D03*
X58850000Y-61600000D03*
X50050000Y-30800000D03*
X44550000Y-24200000D03*
X52250000Y-31350000D03*
%TO.N,/mix_svf/F_IABC2*%
X52800000Y-45650000D03*
X115500000Y-30800000D03*
X105050000Y-42350000D03*
X58850000Y-44000000D03*
X93500000Y-41800000D03*
%TO.N,/output/B6_FB*%
X13200000Y-78650000D03*
X37400000Y-55550000D03*
X40700000Y-46750000D03*
X30250000Y-63800000D03*
X25850000Y-75350000D03*
X26950000Y-64900000D03*
%TO.N,/power/FLOOR62*%
X62700000Y-15950000D03*
X54450000Y-15950000D03*
X45650000Y-20900000D03*
X83600000Y-2750000D03*
%TO.N,/output/GOTA_M*%
X43450000Y-61600000D03*
X38500000Y-59400000D03*
%TO.N,/power/BUCK_BST*%
X90200000Y-14300000D03*
X94600000Y-21450000D03*
%TO.N,/input_dirt/DIRT_IABC*%
X78100000Y-61600000D03*
X103950000Y-66550000D03*
%TO.N,/input_dirt/OTA_OUT*%
X106150000Y-56100000D03*
X102850000Y-72600000D03*
X117700000Y-64350000D03*
%TO.N,/power/BUCK_COMP*%
X85800000Y-16500000D03*
X91850000Y-6600000D03*
%TO.N,CV2_TIP*%
X14850000Y-36850000D03*
%TO.N,/output/H60_OUT*%
X35750000Y-45100000D03*
X40700000Y-26400000D03*
X36300000Y-39050000D03*
X35750000Y-41250000D03*
%TO.N,FREQ_CV*%
X83050000Y-34650000D03*
X83050000Y-51700000D03*
X93500000Y-43450000D03*
%TO.N,FREQ_A*%
X46750000Y-107800000D03*
X58850000Y-95700000D03*
%TO.N,/core567/Q2_B*%
X85250000Y-84150000D03*
X101750000Y-89650000D03*
X68750000Y-94050000D03*
%TO.N,/env_cv/ENV_B*%
X126500000Y-81950000D03*
X121250000Y-94250000D03*
%TO.N,/env_cv/CVO_OUT*%
X113850000Y-85250000D03*
X127050000Y-73700000D03*
X133100000Y-65450000D03*
%TO.N,/mix_svf/Q6_B*%
X105050000Y-112200000D03*
X40150000Y-101750000D03*
X90750000Y-111100000D03*
X81400000Y-109450000D03*
X75500000Y-77250000D03*
%TO.N,/output/GYR_B*%
X62700000Y-42900000D03*
X48950000Y-41800000D03*
X86350000Y-41800000D03*
%TO.N,/mcu/PWM_GATE*%
X52250000Y-69300000D03*
X34650000Y-107250000D03*
%TO.N,/output/GOTA_P*%
X35750000Y-58300000D03*
X43450000Y-64900000D03*
X39050000Y-69300000D03*
%TO.N,FMODE_C*%
X50600000Y-102850000D03*
X48400000Y-102850000D03*
%TO.N,/mcu/WS_DATA_3V3*%
X76450000Y-110550000D03*
X83050000Y-110000000D03*
%TO.N,/mcu/MUX_S0*%
X64900000Y-98450000D03*
X55000000Y-88550000D03*
%TO.N,/mcu/MUX_S1*%
X52800000Y-88550000D03*
X60500000Y-96250000D03*
%TO.N,/mcu/MUX_S2*%
X89650000Y-101200000D03*
X87450000Y-99000000D03*
X85250000Y-100650000D03*
X66550000Y-90750000D03*
%TO.N,/mcu/MUX_S3*%
X67650000Y-92950000D03*
X85800000Y-102300000D03*
%TO.N,/mcu/TRIM_FA*%
X105250000Y-95500000D03*
X119500000Y-106250000D03*
%TO.N,/output/BELL_OUT*%
X40150000Y-45100000D03*
X37400000Y-47850000D03*
%TO.N,/output/BELL_FB*%
X36750000Y-46500000D03*
X43450000Y-41800000D03*
%TO.N,VA_SENSE*%
X88550000Y-97350000D03*
X88550000Y-106150000D03*
X92950000Y-98450000D03*
X81400000Y-90200000D03*
%TO.N,ENV_ADC*%
X87450000Y-93500000D03*
X82500000Y-91850000D03*
X94050000Y-93500000D03*
X97900000Y-97350000D03*
%TD*%
%TO.N,/output/JF_G*%
D20*
X26400000Y-68200000D02*
X28600000Y-70400000D01*
%TO.N,VA*%
D21*
X101200000Y-107250000D02*
X100650000Y-107250000D01*
X101200000Y-69850000D02*
X101750000Y-69850000D01*
X102850000Y-70950000D02*
X102850000Y-71500000D01*
X64350000Y-34100000D02*
X64350000Y-33000000D01*
X100650000Y-69300000D02*
X101200000Y-69300000D01*
X94050000Y-106150000D02*
X94050000Y-97350000D01*
X85250000Y-7750000D02*
X85250000Y-7700000D01*
X101200000Y-107800000D02*
X101200000Y-107250000D01*
X102300000Y-70400000D02*
X102300000Y-70950000D01*
X103400000Y-71500000D02*
X103400000Y-72050000D01*
X100650000Y-106700000D02*
X100100000Y-106700000D01*
X85250000Y-9500000D02*
X85250000Y-7750000D01*
X103500000Y-72000000D02*
X106500000Y-72000000D01*
X100100000Y-106700000D02*
X100100000Y-106150000D01*
X100650000Y-107250000D02*
X100650000Y-106700000D01*
X101200000Y-69300000D02*
X101200000Y-69850000D01*
X101750000Y-70400000D02*
X102300000Y-70400000D01*
X103400000Y-72050000D02*
X103500000Y-72000000D01*
X100650000Y-67650000D02*
X100650000Y-69300000D01*
X106500000Y-72000000D02*
X108500000Y-74000000D01*
X64350000Y-33000000D02*
X62700000Y-33000000D01*
X101750000Y-69850000D02*
X101750000Y-70400000D01*
X102850000Y-71500000D02*
X103400000Y-71500000D01*
X102300000Y-70950000D02*
X102850000Y-70950000D01*
X100100000Y-106150000D02*
X94050000Y-106150000D01*
%TO.N,/mix_svf/WOTA_P*%
D20*
X79200000Y-70950000D02*
X79750000Y-70950000D01*
X106150000Y-40150000D02*
X109450000Y-43450000D01*
X71500000Y-75900000D02*
X74250000Y-73150000D01*
X74250000Y-73150000D02*
X77000000Y-73150000D01*
X95700000Y-63250000D02*
X90200000Y-68750000D01*
X109450000Y-43450000D02*
X109450000Y-44000000D01*
X109450000Y-44000000D02*
X110000000Y-44550000D01*
X77000000Y-73150000D02*
X79200000Y-70950000D01*
X110000000Y-44550000D02*
X95700000Y-58850000D01*
X95700000Y-58850000D02*
X95700000Y-63250000D01*
%TO.N,VREF*%
X51700000Y-61600000D02*
X51700000Y-61050000D01*
X50600000Y-57750000D02*
X52800000Y-55550000D01*
X100100000Y-63250000D02*
X97900000Y-65450000D01*
X108350000Y-61050000D02*
X107800000Y-60500000D01*
X51150000Y-60500000D02*
X51150000Y-58300000D01*
X57750000Y-52250000D02*
X57750000Y-51700000D01*
X111100000Y-63250000D02*
X108900000Y-61050000D01*
X51700000Y-61050000D02*
X51150000Y-60500000D01*
X57200000Y-36300000D02*
X64350000Y-43450000D01*
X59400000Y-48400000D02*
X64350000Y-43450000D01*
X56650000Y-54450000D02*
X56650000Y-53350000D01*
X100650000Y-63250000D02*
X100100000Y-63250000D01*
X105050000Y-59950000D02*
X103950000Y-59950000D01*
X58300000Y-51150000D02*
X58300000Y-48950000D01*
X91300000Y-40700000D02*
X94600000Y-40700000D01*
X53350000Y-55550000D02*
X53900000Y-55000000D01*
X51150000Y-58300000D02*
X50600000Y-57750000D01*
X107800000Y-60500000D02*
X105600000Y-60500000D01*
X57200000Y-31350000D02*
X57200000Y-36300000D01*
X52800000Y-55550000D02*
X53350000Y-55550000D01*
X53900000Y-55000000D02*
X56100000Y-55000000D01*
X57750000Y-51700000D02*
X58300000Y-51150000D01*
X105600000Y-60500000D02*
X105050000Y-59950000D01*
X56650000Y-53350000D02*
X57750000Y-52250000D01*
X94600000Y-40700000D02*
X95700000Y-39600000D01*
X56100000Y-55000000D02*
X56650000Y-54450000D01*
X74250000Y-72050000D02*
X76450000Y-72050000D01*
X58850000Y-48400000D02*
X59400000Y-48400000D01*
X97900000Y-65450000D02*
X90750000Y-72600000D01*
X57200000Y-28600000D02*
X57200000Y-31350000D01*
X116600000Y-63250000D02*
X111100000Y-63250000D01*
X108900000Y-61050000D02*
X108350000Y-61050000D01*
X58300000Y-48950000D02*
X58850000Y-48400000D01*
X103950000Y-59950000D02*
X100650000Y-63250000D01*
%TO.N,/output/H60_P*%
X43450000Y-30250000D02*
X39600000Y-34100000D01*
%TO.N,/mcu/STOMP1*%
X66000000Y-99000000D02*
X67250000Y-100250000D01*
X69250000Y-100500000D02*
X69500000Y-100750000D01*
X79750000Y-106700000D02*
X76450000Y-103400000D01*
X68500000Y-100500000D02*
X69250000Y-100500000D01*
X62150000Y-88550000D02*
X62150000Y-94600000D01*
X75900000Y-103400000D02*
X73700000Y-101200000D01*
X101750000Y-112200000D02*
X86900000Y-112200000D01*
X76450000Y-103400000D02*
X75900000Y-103400000D01*
X81400000Y-106700000D02*
X79750000Y-106700000D01*
X62150000Y-94600000D02*
X66000000Y-98450000D01*
X66000000Y-98450000D02*
X66000000Y-99000000D01*
X68250000Y-100250000D02*
X68500000Y-100500000D01*
X86900000Y-112200000D02*
X81400000Y-106700000D01*
X67250000Y-100250000D02*
X68250000Y-100250000D01*
%TO.N,/mcu/PWM_SVFQ*%
X38500000Y-79200000D02*
X39050000Y-79200000D01*
X34100000Y-83600000D02*
X38500000Y-79200000D01*
X45100000Y-74250000D02*
X45650000Y-73700000D01*
X39050000Y-79200000D02*
X44000000Y-74250000D01*
X29150000Y-107800000D02*
X29150000Y-107250000D01*
X45650000Y-73700000D02*
X46750000Y-73700000D01*
X34100000Y-102300000D02*
X34100000Y-83600000D01*
X52250000Y-68200000D02*
X55550000Y-71500000D01*
X44000000Y-74250000D02*
X45100000Y-74250000D01*
X29150000Y-107250000D02*
X34100000Y-102300000D01*
X46750000Y-73700000D02*
X52250000Y-68200000D01*
%TO.N,SVF_Q_CV*%
X47850000Y-66000000D02*
X50050000Y-68200000D01*
X43450000Y-66000000D02*
X47850000Y-66000000D01*
X29700000Y-31350000D02*
X28600000Y-32450000D01*
X58300000Y-22550000D02*
X55000000Y-19250000D01*
X28050000Y-68750000D02*
X37400000Y-68750000D01*
X59950000Y-22550000D02*
X58300000Y-22550000D01*
X39050000Y-70400000D02*
X43450000Y-66000000D01*
X30800000Y-31350000D02*
X29700000Y-31350000D01*
X32450000Y-29700000D02*
X30800000Y-31350000D01*
X81400000Y-42900000D02*
X80300000Y-42900000D01*
X80300000Y-42900000D02*
X59950000Y-22550000D01*
X37400000Y-68750000D02*
X39050000Y-70400000D01*
X28600000Y-32450000D02*
X28600000Y-39050000D01*
X26400000Y-67100000D02*
X28050000Y-68750000D01*
X22550000Y-67100000D02*
X26400000Y-67100000D01*
%TO.N,/output/LP1*%
X20900000Y-56100000D02*
X20900000Y-56650000D01*
X28600000Y-44000000D02*
X28600000Y-48400000D01*
X20900000Y-56650000D02*
X19250000Y-58300000D01*
X28600000Y-48400000D02*
X20900000Y-56100000D01*
%TO.N,/output/LAD_OUT*%
X17500000Y-48250000D02*
X17500000Y-45750000D01*
X17500000Y-45750000D02*
X18500000Y-44750000D01*
X17500000Y-53000000D02*
X17500000Y-48250000D01*
X20500000Y-42750000D02*
X18500000Y-44750000D01*
%TO.N,BYPASS_CV*%
X19800000Y-36300000D02*
X19250000Y-35750000D01*
X29700000Y-19800000D02*
X31350000Y-19800000D01*
X18700000Y-25850000D02*
X22550000Y-22000000D01*
X31350000Y-19800000D02*
X36300000Y-14850000D01*
X19250000Y-35750000D02*
X19250000Y-33550000D01*
X19250000Y-33550000D02*
X18700000Y-33000000D01*
X27500000Y-22000000D02*
X29700000Y-19800000D01*
X22550000Y-22000000D02*
X27500000Y-22000000D01*
X44000000Y-14850000D02*
X46750000Y-12100000D01*
X36300000Y-14850000D02*
X44000000Y-14850000D01*
X18700000Y-33000000D02*
X18700000Y-25850000D01*
%TO.N,/input_dirt/GAIN_SH*%
X99000000Y-32450000D02*
X99000000Y-32500000D01*
X103950000Y-37400000D02*
X99000000Y-32450000D01*
X88750000Y-32250000D02*
X88500000Y-32500000D01*
X87750000Y-31750000D02*
X88500000Y-32500000D01*
X104500000Y-37400000D02*
X103950000Y-37400000D01*
X105600000Y-38500000D02*
X104500000Y-37400000D01*
X84500000Y-34500000D02*
X87250000Y-31750000D01*
X96000000Y-32250000D02*
X88750000Y-32250000D01*
X106700000Y-37950000D02*
X106150000Y-37950000D01*
X87250000Y-31750000D02*
X87750000Y-31750000D01*
X96250000Y-32500000D02*
X96000000Y-32250000D01*
X99000000Y-32500000D02*
X96250000Y-32500000D01*
X106150000Y-37950000D02*
X105600000Y-38500000D01*
%TO.N,/output/H60_M*%
X39600000Y-25850000D02*
X49500000Y-15950000D01*
%TO.N,/mix_svf/QOTA_P*%
X24750000Y-72050000D02*
X35200000Y-72050000D01*
X20900000Y-68200000D02*
X24750000Y-72050000D01*
X13750000Y-68200000D02*
X20900000Y-68200000D01*
%TO.N,/mix_svf/QOTA_M*%
X8250000Y-86350000D02*
X21450000Y-86350000D01*
X21450000Y-86350000D02*
X29150000Y-78650000D01*
X29150000Y-78650000D02*
X30250000Y-78650000D01*
X30250000Y-78650000D02*
X35200000Y-73700000D01*
%TO.N,/mix_svf/SVF_BP*%
X46750000Y-11000000D02*
X44000000Y-13750000D01*
X82500000Y-2750000D02*
X80850000Y-2750000D01*
X18150000Y-28600000D02*
X13200000Y-33550000D01*
X13200000Y-33550000D02*
X13200000Y-48400000D01*
X17600000Y-63250000D02*
X14850000Y-63250000D01*
X80850000Y-2750000D02*
X75350000Y-8250000D01*
X18700000Y-64350000D02*
X17600000Y-63250000D01*
X95700000Y-3850000D02*
X95150000Y-3300000D01*
X52250000Y-6600000D02*
X47850000Y-11000000D01*
X25850000Y-13750000D02*
X25850000Y-18150000D01*
X85250000Y-3300000D02*
X83600000Y-1650000D01*
X12650000Y-48950000D02*
X12650000Y-63800000D01*
X53900000Y-8250000D02*
X52250000Y-6600000D01*
X95150000Y-3300000D02*
X85250000Y-3300000D01*
X44000000Y-13750000D02*
X25850000Y-13750000D01*
X11550000Y-64350000D02*
X9350000Y-66550000D01*
X12100000Y-63800000D02*
X11550000Y-64350000D01*
X105050000Y-10450000D02*
X98450000Y-3850000D01*
X14300000Y-63800000D02*
X12100000Y-63800000D01*
X14850000Y-63250000D02*
X14300000Y-63800000D01*
X88000000Y-80850000D02*
X89100000Y-81950000D01*
X47850000Y-11000000D02*
X46750000Y-11000000D01*
X18150000Y-25850000D02*
X18150000Y-28600000D01*
X83600000Y-1650000D02*
X82500000Y-2750000D01*
X86350000Y-82500000D02*
X88000000Y-80850000D01*
X99550000Y-83050000D02*
X100650000Y-83050000D01*
X98450000Y-3850000D02*
X95700000Y-3850000D01*
X19800000Y-63800000D02*
X19250000Y-64350000D01*
X98450000Y-81950000D02*
X99550000Y-83050000D01*
X13200000Y-48400000D02*
X12650000Y-48950000D01*
X75350000Y-8250000D02*
X53900000Y-8250000D01*
X22550000Y-63800000D02*
X19800000Y-63800000D01*
X75900000Y-82500000D02*
X86350000Y-82500000D01*
X19250000Y-64350000D02*
X18700000Y-64350000D01*
X89100000Y-81950000D02*
X98450000Y-81950000D01*
X25850000Y-18150000D02*
X18150000Y-25850000D01*
%TO.N,/input_dirt/GAIN_FB*%
X118250000Y-39600000D02*
X115500000Y-36850000D01*
X114950000Y-36850000D02*
X112750000Y-34650000D01*
X115500000Y-36850000D02*
X114950000Y-36850000D01*
X112750000Y-34650000D02*
X108350000Y-34650000D01*
X119900000Y-39600000D02*
X118250000Y-39600000D01*
X108350000Y-34650000D02*
X105600000Y-37400000D01*
%TO.N,/env_cv/RECT_OUT*%
X122650000Y-81950000D02*
X124850000Y-81950000D01*
X124850000Y-81950000D02*
X129250000Y-86350000D01*
%TO.N,/env_cv/CVF1*%
X64900000Y-71500000D02*
X61050000Y-71500000D01*
X61000000Y-45750000D02*
X61050000Y-45650000D01*
X66550000Y-73150000D02*
X64900000Y-71500000D01*
X59250000Y-45750000D02*
X61000000Y-45750000D01*
X57200000Y-75350000D02*
X61050000Y-71500000D01*
X55550000Y-75350000D02*
X57200000Y-75350000D01*
X51150000Y-79750000D02*
X55550000Y-75350000D01*
%TO.N,/mix_svf/MIX_OUT*%
X69850000Y-85800000D02*
X72050000Y-85800000D01*
X76450000Y-96800000D02*
X75350000Y-95700000D01*
X75350000Y-95700000D02*
X75350000Y-90200000D01*
X72050000Y-85800000D02*
X72600000Y-86350000D01*
X75350000Y-90200000D02*
X74250000Y-89100000D01*
X74250000Y-88000000D02*
X72600000Y-86350000D01*
X63250000Y-75900000D02*
X66000000Y-78650000D01*
X66000000Y-78650000D02*
X66000000Y-81950000D01*
X74250000Y-89100000D02*
X74250000Y-88000000D01*
X66000000Y-81950000D02*
X69850000Y-85800000D01*
%TO.N,/mix_svf/MIX_SUM*%
X77000000Y-66250000D02*
X75750000Y-65000000D01*
X74750000Y-65000000D02*
X74800000Y-64900000D01*
X72050000Y-64900000D02*
X74800000Y-64900000D01*
X75750000Y-65000000D02*
X74750000Y-65000000D01*
X71500000Y-64350000D02*
X72050000Y-64900000D01*
%TO.N,/env_cv/CVF2*%
X116050000Y-78100000D02*
X124300000Y-78100000D01*
X115500000Y-78650000D02*
X116050000Y-78100000D01*
X88000000Y-74250000D02*
X90200000Y-76450000D01*
X87450000Y-74250000D02*
X88000000Y-74250000D01*
X84700000Y-71500000D02*
X87450000Y-74250000D01*
X102300000Y-76450000D02*
X104500000Y-78650000D01*
X104500000Y-78650000D02*
X115500000Y-78650000D01*
X84150000Y-71500000D02*
X84700000Y-71500000D01*
X90200000Y-76450000D02*
X102300000Y-76450000D01*
%TO.N,/input_dirt/HP1_OUT*%
X115250000Y-44500000D02*
X116500000Y-44500000D01*
X116500000Y-44500000D02*
X116600000Y-44550000D01*
X112500000Y-41750000D02*
X115250000Y-44500000D01*
%TO.N,/input_dirt/HP2_P*%
X114400000Y-46200000D02*
X118250000Y-46200000D01*
X112750000Y-43450000D02*
X113300000Y-44000000D01*
X112750000Y-42900000D02*
X112750000Y-43450000D01*
X118250000Y-46200000D02*
X121000000Y-43450000D01*
X111100000Y-41250000D02*
X112750000Y-42900000D01*
X111100000Y-38500000D02*
X111100000Y-41250000D01*
X113300000Y-45100000D02*
X114400000Y-46200000D01*
X113300000Y-44000000D02*
X113300000Y-45100000D01*
%TO.N,/input_dirt/TRIM_OUT*%
X122100000Y-41250000D02*
X122650000Y-40700000D01*
X118800000Y-48400000D02*
X118800000Y-46750000D01*
X118250000Y-48950000D02*
X118800000Y-48400000D01*
X118800000Y-46750000D02*
X122100000Y-43450000D01*
X122100000Y-43450000D02*
X122100000Y-41250000D01*
%TO.N,V567_DRIVE*%
X117700000Y-35200000D02*
X119900000Y-37400000D01*
%TO.N,/core567/TC_D*%
X97350000Y-88000000D02*
X91300000Y-88000000D01*
X86350000Y-87450000D02*
X83600000Y-84700000D01*
X91300000Y-88000000D02*
X90750000Y-87450000D01*
X90750000Y-87450000D02*
X86350000Y-87450000D01*
%TO.N,SVF_F_CV*%
X54450000Y-34650000D02*
X53350000Y-35750000D01*
X107800000Y-30250000D02*
X101200000Y-30250000D01*
X49500000Y-62150000D02*
X49500000Y-62700000D01*
X61600000Y-67100000D02*
X62150000Y-67100000D01*
X39050000Y-41800000D02*
X37400000Y-40150000D01*
X41800000Y-39050000D02*
X39050000Y-41800000D01*
X37400000Y-50600000D02*
X42350000Y-55550000D01*
X42900000Y-55550000D02*
X49500000Y-62150000D01*
X89100000Y-34650000D02*
X88550000Y-34100000D01*
X91750000Y-34750000D02*
X90750000Y-35750000D01*
X92000000Y-34750000D02*
X91750000Y-34750000D01*
X52250000Y-35750000D02*
X48950000Y-39050000D01*
X53350000Y-35750000D02*
X52250000Y-35750000D01*
X58850000Y-69850000D02*
X61600000Y-67100000D01*
X49500000Y-62700000D02*
X50050000Y-63250000D01*
X31350000Y-43450000D02*
X33000000Y-43450000D01*
X50050000Y-64900000D02*
X51700000Y-66550000D01*
X89650000Y-34650000D02*
X89100000Y-34650000D01*
X48950000Y-39050000D02*
X41800000Y-39050000D01*
X32450000Y-40150000D02*
X30250000Y-42350000D01*
X90750000Y-35750000D02*
X89650000Y-34650000D01*
X30250000Y-42350000D02*
X31350000Y-43450000D01*
X50050000Y-63250000D02*
X50050000Y-64900000D01*
X37400000Y-40150000D02*
X32450000Y-40150000D01*
X42350000Y-55550000D02*
X42900000Y-55550000D01*
%TO.N,/mix_svf/I1_OUT*%
X51150000Y-50050000D02*
X52250000Y-50050000D01*
X50600000Y-49500000D02*
X51150000Y-50050000D01*
X49500000Y-50600000D02*
X50600000Y-49500000D01*
X48400000Y-50600000D02*
X49500000Y-50600000D01*
%TO.N,/output/BOTA_P*%
X65450000Y-45650000D02*
X65450000Y-47300000D01*
X74800000Y-50050000D02*
X73150000Y-48400000D01*
X67650000Y-43450000D02*
X65450000Y-45650000D01*
X72600000Y-48400000D02*
X67650000Y-43450000D01*
X65450000Y-47300000D02*
X56650000Y-56100000D01*
X77550000Y-50050000D02*
X74800000Y-50050000D01*
X73150000Y-48400000D02*
X72600000Y-48400000D01*
%TO.N,/env_cv/CVD0*%
X42350000Y-26950000D02*
X57200000Y-26950000D01*
X62700000Y-61050000D02*
X58850000Y-64900000D01*
X61600000Y-36300000D02*
X70400000Y-45100000D01*
X57200000Y-26950000D02*
X62150000Y-31900000D01*
X76450000Y-46750000D02*
X75900000Y-47300000D01*
X75900000Y-47300000D02*
X72600000Y-47300000D01*
X72600000Y-47300000D02*
X70400000Y-45100000D01*
X77550000Y-47850000D02*
X76450000Y-46750000D01*
X62150000Y-31900000D02*
X61600000Y-32450000D01*
X79750000Y-47850000D02*
X77550000Y-47850000D01*
X61600000Y-32450000D02*
X61600000Y-36300000D01*
%TO.N,/env_cv/CVO_FB*%
X117700000Y-75350000D02*
X115500000Y-77550000D01*
X124850000Y-75350000D02*
X117700000Y-75350000D01*
%TO.N,/output/OUT_AC*%
X22750000Y-64500000D02*
X23500000Y-63750000D01*
X17050000Y-53900000D02*
X17050000Y-57200000D01*
X15950000Y-40150000D02*
X15950000Y-52800000D01*
X22000000Y-64500000D02*
X22750000Y-64500000D01*
X17050000Y-57200000D02*
X23650000Y-63800000D01*
X15950000Y-52800000D02*
X17050000Y-53900000D01*
X20500000Y-66000000D02*
X22000000Y-64500000D01*
X28000000Y-59500000D02*
X23750000Y-63750000D01*
X23500000Y-63750000D02*
X23750000Y-63750000D01*
X23750000Y-63750000D02*
X23650000Y-63800000D01*
X28050000Y-59400000D02*
X28000000Y-59500000D01*
%TO.N,/mix_svf/FMODE_A_S*%
X90750000Y-88000000D02*
X79200000Y-88000000D01*
X94600000Y-88550000D02*
X91300000Y-88550000D01*
X124850000Y-91850000D02*
X97900000Y-91850000D01*
X91300000Y-88550000D02*
X90750000Y-88000000D01*
X126500000Y-93500000D02*
X124850000Y-91850000D01*
X97900000Y-91850000D02*
X94600000Y-88550000D01*
%TO.N,/input_dirt/IN_A*%
X123250000Y-37000000D02*
X123250000Y-32000000D01*
X123500000Y-37250000D02*
X123250000Y-37000000D01*
%TO.N,/power/QBASE*%
X37950000Y-17050000D02*
X37400000Y-17050000D01*
X48950000Y-38500000D02*
X48400000Y-37950000D01*
X37400000Y-17050000D02*
X36300000Y-15950000D01*
X56100000Y-28600000D02*
X56100000Y-31350000D01*
X34100000Y-23100000D02*
X39050000Y-18150000D01*
X40700000Y-36850000D02*
X40700000Y-36300000D01*
X61050000Y-31350000D02*
X57200000Y-27500000D01*
X56100000Y-31350000D02*
X48950000Y-38500000D01*
X38500000Y-34100000D02*
X38500000Y-27500000D01*
X57200000Y-27500000D02*
X56100000Y-28600000D01*
X47850000Y-37950000D02*
X46750000Y-36850000D01*
X61050000Y-31900000D02*
X61050000Y-31350000D01*
X39600000Y-18700000D02*
X37950000Y-17050000D01*
X46750000Y-36850000D02*
X40700000Y-36850000D01*
X40700000Y-36300000D02*
X38500000Y-34100000D01*
X39500000Y-18750000D02*
X39600000Y-18700000D01*
X38500000Y-27500000D02*
X34100000Y-23100000D01*
X36250000Y-16000000D02*
X36300000Y-15950000D01*
X48400000Y-37950000D02*
X47850000Y-37950000D01*
%TO.N,FREQ_B*%
X70000000Y-90750000D02*
X69500000Y-90250000D01*
X69500000Y-90250000D02*
X68500000Y-90250000D01*
X68500000Y-90250000D02*
X68000000Y-89750000D01*
X72750000Y-90750000D02*
X70000000Y-90750000D01*
%TO.N,/core567/Q3_B*%
X83000000Y-80250000D02*
X83050000Y-80300000D01*
X97900000Y-80300000D02*
X83050000Y-80300000D01*
%TO.N,OUT_TIP*%
X30250000Y-27500000D02*
X17600000Y-40150000D01*
X30250000Y-24200000D02*
X30250000Y-27500000D01*
%TO.N,/power/VPROT*%
X55500000Y-12000000D02*
X55550000Y-12100000D01*
X61050000Y-17600000D02*
X61000000Y-17500000D01*
X61000000Y-17500000D02*
X55500000Y-12000000D01*
%TO.N,/env_cv/CVD1*%
X13750000Y-56650000D02*
X14850000Y-55550000D01*
X14850000Y-40150000D02*
X16500000Y-38500000D01*
X14850000Y-55550000D02*
X14850000Y-40150000D01*
X13750000Y-57750000D02*
X13750000Y-56650000D01*
%TO.N,3V3*%
X78650000Y-38500000D02*
X81950000Y-41800000D01*
X69000000Y-27000000D02*
X69250000Y-27000000D01*
X81950000Y-42350000D02*
X84150000Y-44550000D01*
X84150000Y-44550000D02*
X73150000Y-55550000D01*
X69250000Y-27000000D02*
X69300000Y-26950000D01*
X72600000Y-26950000D02*
X75900000Y-30250000D01*
X75900000Y-30250000D02*
X76450000Y-30250000D01*
X81950000Y-41800000D02*
X81950000Y-42350000D01*
X53750000Y-11750000D02*
X69000000Y-27000000D01*
X69300000Y-26950000D02*
X72600000Y-26950000D01*
X76450000Y-30250000D02*
X78650000Y-32450000D01*
X78650000Y-32450000D02*
X78650000Y-38500000D01*
%TO.N,/core567/V567_MID*%
X86250000Y-54000000D02*
X86350000Y-53900000D01*
X85000000Y-55250000D02*
X83750000Y-55250000D01*
X87500000Y-52750000D02*
X86250000Y-54000000D01*
X88000000Y-52800000D02*
X87450000Y-52800000D01*
X86250000Y-54000000D02*
X85000000Y-55250000D01*
X81400000Y-48950000D02*
X86350000Y-53900000D01*
X87450000Y-52800000D02*
X87500000Y-52750000D01*
%TO.N,Q_OUT*%
X98450000Y-4950000D02*
X98450000Y-31350000D01*
%TO.N,LOCK_SENSE*%
X103750000Y-41750000D02*
X95500000Y-41750000D01*
X91300000Y-46750000D02*
X94600000Y-43450000D01*
X95500000Y-41750000D02*
X95000000Y-42250000D01*
X107250000Y-38250000D02*
X103750000Y-41750000D01*
X91300000Y-50600000D02*
X91300000Y-46750000D01*
X94600000Y-43450000D02*
X94600000Y-42350000D01*
X107500000Y-36750000D02*
X107250000Y-37000000D01*
X108500000Y-36250000D02*
X108000000Y-36750000D01*
X94500000Y-42250000D02*
X94600000Y-42350000D01*
X107250000Y-37000000D02*
X107250000Y-38250000D01*
X108000000Y-36750000D02*
X107500000Y-36750000D01*
X95000000Y-42250000D02*
X94500000Y-42250000D01*
%TO.N,/output/BYP_IABC*%
X40700000Y-55000000D02*
X23100000Y-37400000D01*
X40700000Y-55550000D02*
X40700000Y-55000000D01*
%TO.N,/env_cv/FW_N*%
X125950000Y-67650000D02*
X122650000Y-70950000D01*
%TO.N,/env_cv/FW_A*%
X121550000Y-74250000D02*
X124850000Y-70950000D01*
%TO.N,/mcu/TRIM_HO*%
X115500000Y-99550000D02*
X115500000Y-110000000D01*
X114400000Y-98450000D02*
X115500000Y-99550000D01*
X107250000Y-98450000D02*
X114400000Y-98450000D01*
%TO.N,V567*%
D21*
X87500000Y-32500000D02*
X87500000Y-35000000D01*
X94500000Y-51750000D02*
X87250000Y-51750000D01*
X87500000Y-35000000D02*
X82250000Y-40250000D01*
X87450000Y-32450000D02*
X87500000Y-32500000D01*
X94600000Y-51700000D02*
X94500000Y-51750000D01*
%TO.N,/power/VREF_RAW*%
D20*
X49500000Y-35750000D02*
X49500000Y-29000000D01*
X36250000Y-23000000D02*
X36300000Y-23100000D01*
X49500000Y-29000000D02*
X50000000Y-28500000D01*
X50050000Y-28600000D02*
X41250000Y-28600000D01*
X50000000Y-28500000D02*
X50050000Y-28600000D01*
X38500000Y-25300000D02*
X36300000Y-23100000D01*
X36300000Y-23100000D02*
X43450000Y-15950000D01*
X41250000Y-28600000D02*
X38500000Y-25850000D01*
X38500000Y-25850000D02*
X38500000Y-25300000D01*
%TO.N,/mcu/PWM_BYP*%
X36850000Y-107800000D02*
X36850000Y-98450000D01*
X36850000Y-98450000D02*
X35750000Y-97350000D01*
X13750000Y-48950000D02*
X13750000Y-36850000D01*
X13750000Y-36850000D02*
X14850000Y-35750000D01*
X14850000Y-35750000D02*
X14850000Y-35200000D01*
%TO.N,/mix_svf/SVF_HP*%
X79200000Y-89100000D02*
X81400000Y-89100000D01*
X76450000Y-86900000D02*
X77000000Y-86900000D01*
X77000000Y-86900000D02*
X79200000Y-89100000D01*
X70400000Y-57200000D02*
X70400000Y-80300000D01*
X86900000Y-94600000D02*
X105050000Y-94600000D01*
X73700000Y-84150000D02*
X75900000Y-86350000D01*
X73700000Y-83600000D02*
X73700000Y-84150000D01*
X67650000Y-54450000D02*
X70400000Y-57200000D01*
X70400000Y-80300000D02*
X73700000Y-83600000D01*
X81400000Y-89100000D02*
X86900000Y-94600000D01*
X75900000Y-86350000D02*
X76450000Y-86900000D01*
X67650000Y-45650000D02*
X67650000Y-54450000D01*
%TO.N,/mix_svf/I1_P*%
X98450000Y-60500000D02*
X97350000Y-61600000D01*
X78650000Y-24200000D02*
X79750000Y-25300000D01*
X110000000Y-44000000D02*
X110550000Y-44550000D01*
X26950000Y-31900000D02*
X28600000Y-31900000D01*
X107800000Y-37400000D02*
X107800000Y-41250000D01*
X73150000Y-23650000D02*
X73700000Y-24200000D01*
X97350000Y-61600000D02*
X97350000Y-62150000D01*
X32450000Y-28600000D02*
X39600000Y-35750000D01*
X110550000Y-44550000D02*
X98450000Y-56650000D01*
X95700000Y-29150000D02*
X97350000Y-29150000D01*
X39600000Y-35750000D02*
X39600000Y-36300000D01*
X50600000Y-34100000D02*
X53350000Y-31350000D01*
X91850000Y-25300000D02*
X95700000Y-29150000D01*
X98450000Y-56650000D02*
X98450000Y-60500000D01*
X53350000Y-31350000D02*
X53350000Y-30250000D01*
X107800000Y-41250000D02*
X110000000Y-43450000D01*
X50050000Y-34100000D02*
X50600000Y-34100000D01*
X28600000Y-31900000D02*
X29700000Y-30800000D01*
X79750000Y-25300000D02*
X91850000Y-25300000D01*
X30250000Y-30800000D02*
X32450000Y-28600000D01*
X110000000Y-43450000D02*
X110000000Y-44000000D01*
X53350000Y-30250000D02*
X54450000Y-29150000D01*
X29700000Y-30800000D02*
X30250000Y-30800000D01*
X73700000Y-24200000D02*
X78650000Y-24200000D01*
%TO.N,MIX_WET_CV*%
X64900000Y-44550000D02*
X64900000Y-44000000D01*
X64900000Y-40700000D02*
X63250000Y-39050000D01*
X89650000Y-53900000D02*
X85250000Y-58300000D01*
X81950000Y-31900000D02*
X86350000Y-31900000D01*
X65450000Y-43450000D02*
X64900000Y-42900000D01*
X85250000Y-58300000D02*
X81950000Y-58300000D01*
X86350000Y-31900000D02*
X87450000Y-30800000D01*
X64900000Y-44000000D02*
X65450000Y-43450000D01*
X89100000Y-30800000D02*
X89650000Y-30250000D01*
X87450000Y-30800000D02*
X89100000Y-30800000D01*
X89650000Y-35750000D02*
X89650000Y-49500000D01*
X64900000Y-42900000D02*
X64900000Y-40700000D01*
%TO.N,/mix_svf/WET_IABC*%
X67100000Y-59400000D02*
X69300000Y-57200000D01*
%TO.N,/env_cv/FW_IN*%
X126500000Y-68200000D02*
X127050000Y-67650000D01*
X122100000Y-70400000D02*
X125950000Y-66550000D01*
X124750000Y-76500000D02*
X124850000Y-76450000D01*
X125950000Y-66550000D02*
X126500000Y-67100000D01*
X124850000Y-76450000D02*
X125950000Y-75350000D01*
X123000000Y-76000000D02*
X124250000Y-76000000D01*
X127050000Y-67650000D02*
X127050000Y-67100000D01*
X125950000Y-75350000D02*
X125950000Y-70400000D01*
X114950000Y-64350000D02*
X121000000Y-70400000D01*
X114400000Y-64350000D02*
X114950000Y-64350000D01*
X125950000Y-70400000D02*
X126500000Y-69850000D01*
X126500000Y-69850000D02*
X126500000Y-68200000D01*
X124250000Y-76000000D02*
X124750000Y-76500000D01*
X121000000Y-70400000D02*
X122100000Y-70400000D01*
X126500000Y-67100000D02*
X128150000Y-67100000D01*
%TO.N,/mcu/PWM_MIXD*%
X41800000Y-11550000D02*
X45650000Y-11550000D01*
X24200000Y-19250000D02*
X24200000Y-14850000D01*
X17600000Y-25850000D02*
X24200000Y-19250000D01*
X89650000Y-52800000D02*
X85800000Y-56650000D01*
X40150000Y-13200000D02*
X41800000Y-11550000D01*
X47850000Y-10450000D02*
X52250000Y-6050000D01*
X105050000Y-44550000D02*
X100100000Y-49500000D01*
X85800000Y-56650000D02*
X82500000Y-56650000D01*
X14850000Y-29700000D02*
X17600000Y-26950000D01*
X45650000Y-11550000D02*
X46750000Y-10450000D01*
X53350000Y-7150000D02*
X62150000Y-7150000D01*
X46750000Y-10450000D02*
X47850000Y-10450000D01*
X99550000Y-49500000D02*
X96250000Y-52800000D01*
X100100000Y-49500000D02*
X99550000Y-49500000D01*
X96250000Y-52800000D02*
X89650000Y-52800000D01*
X52250000Y-6050000D02*
X53350000Y-7150000D01*
X12100000Y-40700000D02*
X12650000Y-40150000D01*
X25850000Y-13200000D02*
X40150000Y-13200000D01*
X14850000Y-31350000D02*
X14850000Y-29700000D01*
X17600000Y-26950000D02*
X17600000Y-25850000D01*
X12650000Y-40150000D02*
X12650000Y-33550000D01*
X24200000Y-14850000D02*
X25850000Y-13200000D01*
X12650000Y-33550000D02*
X14850000Y-31350000D01*
%TO.N,MIX_DRY_CV*%
X89100000Y-68750000D02*
X89100000Y-68200000D01*
X89100000Y-68200000D02*
X78100000Y-57200000D01*
X81400000Y-56100000D02*
X79200000Y-58300000D01*
X90750000Y-69850000D02*
X90200000Y-69850000D01*
X90200000Y-69850000D02*
X89100000Y-68750000D01*
X92950000Y-20350000D02*
X92950000Y-22550000D01*
X84700000Y-53350000D02*
X81950000Y-56100000D01*
X81950000Y-56100000D02*
X81400000Y-56100000D01*
X94600000Y-17050000D02*
X94600000Y-18700000D01*
X94600000Y-18700000D02*
X92950000Y-20350000D01*
%TO.N,/mix_svf/WOTA_M*%
X69000000Y-64750000D02*
X69750000Y-65500000D01*
X68750000Y-64000000D02*
X69000000Y-64250000D01*
X69750000Y-65500000D02*
X69750000Y-65750000D01*
X69000000Y-64250000D02*
X69000000Y-64750000D01*
%TO.N,/mcu/PICO_VSYS*%
X36300000Y-85800000D02*
X42900000Y-85800000D01*
%TO.N,GATE_VOL_CV*%
X66550000Y-48400000D02*
X56650000Y-58300000D01*
X56650000Y-66550000D02*
X56650000Y-58300000D01*
X73150000Y-50050000D02*
X67650000Y-44550000D01*
X66550000Y-45650000D02*
X66550000Y-48400000D01*
X67650000Y-44550000D02*
X66550000Y-45650000D01*
%TO.N,/mcu/PWM_MIXW*%
X45100000Y-73150000D02*
X45650000Y-72600000D01*
X43450000Y-73700000D02*
X44000000Y-73150000D01*
X37400000Y-74250000D02*
X39600000Y-74250000D01*
X21450000Y-95700000D02*
X21450000Y-92400000D01*
X44000000Y-73150000D02*
X45100000Y-73150000D01*
X17600000Y-102300000D02*
X18150000Y-101750000D01*
X58300000Y-68750000D02*
X59950000Y-67100000D01*
X39600000Y-74250000D02*
X40150000Y-73700000D01*
X40150000Y-73700000D02*
X43450000Y-73700000D01*
X59950000Y-66000000D02*
X62150000Y-63800000D01*
X45650000Y-72600000D02*
X46750000Y-72600000D01*
X31900000Y-81950000D02*
X31900000Y-78650000D01*
X31900000Y-78650000D02*
X33000000Y-78650000D01*
X46750000Y-72600000D02*
X52250000Y-67100000D01*
X18150000Y-99000000D02*
X21450000Y-95700000D01*
X21450000Y-92400000D02*
X31900000Y-81950000D01*
X33000000Y-78650000D02*
X37400000Y-74250000D01*
X59950000Y-67100000D02*
X59950000Y-66000000D01*
X52250000Y-67100000D02*
X53900000Y-68750000D01*
X18150000Y-101750000D02*
X18150000Y-99000000D01*
X53900000Y-68750000D02*
X54450000Y-68750000D01*
%TO.N,/mix_svf/F_IABC1*%
X101750000Y-23650000D02*
X105050000Y-26950000D01*
X106150000Y-26950000D02*
X109450000Y-30250000D01*
X105050000Y-26950000D02*
X106150000Y-26950000D01*
X109450000Y-30250000D02*
X110550000Y-30250000D01*
%TO.N,/mcu/ADC_MUXED*%
X61600000Y-84700000D02*
X61500000Y-84750000D01*
X61500000Y-84750000D02*
X40250000Y-84750000D01*
%TO.N,+5V*%
D21*
X84500000Y-24250000D02*
X79500000Y-24250000D01*
X73500000Y-23000000D02*
X70000000Y-23000000D01*
X70000000Y-23000000D02*
X69250000Y-23750000D01*
X74250000Y-23750000D02*
X73500000Y-23000000D01*
X79500000Y-24250000D02*
X79000000Y-23750000D01*
X79000000Y-23750000D02*
X74250000Y-23750000D01*
%TO.N,/mix_svf/I2_OUT*%
D20*
X50600000Y-53350000D02*
X50600000Y-56100000D01*
X50600000Y-50600000D02*
X50600000Y-53350000D01*
X50600000Y-56100000D02*
X49500000Y-57200000D01*
%TO.N,/output/OB_FB*%
X25300000Y-59400000D02*
X22000000Y-56100000D01*
%TO.N,/mix_svf/I2_P*%
X47250000Y-46250000D02*
X47300000Y-46200000D01*
X42900000Y-41250000D02*
X41800000Y-41250000D01*
X41800000Y-41250000D02*
X40700000Y-42350000D01*
X47300000Y-46200000D02*
X47300000Y-44550000D01*
X48000000Y-47000000D02*
X47250000Y-46250000D01*
X47300000Y-44550000D02*
X43450000Y-40700000D01*
X40700000Y-42350000D02*
X31350000Y-42350000D01*
X43450000Y-40700000D02*
X42900000Y-41250000D01*
%TO.N,/core567/OTA2_INP*%
X85800000Y-61050000D02*
X88550000Y-61050000D01*
X88550000Y-61050000D02*
X91850000Y-64350000D01*
%TO.N,/core567/OTA2_INM*%
X90750000Y-67100000D02*
X92400000Y-65450000D01*
%TO.N,/output/BOTA_M*%
X42350000Y-58850000D02*
X44000000Y-58850000D01*
X44000000Y-58850000D02*
X44550000Y-59400000D01*
X44550000Y-59400000D02*
X45650000Y-59400000D01*
X45650000Y-59400000D02*
X47850000Y-61600000D01*
%TO.N,/output/LAD_IN*%
X35750000Y-37950000D02*
X35200000Y-37400000D01*
X39000000Y-40750000D02*
X36250000Y-38000000D01*
X36250000Y-38000000D02*
X36300000Y-37950000D01*
X34650000Y-37400000D02*
X32450000Y-35200000D01*
X35200000Y-37400000D02*
X34650000Y-37400000D01*
X29700000Y-32450000D02*
X32450000Y-35200000D01*
X36300000Y-37950000D02*
X35750000Y-37950000D01*
%TO.N,/mix_svf/SVF_SUM*%
X65450000Y-99550000D02*
X68200000Y-102300000D01*
X8250000Y-70400000D02*
X6600000Y-72050000D01*
X6600000Y-77550000D02*
X7150000Y-78100000D01*
X7150000Y-86350000D02*
X12100000Y-91300000D01*
X62700000Y-100100000D02*
X64900000Y-100100000D01*
X6600000Y-35200000D02*
X6600000Y-50600000D01*
X62150000Y-99550000D02*
X62700000Y-100100000D01*
X111650000Y-84150000D02*
X114400000Y-81400000D01*
X37950000Y-12650000D02*
X25850000Y-12650000D01*
X12100000Y-33550000D02*
X12100000Y-39600000D01*
X6600000Y-63800000D02*
X6600000Y-77550000D01*
X65250000Y-53250000D02*
X63000000Y-55500000D01*
X61600000Y-85800000D02*
X56650000Y-85800000D01*
X7150000Y-78100000D02*
X7150000Y-86900000D01*
X23650000Y-19250000D02*
X17050000Y-25850000D01*
X14300000Y-29700000D02*
X14300000Y-31350000D01*
X62700000Y-84700000D02*
X61600000Y-85800000D01*
X25850000Y-12650000D02*
X23650000Y-14850000D01*
X12100000Y-29150000D02*
X12100000Y-29700000D01*
X62500000Y-79000000D02*
X62750000Y-79250000D01*
X44550000Y-6050000D02*
X37950000Y-12650000D01*
X12100000Y-29700000D02*
X6600000Y-35200000D01*
X64900000Y-99550000D02*
X65450000Y-99550000D01*
X62750000Y-79250000D02*
X62700000Y-79200000D01*
X7150000Y-78650000D02*
X7150000Y-86350000D01*
X65750000Y-50250000D02*
X65750000Y-50500000D01*
X44550000Y-95700000D02*
X52800000Y-87450000D01*
X65250000Y-51000000D02*
X65250000Y-53250000D01*
X8250000Y-59400000D02*
X8250000Y-70400000D01*
X5500000Y-51700000D02*
X5500000Y-62700000D01*
X65450000Y-100650000D02*
X66000000Y-100650000D01*
X68200000Y-102300000D02*
X73700000Y-102300000D01*
X64000000Y-74250000D02*
X62500000Y-75750000D01*
X62700000Y-79200000D02*
X63800000Y-80300000D01*
X63800000Y-80300000D02*
X63800000Y-95150000D01*
X66000000Y-100650000D02*
X67650000Y-102300000D01*
X62700000Y-79200000D02*
X62700000Y-84700000D01*
X14300000Y-31350000D02*
X12100000Y-33550000D01*
X9350000Y-50050000D02*
X9350000Y-58300000D01*
X53900000Y-88550000D02*
X64900000Y-99550000D01*
X6600000Y-78100000D02*
X7150000Y-78650000D01*
X23650000Y-14850000D02*
X23650000Y-19250000D01*
X56650000Y-85800000D02*
X53900000Y-88550000D01*
X67650000Y-102300000D02*
X73700000Y-102300000D01*
X5500000Y-62700000D02*
X6600000Y-63800000D01*
X17050000Y-26950000D02*
X14300000Y-29700000D01*
X58300000Y-97900000D02*
X59950000Y-97900000D01*
X64900000Y-100100000D02*
X65450000Y-100650000D01*
X59950000Y-97900000D02*
X61600000Y-99550000D01*
X73700000Y-102300000D02*
X75900000Y-104500000D01*
X11000000Y-48400000D02*
X9350000Y-50050000D01*
X62500000Y-75750000D02*
X62500000Y-79000000D01*
X61600000Y-99550000D02*
X62150000Y-99550000D01*
X52800000Y-87450000D02*
X53900000Y-88550000D01*
X6600000Y-72050000D02*
X6600000Y-78100000D01*
X25850000Y-12650000D02*
X25300000Y-13200000D01*
X65750000Y-50500000D02*
X65250000Y-51000000D01*
X9350000Y-58300000D02*
X8250000Y-59400000D01*
X7150000Y-86900000D02*
X11550000Y-91300000D01*
X25300000Y-13200000D02*
X24750000Y-13200000D01*
X11000000Y-40700000D02*
X11000000Y-48400000D01*
X6600000Y-50600000D02*
X5500000Y-51700000D01*
X17050000Y-25850000D02*
X17050000Y-26950000D01*
X12100000Y-39600000D02*
X11000000Y-40700000D01*
X24750000Y-13200000D02*
X20900000Y-17050000D01*
%TO.N,/mcu/TRIM_TH*%
X96250000Y-107800000D02*
X99550000Y-111100000D01*
X99550000Y-111100000D02*
X106150000Y-111100000D01*
X88550000Y-102850000D02*
X89650000Y-103950000D01*
X89650000Y-103950000D02*
X90200000Y-103950000D01*
X94050000Y-107800000D02*
X96250000Y-107800000D01*
X90200000Y-103950000D02*
X94050000Y-107800000D01*
%TO.N,/env_cv/ENV_C*%
X132550000Y-89650000D02*
X130350000Y-89650000D01*
%TO.N,/mix_svf/FMODE_B_S*%
X77500000Y-89250000D02*
X76000000Y-89250000D01*
X101750000Y-107000000D02*
X99750000Y-105000000D01*
X94750000Y-98500000D02*
X94750000Y-97250000D01*
X98250000Y-102750000D02*
X98000000Y-102500000D01*
X76000000Y-89250000D02*
X75500000Y-88750000D01*
X102300000Y-107800000D02*
X102850000Y-107800000D01*
X99750000Y-105000000D02*
X99750000Y-103500000D01*
X94250000Y-96750000D02*
X85500000Y-96750000D01*
X97250000Y-101000000D02*
X94750000Y-98500000D01*
X97750000Y-102500000D02*
X97250000Y-102000000D01*
X101750000Y-107250000D02*
X101750000Y-107000000D01*
X69300000Y-78100000D02*
X69300000Y-81950000D01*
X98000000Y-102500000D02*
X97750000Y-102500000D01*
X69250000Y-82000000D02*
X69300000Y-81950000D01*
X85500000Y-96750000D02*
X85250000Y-97000000D01*
X94750000Y-97250000D02*
X94250000Y-96750000D01*
X102250000Y-107750000D02*
X101750000Y-107250000D01*
X97250000Y-102000000D02*
X97250000Y-101000000D01*
X85250000Y-97000000D02*
X77500000Y-89250000D01*
X75500000Y-88750000D02*
X75500000Y-88250000D01*
X99750000Y-103500000D02*
X99000000Y-102750000D01*
X75500000Y-88250000D02*
X69250000Y-82000000D01*
X102300000Y-107800000D02*
X102250000Y-107750000D01*
X99000000Y-102750000D02*
X98250000Y-102750000D01*
%TO.N,/mix_svf/SVF_NOTCH*%
X13200000Y-3850000D02*
X13200000Y-31900000D01*
X69850000Y-35200000D02*
X53900000Y-19250000D01*
X8800000Y-58300000D02*
X7700000Y-59400000D01*
X11550000Y-33550000D02*
X11550000Y-39600000D01*
X8800000Y-50050000D02*
X8800000Y-58300000D01*
X13200000Y-31900000D02*
X11550000Y-33550000D01*
X7700000Y-59400000D02*
X7700000Y-61050000D01*
X15950000Y-97900000D02*
X17050000Y-96800000D01*
X10450000Y-48400000D02*
X8800000Y-50050000D01*
X11550000Y-39600000D02*
X10450000Y-40700000D01*
X53900000Y-19250000D02*
X54450000Y-18700000D01*
X40150000Y-97350000D02*
X51700000Y-85800000D01*
X17050000Y-96800000D02*
X18700000Y-96800000D01*
X10450000Y-40700000D02*
X10450000Y-48400000D01*
X69850000Y-38500000D02*
X69850000Y-35200000D01*
X7700000Y-61050000D02*
X6600000Y-62150000D01*
X54450000Y-18700000D02*
X54450000Y-18150000D01*
%TO.N,FILT_OUT*%
X62150000Y-58300000D02*
X68200000Y-64350000D01*
X62150000Y-53900000D02*
X62150000Y-58300000D01*
X68200000Y-83050000D02*
X69300000Y-84150000D01*
X68200000Y-64350000D02*
X68200000Y-83050000D01*
%TO.N,/mix_svf/SVF_LP*%
X42900000Y-61050000D02*
X44000000Y-59950000D01*
X33550000Y-61600000D02*
X34100000Y-61050000D01*
X34100000Y-61050000D02*
X42900000Y-61050000D01*
%TO.N,/input_dirt/HP1_M*%
X119350000Y-50050000D02*
X119900000Y-49500000D01*
X122100000Y-49500000D02*
X122650000Y-48950000D01*
X115750000Y-50000000D02*
X119250000Y-50000000D01*
X122650000Y-48950000D02*
X125950000Y-45650000D01*
X119250000Y-50000000D02*
X119350000Y-50050000D01*
X119900000Y-49500000D02*
X122100000Y-49500000D01*
%TO.N,/mcu/FREQ_F1*%
X80300000Y-41250000D02*
X79750000Y-41250000D01*
X55550000Y-15950000D02*
X55550000Y-14300000D01*
X45100000Y-25850000D02*
X47300000Y-23650000D01*
X55550000Y-14300000D02*
X52250000Y-11000000D01*
X79750000Y-41250000D02*
X55000000Y-16500000D01*
X52250000Y-11000000D02*
X52250000Y-7700000D01*
X47850000Y-23650000D02*
X55550000Y-15950000D01*
X47300000Y-23650000D02*
X47850000Y-23650000D01*
%TO.N,/mcu/POT2_W*%
X98450000Y-99000000D02*
X99000000Y-99000000D01*
X100650000Y-100650000D02*
X101200000Y-101200000D01*
X95700000Y-96250000D02*
X98450000Y-99000000D01*
X99000000Y-99000000D02*
X99550000Y-99550000D01*
X99550000Y-99550000D02*
X100650000Y-99550000D01*
X85250000Y-96250000D02*
X95700000Y-96250000D01*
X100650000Y-99550000D02*
X100650000Y-100650000D01*
%TO.N,/mcu/POT3_W*%
X103950000Y-107800000D02*
X103400000Y-107250000D01*
X103400000Y-107250000D02*
X103400000Y-103950000D01*
X83600000Y-96800000D02*
X94050000Y-107250000D01*
X82500000Y-96800000D02*
X83600000Y-96800000D01*
X101750000Y-108900000D02*
X102850000Y-108900000D01*
X101200000Y-109450000D02*
X101750000Y-108900000D01*
X99000000Y-107250000D02*
X101200000Y-109450000D01*
X102850000Y-108900000D02*
X103950000Y-107800000D01*
X94050000Y-107250000D02*
X99000000Y-107250000D01*
%TO.N,/mcu/POT4_W*%
X85800000Y-95150000D02*
X98450000Y-95150000D01*
X102850000Y-100650000D02*
X103400000Y-101200000D01*
X98450000Y-95150000D02*
X102850000Y-99550000D01*
X102850000Y-99550000D02*
X102850000Y-100650000D01*
%TO.N,/mcu/POT6_W*%
X85800000Y-92400000D02*
X105600000Y-92400000D01*
X106700000Y-93500000D02*
X106150000Y-94050000D01*
X106150000Y-94050000D02*
X106150000Y-101200000D01*
X105600000Y-92400000D02*
X106700000Y-93500000D01*
%TO.N,/mcu/WS_HDR*%
X106700000Y-110000000D02*
X110550000Y-106150000D01*
X110550000Y-106150000D02*
X110550000Y-104500000D01*
X110550000Y-104500000D02*
X111100000Y-103950000D01*
X99550000Y-110000000D02*
X106700000Y-110000000D01*
%TO.N,/mix_svf/NOTCH_SUM*%
X103500000Y-33500000D02*
X103400000Y-33549999D01*
X72600000Y-39600000D02*
X72600000Y-36850000D01*
X90750000Y-30250000D02*
X89650000Y-29150000D01*
X80850000Y-31900000D02*
X81950000Y-33000000D01*
X123750000Y-42350000D02*
X123750000Y-40700000D01*
X103400000Y-33550000D02*
X100100000Y-30250000D01*
X127050000Y-59400000D02*
X127050000Y-45650000D01*
X127600000Y-59950000D02*
X127050000Y-59400000D01*
X122650000Y-39600000D02*
X121000000Y-39600000D01*
X87450000Y-30250000D02*
X86900000Y-30800000D01*
X127050000Y-45650000D02*
X123750000Y-42350000D01*
X128700000Y-88000000D02*
X130350000Y-86350000D01*
X123750000Y-40700000D02*
X122650000Y-39600000D01*
X129250000Y-67100000D02*
X127600000Y-65450000D01*
X112750000Y-33500000D02*
X103500000Y-33500000D01*
X86900000Y-30800000D02*
X81950000Y-30800000D01*
X100100000Y-30250000D02*
X100100000Y-29700000D01*
X13750000Y-66000000D02*
X13200000Y-66000000D01*
X112750000Y-33549999D02*
X112750000Y-33500000D01*
X117700000Y-38500000D02*
X112750000Y-33550000D01*
X96800000Y-30250000D02*
X90750000Y-30250000D01*
X13200000Y-66000000D02*
X9900000Y-69300000D01*
X127600000Y-65450000D02*
X127600000Y-59950000D01*
X88550000Y-30250000D02*
X87450000Y-30250000D01*
X121000000Y-39600000D02*
X119900000Y-38500000D01*
X100100000Y-29700000D02*
X99550000Y-29150000D01*
X72600000Y-36850000D02*
X63250000Y-27500000D01*
X81950000Y-30800000D02*
X80850000Y-31900000D01*
X130350000Y-86350000D02*
X129250000Y-85250000D01*
X89650000Y-29150000D02*
X88550000Y-30250000D01*
X129250000Y-85250000D02*
X129250000Y-67100000D01*
X81950000Y-33000000D02*
X81950000Y-33550000D01*
X119900000Y-38500000D02*
X117700000Y-38500000D01*
X122100000Y-88000000D02*
X128700000Y-88000000D01*
%TO.N,/mcu/PWM_DIRT*%
X45100000Y-73700000D02*
X45650000Y-73150000D01*
X45650000Y-73150000D02*
X46750000Y-73150000D01*
X29150000Y-88550000D02*
X29150000Y-88000000D01*
X39050000Y-78650000D02*
X44000000Y-73700000D01*
X18700000Y-104500000D02*
X18700000Y-99000000D01*
X16500000Y-107800000D02*
X16500000Y-106700000D01*
X52250000Y-67650000D02*
X54450000Y-69850000D01*
X16500000Y-106700000D02*
X18700000Y-104500000D01*
X54450000Y-69850000D02*
X55000000Y-69850000D01*
X18700000Y-99000000D02*
X29150000Y-88550000D01*
X38500000Y-78650000D02*
X39050000Y-78650000D01*
X44000000Y-73700000D02*
X45100000Y-73700000D01*
X29150000Y-88000000D02*
X38500000Y-78650000D01*
X46750000Y-73150000D02*
X52250000Y-67650000D01*
%TO.N,DIRT_CV*%
X53350000Y-61600000D02*
X51150000Y-63800000D01*
X74250000Y-53350000D02*
X74250000Y-50050000D01*
X72050000Y-55550000D02*
X74250000Y-53350000D01*
X76450000Y-59950000D02*
X72050000Y-55550000D01*
X73150000Y-48950000D02*
X72600000Y-48950000D01*
X66000000Y-45650000D02*
X66000000Y-47850000D01*
X50050000Y-62700000D02*
X52250000Y-64900000D01*
X76450000Y-61600000D02*
X76450000Y-59950000D01*
X55550000Y-58300000D02*
X55550000Y-58850000D01*
X49500000Y-42900000D02*
X49500000Y-48400000D01*
X72600000Y-48950000D02*
X67650000Y-44000000D01*
X48400000Y-51700000D02*
X48400000Y-57200000D01*
X55550000Y-58850000D02*
X53350000Y-61050000D01*
X47300000Y-50600000D02*
X48400000Y-51700000D01*
X52250000Y-64900000D02*
X52250000Y-65450000D01*
X53350000Y-61050000D02*
X53350000Y-61600000D01*
X52250000Y-65450000D02*
X56100000Y-69300000D01*
X49500000Y-48400000D02*
X47300000Y-50600000D01*
X74250000Y-50050000D02*
X73150000Y-48950000D01*
X50050000Y-58850000D02*
X50050000Y-62700000D01*
X66000000Y-47850000D02*
X55550000Y-58300000D01*
X67650000Y-44000000D02*
X66000000Y-45650000D01*
X48400000Y-57200000D02*
X50050000Y-58850000D01*
%TO.N,/mix_svf/DOTA_P*%
X81400000Y-68750000D02*
X80850000Y-69300000D01*
X85800000Y-74250000D02*
X73150000Y-61600000D01*
%TO.N,/mix_svf/DRY_IABC*%
X92400000Y-73700000D02*
X90200000Y-75900000D01*
X90200000Y-75900000D02*
X88000000Y-73700000D01*
X88000000Y-73700000D02*
X87450000Y-73700000D01*
X87450000Y-73700000D02*
X73150000Y-59400000D01*
X96250000Y-73700000D02*
X92400000Y-73700000D01*
%TO.N,/mix_svf/I2_M*%
X31900000Y-44000000D02*
X30800000Y-44000000D01*
X47300000Y-49500000D02*
X42900000Y-49500000D01*
X23100000Y-36300000D02*
X20900000Y-38500000D01*
X41800000Y-49500000D02*
X37400000Y-49500000D01*
X42900000Y-49500000D02*
X42350000Y-50050000D01*
X37400000Y-49500000D02*
X31900000Y-44000000D01*
X20900000Y-38500000D02*
X20350000Y-38500000D01*
X42350000Y-50050000D02*
X41800000Y-49500000D01*
X30800000Y-44000000D02*
X23100000Y-36300000D01*
%TO.N,/mix_svf/QFB_OUT*%
X75350000Y-101750000D02*
X73700000Y-100100000D01*
X73700000Y-100100000D02*
X68750000Y-100100000D01*
X68750000Y-100100000D02*
X66550000Y-97900000D01*
X68750000Y-91850000D02*
X67650000Y-91850000D01*
X67650000Y-91850000D02*
X66550000Y-92950000D01*
X66550000Y-92950000D02*
X66550000Y-97900000D01*
%TO.N,/core567/IN567*%
X102850000Y-43450000D02*
X95700000Y-50600000D01*
X108350000Y-43450000D02*
X102850000Y-43450000D01*
%TO.N,/core567/RT_SQ*%
X91300000Y-62700000D02*
X91300000Y-59950000D01*
X84150000Y-61050000D02*
X84700000Y-61050000D01*
X84700000Y-61050000D02*
X85800000Y-59950000D01*
X91300000Y-59950000D02*
X99000000Y-52250000D01*
X85800000Y-59950000D02*
X91300000Y-59950000D01*
%TO.N,/power/BUCK_COMPC*%
X71500000Y-14850000D02*
X69850000Y-14850000D01*
X92950000Y-6600000D02*
X85250000Y-14300000D01*
X85250000Y-14300000D02*
X72050000Y-14300000D01*
X69750000Y-14750000D02*
X69850000Y-14850000D01*
X93500000Y-6600000D02*
X92950000Y-6600000D01*
X72050000Y-14300000D02*
X71500000Y-14850000D01*
%TO.N,/mcu/WS_DATA_5V*%
X86900000Y-111100000D02*
X89100000Y-111100000D01*
%TO.N,/mcu/PWM_FREQ*%
X13750000Y-107800000D02*
X13750000Y-99000000D01*
X13750000Y-99000000D02*
X28050000Y-84700000D01*
X35750000Y-75350000D02*
X37400000Y-73700000D01*
X39050000Y-73700000D02*
X44550000Y-68200000D01*
X35200000Y-75350000D02*
X35750000Y-75350000D01*
X37400000Y-73700000D02*
X39050000Y-73700000D01*
X45650000Y-68200000D02*
X46750000Y-67100000D01*
X44550000Y-68200000D02*
X45650000Y-68200000D01*
%TO.N,/mcu/PWM_STARVE*%
X43450000Y-83050000D02*
X52250000Y-74250000D01*
X39050000Y-89650000D02*
X35200000Y-85800000D01*
X39050000Y-107800000D02*
X39050000Y-89650000D01*
X35200000Y-85800000D02*
X37950000Y-83050000D01*
X37950000Y-83050000D02*
X43450000Y-83050000D01*
%TO.N,STARVE_CV*%
X57200000Y-67100000D02*
X57200000Y-74250000D01*
X57750000Y-62700000D02*
X57750000Y-66550000D01*
X58850000Y-61600000D02*
X57750000Y-62700000D01*
X57750000Y-66550000D02*
X57200000Y-67100000D01*
%TO.N,/mix_svf/F_IABC2*%
X54450000Y-44000000D02*
X52800000Y-45650000D01*
X58850000Y-44000000D02*
X54450000Y-44000000D01*
%TO.N,/output/B6_FB*%
X25850000Y-75350000D02*
X16500000Y-75350000D01*
X34650000Y-58850000D02*
X31900000Y-61600000D01*
X16500000Y-75350000D02*
X13200000Y-78650000D01*
X34650000Y-58300000D02*
X34650000Y-58850000D01*
X31900000Y-62150000D02*
X30250000Y-63800000D01*
X31900000Y-61600000D02*
X31900000Y-62150000D01*
X37400000Y-55550000D02*
X34650000Y-58300000D01*
%TO.N,/power/FLOOR62*%
X45650000Y-20900000D02*
X46750000Y-19800000D01*
X46750000Y-19800000D02*
X50600000Y-19800000D01*
X50600000Y-19800000D02*
X54450000Y-15950000D01*
%TO.N,/input_dirt/DIRT_IABC*%
X89100000Y-74250000D02*
X90200000Y-75350000D01*
X90200000Y-75350000D02*
X98450000Y-67100000D01*
X78100000Y-61600000D02*
X78100000Y-62150000D01*
X100100000Y-67100000D02*
X100650000Y-66550000D01*
X100650000Y-66550000D02*
X103950000Y-66550000D01*
X89100000Y-73150000D02*
X89100000Y-74250000D01*
X98450000Y-67100000D02*
X100100000Y-67100000D01*
X78100000Y-62150000D02*
X89100000Y-73150000D01*
%TO.N,FREQ_A*%
X46750000Y-107800000D02*
X58850000Y-95700000D01*
%TO.N,/core567/Q2_B*%
X88000000Y-86900000D02*
X85250000Y-84150000D01*
X97350000Y-86900000D02*
X88000000Y-86900000D01*
X100100000Y-89650000D02*
X97350000Y-86900000D01*
X101750000Y-89650000D02*
X100100000Y-89650000D01*
%TO.N,/mix_svf/Q6_B*%
X75500000Y-77250000D02*
X77000000Y-78750000D01*
X70400000Y-109450000D02*
X81400000Y-109450000D01*
X77000000Y-78750000D02*
X77500000Y-78750000D01*
X119350000Y-89100000D02*
X118250000Y-88000000D01*
X40150000Y-101750000D02*
X40150000Y-102300000D01*
X106700000Y-88000000D02*
X97900000Y-79200000D01*
X105050000Y-112200000D02*
X106150000Y-112200000D01*
X107250000Y-111100000D02*
X115500000Y-111100000D01*
X116600000Y-110000000D02*
X116600000Y-104500000D01*
X46750000Y-108900000D02*
X69850000Y-108900000D01*
X125950000Y-92400000D02*
X122650000Y-89100000D01*
X118250000Y-88000000D02*
X106700000Y-88000000D01*
X115500000Y-111100000D02*
X116600000Y-110000000D01*
X122650000Y-89100000D02*
X119350000Y-89100000D01*
X106150000Y-112200000D02*
X107250000Y-111100000D01*
X97900000Y-79200000D02*
X83050000Y-79200000D01*
X69850000Y-108900000D02*
X70400000Y-109450000D01*
X116600000Y-104500000D02*
X127600000Y-93500000D01*
X83050000Y-79200000D02*
X82500000Y-78650000D01*
X77500000Y-78750000D02*
X77550000Y-78650000D01*
X126500000Y-92400000D02*
X125950000Y-92400000D01*
X82500000Y-78650000D02*
X77550000Y-78650000D01*
X127600000Y-93500000D02*
X126500000Y-92400000D01*
X40150000Y-102300000D02*
X46750000Y-108900000D01*
%TO.N,/output/GYR_B*%
X48950000Y-41800000D02*
X55550000Y-41800000D01*
X55550000Y-41800000D02*
X56650000Y-42900000D01*
X56650000Y-42900000D02*
X62700000Y-42900000D01*
%TO.N,/mcu/PWM_GATE*%
X34650000Y-107250000D02*
X34650000Y-85800000D01*
X40150000Y-81400000D02*
X52250000Y-69300000D01*
X34650000Y-85800000D02*
X39050000Y-81400000D01*
X39050000Y-81400000D02*
X40150000Y-81400000D01*
%TO.N,/output/GOTA_P*%
X35750000Y-58300000D02*
X32450000Y-61600000D01*
X32450000Y-61600000D02*
X39600000Y-68750000D01*
X39050000Y-69300000D02*
X43450000Y-64900000D01*
%TO.N,FMODE_C*%
X48400000Y-102850000D02*
X50600000Y-102850000D01*
%TO.N,/mcu/WS_DATA_3V3*%
X82500000Y-110550000D02*
X76450000Y-110550000D01*
X83050000Y-110000000D02*
X82500000Y-110550000D01*
%TO.N,/mcu/MUX_S0*%
X64900000Y-98450000D02*
X55000000Y-88550000D01*
%TO.N,/mcu/MUX_S1*%
X60500000Y-96250000D02*
X52800000Y-88550000D01*
%TO.N,/mcu/MUX_S2*%
X89650000Y-101200000D02*
X87450000Y-99000000D01*
X69300000Y-90750000D02*
X66550000Y-90750000D01*
X79200000Y-100650000D02*
X69300000Y-90750000D01*
X85250000Y-100650000D02*
X79200000Y-100650000D01*
%TO.N,/mcu/MUX_S3*%
X85800000Y-102300000D02*
X78100000Y-102300000D01*
X78100000Y-102300000D02*
X68750000Y-92950000D01*
X68750000Y-92950000D02*
X67650000Y-92950000D01*
%TO.N,/output/BELL_OUT*%
X40150000Y-45100000D02*
X37400000Y-47850000D01*
%TO.N,/output/BELL_FB*%
X43500000Y-41750000D02*
X40750000Y-44500000D01*
X38000000Y-46500000D02*
X36750000Y-46500000D01*
X40000000Y-44500000D02*
X38000000Y-46500000D01*
X40750000Y-44500000D02*
X40000000Y-44500000D01*
%TO.N,VA_SENSE*%
X91850000Y-97350000D02*
X88550000Y-97350000D01*
X92950000Y-98450000D02*
X91850000Y-97350000D01*
%TO.N,ENV_ADC*%
X94050000Y-93500000D02*
X87450000Y-93500000D01*
%TD*%
M02*
