M48
; DRILL file KiCad 10.0.4 date 2026-08-02T04:07:59
; FORMAT={-:-/ absolute / metric / decimal}
; #@! TF.CreationDate,2026-08-02T04:07:59-05:00
; #@! TF.GenerationSoftware,Kicad,Pcbnew,10.0.4
; #@! TF.FileFunction,Plated,1,4,PTH
FMAT,2
METRIC
; #@! TA.AperFunction,Plated,PTH,ViaDrill
T1C0.300
; #@! TA.AperFunction,Plated,PTH,ComponentDrill
T2C0.600
; #@! TA.AperFunction,Plated,PTH,ComponentDrill
T3C0.900
; #@! TA.AperFunction,Plated,PTH,ComponentDrill
T4C1.000
; #@! TA.AperFunction,Plated,PTH,ComponentDrill
T5C1.100
%
G90
G05
T1
X5.251Y-67.75
X6.0Y-15.0
X6.0Y-24.0
X6.0Y-33.0
X6.0Y-42.0
X6.0Y-78.0
X6.0Y-87.0
X6.0Y-96.0
X6.486Y-54.946
X6.6Y-52.25
X6.6Y-62.15
X7.7Y-35.75
X8.25Y-86.35
X9.35Y-59.4
X9.35Y-66.55
X9.9Y-69.3
X10.45Y-50.05
X10.45Y-56.65
X11.55Y-64.35
X11.55Y-91.3
X11.55Y-99.55
X12.1Y-29.15
X12.1Y-40.7
X12.1Y-46.2
X12.1Y-91.3
X13.2Y-3.85
X13.2Y-78.65
X13.75Y-48.95
X13.75Y-57.75
X13.75Y-66.0
X13.75Y-68.2
X13.75Y-107.8
X14.3Y-69.85
X14.85Y-35.2
X14.85Y-36.85
X14.85Y-61.05
X15.0Y-6.0
X15.0Y-15.0
X15.0Y-24.0
X15.0Y-60.0
X15.0Y-105.0
X15.95Y-3.85
X15.95Y-29.7
X15.95Y-40.15
X15.95Y-53.9
X15.95Y-58.3
X15.95Y-64.35
X15.95Y-97.9
X16.5Y-38.5
X16.5Y-107.8
X17.05Y-36.3
X17.5Y-48.25
X17.5Y-53.0
X17.6Y-40.15
X17.6Y-102.3
X18.15Y-51.7
X18.15Y-56.65
X18.5Y-44.75
X18.7Y-3.85
X18.7Y-33.0
X18.7Y-96.8
X18.95Y-88.31
X18.95Y-107.69
X19.25Y-58.3
X19.25Y-63.25
X19.75Y-26.0
X19.8Y-36.3
X20.35Y-38.5
X20.5Y-42.75
X20.5Y-66.0
X20.9Y-17.05
X20.967Y-67.155
X21.45Y-48.4
X21.45Y-53.35
X21.45Y-62.7
X21.5Y-58.5
X22.0Y-56.1
X22.55Y-44.55
X22.55Y-50.05
X22.55Y-63.8
X22.55Y-67.1
X22.55Y-82.5
X23.0Y-72.75
X23.1Y-37.4
X23.1Y-60.5
X23.65Y-78.65
X24.0Y-6.0
X24.0Y-33.0
X24.0Y-96.0
X24.75Y-68.2
X24.75Y-105.6
X25.3Y-59.4
X25.3Y-78.65
X25.3Y-96.25
X25.85Y-36.3
X25.85Y-75.35
X26.4Y-68.2
X26.95Y-31.9
X26.95Y-64.9
X26.95Y-107.25
X28.05Y-59.4
X28.05Y-84.7
X28.05Y-88.55
X28.6Y-39.05
X28.6Y-44.0
X28.6Y-70.4
X29.15Y-107.8
X29.258Y-47.0
X29.7Y-32.45
X30.25Y-63.8
X30.5Y-39.0
X31.25Y-22.0
X31.35Y-42.35
X31.65Y-88.31
X31.65Y-107.69
X32.206Y-74.631
X32.329Y-70.527
X32.45Y-29.7
X32.45Y-35.2
X33.0Y-15.0
X33.0Y-24.0
X33.0Y-43.45
X33.55Y-58.3
X33.55Y-61.6
X34.185Y-61.925
X34.65Y-107.25
X35.2Y-72.05
X35.2Y-73.7
X35.2Y-75.35
X35.75Y-41.25
X35.75Y-45.1
X35.75Y-58.3
X35.75Y-97.35
X36.25Y-16.0
X36.25Y-23.0
X36.3Y-28.05
X36.3Y-39.05
X36.3Y-85.8
X36.5Y-24.5
X36.75Y-46.5
X36.85Y-107.8
X36.975Y-75.555
X37.4Y-47.85
X37.4Y-50.6
X37.4Y-55.55
X37.95Y-18.15
X38.0Y-43.0
X38.318Y-83.925
X38.5Y-19.75
X38.5Y-59.4
X38.5Y-62.15
X38.5Y-80.3
X38.645Y-44.132
X39.0Y-40.75
X39.05Y-69.3
X39.05Y-107.8
X39.5Y-18.75
X39.6Y-25.85
X39.6Y-34.1
X39.6Y-36.3
X39.78Y-63.22
X40.15Y-45.1
X40.15Y-74.8
X40.15Y-97.35
X40.15Y-101.75
X40.25Y-84.75
X40.7Y-26.4
X40.7Y-36.85
X40.7Y-46.75
X40.7Y-55.55
X41.8Y-12.65
X41.8Y-47.85
X41.8Y-107.8
X42.0Y-6.0
X42.0Y-69.0
X42.35Y-26.95
X42.35Y-48.95
X42.35Y-54.45
X42.35Y-58.85
X42.9Y-85.8
X42.9Y-90.75
X43.257Y-12.433
X43.45Y-15.95
X43.45Y-30.25
X43.45Y-41.8
X43.45Y-57.75
X43.45Y-61.6
X43.45Y-64.9
X44.0Y-59.95
X44.25Y-51.406
X44.35Y-107.69
X44.55Y-6.05
X44.55Y-24.2
X44.55Y-54.45
X44.55Y-69.3
X44.55Y-83.6
X44.55Y-95.7
X45.1Y-25.85
X45.65Y-20.9
X45.65Y-45.65
X45.65Y-47.85
X45.65Y-74.8
X46.317Y-83.889
X46.75Y-8.25
X46.75Y-12.1
X46.75Y-67.1
X46.75Y-107.8
X46.769Y-4.103
X47.3Y-49.5
X47.85Y-15.95
X47.85Y-61.6
X48.0Y-47.0
X48.4Y-45.65
X48.4Y-50.6
X48.4Y-102.85
X48.435Y-31.259
X48.95Y-41.8
X49.5Y-15.95
X49.5Y-35.75
X49.5Y-42.9
X49.5Y-57.2
X49.625Y-12.925
X50.05Y-28.6
X50.05Y-30.8
X50.05Y-34.1
X50.05Y-68.2
X50.6Y-50.6
X50.6Y-53.35
X50.6Y-57.75
X50.6Y-102.85
X50.6Y-107.8
X51.0Y-15.0
X51.15Y-3.85
X51.15Y-64.9
X51.15Y-79.75
X51.7Y-14.85
X51.7Y-61.6
X51.7Y-66.55
X51.7Y-85.8
X52.25Y-7.7
X52.25Y-31.35
X52.25Y-50.05
X52.25Y-69.3
X52.25Y-74.25
X52.8Y-45.65
X52.8Y-58.85
X52.8Y-88.55
X53.75Y-11.75
X54.45Y-15.95
X54.45Y-18.15
X54.45Y-29.15
X54.45Y-31.9
X54.45Y-34.65
X54.45Y-53.9
X54.45Y-61.05
X54.45Y-68.75
X54.564Y-48.181
X54.919Y-83.716
X55.0Y-19.25
X55.0Y-62.15
X55.0Y-69.85
X55.0Y-88.55
X55.55Y-12.1
X55.55Y-64.35
X55.55Y-71.5
X56.1Y-69.3
X56.65Y-19.25
X56.65Y-54.45
X56.65Y-56.1
X56.65Y-58.3
X56.65Y-66.55
X56.958Y-41.603
X57.05Y-88.31
X57.2Y-28.6
X57.2Y-31.35
X57.2Y-74.25
X57.75Y-61.05
X58.3Y-68.75
X58.3Y-70.95
X58.3Y-97.9
X58.85Y-44.0
X58.85Y-48.4
X58.85Y-61.6
X58.85Y-63.25
X58.85Y-64.9
X58.85Y-67.1
X58.85Y-69.85
X58.85Y-89.65
X58.85Y-95.7
X59.25Y-45.75
X59.95Y-23.65
X59.95Y-79.2
X60.0Y-6.0
X60.0Y-105.0
X60.5Y-96.25
X61.05Y-17.6
X61.05Y-31.9
X61.05Y-45.65
X61.05Y-71.5
X61.6Y-84.7
X61.6Y-101.2
X61.63Y-37.565
X62.15Y-7.15
X62.15Y-53.9
X62.15Y-63.8
X62.15Y-67.1
X62.15Y-88.55
X62.4Y-46.827
X62.7Y-15.95
X62.7Y-33.0
X62.7Y-42.9
X62.7Y-61.05
X62.7Y-79.2
X63.0Y-55.5
X63.25Y-27.5
X63.25Y-39.05
X63.25Y-75.9
X63.4Y-43.25
X63.8Y-40.7
X63.8Y-95.15
X64.0Y-74.25
X64.35Y-34.1
X64.35Y-43.45
X64.75Y-78.5
X64.9Y-38.5
X64.9Y-44.55
X64.9Y-56.65
X64.9Y-98.45
X65.45Y-63.8
X65.45Y-100.65
X65.75Y-44.5
X65.75Y-50.25
X66.0Y-51.15
X66.55Y-73.15
X66.55Y-90.75
X66.55Y-97.9
X67.1Y-59.4
X67.1Y-72.05
X67.1Y-74.8
X67.5Y-64.75
X67.65Y-45.65
X67.65Y-92.95
X67.65Y-104.5
X67.65Y-106.7
X67.714Y-17.609
X68.0Y-89.75
X68.2Y-97.9
X68.542Y-101.675
X68.75Y-64.0
X68.75Y-91.85
X68.75Y-94.05
X69.0Y-69.0
X69.0Y-96.0
X69.3Y-23.65
X69.3Y-57.2
X69.3Y-74.8
X69.3Y-78.1
X69.3Y-84.15
X69.306Y-104.696
X69.5Y-100.75
X69.75Y-14.75
X69.75Y-64.75
X69.75Y-65.75
X69.85Y-38.5
X70.4Y-45.1
X70.4Y-108.35
X70.775Y-49.0
X71.5Y-64.35
X71.5Y-75.9
X71.5Y-83.05
X71.5Y-94.05
X71.825Y-92.425
X72.05Y-74.25
X72.5Y-66.0
X72.539Y-42.125
X72.6Y-39.6
X72.6Y-44.55
X72.6Y-46.2
X72.6Y-63.25
X72.6Y-86.35
X72.75Y-90.75
X73.15Y-23.65
X73.15Y-50.05
X73.15Y-55.55
X73.15Y-59.4
X73.15Y-61.6
X73.15Y-81.4
X73.49Y-31.543
X73.7Y-101.2
X74.25Y-72.05
X74.25Y-90.2
X74.25Y-104.5
X74.631Y-33.791
X74.8Y-39.6
X74.8Y-78.1
X75.35Y-101.75
X75.5Y-77.25
X75.5Y-88.75
X75.87Y-3.187
X75.9Y-82.5
X75.9Y-84.7
X75.9Y-86.35
X75.9Y-104.5
X76.45Y-40.15
X76.45Y-47.85
X76.45Y-61.6
X76.45Y-72.05
X76.45Y-96.8
X76.45Y-110.55
X76.726Y-16.963
X77.0Y-66.25
X77.55Y-50.05
X78.0Y-15.0
X78.0Y-33.0
X78.0Y-60.0
X78.0Y-69.0
X78.0Y-78.0
X78.0Y-96.0
X78.1Y-42.35
X78.1Y-44.0
X78.1Y-57.2
X78.1Y-61.6
X78.1Y-70.4
X78.105Y-73.902
X78.138Y-27.0
X78.25Y-89.0
X78.65Y-25.3
X78.65Y-32.45
X79.2Y-88.0
X79.272Y-19.474
X79.546Y-43.86
X79.75Y-47.85
X79.75Y-70.95
X79.75Y-77.0
X79.75Y-94.6
X79.855Y-21.883
X80.295Y-32.305
X80.3Y-41.25
X80.3Y-74.25
X80.4Y-11.836
X80.85Y-51.7
X81.225Y-7.947
X81.4Y-42.9
X81.4Y-48.95
X81.4Y-68.75
X81.4Y-90.2
X81.4Y-95.15
X81.4Y-109.45
X81.95Y-31.9
X81.95Y-33.55
X81.95Y-58.3
X82.25Y-40.25
X82.5Y-56.65
X82.5Y-91.85
X82.5Y-96.8
X83.0Y-80.25
X83.05Y-34.65
X83.05Y-51.7
X83.05Y-92.95
X83.05Y-97.9
X83.05Y-99.55
X83.05Y-110.0
X83.6Y-2.75
X83.6Y-42.9
X83.6Y-84.7
X83.75Y-55.25
X83.764Y-40.208
X84.15Y-36.3
X84.15Y-44.55
X84.15Y-61.05
X84.15Y-71.5
X84.5Y-24.25
X84.5Y-34.5
X84.7Y-53.35
X84.826Y-21.851
X85.25Y-7.7
X85.25Y-9.5
X85.25Y-84.15
X85.25Y-96.25
X85.25Y-100.65
X85.722Y-47.725
X85.8Y-16.5
X85.8Y-61.05
X85.8Y-70.95
X85.8Y-74.25
X85.8Y-92.4
X85.8Y-95.15
X85.8Y-102.3
X85.807Y-25.925
X86.25Y-69.5
X86.35Y-29.15
X86.35Y-41.8
X86.413Y-44.248
X86.5Y-86.25
X86.599Y-6.956
X86.862Y-10.586
X86.9Y-18.15
X86.9Y-111.1
X87.0Y-6.0
X87.0Y-24.0
X87.25Y-51.75
X87.45Y-20.35
X87.45Y-32.45
X87.45Y-93.5
X87.45Y-99.0
X87.719Y-2.197
X87.775Y-21.226
X88.0Y-4.95
X88.0Y-52.8
X88.55Y-9.9
X88.55Y-34.1
X88.55Y-40.7
X88.55Y-89.65
X88.55Y-97.35
X88.55Y-102.85
X88.55Y-106.15
X89.1Y-62.7
X89.1Y-111.1
X89.65Y-1.65
X89.65Y-30.25
X89.65Y-35.75
X89.65Y-49.5
X89.65Y-53.9
X89.65Y-101.2
X89.98Y-61.066
X90.2Y-14.3
X90.2Y-68.75
X90.2Y-74.25
X90.598Y-37.054
X90.75Y-64.9
X90.75Y-67.1
X90.75Y-69.85
X90.75Y-72.6
X90.75Y-89.1
X90.75Y-111.1
X90.767Y-106.357
X91.3Y-40.7
X91.3Y-50.6
X91.3Y-62.7
X91.3Y-85.25
X91.85Y-6.6
X91.85Y-26.4
X91.85Y-64.35
X92.0Y-34.75
X92.4Y-65.45
X92.588Y-10.128
X92.95Y-22.55
X92.95Y-98.45
X93.5Y-6.6
X93.5Y-41.8
X93.5Y-43.45
X94.05Y-55.0
X94.05Y-72.6
X94.05Y-78.1
X94.05Y-93.5
X94.05Y-97.35
X94.05Y-108.9
X94.25Y-39.5
X94.6Y-17.05
X94.6Y-21.45
X94.6Y-51.7
X94.6Y-61.6
X95.15Y-67.1
X95.449Y-44.906
X95.7Y-39.6
X95.7Y-42.35
X95.7Y-50.6
X95.75Y-35.773
X96.0Y-6.0
X96.0Y-15.0
X96.0Y-24.0
X96.0Y-33.0
X96.0Y-78.0
X96.0Y-105.0
X96.002Y-17.218
X96.25Y-73.7
X96.8Y-30.25
X97.35Y-5.5
X97.35Y-29.15
X97.35Y-60.5
X97.35Y-62.15
X97.35Y-88.0
X97.575Y-8.575
X97.9Y-65.45
X97.9Y-80.3
X97.9Y-97.35
X97.9Y-108.35
X98.2Y-78.0
X98.336Y-93.846
X98.45Y-4.95
X98.45Y-31.35
X98.45Y-45.65
X98.45Y-83.05
X98.45Y-85.25
X98.45Y-90.2
X99.0Y-52.25
X99.55Y-29.15
X99.55Y-47.85
X99.55Y-50.6
X99.55Y-110.0
X100.1Y-21.45
X100.65Y-44.55
X100.65Y-67.65
X100.65Y-83.05
X100.65Y-93.5
X101.2Y-30.25
X101.2Y-107.8
X101.75Y-3.85
X101.75Y-17.6
X101.75Y-23.65
X101.75Y-33.55
X101.75Y-58.85
X101.75Y-89.65
X101.75Y-112.2
X101.828Y-21.231
X102.798Y-81.611
X102.85Y-72.6
X102.85Y-90.75
X102.85Y-107.8
X103.4Y-69.85
X103.4Y-82.5
X103.95Y-39.05
X103.95Y-66.55
X105.0Y-51.0
X105.0Y-69.0
X105.0Y-78.0
X105.0Y-105.0
X105.05Y-10.45
X105.05Y-42.35
X105.05Y-44.55
X105.05Y-59.95
X105.05Y-94.6
X105.05Y-112.2
X105.25Y-95.5
X105.6Y-35.2
X105.6Y-37.4
X105.6Y-93.5
X106.15Y-40.15
X106.15Y-56.1
X106.15Y-111.1
X106.7Y-37.95
X106.7Y-63.8
X107.25Y-98.45
X107.8Y-30.25
X107.8Y-37.4
X108.35Y-43.45
X108.5Y-36.25
X108.5Y-74.0
X108.9Y-44.55
X108.9Y-94.6
X110.0Y-86.9
X110.55Y-30.25
X110.55Y-61.6
X110.55Y-90.75
X111.1Y-38.5
X111.65Y-52.8
X111.65Y-84.15
X112.2Y-57.75
X112.5Y-41.75
X112.75Y-34.65
X113.85Y-85.25
X114.0Y-6.0
X114.4Y-46.2
X114.4Y-64.35
X114.4Y-81.4
X114.75Y-107.55
X115.5Y-30.8
X115.5Y-77.55
X115.5Y-110.0
X115.75Y-50.0
X116.05Y-67.65
X116.6Y-44.55
X116.6Y-63.25
X117.15Y-92.95
X117.7Y-35.2
X117.7Y-60.5
X117.7Y-64.35
X117.7Y-74.25
X117.7Y-79.75
X118.25Y-43.45
X118.25Y-48.95
X118.25Y-89.1
X119.0Y-101.175
X119.35Y-35.2
X119.5Y-106.25
X119.9Y-37.4
X119.9Y-39.6
X121.0Y-43.45
X121.0Y-70.4
X121.25Y-94.25
X121.55Y-45.65
X121.55Y-74.25
X121.55Y-77.0
X121.55Y-79.2
X122.1Y-80.85
X122.1Y-88.0
X122.65Y-40.7
X122.65Y-48.95
X122.65Y-70.95
X122.65Y-81.95
X122.75Y-107.55
X123.0Y-6.0
X123.0Y-15.0
X123.0Y-24.0
X123.0Y-42.0
X123.0Y-76.0
X123.0Y-96.0
X123.25Y-32.0
X123.5Y-37.25
X124.3Y-78.1
X124.85Y-70.95
X124.85Y-75.35
X124.925Y-31.9
X125.95Y-45.65
X125.95Y-48.95
X125.95Y-67.65
X126.377Y-85.019
X126.5Y-81.95
X126.5Y-93.5
X127.05Y-73.7
X128.15Y-67.1
X129.25Y-86.35
X130.35Y-89.65
X132.0Y-15.0
X132.0Y-24.0
X132.0Y-33.0
X132.0Y-42.0
X132.0Y-51.0
X132.0Y-60.0
X132.0Y-96.0
X132.55Y-72.05
X132.55Y-89.65
X133.1Y-65.45
X133.1Y-86.35
T4
X96.0Y-101.46
X96.0Y-104.0
X98.54Y-101.46
X98.54Y-104.0
X101.08Y-101.46
X101.08Y-104.0
X103.62Y-101.46
X103.62Y-104.0
X106.16Y-101.46
X106.16Y-104.0
X108.7Y-101.46
X108.7Y-104.0
X111.24Y-101.46
X111.24Y-104.0
X113.78Y-101.46
X113.78Y-104.0
T2
X59.95Y-2.6G85X58.45Y-2.6
G05
X69.75Y-2.6G85X68.25Y-2.6
G05
T3
X1.6Y-39.15G85X1.6Y-40.85
G05
X1.6Y-74.15G85X1.6Y-75.85
G05
X2.75Y-36.8G85X4.45Y-36.8
G05
X2.75Y-41.9G85X4.45Y-41.9
G05
X2.75Y-71.8G85X4.45Y-71.8
G05
X2.75Y-76.9G85X4.45Y-76.9
G05
X8.6Y-39.15G85X8.6Y-40.85
G05
X8.6Y-74.15G85X8.6Y-75.85
G05
X60.8Y-13.1G85X60.0Y-13.1
G05
X66.0Y-13.1G85X65.2Y-13.1
G05
X69.4Y-13.1G85X68.6Y-13.1
G05
X129.4Y-57.85G85X129.4Y-56.15
G05
X135.25Y-55.1G85X133.55Y-55.1
G05
X135.25Y-60.2G85X133.55Y-60.2
G05
X136.4Y-57.85G85X136.4Y-56.15
G05
T5
X26.25Y-24.1G85X24.75Y-24.1
G05
X28.0Y-8.45G85X28.0Y-9.95
G05
X28.0Y-15.95G85X28.0Y-17.45
G05
X31.25Y-24.1G85X29.75Y-24.1
G05
X111.75Y-24.1G85X110.25Y-24.1
G05
X113.5Y-8.45G85X113.5Y-9.95
G05
X113.5Y-15.95G85X113.5Y-17.45
G05
X116.75Y-24.1G85X115.25Y-24.1
G05
M30
