%TF.GenerationSoftware,KiCad,Pcbnew,10.0.4*%
%TF.CreationDate,2026-07-25T08:40:20-05:00*%
%TF.ProjectId,glitchwave567,676c6974-6368-4776-9176-653536372e6b,rev?*%
%TF.SameCoordinates,Original*%
%TF.FileFunction,Soldermask,Top*%
%TF.FilePolarity,Negative*%
%FSLAX46Y46*%
G04 Gerber Fmt 4.6, Leading zero omitted, Abs format (unit mm)*
G04 Created by KiCad (PCBNEW 10.0.4) date 2026-07-25 08:40:20*
%MOMM*%
%LPD*%
G01*
G04 APERTURE LIST*
G04 Aperture macros list*
%AMRoundRect*
0 Rectangle with rounded corners*
0 $1 Rounding radius*
0 $2 $3 $4 $5 $6 $7 $8 $9 X,Y pos of 4 corners*
0 Add a 4 corners polygon primitive as box body*
4,1,4,$2,$3,$4,$5,$6,$7,$8,$9,$2,$3,0*
0 Add four circle primitives for the rounded corners*
1,1,$1+$1,$2,$3*
1,1,$1+$1,$4,$5*
1,1,$1+$1,$6,$7*
1,1,$1+$1,$8,$9*
0 Add four rect primitives between the rounded corners*
20,1,$1+$1,$2,$3,$4,$5,0*
20,1,$1+$1,$4,$5,$6,$7,0*
20,1,$1+$1,$6,$7,$8,$9,0*
20,1,$1+$1,$8,$9,$2,$3,0*%
%AMFreePoly0*
4,1,9,3.862500,-0.866500,0.737500,-0.866500,0.737500,-0.450000,-0.737500,-0.450000,-0.737500,0.450000,0.737500,0.450000,0.737500,0.866500,3.862500,0.866500,3.862500,-0.866500,3.862500,-0.866500,$1*%
G04 Aperture macros list end*
%ADD10RoundRect,0.150000X-0.587500X-0.150000X0.587500X-0.150000X0.587500X0.150000X-0.587500X0.150000X0*%
%ADD11RoundRect,0.250000X-0.325000X-0.650000X0.325000X-0.650000X0.325000X0.650000X-0.325000X0.650000X0*%
%ADD12RoundRect,0.250000X-1.500000X-1.000000X1.500000X-1.000000X1.500000X1.000000X-1.500000X1.000000X0*%
%ADD13RoundRect,0.200000X-0.200000X-0.275000X0.200000X-0.275000X0.200000X0.275000X-0.200000X0.275000X0*%
%ADD14RoundRect,0.225000X-0.225000X-0.250000X0.225000X-0.250000X0.225000X0.250000X-0.225000X0.250000X0*%
%ADD15RoundRect,0.250000X-1.250000X-0.550000X1.250000X-0.550000X1.250000X0.550000X-1.250000X0.550000X0*%
%ADD16RoundRect,0.250000X-1.050000X-0.550000X1.050000X-0.550000X1.050000X0.550000X-1.050000X0.550000X0*%
%ADD17RoundRect,0.150000X-0.825000X-0.150000X0.825000X-0.150000X0.825000X0.150000X-0.825000X0.150000X0*%
%ADD18O,2.100000X3.600000*%
%ADD19O,3.600000X2.100000*%
%ADD20RoundRect,0.250000X-1.750000X-1.000000X1.750000X-1.000000X1.750000X1.000000X-1.750000X1.000000X0*%
%ADD21RoundRect,0.225000X-0.225000X-0.375000X0.225000X-0.375000X0.225000X0.375000X-0.225000X0.375000X0*%
%ADD22RoundRect,0.225000X-0.425000X-0.225000X0.425000X-0.225000X0.425000X0.225000X-0.425000X0.225000X0*%
%ADD23FreePoly0,0.000000*%
%ADD24O,2.000000X3.700000*%
%ADD25O,3.700000X2.000000*%
%ADD26R,1.300000X1.600000*%
%ADD27R,2.000000X1.600000*%
%ADD28R,2.000000X2.000000*%
%ADD29O,2.600000X1.900000*%
%ADD30O,3.000000X1.500000*%
%ADD31R,2.900000X5.400000*%
%ADD32RoundRect,0.250000X-1.000000X-0.650000X1.000000X-0.650000X1.000000X0.650000X-1.000000X0.650000X0*%
%ADD33RoundRect,0.200000X0.275000X-0.200000X0.275000X0.200000X-0.275000X0.200000X-0.275000X-0.200000X0*%
%ADD34RoundRect,0.250000X-1.500000X-0.550000X1.500000X-0.550000X1.500000X0.550000X-1.500000X0.550000X0*%
%ADD35R,1.000000X0.800000*%
%ADD36C,0.900000*%
%ADD37R,0.700000X1.500000*%
%ADD38R,1.700000X1.700000*%
%ADD39O,1.700000X1.700000*%
%ADD40RoundRect,0.375000X-0.625000X-0.375000X0.625000X-0.375000X0.625000X0.375000X-0.625000X0.375000X0*%
%ADD41RoundRect,0.500000X-0.500000X-1.400000X0.500000X-1.400000X0.500000X1.400000X-0.500000X1.400000X0*%
%ADD42RoundRect,0.150000X0.150000X-0.587500X0.150000X0.587500X-0.150000X0.587500X-0.150000X-0.587500X0*%
%ADD43RoundRect,0.250000X0.650000X-1.000000X0.650000X1.000000X-0.650000X1.000000X-0.650000X-1.000000X0*%
%ADD44R,2.290000X3.000000*%
%ADD45RoundRect,0.225000X0.375000X-0.225000X0.375000X0.225000X-0.375000X0.225000X-0.375000X-0.225000X0*%
%ADD46RoundRect,0.240000X0.560000X-1.360000X0.560000X1.360000X-0.560000X1.360000X-0.560000X-1.360000X0*%
%ADD47RoundRect,0.250000X-0.250000X-0.475000X0.250000X-0.475000X0.250000X0.475000X-0.250000X0.475000X0*%
%ADD48RoundRect,0.150000X-0.512500X-0.150000X0.512500X-0.150000X0.512500X0.150000X-0.512500X0.150000X0*%
%ADD49RoundRect,0.150000X-0.875000X-0.150000X0.875000X-0.150000X0.875000X0.150000X-0.875000X0.150000X0*%
%ADD50RoundRect,0.250000X0.700000X-0.275000X0.700000X0.275000X-0.700000X0.275000X-0.700000X-0.275000X0*%
G04 APERTURE END LIST*
D10*
%TO.C,QJ1*%
X25070618Y-72103030D03*
X25070618Y-74003030D03*
X26945618Y-73053030D03*
%TD*%
D11*
%TO.C,C104*%
X73775702Y-16963201D03*
X76725702Y-16963201D03*
%TD*%
D12*
%TO.C,C100*%
X66750000Y-25800000D03*
X73250000Y-25800000D03*
%TD*%
D13*
%TO.C,R62*%
X81619812Y-70023466D03*
X83269812Y-70023466D03*
%TD*%
%TO.C,R101A*%
X36847344Y-31431222D03*
X38497344Y-31431222D03*
%TD*%
D14*
%TO.C,C123*%
X67025000Y-101000000D03*
X68575000Y-101000000D03*
%TD*%
D15*
%TO.C,C47*%
X93800000Y-78000000D03*
X98200000Y-78000000D03*
%TD*%
D13*
%TO.C,R166*%
X61448322Y-72862634D03*
X63098322Y-72862634D03*
%TD*%
%TO.C,R114A*%
X18760311Y-58994897D03*
X20410311Y-58994897D03*
%TD*%
%TO.C,R37*%
X94237613Y-39405863D03*
X95887613Y-39405863D03*
%TD*%
D14*
%TO.C,C910*%
X47947011Y-12260800D03*
X49497011Y-12260800D03*
%TD*%
D16*
%TO.C,C2*%
X80489726Y-36454371D03*
X84089726Y-36454371D03*
%TD*%
D14*
%TO.C,C70*%
X47945697Y-15757094D03*
X49495697Y-15757094D03*
%TD*%
D17*
%TO.C,U12*%
X45525000Y-69555000D03*
X45525000Y-70825000D03*
X45525000Y-72095000D03*
X45525000Y-73365000D03*
X45525000Y-74635000D03*
X45525000Y-75905000D03*
X45525000Y-77175000D03*
X45525000Y-78445000D03*
X50475000Y-78445000D03*
X50475000Y-77175000D03*
X50475000Y-75905000D03*
X50475000Y-74635000D03*
X50475000Y-73365000D03*
X50475000Y-72095000D03*
X50475000Y-70825000D03*
X50475000Y-69555000D03*
%TD*%
D13*
%TO.C,R80*%
X9026309Y-67019144D03*
X10676309Y-67019144D03*
%TD*%
%TO.C,R5*%
X104853775Y-37647344D03*
X106503775Y-37647344D03*
%TD*%
%TO.C,R100*%
X45119316Y-4103470D03*
X46769316Y-4103470D03*
%TD*%
%TO.C,R134*%
X131277087Y-86510013D03*
X132927087Y-86510013D03*
%TD*%
D14*
%TO.C,C83*%
X55891314Y-44955270D03*
X57441314Y-44955270D03*
%TD*%
D13*
%TO.C,R69*%
X86330828Y-68940765D03*
X87980828Y-68940765D03*
%TD*%
D14*
%TO.C,C84*%
X124827150Y-85019480D03*
X126377150Y-85019480D03*
%TD*%
D13*
%TO.C,R111A*%
X14524861Y-74329067D03*
X16174861Y-74329067D03*
%TD*%
D18*
%TO.C,J1*%
X110000000Y-9200000D03*
X110000000Y-16700000D03*
D19*
X112500000Y-24100000D03*
X107500000Y-24100000D03*
%TD*%
D17*
%TO.C,U1*%
X117525000Y-38190000D03*
X117525000Y-39460000D03*
X117525000Y-40730000D03*
X117525000Y-42000000D03*
X117525000Y-43270000D03*
X117525000Y-44540000D03*
X117525000Y-45810000D03*
X122475000Y-45810000D03*
X122475000Y-44540000D03*
X122475000Y-43270000D03*
X122475000Y-42000000D03*
X122475000Y-40730000D03*
X122475000Y-39460000D03*
X122475000Y-38190000D03*
%TD*%
D13*
%TO.C,R4*%
X111521600Y-34487662D03*
X113171600Y-34487662D03*
%TD*%
%TO.C,R115A*%
X15838846Y-53706689D03*
X17488846Y-53706689D03*
%TD*%
D20*
%TO.C,C48*%
X80102661Y-80433685D03*
X88102661Y-80433685D03*
%TD*%
D13*
%TO.C,R165*%
X61967220Y-68417418D03*
X63617220Y-68417418D03*
%TD*%
D14*
%TO.C,C61*%
X54425000Y-50000000D03*
X55975000Y-50000000D03*
%TD*%
%TO.C,C34*%
X60884911Y-40498481D03*
X62434911Y-40498481D03*
%TD*%
D13*
%TO.C,R146*%
X40021181Y-74601597D03*
X41671181Y-74601597D03*
%TD*%
%TO.C,R88*%
X7671029Y-99512790D03*
X9321029Y-99512790D03*
%TD*%
%TO.C,R123A*%
X62019894Y-59216176D03*
X63669894Y-59216176D03*
%TD*%
%TO.C,R142*%
X49604705Y-64949446D03*
X51254705Y-64949446D03*
%TD*%
%TO.C,R149*%
X114747659Y-77420370D03*
X116397659Y-77420370D03*
%TD*%
%TO.C,R127A*%
X19317079Y-67155189D03*
X20967079Y-67155189D03*
%TD*%
D10*
%TO.C,Q4*%
X72243752Y-93770357D03*
X72243752Y-95670357D03*
X74118752Y-94720357D03*
%TD*%
D14*
%TO.C,C1*%
X126425000Y-42000000D03*
X127975000Y-42000000D03*
%TD*%
D21*
%TO.C,D72*%
X25641557Y-36542655D03*
X28941557Y-36542655D03*
%TD*%
D22*
%TO.C,U18*%
X78050000Y-25500000D03*
D23*
X78137500Y-27000000D03*
D22*
X78050000Y-28500000D03*
%TD*%
D13*
%TO.C,R111*%
X35530690Y-16068623D03*
X37180690Y-16068623D03*
%TD*%
%TO.C,R51*%
X76442891Y-91420535D03*
X78092891Y-91420535D03*
%TD*%
%TO.C,R83*%
X10147764Y-53900440D03*
X11797764Y-53900440D03*
%TD*%
%TO.C,R81*%
X8495902Y-63560205D03*
X10145902Y-63560205D03*
%TD*%
%TO.C,R13*%
X15759975Y-40374284D03*
X17409975Y-40374284D03*
%TD*%
D21*
%TO.C,D100*%
X51095686Y-3843295D03*
X54395686Y-3843295D03*
%TD*%
D13*
%TO.C,R144*%
X19632436Y-25674695D03*
X21282436Y-25674695D03*
%TD*%
%TO.C,R171*%
X72041666Y-101000000D03*
X73691666Y-101000000D03*
%TD*%
%TO.C,R141*%
X62160646Y-55150972D03*
X63810646Y-55150972D03*
%TD*%
%TO.C,R94*%
X7654699Y-59539994D03*
X9304699Y-59539994D03*
%TD*%
%TO.C,R44*%
X83738554Y-55373935D03*
X85388554Y-55373935D03*
%TD*%
D14*
%TO.C,C50*%
X53013921Y-48180626D03*
X54563921Y-48180626D03*
%TD*%
%TO.C,C74*%
X19898675Y-74906060D03*
X21448675Y-74906060D03*
%TD*%
D13*
%TO.C,R41*%
X107161942Y-33258651D03*
X108811942Y-33258651D03*
%TD*%
D24*
%TO.C,J6*%
X136400000Y-57000000D03*
D25*
X134400000Y-55100000D03*
X134400000Y-60200000D03*
D24*
X129400000Y-57000000D03*
%TD*%
D13*
%TO.C,R125A*%
X20149959Y-36920928D03*
X21799959Y-36920928D03*
%TD*%
D21*
%TO.C,D80*%
X122350000Y-70800000D03*
X125650000Y-70800000D03*
%TD*%
D26*
%TO.C,RV2*%
X117250000Y-107550000D03*
D27*
X116000000Y-110450000D03*
D26*
X114750000Y-107550000D03*
%TD*%
D17*
%TO.C,U8*%
X93525000Y-81555000D03*
X93525000Y-82825000D03*
X93525000Y-84095000D03*
X93525000Y-85365000D03*
X93525000Y-86635000D03*
X93525000Y-87905000D03*
X93525000Y-89175000D03*
X93525000Y-90445000D03*
X98475000Y-90445000D03*
X98475000Y-89175000D03*
X98475000Y-87905000D03*
X98475000Y-86635000D03*
X98475000Y-85365000D03*
X98475000Y-84095000D03*
X98475000Y-82825000D03*
X98475000Y-81555000D03*
%TD*%
D28*
%TO.C,J5*%
X65350000Y-6150000D03*
D29*
X69000000Y-13100000D03*
X60400000Y-13100000D03*
X65600000Y-13100000D03*
D30*
X69000000Y-2600000D03*
X59200000Y-2600000D03*
%TD*%
D14*
%TO.C,C65*%
X74319529Y-3187027D03*
X75869529Y-3187027D03*
%TD*%
D13*
%TO.C,R106*%
X41793082Y-15950326D03*
X43443082Y-15950326D03*
%TD*%
%TO.C,R36*%
X104415249Y-52233657D03*
X106065249Y-52233657D03*
%TD*%
D14*
%TO.C,C42*%
X93898675Y-44906060D03*
X95448675Y-44906060D03*
%TD*%
%TO.C,C32*%
X83276467Y-21850992D03*
X84826467Y-21850992D03*
%TD*%
D13*
%TO.C,R168*%
X17029834Y-33236276D03*
X18679834Y-33236276D03*
%TD*%
%TO.C,R74*%
X107280892Y-94800585D03*
X108930892Y-94800585D03*
%TD*%
D14*
%TO.C,C102*%
X71939552Y-31542827D03*
X73489552Y-31542827D03*
%TD*%
D21*
%TO.C,D75*%
X22246903Y-32544947D03*
X25546903Y-32544947D03*
%TD*%
D13*
%TO.C,R64*%
X76711251Y-70480116D03*
X78361251Y-70480116D03*
%TD*%
%TO.C,R145*%
X13837643Y-57567064D03*
X15487643Y-57567064D03*
%TD*%
%TO.C,R22*%
X109932373Y-52767598D03*
X111582373Y-52767598D03*
%TD*%
%TO.C,R107*%
X34571145Y-23083395D03*
X36221145Y-23083395D03*
%TD*%
D14*
%TO.C,C91*%
X84862706Y-44248432D03*
X86412706Y-44248432D03*
%TD*%
D13*
%TO.C,R131*%
X126775863Y-67302977D03*
X128425863Y-67302977D03*
%TD*%
%TO.C,R12*%
X55178666Y-54367147D03*
X56828666Y-54367147D03*
%TD*%
%TO.C,R61*%
X99586663Y-39663598D03*
X101236663Y-39663598D03*
%TD*%
%TO.C,R3*%
X126442220Y-37767802D03*
X128092220Y-37767802D03*
%TD*%
%TO.C,R172*%
X68662953Y-108318601D03*
X70312953Y-108318601D03*
%TD*%
%TO.C,R164*%
X75257629Y-56029123D03*
X76907629Y-56029123D03*
%TD*%
%TO.C,R63*%
X70735722Y-71846282D03*
X72385722Y-71846282D03*
%TD*%
D16*
%TO.C,C90*%
X51319362Y-83715572D03*
X54919362Y-83715572D03*
%TD*%
D13*
%TO.C,R121A*%
X56728131Y-58096948D03*
X58378131Y-58096948D03*
%TD*%
%TO.C,R163*%
X61724690Y-63370417D03*
X63374690Y-63370417D03*
%TD*%
%TO.C,R76*%
X109017133Y-30156444D03*
X110667133Y-30156444D03*
%TD*%
%TO.C,R170*%
X60266949Y-84597825D03*
X61916949Y-84597825D03*
%TD*%
D14*
%TO.C,C64*%
X46950479Y-27367647D03*
X48500479Y-27367647D03*
%TD*%
D21*
%TO.C,D81*%
X115230650Y-70427489D03*
X118530650Y-70427489D03*
%TD*%
D31*
%TO.C,L100*%
X94050000Y-30000000D03*
X103950000Y-30000000D03*
%TD*%
D14*
%TO.C,C62*%
X48785722Y-57846282D03*
X50335722Y-57846282D03*
%TD*%
D17*
%TO.C,U16*%
X21525000Y-48190000D03*
X21525000Y-49460000D03*
X21525000Y-50730000D03*
X21525000Y-52000000D03*
X21525000Y-53270000D03*
X21525000Y-54540000D03*
X21525000Y-55810000D03*
X26475000Y-55810000D03*
X26475000Y-54540000D03*
X26475000Y-53270000D03*
X26475000Y-52000000D03*
X26475000Y-50730000D03*
X26475000Y-49460000D03*
X26475000Y-48190000D03*
%TD*%
D13*
%TO.C,R114*%
X101183991Y-12861334D03*
X102833991Y-12861334D03*
%TD*%
D14*
%TO.C,C35*%
X74305184Y-7315211D03*
X75855184Y-7315211D03*
%TD*%
D13*
%TO.C,R77*%
X14443183Y-64357771D03*
X16093183Y-64357771D03*
%TD*%
D17*
%TO.C,U7*%
X94525000Y-61555000D03*
X94525000Y-62825000D03*
X94525000Y-64095000D03*
X94525000Y-65365000D03*
X94525000Y-66635000D03*
X94525000Y-67905000D03*
X94525000Y-69175000D03*
X94525000Y-70445000D03*
X99475000Y-70445000D03*
X99475000Y-69175000D03*
X99475000Y-67905000D03*
X99475000Y-66635000D03*
X99475000Y-65365000D03*
X99475000Y-64095000D03*
X99475000Y-62825000D03*
X99475000Y-61555000D03*
%TD*%
D32*
%TO.C,D106*%
X48000000Y-20000000D03*
X52000000Y-20000000D03*
%TD*%
D13*
%TO.C,R124A*%
X49877982Y-61572970D03*
X51527982Y-61572970D03*
%TD*%
%TO.C,R46*%
X83173653Y-64791456D03*
X84823653Y-64791456D03*
%TD*%
D10*
%TO.C,Q1*%
X119062500Y-85050000D03*
X119062500Y-86950000D03*
X120937500Y-86000000D03*
%TD*%
D13*
%TO.C,R113A*%
X21047364Y-41026265D03*
X22697364Y-41026265D03*
%TD*%
%TO.C,R70*%
X74358044Y-104383359D03*
X76008044Y-104383359D03*
%TD*%
%TO.C,R133*%
X131865178Y-68215040D03*
X133515178Y-68215040D03*
%TD*%
%TO.C,R104*%
X99877982Y-17572970D03*
X101527982Y-17572970D03*
%TD*%
D33*
%TO.C,R138*%
X119000000Y-102825000D03*
X119000000Y-101175000D03*
%TD*%
D34*
%TO.C,C110*%
X74800000Y-11836413D03*
X80400000Y-11836413D03*
%TD*%
D13*
%TO.C,R43*%
X86410029Y-51194873D03*
X88060029Y-51194873D03*
%TD*%
D35*
%TO.C,SW3*%
X28350000Y-79220000D03*
X28350000Y-81430000D03*
D36*
X30500000Y-80330000D03*
X33500000Y-80330000D03*
D35*
X35650000Y-79220000D03*
X35650000Y-81430000D03*
D37*
X29750000Y-78570000D03*
X32750000Y-78570000D03*
X34250000Y-78570000D03*
%TD*%
D14*
%TO.C,C103*%
X77721849Y-19473707D03*
X79271849Y-19473707D03*
%TD*%
%TO.C,C41*%
X98551324Y-55093939D03*
X100101324Y-55093939D03*
%TD*%
%TO.C,C76*%
X76939547Y-47726323D03*
X78489547Y-47726323D03*
%TD*%
D26*
%TO.C,RV1*%
X109250000Y-107550000D03*
D27*
X108000000Y-110450000D03*
D26*
X106750000Y-107550000D03*
%TD*%
D14*
%TO.C,C73*%
X25025000Y-68000000D03*
X26575000Y-68000000D03*
%TD*%
D10*
%TO.C,Q3*%
X103505448Y-80480905D03*
X103505448Y-82380905D03*
X105380448Y-81430905D03*
%TD*%
D21*
%TO.C,D84*%
X68350000Y-53000000D03*
X71650000Y-53000000D03*
%TD*%
D13*
%TO.C,R135*%
X126032654Y-88829273D03*
X127682654Y-88829273D03*
%TD*%
D14*
%TO.C,C124*%
X67755733Y-104695518D03*
X69305733Y-104695518D03*
%TD*%
%TO.C,C96*%
X94452122Y-17218463D03*
X96002122Y-17218463D03*
%TD*%
%TO.C,C67*%
X46885318Y-31259285D03*
X48435318Y-31259285D03*
%TD*%
D13*
%TO.C,R93*%
X17175000Y-4000000D03*
X18825000Y-4000000D03*
%TD*%
%TO.C,R109*%
X34752938Y-19678797D03*
X36402938Y-19678797D03*
%TD*%
D14*
%TO.C,C40*%
X82213960Y-40208119D03*
X83763960Y-40208119D03*
%TD*%
D13*
%TO.C,R91*%
X101562559Y-107801947D03*
X103212559Y-107801947D03*
%TD*%
D14*
%TO.C,C122*%
X83856344Y-24274837D03*
X85406344Y-24274837D03*
%TD*%
D17*
%TO.C,U13*%
X69525000Y-81555000D03*
X69525000Y-82825000D03*
X69525000Y-84095000D03*
X69525000Y-85365000D03*
X69525000Y-86635000D03*
X69525000Y-87905000D03*
X69525000Y-89175000D03*
X69525000Y-90445000D03*
X74475000Y-90445000D03*
X74475000Y-89175000D03*
X74475000Y-87905000D03*
X74475000Y-86635000D03*
X74475000Y-85365000D03*
X74475000Y-84095000D03*
X74475000Y-82825000D03*
X74475000Y-81555000D03*
%TD*%
D14*
%TO.C,C21*%
X126426075Y-45509740D03*
X127976075Y-45509740D03*
%TD*%
%TO.C,C45*%
X102425000Y-86000000D03*
X103975000Y-86000000D03*
%TD*%
D13*
%TO.C,R73*%
X108776343Y-90666842D03*
X110426343Y-90666842D03*
%TD*%
D14*
%TO.C,C93*%
X51828422Y-7325184D03*
X53378422Y-7325184D03*
%TD*%
D32*
%TO.C,D90*%
X55849407Y-79403414D03*
X59849407Y-79403414D03*
%TD*%
D13*
%TO.C,R32*%
X103608685Y-60102661D03*
X105258685Y-60102661D03*
%TD*%
D38*
%TO.C,J10*%
X96000000Y-104000000D03*
D39*
X96000000Y-101460000D03*
X98540000Y-104000000D03*
X98540000Y-101460000D03*
X101080000Y-104000000D03*
X101080000Y-101460000D03*
X103620000Y-104000000D03*
X103620000Y-101460000D03*
X106160000Y-104000000D03*
X106160000Y-101460000D03*
X108700000Y-104000000D03*
X108700000Y-101460000D03*
X111240000Y-104000000D03*
X111240000Y-101460000D03*
X113780000Y-104000000D03*
X113780000Y-101460000D03*
%TD*%
D13*
%TO.C,R52*%
X108476319Y-86832567D03*
X110126319Y-86832567D03*
%TD*%
%TO.C,R87*%
X13175000Y-4000000D03*
X14825000Y-4000000D03*
%TD*%
D35*
%TO.C,SW2*%
X19350000Y-79220000D03*
X19350000Y-81430000D03*
D36*
X21500000Y-80330000D03*
X24500000Y-80330000D03*
D35*
X26650000Y-79220000D03*
X26650000Y-81430000D03*
D37*
X20750000Y-78570000D03*
X23750000Y-78570000D03*
X25250000Y-78570000D03*
%TD*%
D21*
%TO.C,D102*%
X40884253Y-36682248D03*
X44184253Y-36682248D03*
%TD*%
D13*
%TO.C,R31*%
X106656717Y-63731359D03*
X108306717Y-63731359D03*
%TD*%
%TO.C,R117A*%
X17168700Y-44989197D03*
X18818700Y-44989197D03*
%TD*%
D14*
%TO.C,C101*%
X66944266Y-20005443D03*
X68494266Y-20005443D03*
%TD*%
%TO.C,C44*%
X77995634Y-43860433D03*
X79545634Y-43860433D03*
%TD*%
D13*
%TO.C,R162*%
X54915685Y-70123304D03*
X56565685Y-70123304D03*
%TD*%
D14*
%TO.C,C66*%
X89047530Y-37054347D03*
X90597530Y-37054347D03*
%TD*%
%TO.C,C85*%
X85049299Y-6955844D03*
X86599299Y-6955844D03*
%TD*%
D17*
%TO.C,U10*%
X67525000Y-59555000D03*
X67525000Y-60825000D03*
X67525000Y-62095000D03*
X67525000Y-63365000D03*
X67525000Y-64635000D03*
X67525000Y-65905000D03*
X67525000Y-67175000D03*
X67525000Y-68445000D03*
X72475000Y-68445000D03*
X72475000Y-67175000D03*
X72475000Y-65905000D03*
X72475000Y-64635000D03*
X72475000Y-63365000D03*
X72475000Y-62095000D03*
X72475000Y-60825000D03*
X72475000Y-59555000D03*
%TD*%
D14*
%TO.C,C63*%
X85312079Y-10585913D03*
X86862079Y-10585913D03*
%TD*%
D13*
%TO.C,R96*%
X10655615Y-46078371D03*
X12305615Y-46078371D03*
%TD*%
D21*
%TO.C,D82*%
X130792948Y-82569094D03*
X134092948Y-82569094D03*
%TD*%
D13*
%TO.C,R84*%
X66623866Y-97645420D03*
X68273866Y-97645420D03*
%TD*%
D16*
%TO.C,C75*%
X25261467Y-59391036D03*
X28861467Y-59391036D03*
%TD*%
D17*
%TO.C,U5*%
X94525000Y-48095000D03*
X94525000Y-49365000D03*
X94525000Y-50635000D03*
X94525000Y-51905000D03*
X99475000Y-51905000D03*
X99475000Y-50635000D03*
X99475000Y-49365000D03*
X99475000Y-48095000D03*
%TD*%
D21*
%TO.C,D71*%
X27172291Y-40238174D03*
X30472291Y-40238174D03*
%TD*%
D18*
%TO.C,J2*%
X28000000Y-9200000D03*
X28000000Y-16700000D03*
D19*
X30500000Y-24100000D03*
X25500000Y-24100000D03*
%TD*%
D14*
%TO.C,C60*%
X79674971Y-3947196D03*
X81224971Y-3947196D03*
%TD*%
%TO.C,C30*%
X116025000Y-74000000D03*
X117575000Y-74000000D03*
%TD*%
%TO.C,C80*%
X130424999Y-78000000D03*
X131974999Y-78000000D03*
%TD*%
%TO.C,C111*%
X78304845Y-21882885D03*
X79854845Y-21882885D03*
%TD*%
%TO.C,C33*%
X76463510Y-40160605D03*
X78013510Y-40160605D03*
%TD*%
D13*
%TO.C,R53*%
X106873924Y-43290259D03*
X108523924Y-43290259D03*
%TD*%
D14*
%TO.C,C105*%
X66163532Y-17608963D03*
X67713532Y-17608963D03*
%TD*%
D13*
%TO.C,R60*%
X102024971Y-3947196D03*
X103674971Y-3947196D03*
%TD*%
%TO.C,R173*%
X90775000Y-109771281D03*
X92425000Y-109771281D03*
%TD*%
%TO.C,R86*%
X112941324Y-94802842D03*
X114591324Y-94802842D03*
%TD*%
%TO.C,R161*%
X55840334Y-61507255D03*
X57490334Y-61507255D03*
%TD*%
D14*
%TO.C,C82*%
X39587505Y-80559284D03*
X41137505Y-80559284D03*
%TD*%
D13*
%TO.C,R169*%
X55346171Y-74223455D03*
X56996171Y-74223455D03*
%TD*%
%TO.C,R72*%
X74649449Y-107941861D03*
X76299449Y-107941861D03*
%TD*%
%TO.C,R71*%
X63910038Y-78442121D03*
X65560038Y-78442121D03*
%TD*%
D17*
%TO.C,U11*%
X45525000Y-45555000D03*
X45525000Y-46825000D03*
X45525000Y-48095000D03*
X45525000Y-49365000D03*
X45525000Y-50635000D03*
X45525000Y-51905000D03*
X45525000Y-53175000D03*
X45525000Y-54445000D03*
X50475000Y-54445000D03*
X50475000Y-53175000D03*
X50475000Y-51905000D03*
X50475000Y-50635000D03*
X50475000Y-49365000D03*
X50475000Y-48095000D03*
X50475000Y-46825000D03*
X50475000Y-45555000D03*
%TD*%
D13*
%TO.C,R90*%
X7704559Y-90856313D03*
X9354559Y-90856313D03*
%TD*%
%TO.C,R2*%
X123274999Y-31900000D03*
X124924999Y-31900000D03*
%TD*%
D21*
%TO.C,D73*%
X33748059Y-36259082D03*
X37048059Y-36259082D03*
%TD*%
D13*
%TO.C,R30*%
X110401177Y-57725460D03*
X112051177Y-57725460D03*
%TD*%
D14*
%TO.C,C31*%
X120403330Y-90653121D03*
X121953330Y-90653121D03*
%TD*%
D35*
%TO.C,SW1*%
X10350000Y-79220000D03*
X10350000Y-81430000D03*
D36*
X12500000Y-80330000D03*
X15500000Y-80330000D03*
D35*
X17650000Y-79220000D03*
X17650000Y-81430000D03*
D37*
X11750000Y-78570000D03*
X14750000Y-78570000D03*
X16250000Y-78570000D03*
%TD*%
D21*
%TO.C,D103*%
X84592713Y-3182249D03*
X87892713Y-3182249D03*
%TD*%
D13*
%TO.C,R103*%
X96695240Y-8694862D03*
X98345240Y-8694862D03*
%TD*%
D14*
%TO.C,C77*%
X69225000Y-49000000D03*
X70775000Y-49000000D03*
%TD*%
D34*
%TO.C,C109*%
X51888532Y-38141036D03*
X57488532Y-38141036D03*
%TD*%
D14*
%TO.C,C49*%
X61174353Y-44178818D03*
X62724353Y-44178818D03*
%TD*%
D13*
%TO.C,R20*%
X115086679Y-50261491D03*
X116736679Y-50261491D03*
%TD*%
%TO.C,R120A*%
X45021282Y-61560722D03*
X46671282Y-61560722D03*
%TD*%
%TO.C,R1*%
X118574999Y-21800000D03*
X120224999Y-21800000D03*
%TD*%
D24*
%TO.C,J3*%
X1600000Y-40000000D03*
D25*
X3600000Y-41900000D03*
X3600000Y-36800000D03*
D24*
X8600000Y-40000000D03*
%TD*%
D13*
%TO.C,R110*%
X52880596Y-16194432D03*
X54530596Y-16194432D03*
%TD*%
D14*
%TO.C,C106*%
X94475000Y-21500000D03*
X96025000Y-21500000D03*
%TD*%
D17*
%TO.C,U3*%
X103525000Y-67555000D03*
X103525000Y-68825000D03*
X103525000Y-70095000D03*
X103525000Y-71365000D03*
X103525000Y-72635000D03*
X103525000Y-73905000D03*
X103525000Y-75175000D03*
X103525000Y-76445000D03*
X108475000Y-76445000D03*
X108475000Y-75175000D03*
X108475000Y-73905000D03*
X108475000Y-72635000D03*
X108475000Y-71365000D03*
X108475000Y-70095000D03*
X108475000Y-68825000D03*
X108475000Y-67555000D03*
%TD*%
D13*
%TO.C,R130*%
X111742338Y-62352816D03*
X113392338Y-62352816D03*
%TD*%
%TO.C,R116A*%
X15681942Y-49175750D03*
X17331942Y-49175750D03*
%TD*%
%TO.C,R35*%
X115502639Y-91023543D03*
X117152639Y-91023543D03*
%TD*%
%TO.C,R107A*%
X29537144Y-64358557D03*
X31187144Y-64358557D03*
%TD*%
%TO.C,R132*%
X130775287Y-72034325D03*
X132425287Y-72034325D03*
%TD*%
%TO.C,R102*%
X91804449Y-6377169D03*
X93454449Y-6377169D03*
%TD*%
D14*
%TO.C,C95*%
X91037703Y-10128350D03*
X92587703Y-10128350D03*
%TD*%
D24*
%TO.C,J4*%
X1600000Y-75000000D03*
D25*
X3600000Y-76900000D03*
X3600000Y-71800000D03*
D24*
X8600000Y-75000000D03*
%TD*%
D13*
%TO.C,R109A*%
X30556278Y-74630732D03*
X32206278Y-74630732D03*
%TD*%
%TO.C,R33*%
X76515685Y-61456637D03*
X78165685Y-61456637D03*
%TD*%
%TO.C,R112A*%
X22339691Y-44389107D03*
X23989691Y-44389107D03*
%TD*%
%TO.C,R100A*%
X39095835Y-26535633D03*
X40745835Y-26535633D03*
%TD*%
%TO.C,R48*%
X99051604Y-44339215D03*
X100701604Y-44339215D03*
%TD*%
D14*
%TO.C,C43*%
X79674971Y-7947196D03*
X81224971Y-7947196D03*
%TD*%
D13*
%TO.C,R16*%
X91216080Y-2841367D03*
X92866080Y-2841367D03*
%TD*%
%TO.C,R106A*%
X24641666Y-64400000D03*
X26291666Y-64400000D03*
%TD*%
%TO.C,R49*%
X66752174Y-94256756D03*
X68402174Y-94256756D03*
%TD*%
%TO.C,R38*%
X88905519Y-64602150D03*
X90555519Y-64602150D03*
%TD*%
D14*
%TO.C,C8*%
X60151033Y-51444232D03*
X61701033Y-51444232D03*
%TD*%
D17*
%TO.C,U17*%
X121525000Y-74190000D03*
X121525000Y-75460000D03*
X121525000Y-76730000D03*
X121525000Y-78000000D03*
X121525000Y-79270000D03*
X121525000Y-80540000D03*
X121525000Y-81810000D03*
X126475000Y-81810000D03*
X126475000Y-80540000D03*
X126475000Y-79270000D03*
X126475000Y-78000000D03*
X126475000Y-76730000D03*
X126475000Y-75460000D03*
X126475000Y-74190000D03*
%TD*%
D40*
%TO.C,Q11*%
X60850000Y-31700000D03*
X60850000Y-34000000D03*
D41*
X67150000Y-34000000D03*
D40*
X60850000Y-36300000D03*
%TD*%
D10*
%TO.C,Q6*%
X74918776Y-76258576D03*
X74918776Y-78158576D03*
X76793776Y-77208576D03*
%TD*%
D14*
%TO.C,C98*%
X84171644Y-47725268D03*
X85721644Y-47725268D03*
%TD*%
D13*
%TO.C,R34*%
X104704214Y-56204198D03*
X106354214Y-56204198D03*
%TD*%
D42*
%TO.C,Q10*%
X54050000Y-12937500D03*
X55950000Y-12937500D03*
X55000000Y-11062500D03*
%TD*%
D14*
%TO.C,C72*%
X87269155Y-40824299D03*
X88819155Y-40824299D03*
%TD*%
D13*
%TO.C,R40*%
X96831040Y-4888138D03*
X98481040Y-4888138D03*
%TD*%
D14*
%TO.C,C911*%
X44802960Y-23944822D03*
X46352960Y-23944822D03*
%TD*%
D13*
%TO.C,R148*%
X113654759Y-85305137D03*
X115304759Y-85305137D03*
%TD*%
%TO.C,R66*%
X88697792Y-74046187D03*
X90347792Y-74046187D03*
%TD*%
D17*
%TO.C,U9*%
X67525000Y-38190000D03*
X67525000Y-39460000D03*
X67525000Y-40730000D03*
X67525000Y-42000000D03*
X67525000Y-43270000D03*
X67525000Y-44540000D03*
X67525000Y-45810000D03*
X72475000Y-45810000D03*
X72475000Y-44540000D03*
X72475000Y-43270000D03*
X72475000Y-42000000D03*
X72475000Y-40730000D03*
X72475000Y-39460000D03*
X72475000Y-38190000D03*
%TD*%
D10*
%TO.C,Q5*%
X69104315Y-76470634D03*
X69104315Y-78370634D03*
X70979315Y-77420634D03*
%TD*%
D13*
%TO.C,R42*%
X88330187Y-61066121D03*
X89980187Y-61066121D03*
%TD*%
D14*
%TO.C,C99*%
X75497751Y-51466820D03*
X77047751Y-51466820D03*
%TD*%
%TO.C,C23*%
X111957779Y-46232197D03*
X113507779Y-46232197D03*
%TD*%
D13*
%TO.C,R79*%
X114140651Y-30721716D03*
X115790651Y-30721716D03*
%TD*%
D21*
%TO.C,D85*%
X45050310Y-8071784D03*
X48350310Y-8071784D03*
%TD*%
D14*
%TO.C,C120*%
X39586615Y-84606614D03*
X41136615Y-84606614D03*
%TD*%
D13*
%TO.C,R24*%
X118609314Y-54767647D03*
X120259314Y-54767647D03*
%TD*%
D43*
%TO.C,D101*%
X90000000Y-26000000D03*
X90000000Y-22000000D03*
%TD*%
D13*
%TO.C,R167*%
X54850294Y-66416641D03*
X56500294Y-66416641D03*
%TD*%
%TO.C,R45*%
X83382355Y-60996828D03*
X85032355Y-60996828D03*
%TD*%
%TO.C,R78*%
X14168562Y-69658180D03*
X15818562Y-69658180D03*
%TD*%
%TO.C,R105*%
X100178247Y-21231046D03*
X101828247Y-21231046D03*
%TD*%
%TO.C,R119A*%
X44475000Y-65000000D03*
X46125000Y-65000000D03*
%TD*%
D17*
%TO.C,U19*%
X85525000Y-14095000D03*
X85525000Y-15365000D03*
X85525000Y-16635000D03*
X85525000Y-17905000D03*
X90475000Y-17905000D03*
X90475000Y-16635000D03*
X90475000Y-15365000D03*
X90475000Y-14095000D03*
D44*
X88000000Y-16000000D03*
%TD*%
D13*
%TO.C,R108A*%
X30679059Y-70526515D03*
X32329059Y-70526515D03*
%TD*%
D14*
%TO.C,C71*%
X42019663Y-30444232D03*
X43569663Y-30444232D03*
%TD*%
%TO.C,C107*%
X73081276Y-33791423D03*
X74631276Y-33791423D03*
%TD*%
D13*
%TO.C,R122A*%
X92407352Y-55232352D03*
X94057352Y-55232352D03*
%TD*%
%TO.C,R67*%
X80470801Y-74170785D03*
X82120801Y-74170785D03*
%TD*%
D14*
%TO.C,C94*%
X50306371Y-42246608D03*
X51856371Y-42246608D03*
%TD*%
D45*
%TO.C,D83*%
X124000000Y-100650000D03*
X124000000Y-97350000D03*
%TD*%
D46*
%TO.C,U20*%
X13870000Y-107690000D03*
X16410000Y-107690000D03*
X18950000Y-107690000D03*
X21490000Y-107690000D03*
X24030000Y-107690000D03*
X26570000Y-107690000D03*
X29110000Y-107690000D03*
X31650000Y-107690000D03*
X34190000Y-107690000D03*
X36730000Y-107690000D03*
X39270000Y-107690000D03*
X41810000Y-107690000D03*
X44350000Y-107690000D03*
X46890000Y-107690000D03*
X49430000Y-107690000D03*
X51970000Y-107690000D03*
X54510000Y-107690000D03*
X57050000Y-107690000D03*
X59590000Y-107690000D03*
X62130000Y-107690000D03*
X62130000Y-88310000D03*
X59590000Y-88310000D03*
X57050000Y-88310000D03*
X54510000Y-88310000D03*
X51970000Y-88310000D03*
X49430000Y-88310000D03*
X46890000Y-88310000D03*
X44350000Y-88310000D03*
X41810000Y-88310000D03*
X39270000Y-88310000D03*
X36730000Y-88310000D03*
X34190000Y-88310000D03*
X31650000Y-88310000D03*
X29110000Y-88310000D03*
X26570000Y-88310000D03*
X24030000Y-88310000D03*
X21490000Y-88310000D03*
X18950000Y-88310000D03*
X16410000Y-88310000D03*
X13870000Y-88310000D03*
%TD*%
D13*
%TO.C,R82*%
X7467630Y-86405033D03*
X9117630Y-86405033D03*
%TD*%
%TO.C,R50*%
X102076137Y-94743732D03*
X103726137Y-94743732D03*
%TD*%
%TO.C,R99*%
X4836127Y-54946299D03*
X6486127Y-54946299D03*
%TD*%
D33*
%TO.C,R137*%
X116863703Y-100860276D03*
X116863703Y-99210276D03*
%TD*%
D14*
%TO.C,C97*%
X88784036Y-34818305D03*
X90334036Y-34818305D03*
%TD*%
D47*
%TO.C,C108*%
X59970154Y-21882885D03*
X61870154Y-21882885D03*
%TD*%
D13*
%TO.C,R95*%
X10449103Y-50087748D03*
X12099103Y-50087748D03*
%TD*%
D14*
%TO.C,C46*%
X96785722Y-93846282D03*
X98335722Y-93846282D03*
%TD*%
D21*
%TO.C,D74*%
X29446903Y-32544948D03*
X32746903Y-32544948D03*
%TD*%
D13*
%TO.C,R126A*%
X19356385Y-63151948D03*
X21006385Y-63151948D03*
%TD*%
D14*
%TO.C,C3*%
X117622849Y-34980519D03*
X119172849Y-34980519D03*
%TD*%
D48*
%TO.C,U22*%
X82862500Y-109050000D03*
X82862500Y-110000000D03*
X82862500Y-110950000D03*
X85137500Y-110950000D03*
X85137500Y-109050000D03*
%TD*%
D13*
%TO.C,R108*%
X41606847Y-12432941D03*
X43256847Y-12432941D03*
%TD*%
%TO.C,R89*%
X125273240Y-93505834D03*
X126923240Y-93505834D03*
%TD*%
%TO.C,R23*%
X111052262Y-38486911D03*
X112702262Y-38486911D03*
%TD*%
D14*
%TO.C,C22*%
X112025000Y-42000000D03*
X113575000Y-42000000D03*
%TD*%
D17*
%TO.C,U6*%
X52525000Y-26190000D03*
X52525000Y-27460000D03*
X52525000Y-28730000D03*
X52525000Y-30000000D03*
X52525000Y-31270000D03*
X52525000Y-32540000D03*
X52525000Y-33810000D03*
X57475000Y-33810000D03*
X57475000Y-32540000D03*
X57475000Y-31270000D03*
X57475000Y-30000000D03*
X57475000Y-28730000D03*
X57475000Y-27460000D03*
X57475000Y-26190000D03*
%TD*%
D14*
%TO.C,C81*%
X44767347Y-83889259D03*
X46317347Y-83889259D03*
%TD*%
D13*
%TO.C,R110A*%
X19687469Y-71151117D03*
X21337469Y-71151117D03*
%TD*%
%TO.C,R118A*%
X35775000Y-70000000D03*
X37425000Y-70000000D03*
%TD*%
%TO.C,R25*%
X123557556Y-54002722D03*
X125207556Y-54002722D03*
%TD*%
%TO.C,R101*%
X96254845Y-12882885D03*
X97904845Y-12882885D03*
%TD*%
%TO.C,R21*%
X126204828Y-49158568D03*
X127854828Y-49158568D03*
%TD*%
D26*
%TO.C,RV3*%
X125250000Y-107550000D03*
D27*
X124000000Y-110450000D03*
D26*
X122750000Y-107550000D03*
%TD*%
D13*
%TO.C,R97*%
X15941557Y-29778796D03*
X17591557Y-29778796D03*
%TD*%
%TO.C,R174*%
X81053086Y-51691776D03*
X82703086Y-51691776D03*
%TD*%
D10*
%TO.C,Q2*%
X102616849Y-89563513D03*
X102616849Y-91463513D03*
X104491849Y-90513513D03*
%TD*%
D14*
%TO.C,C78*%
X61510452Y-47726323D03*
X63060452Y-47726323D03*
%TD*%
D13*
%TO.C,R92*%
X7815225Y-94655353D03*
X9465225Y-94655353D03*
%TD*%
D14*
%TO.C,C72A*%
X38827150Y-51019480D03*
X40377150Y-51019480D03*
%TD*%
D13*
%TO.C,R143*%
X14882206Y-36966797D03*
X16532206Y-36966797D03*
%TD*%
D49*
%TO.C,U21*%
X81350000Y-89015000D03*
X81350000Y-90285000D03*
X81350000Y-91555000D03*
X81350000Y-92825000D03*
X81350000Y-94095000D03*
X81350000Y-95365000D03*
X81350000Y-96635000D03*
X81350000Y-97905000D03*
X81350000Y-99175000D03*
X81350000Y-100445000D03*
X81350000Y-101715000D03*
X81350000Y-102985000D03*
X90650000Y-102985000D03*
X90650000Y-101715000D03*
X90650000Y-100445000D03*
X90650000Y-99175000D03*
X90650000Y-97905000D03*
X90650000Y-96635000D03*
X90650000Y-95365000D03*
X90650000Y-94095000D03*
X90650000Y-92825000D03*
X90650000Y-91555000D03*
X90650000Y-90285000D03*
X90650000Y-89015000D03*
%TD*%
D13*
%TO.C,R85*%
X13358620Y-60964703D03*
X15008620Y-60964703D03*
%TD*%
%TO.C,R113*%
X89116772Y-106357265D03*
X90766772Y-106357265D03*
%TD*%
D17*
%TO.C,U2*%
X117525000Y-58190000D03*
X117525000Y-59460000D03*
X117525000Y-60730000D03*
X117525000Y-62000000D03*
X117525000Y-63270000D03*
X117525000Y-64540000D03*
X117525000Y-65810000D03*
X122475000Y-65810000D03*
X122475000Y-64540000D03*
X122475000Y-63270000D03*
X122475000Y-62000000D03*
X122475000Y-60730000D03*
X122475000Y-59460000D03*
X122475000Y-58190000D03*
%TD*%
D13*
%TO.C,R136*%
X132832295Y-89880803D03*
X134482295Y-89880803D03*
%TD*%
%TO.C,R103A*%
X44912904Y-41847551D03*
X46562904Y-41847551D03*
%TD*%
%TO.C,R65*%
X104268952Y-47505156D03*
X105918952Y-47505156D03*
%TD*%
D14*
%TO.C,C121*%
X78745240Y-32305137D03*
X80295240Y-32305137D03*
%TD*%
D13*
%TO.C,R112*%
X94644068Y-97580108D03*
X96294068Y-97580108D03*
%TD*%
%TO.C,R140*%
X29138680Y-29050146D03*
X30788680Y-29050146D03*
%TD*%
D21*
%TO.C,D1*%
X113133562Y-81135691D03*
X116433562Y-81135691D03*
%TD*%
D13*
%TO.C,R68*%
X94696279Y-73970675D03*
X96346279Y-73970675D03*
%TD*%
%TO.C,R47*%
X78183436Y-65764379D03*
X79833436Y-65764379D03*
%TD*%
%TO.C,R98*%
X3601116Y-67749859D03*
X5251116Y-67749859D03*
%TD*%
D50*
%TO.C,FB100*%
X61866025Y-18075000D03*
X61866025Y-14925000D03*
%TD*%
D33*
%TO.C,R139*%
X119000000Y-96825000D03*
X119000000Y-95175000D03*
%TD*%
D13*
%TO.C,R150*%
X133594233Y-64811741D03*
X135244233Y-64811741D03*
%TD*%
D14*
%TO.C,C20*%
X120827150Y-49019480D03*
X122377150Y-49019480D03*
%TD*%
D21*
%TO.C,D104*%
X39894237Y-19901319D03*
X43194237Y-19901319D03*
%TD*%
D45*
%TO.C,D105*%
X87000000Y-32650000D03*
X87000000Y-29350000D03*
%TD*%
D13*
%TO.C,R75*%
X96482601Y-108371089D03*
X98132601Y-108371089D03*
%TD*%
D17*
%TO.C,U14*%
X35525000Y-40190000D03*
X35525000Y-41460000D03*
X35525000Y-42730000D03*
X35525000Y-44000000D03*
X35525000Y-45270000D03*
X35525000Y-46540000D03*
X35525000Y-47810000D03*
X40475000Y-47810000D03*
X40475000Y-46540000D03*
X40475000Y-45270000D03*
X40475000Y-44000000D03*
X40475000Y-42730000D03*
X40475000Y-41460000D03*
X40475000Y-40190000D03*
%TD*%
%TO.C,U15*%
X35525000Y-55555000D03*
X35525000Y-56825000D03*
X35525000Y-58095000D03*
X35525000Y-59365000D03*
X35525000Y-60635000D03*
X35525000Y-61905000D03*
X35525000Y-63175000D03*
X35525000Y-64445000D03*
X40475000Y-64445000D03*
X40475000Y-63175000D03*
X40475000Y-61905000D03*
X40475000Y-60635000D03*
X40475000Y-59365000D03*
X40475000Y-58095000D03*
X40475000Y-56825000D03*
X40475000Y-55555000D03*
%TD*%
D21*
%TO.C,D70*%
X28350000Y-44000000D03*
X31650000Y-44000000D03*
%TD*%
D13*
%TO.C,R102A*%
X32798366Y-51271565D03*
X34448366Y-51271565D03*
%TD*%
%TO.C,R147*%
X86753661Y-70644086D03*
X88403661Y-70644086D03*
%TD*%
M02*
