%TF.GenerationSoftware,KiCad,Pcbnew,10.0.4*%
%TF.CreationDate,2026-07-25T08:40:23-05:00*%
%TF.ProjectId,glitchwave567_ctrl,676c6974-6368-4776-9176-653536375f63,rev?*%
%TF.SameCoordinates,Original*%
%TF.FileFunction,Legend,Bot*%
%TF.FilePolarity,Positive*%
%FSLAX46Y46*%
G04 Gerber Fmt 4.6, Leading zero omitted, Abs format (unit mm)*
G04 Created by KiCad (PCBNEW 10.0.4) date 2026-07-25 08:40:23*
%MOMM*%
%LPD*%
G01*
G04 APERTURE LIST*
%ADD10C,1.800000*%
%ADD11O,2.900000X3.200000*%
%ADD12R,1.700000X1.700000*%
%ADD13O,1.700000X1.700000*%
%ADD14O,2.300000X4.000000*%
G04 APERTURE END LIST*
%LPC*%
D10*
%TO.C,RV6*%
X101500000Y-57000000D03*
X104000000Y-57000000D03*
X106500000Y-57000000D03*
D11*
X99600000Y-50000000D03*
X108400000Y-50000000D03*
%TD*%
D10*
%TO.C,RV2*%
X66500000Y-29000000D03*
X69000000Y-29000000D03*
X71500000Y-29000000D03*
D11*
X64600000Y-22000000D03*
X73400000Y-22000000D03*
%TD*%
D10*
%TO.C,RV5*%
X66500000Y-57000000D03*
X69000000Y-57000000D03*
X71500000Y-57000000D03*
D11*
X64600000Y-50000000D03*
X73400000Y-50000000D03*
%TD*%
D12*
%TO.C,J1*%
X96000000Y-104000000D03*
D13*
X96000000Y-101460000D03*
X98540000Y-104000000D03*
X98540000Y-101460000D03*
X101080000Y-104000000D03*
X101080000Y-101460000D03*
X103620000Y-104000000D03*
X103620000Y-101460000D03*
X106160000Y-104000000D03*
X106160000Y-101460000D03*
X108700000Y-104000000D03*
X108700000Y-101460000D03*
X111240000Y-104000000D03*
X111240000Y-101460000D03*
X113780000Y-104000000D03*
X113780000Y-101460000D03*
%TD*%
D14*
%TO.C,SW2*%
X101000000Y-96000000D03*
X107000000Y-96000000D03*
%TD*%
%TO.C,SW1*%
X31000000Y-96000000D03*
X37000000Y-96000000D03*
%TD*%
D10*
%TO.C,RV4*%
X31500000Y-57000000D03*
X34000000Y-57000000D03*
X36500000Y-57000000D03*
D11*
X29600000Y-50000000D03*
X38400000Y-50000000D03*
%TD*%
D10*
%TO.C,RV1*%
X31500000Y-29000000D03*
X34000000Y-29000000D03*
X36500000Y-29000000D03*
D11*
X29600000Y-22000000D03*
X38400000Y-22000000D03*
%TD*%
D10*
%TO.C,RV3*%
X101500000Y-29000000D03*
X104000000Y-29000000D03*
X106500000Y-29000000D03*
D11*
X99600000Y-22000000D03*
X108400000Y-22000000D03*
%TD*%
%LPD*%
M02*
