%TF.GenerationSoftware,KiCad,Pcbnew,10.0.4*%
%TF.CreationDate,2026-07-25T08:40:23-05:00*%
%TF.ProjectId,glitchwave567_ctrl,676c6974-6368-4776-9176-653536375f63,rev?*%
%TF.SameCoordinates,Original*%
%TF.FileFunction,Copper,L1,Top*%
%TF.FilePolarity,Positive*%
%FSLAX46Y46*%
G04 Gerber Fmt 4.6, Leading zero omitted, Abs format (unit mm)*
G04 Created by KiCad (PCBNEW 10.0.4) date 2026-07-25 08:40:23*
%MOMM*%
%LPD*%
G01*
G04 APERTURE LIST*
G04 Aperture macros list*
%AMRoundRect*
0 Rectangle with rounded corners*
0 $1 Rounding radius*
0 $2 $3 $4 $5 $6 $7 $8 $9 X,Y pos of 4 corners*
0 Add a 4 corners polygon primitive as box body*
4,1,4,$2,$3,$4,$5,$6,$7,$8,$9,$2,$3,0*
0 Add four circle primitives for the rounded corners*
1,1,$1+$1,$2,$3*
1,1,$1+$1,$4,$5*
1,1,$1+$1,$6,$7*
1,1,$1+$1,$8,$9*
0 Add four rect primitives between the rounded corners*
20,1,$1+$1,$2,$3,$4,$5,0*
20,1,$1+$1,$4,$5,$6,$7,0*
20,1,$1+$1,$6,$7,$8,$9,0*
20,1,$1+$1,$8,$9,$2,$3,0*%
G04 Aperture macros list end*
%TA.AperFunction,ComponentPad*%
%ADD10C,1.800000*%
%TD*%
%TA.AperFunction,ComponentPad*%
%ADD11O,2.900000X3.200000*%
%TD*%
%TA.AperFunction,SMDPad,CuDef*%
%ADD12R,1.500000X0.900000*%
%TD*%
%TA.AperFunction,ComponentPad*%
%ADD13R,1.700000X1.700000*%
%TD*%
%TA.AperFunction,ComponentPad*%
%ADD14O,1.700000X1.700000*%
%TD*%
%TA.AperFunction,SMDPad,CuDef*%
%ADD15RoundRect,0.250000X-1.500000X-0.550000X1.500000X-0.550000X1.500000X0.550000X-1.500000X0.550000X0*%
%TD*%
%TA.AperFunction,SMDPad,CuDef*%
%ADD16RoundRect,0.225000X-0.225000X-0.250000X0.225000X-0.250000X0.225000X0.250000X-0.225000X0.250000X0*%
%TD*%
%TA.AperFunction,ComponentPad*%
%ADD17O,2.300000X4.000000*%
%TD*%
%TA.AperFunction,ViaPad*%
%ADD18C,0.500000*%
%TD*%
%TA.AperFunction,Conductor*%
%ADD19C,0.400000*%
%TD*%
%TA.AperFunction,Conductor*%
%ADD20C,0.250000*%
%TD*%
G04 APERTURE END LIST*
D10*
%TO.P,RV6,1*%
%TO.N,3V3*%
X101500000Y-57000000D03*
%TO.P,RV6,2*%
%TO.N,/POT6_W*%
X104000000Y-57000000D03*
%TO.P,RV6,3*%
%TO.N,GND*%
X106500000Y-57000000D03*
D11*
%TO.P,RV6,MP*%
%TO.N,N/C*%
X99600000Y-50000000D03*
X108400000Y-50000000D03*
%TD*%
D10*
%TO.P,RV2,1*%
%TO.N,3V3*%
X66500000Y-29000000D03*
%TO.P,RV2,2*%
%TO.N,/POT2_W*%
X69000000Y-29000000D03*
%TO.P,RV2,3*%
%TO.N,GND*%
X71500000Y-29000000D03*
D11*
%TO.P,RV2,MP*%
%TO.N,N/C*%
X64600000Y-22000000D03*
X73400000Y-22000000D03*
%TD*%
D10*
%TO.P,RV5,1*%
%TO.N,3V3*%
X66500000Y-57000000D03*
%TO.P,RV5,2*%
%TO.N,/POT5_W*%
X69000000Y-57000000D03*
%TO.P,RV5,3*%
%TO.N,GND*%
X71500000Y-57000000D03*
D11*
%TO.P,RV5,MP*%
%TO.N,N/C*%
X64600000Y-50000000D03*
X73400000Y-50000000D03*
%TD*%
D12*
%TO.P,LED5,1*%
%TO.N,+5V*%
X101550000Y-74350000D03*
%TO.P,LED5,2*%
%TO.N,/WSD5*%
X101550000Y-77650000D03*
%TO.P,LED5,3*%
%TO.N,GND*%
X106450000Y-77650000D03*
%TO.P,LED5,4*%
%TO.N,/WSD4*%
X106450000Y-74350000D03*
%TD*%
D13*
%TO.P,J1,1*%
%TO.N,GND*%
X96000000Y-104000000D03*
D14*
%TO.P,J1,2*%
%TO.N,+5V*%
X96000000Y-101460000D03*
%TO.P,J1,3*%
%TO.N,3V3*%
X98540000Y-104000000D03*
%TO.P,J1,4*%
%TO.N,GND*%
X98540000Y-101460000D03*
%TO.P,J1,5*%
%TO.N,/POT1_W*%
X101080000Y-104000000D03*
%TO.P,J1,6*%
%TO.N,/POT2_W*%
X101080000Y-101460000D03*
%TO.P,J1,7*%
%TO.N,/POT3_W*%
X103620000Y-104000000D03*
%TO.P,J1,8*%
%TO.N,/POT4_W*%
X103620000Y-101460000D03*
%TO.P,J1,9*%
%TO.N,/POT5_W*%
X106160000Y-104000000D03*
%TO.P,J1,10*%
%TO.N,/POT6_W*%
X106160000Y-101460000D03*
%TO.P,J1,11*%
%TO.N,/STOMP1*%
X108700000Y-104000000D03*
%TO.P,J1,12*%
%TO.N,/STOMP2*%
X108700000Y-101460000D03*
%TO.P,J1,13*%
%TO.N,/WS_IN*%
X111240000Y-104000000D03*
%TO.P,J1,14*%
%TO.N,GND*%
X111240000Y-101460000D03*
%TO.P,J1,15*%
%TO.N,unconnected-(J1-Pin_15-Pad15)*%
X113780000Y-104000000D03*
%TO.P,J1,16*%
%TO.N,GND*%
X113780000Y-101460000D03*
%TD*%
D15*
%TO.P,C7,1*%
%TO.N,+5V*%
X119300000Y-76000000D03*
%TO.P,C7,2*%
%TO.N,GND*%
X124700000Y-76000000D03*
%TD*%
D16*
%TO.P,C3,1*%
%TO.N,+5V*%
X62851839Y-61577702D03*
%TO.P,C3,2*%
%TO.N,GND*%
X64401839Y-61577702D03*
%TD*%
D17*
%TO.P,SW2,1*%
%TO.N,/STOMP2*%
X101000000Y-96000000D03*
%TO.P,SW2,2*%
%TO.N,GND*%
X107000000Y-96000000D03*
%TD*%
D12*
%TO.P,LED6,1*%
%TO.N,+5V*%
X66550000Y-74350000D03*
%TO.P,LED6,2*%
%TO.N,unconnected-(LED6-DOUT-Pad2)*%
X66550000Y-77650000D03*
%TO.P,LED6,3*%
%TO.N,GND*%
X71450000Y-77650000D03*
%TO.P,LED6,4*%
%TO.N,/WSD5*%
X71450000Y-74350000D03*
%TD*%
%TO.P,LED3,1*%
%TO.N,+5V*%
X101550000Y-34350000D03*
%TO.P,LED3,2*%
%TO.N,/WSD3*%
X101550000Y-37650000D03*
%TO.P,LED3,3*%
%TO.N,GND*%
X106450000Y-37650000D03*
%TO.P,LED3,4*%
%TO.N,/WSD2*%
X106450000Y-34350000D03*
%TD*%
D16*
%TO.P,C5,1*%
%TO.N,+5V*%
X64145486Y-64931284D03*
%TO.P,C5,2*%
%TO.N,GND*%
X65695486Y-64931284D03*
%TD*%
D17*
%TO.P,SW1,1*%
%TO.N,/STOMP1*%
X31000000Y-96000000D03*
%TO.P,SW1,2*%
%TO.N,GND*%
X37000000Y-96000000D03*
%TD*%
D16*
%TO.P,C2,1*%
%TO.N,+5V*%
X69403330Y-64653121D03*
%TO.P,C2,2*%
%TO.N,GND*%
X70953330Y-64653121D03*
%TD*%
%TO.P,C1,1*%
%TO.N,+5V*%
X68225000Y-60800000D03*
%TO.P,C1,2*%
%TO.N,GND*%
X69775000Y-60800000D03*
%TD*%
D10*
%TO.P,RV4,1*%
%TO.N,3V3*%
X31500000Y-57000000D03*
%TO.P,RV4,2*%
%TO.N,/POT4_W*%
X34000000Y-57000000D03*
%TO.P,RV4,3*%
%TO.N,GND*%
X36500000Y-57000000D03*
D11*
%TO.P,RV4,MP*%
%TO.N,N/C*%
X29600000Y-50000000D03*
X38400000Y-50000000D03*
%TD*%
D12*
%TO.P,LED1,1*%
%TO.N,+5V*%
X31550000Y-34350000D03*
%TO.P,LED1,2*%
%TO.N,/WSD1*%
X31550000Y-37650000D03*
%TO.P,LED1,3*%
%TO.N,GND*%
X36450000Y-37650000D03*
%TO.P,LED1,4*%
%TO.N,/WS_IN*%
X36450000Y-34350000D03*
%TD*%
D16*
%TO.P,C4,1*%
%TO.N,+5V*%
X74423932Y-61591615D03*
%TO.P,C4,2*%
%TO.N,GND*%
X75973932Y-61591615D03*
%TD*%
D10*
%TO.P,RV1,1*%
%TO.N,3V3*%
X31500000Y-29000000D03*
%TO.P,RV1,2*%
%TO.N,/POT1_W*%
X34000000Y-29000000D03*
%TO.P,RV1,3*%
%TO.N,GND*%
X36500000Y-29000000D03*
D11*
%TO.P,RV1,MP*%
%TO.N,N/C*%
X29600000Y-22000000D03*
X38400000Y-22000000D03*
%TD*%
D12*
%TO.P,LED4,1*%
%TO.N,+5V*%
X31550000Y-74350000D03*
%TO.P,LED4,2*%
%TO.N,/WSD4*%
X31550000Y-77650000D03*
%TO.P,LED4,3*%
%TO.N,GND*%
X36450000Y-77650000D03*
%TO.P,LED4,4*%
%TO.N,/WSD3*%
X36450000Y-74350000D03*
%TD*%
%TO.P,LED2,1*%
%TO.N,+5V*%
X66550000Y-34350000D03*
%TO.P,LED2,2*%
%TO.N,/WSD2*%
X66550000Y-37650000D03*
%TO.P,LED2,3*%
%TO.N,GND*%
X71450000Y-37650000D03*
%TO.P,LED2,4*%
%TO.N,/WSD1*%
X71450000Y-34350000D03*
%TD*%
D10*
%TO.P,RV3,1*%
%TO.N,3V3*%
X101500000Y-29000000D03*
%TO.P,RV3,2*%
%TO.N,/POT3_W*%
X104000000Y-29000000D03*
%TO.P,RV3,3*%
%TO.N,GND*%
X106500000Y-29000000D03*
D11*
%TO.P,RV3,MP*%
%TO.N,N/C*%
X99600000Y-22000000D03*
X108400000Y-22000000D03*
%TD*%
D16*
%TO.P,C6,1*%
%TO.N,+5V*%
X74852028Y-65789860D03*
%TO.P,C6,2*%
%TO.N,GND*%
X76402028Y-65789860D03*
%TD*%
D18*
%TO.N,/POT1_W*%
X97000000Y-98250000D03*
%TO.N,/POT4_W*%
X97000000Y-95000000D03*
X77250000Y-58250000D03*
X61250000Y-58250000D03*
%TO.N,/WSD1*%
X49750000Y-37000000D03*
X71500000Y-34250000D03*
%TO.N,/WSD3*%
X71250000Y-68000000D03*
X68250000Y-71000000D03*
X36500000Y-74250000D03*
X75500000Y-63750000D03*
%TO.N,/WSD4*%
X103400000Y-74250000D03*
X99550000Y-78100000D03*
%TO.N,/WS_IN*%
X36300000Y-34100000D03*
X93500000Y-106700000D03*
%TO.N,GND*%
X132000000Y-96000000D03*
X15000000Y-87000000D03*
X123000000Y-6000000D03*
X6000000Y-78000000D03*
X51000000Y-60000000D03*
X24000000Y-51000000D03*
X42000000Y-96000000D03*
X69000000Y-87000000D03*
X78000000Y-6000000D03*
X96000000Y-24000000D03*
X24000000Y-96000000D03*
X132000000Y-78000000D03*
X69000000Y-96000000D03*
X15000000Y-51000000D03*
X15000000Y-33000000D03*
X132000000Y-60000000D03*
X60000000Y-15000000D03*
X24000000Y-87000000D03*
X114000000Y-33000000D03*
X132000000Y-24000000D03*
X51000000Y-87000000D03*
X132000000Y-51000000D03*
X24000000Y-69000000D03*
X24000000Y-33000000D03*
X123000000Y-96000000D03*
X42000000Y-51000000D03*
X42000000Y-60000000D03*
X24000000Y-78000000D03*
X42000000Y-87000000D03*
X42000000Y-69000000D03*
X114000000Y-24000000D03*
X60000000Y-69000000D03*
X96000000Y-6000000D03*
X123000000Y-105000000D03*
X96000000Y-60000000D03*
X42000000Y-33000000D03*
X123000000Y-51000000D03*
X33000000Y-6000000D03*
X114000000Y-51000000D03*
X15000000Y-6000000D03*
X51000000Y-24000000D03*
X123000000Y-69000000D03*
X78000000Y-42000000D03*
X87000000Y-60000000D03*
X114000000Y-96000000D03*
X60000000Y-6000000D03*
X123000000Y-24000000D03*
X123000000Y-42000000D03*
X51000000Y-42000000D03*
X51000000Y-33000000D03*
X69000000Y-24000000D03*
X78000000Y-87000000D03*
X114000000Y-15000000D03*
X24000000Y-105000000D03*
X132000000Y-33000000D03*
X24000000Y-6000000D03*
X114000000Y-78000000D03*
X60000000Y-24000000D03*
X6000000Y-42000000D03*
X96000000Y-15000000D03*
X60000000Y-51000000D03*
X6000000Y-33000000D03*
X6000000Y-60000000D03*
X60000000Y-33000000D03*
X87000000Y-6000000D03*
X33000000Y-15000000D03*
X78000000Y-15000000D03*
X15000000Y-60000000D03*
X33000000Y-60000000D03*
X6000000Y-15000000D03*
X6000000Y-69000000D03*
X51000000Y-96000000D03*
X114000000Y-60000000D03*
X132000000Y-15000000D03*
X60000000Y-96000000D03*
X15000000Y-24000000D03*
X51000000Y-6000000D03*
X15000000Y-105000000D03*
X33000000Y-42000000D03*
X105000000Y-42000000D03*
X6000000Y-96000000D03*
X87000000Y-15000000D03*
X105000000Y-24000000D03*
X132000000Y-87000000D03*
X105000000Y-15000000D03*
X69000000Y-51000000D03*
X114000000Y-6000000D03*
X60000000Y-87000000D03*
X33000000Y-24000000D03*
X123000000Y-33000000D03*
X42000000Y-24000000D03*
X24000000Y-15000000D03*
X87000000Y-24000000D03*
X87000000Y-42000000D03*
X24000000Y-60000000D03*
X69000000Y-42000000D03*
X6000000Y-51000000D03*
X51000000Y-69000000D03*
X105000000Y-51000000D03*
X114000000Y-87000000D03*
X33000000Y-105000000D03*
X123000000Y-15000000D03*
X6000000Y-24000000D03*
X123000000Y-87000000D03*
X78000000Y-24000000D03*
X15000000Y-15000000D03*
X60000000Y-42000000D03*
X24000000Y-42000000D03*
X105000000Y-6000000D03*
X24000000Y-24000000D03*
X42000000Y-15000000D03*
X69000000Y-15000000D03*
X132000000Y-69000000D03*
X6000000Y-87000000D03*
X123000000Y-60000000D03*
X114000000Y-69000000D03*
X96000000Y-51000000D03*
X15000000Y-78000000D03*
X51000000Y-15000000D03*
X33000000Y-69000000D03*
X15000000Y-42000000D03*
X132000000Y-42000000D03*
X114000000Y-42000000D03*
X15000000Y-69000000D03*
X69000000Y-6000000D03*
X42000000Y-6000000D03*
X15000000Y-96000000D03*
X33000000Y-87000000D03*
%TD*%
%TO.N,+5V*%
D19*
X103400000Y-75350000D02*
X102850000Y-75350000D01*
X102850000Y-75350000D02*
X101750000Y-74250000D01*
X62150000Y-52800000D02*
X62700000Y-53350000D01*
X74800000Y-66000000D02*
X77000000Y-68200000D01*
X101200000Y-82500000D02*
X101200000Y-81400000D01*
X68200000Y-61050000D02*
X68200000Y-63800000D01*
X101750000Y-34100000D02*
X100650000Y-33000000D01*
X62700000Y-62150000D02*
X63800000Y-63250000D01*
X50050000Y-73700000D02*
X66550000Y-73700000D01*
X68750000Y-34100000D02*
X66550000Y-34100000D01*
X64350000Y-64900000D02*
X64350000Y-64350000D01*
X33550000Y-36300000D02*
X64900000Y-36300000D01*
X96250000Y-87450000D02*
X101200000Y-82500000D01*
X33000000Y-72600000D02*
X48950000Y-72600000D01*
X64900000Y-63800000D02*
X64900000Y-63250000D01*
X68750000Y-68750000D02*
X68750000Y-67650000D01*
X119350000Y-75900000D02*
X103950000Y-75900000D01*
X96250000Y-101200000D02*
X96250000Y-87450000D01*
X31350000Y-34100000D02*
X33550000Y-36300000D01*
X103400000Y-76450000D02*
X103950000Y-75900000D01*
X62150000Y-47300000D02*
X62150000Y-52800000D01*
X64900000Y-44550000D02*
X62150000Y-47300000D01*
X74250000Y-61600000D02*
X74250000Y-66000000D01*
X68200000Y-63800000D02*
X69300000Y-64900000D01*
X67650000Y-72600000D02*
X67650000Y-69850000D01*
X66550000Y-34100000D02*
X66550000Y-34650000D01*
X77000000Y-68200000D02*
X86900000Y-68200000D01*
X69300000Y-64900000D02*
X70400000Y-66000000D01*
X69850000Y-33000000D02*
X68750000Y-34100000D01*
X67650000Y-69850000D02*
X68750000Y-68750000D01*
X103950000Y-75900000D02*
X103400000Y-75350000D01*
X86900000Y-68200000D02*
X92950000Y-74250000D01*
X63800000Y-63250000D02*
X64900000Y-63250000D01*
X66550000Y-74250000D02*
X66550000Y-73700000D01*
X48950000Y-72600000D02*
X50050000Y-73700000D01*
X70400000Y-66000000D02*
X74800000Y-66000000D01*
X62700000Y-53350000D02*
X62700000Y-61600000D01*
X64350000Y-64350000D02*
X64900000Y-63800000D01*
X101200000Y-81400000D02*
X103400000Y-79200000D01*
X103400000Y-79200000D02*
X103400000Y-76450000D01*
X31350000Y-74250000D02*
X33000000Y-72600000D01*
X68750000Y-67650000D02*
X70400000Y-66000000D01*
X64900000Y-36300000D02*
X64900000Y-44550000D01*
X66550000Y-34650000D02*
X64900000Y-36300000D01*
X62700000Y-61600000D02*
X62700000Y-62150000D01*
X64900000Y-63250000D02*
X68200000Y-63250000D01*
X66550000Y-73700000D02*
X67650000Y-72600000D01*
X100650000Y-33000000D02*
X69850000Y-33000000D01*
X92950000Y-74250000D02*
X101750000Y-74250000D01*
%TO.N,/POT1_W*%
D20*
X101000000Y-104000000D02*
X99750000Y-102750000D01*
X99750000Y-101000000D02*
X97000000Y-98250000D01*
X101080000Y-104000000D02*
X101000000Y-104000000D01*
X99750000Y-102750000D02*
X99750000Y-101000000D01*
%TO.N,/POT4_W*%
X61250000Y-58250000D02*
X36000000Y-58250000D01*
X34750000Y-57000000D02*
X34000000Y-57000000D01*
X103620000Y-101460000D02*
X103500000Y-101500000D01*
X103500000Y-101500000D02*
X97000000Y-95000000D01*
X36000000Y-58250000D02*
X34750000Y-57000000D01*
%TO.N,/STOMP1*%
X107800000Y-105050000D02*
X108900000Y-103950000D01*
X107800000Y-106150000D02*
X107800000Y-105050000D01*
X30800000Y-96250000D02*
X40700000Y-106150000D01*
X40700000Y-106150000D02*
X107800000Y-106150000D01*
%TO.N,/STOMP2*%
X107800000Y-99550000D02*
X107800000Y-100100000D01*
X104500000Y-99550000D02*
X107800000Y-99550000D01*
X107800000Y-100100000D02*
X108900000Y-101200000D01*
X101200000Y-96250000D02*
X104500000Y-99550000D01*
%TO.N,/WSD1*%
X71500000Y-34250000D02*
X71450000Y-34350000D01*
X38750000Y-37000000D02*
X49750000Y-37000000D01*
X37250000Y-38500000D02*
X38750000Y-37000000D01*
X34750000Y-37750000D02*
X35500000Y-38500000D01*
X31550000Y-37650000D02*
X31500000Y-37750000D01*
X31500000Y-37750000D02*
X34750000Y-37750000D01*
X35500000Y-38500000D02*
X37250000Y-38500000D01*
%TO.N,/WSD2*%
X105600000Y-35200000D02*
X106700000Y-34100000D01*
X105050000Y-35200000D02*
X105600000Y-35200000D01*
X67100000Y-36850000D02*
X69300000Y-36850000D01*
X66550000Y-37400000D02*
X67100000Y-36850000D01*
X104500000Y-35750000D02*
X105050000Y-35200000D01*
X69300000Y-36850000D02*
X70400000Y-35750000D01*
X70400000Y-35750000D02*
X104500000Y-35750000D01*
%TO.N,/WSD3*%
X71250000Y-68000000D02*
X68250000Y-71000000D01*
X36500000Y-74250000D02*
X36450000Y-74350000D01*
X101550000Y-37650000D02*
X101500000Y-37750000D01*
X101500000Y-37750000D02*
X75500000Y-63750000D01*
%TO.N,/WSD4*%
X73150000Y-79200000D02*
X74250000Y-78100000D01*
X103400000Y-74250000D02*
X106700000Y-74250000D01*
X33000000Y-79200000D02*
X73150000Y-79200000D01*
X31350000Y-77550000D02*
X33000000Y-79200000D01*
X74250000Y-78100000D02*
X99550000Y-78100000D01*
%TO.N,/WSD5*%
X85250000Y-74250000D02*
X88550000Y-77550000D01*
X88550000Y-77550000D02*
X101750000Y-77550000D01*
X71500000Y-74250000D02*
X85250000Y-74250000D01*
%TO.N,/WS_IN*%
X110550000Y-106150000D02*
X110550000Y-104500000D01*
X107800000Y-106700000D02*
X108350000Y-106150000D01*
X108350000Y-106150000D02*
X110550000Y-106150000D01*
X93500000Y-106700000D02*
X107800000Y-106700000D01*
X110550000Y-104500000D02*
X111100000Y-103950000D01*
%TO.N,3V3*%
D19*
X86900000Y-29150000D02*
X101750000Y-29150000D01*
X66550000Y-29150000D02*
X66550000Y-29700000D01*
X33000000Y-30800000D02*
X48950000Y-30800000D01*
X48950000Y-30800000D02*
X50050000Y-29700000D01*
X66550000Y-29700000D02*
X67650000Y-30800000D01*
X85250000Y-30800000D02*
X86900000Y-29150000D01*
X31350000Y-29150000D02*
X33000000Y-30800000D01*
X67650000Y-30800000D02*
X85250000Y-30800000D01*
X50050000Y-29700000D02*
X66550000Y-29700000D01*
%TD*%
%TA.AperFunction,Conductor*%
%TO.N,GND*%
G36*
X126542539Y-1319685D02*
G01*
X126588294Y-1372489D01*
X126599500Y-1424000D01*
X126599500Y-10958724D01*
X126597973Y-10978123D01*
X126594508Y-10999999D01*
X126594508Y-11000000D01*
X126598736Y-11026693D01*
X126598739Y-11026722D01*
X126614352Y-11125301D01*
X126614354Y-11125304D01*
X126671950Y-11238342D01*
X126671952Y-11238344D01*
X126671954Y-11238347D01*
X126761652Y-11328045D01*
X126761654Y-11328046D01*
X126761658Y-11328050D01*
X126874696Y-11385646D01*
X126874697Y-11385646D01*
X126874699Y-11385647D01*
X126999997Y-11405492D01*
X127000000Y-11405492D01*
X127021879Y-11402026D01*
X127041275Y-11400500D01*
X136576000Y-11400500D01*
X136643039Y-11420185D01*
X136688794Y-11472989D01*
X136700000Y-11524500D01*
X136700000Y-102475500D01*
X136680315Y-102542539D01*
X136627511Y-102588294D01*
X136576000Y-102599500D01*
X127041275Y-102599500D01*
X127021879Y-102597973D01*
X127000000Y-102594508D01*
X126999998Y-102594508D01*
X126968481Y-102599500D01*
X126968480Y-102599500D01*
X126874699Y-102614352D01*
X126874698Y-102614352D01*
X126799337Y-102652751D01*
X126761658Y-102671950D01*
X126761657Y-102671951D01*
X126761652Y-102671954D01*
X126671954Y-102761652D01*
X126671951Y-102761657D01*
X126671950Y-102761658D01*
X126652751Y-102799337D01*
X126614352Y-102874698D01*
X126614352Y-102874699D01*
X126594508Y-102999996D01*
X126594508Y-103000000D01*
X126597973Y-103021876D01*
X126599500Y-103041275D01*
X126599500Y-112576000D01*
X126579815Y-112643039D01*
X126527011Y-112688794D01*
X126475500Y-112700000D01*
X11524500Y-112700000D01*
X11457461Y-112680315D01*
X11411706Y-112627511D01*
X11400500Y-112576000D01*
X11400500Y-103041275D01*
X11402027Y-103021876D01*
X11405492Y-103000000D01*
X11405492Y-102999996D01*
X11385647Y-102874699D01*
X11385647Y-102874698D01*
X11385646Y-102874696D01*
X11328050Y-102761658D01*
X11328046Y-102761654D01*
X11328045Y-102761652D01*
X11238347Y-102671954D01*
X11238344Y-102671952D01*
X11238342Y-102671950D01*
X11125304Y-102614354D01*
X11125303Y-102614353D01*
X11125300Y-102614352D01*
X11031520Y-102599500D01*
X11031519Y-102599500D01*
X11000002Y-102594508D01*
X11000000Y-102594508D01*
X10978120Y-102597973D01*
X10958725Y-102599500D01*
X1424000Y-102599500D01*
X1356961Y-102579815D01*
X1311206Y-102527011D01*
X1300000Y-102475500D01*
X1300000Y-96910000D01*
X29549500Y-96910000D01*
X29564379Y-97089559D01*
X29623389Y-97322589D01*
X29719951Y-97542729D01*
X29831634Y-97713671D01*
X29851429Y-97743969D01*
X30014236Y-97920825D01*
X30014239Y-97920827D01*
X30014242Y-97920830D01*
X30203924Y-98068466D01*
X30203930Y-98068470D01*
X30203933Y-98068472D01*
X30415344Y-98182882D01*
X30415347Y-98182883D01*
X30642699Y-98260933D01*
X30642701Y-98260933D01*
X30642703Y-98260934D01*
X30879808Y-98300500D01*
X30879809Y-98300500D01*
X31120191Y-98300500D01*
X31120192Y-98300500D01*
X31357297Y-98260934D01*
X31584656Y-98182882D01*
X31796067Y-98068472D01*
X31833734Y-98039153D01*
X31898727Y-98013511D01*
X31967267Y-98027077D01*
X31997578Y-98049326D01*
X40351472Y-106403220D01*
X40446780Y-106498528D01*
X40468300Y-106509493D01*
X40484875Y-106519649D01*
X40504419Y-106533849D01*
X40527381Y-106541309D01*
X40545354Y-106548753D01*
X40566874Y-106559719D01*
X40590724Y-106563495D01*
X40609645Y-106568039D01*
X40631489Y-106575136D01*
X40632607Y-106575500D01*
X40666512Y-106575500D01*
X92820750Y-106575500D01*
X92887789Y-106595185D01*
X92933544Y-106647989D01*
X92943122Y-106692016D01*
X92943689Y-106691942D01*
X92944582Y-106698732D01*
X92944750Y-106699500D01*
X92944750Y-106700000D01*
X92963670Y-106843708D01*
X92963671Y-106843712D01*
X93019137Y-106977622D01*
X93019138Y-106977624D01*
X93019139Y-106977625D01*
X93107379Y-107092621D01*
X93222375Y-107180861D01*
X93356291Y-107236330D01*
X93483280Y-107253048D01*
X93499999Y-107255250D01*
X93500000Y-107255250D01*
X93500001Y-107255250D01*
X93514977Y-107253278D01*
X93643709Y-107236330D01*
X93777625Y-107180861D01*
X93816378Y-107151124D01*
X93881545Y-107125930D01*
X93891864Y-107125500D01*
X107867392Y-107125500D01*
X107867393Y-107125500D01*
X107890360Y-107118036D01*
X107909276Y-107113495D01*
X107933126Y-107109719D01*
X107954636Y-107098757D01*
X107972614Y-107091310D01*
X107995581Y-107083849D01*
X108015118Y-107069653D01*
X108031706Y-107059488D01*
X108053220Y-107048528D01*
X108148528Y-106953220D01*
X108489929Y-106611819D01*
X108551252Y-106578334D01*
X108577610Y-106575500D01*
X110506755Y-106575500D01*
X110526152Y-106577026D01*
X110550000Y-106580804D01*
X110550002Y-106580804D01*
X110683121Y-106559720D01*
X110683121Y-106559719D01*
X110683126Y-106559719D01*
X110803220Y-106498528D01*
X110898528Y-106403220D01*
X110959719Y-106283126D01*
X110965045Y-106249500D01*
X110980804Y-106150000D01*
X110977026Y-106126151D01*
X110975500Y-106106754D01*
X110975500Y-105270312D01*
X110995185Y-105203273D01*
X111047989Y-105157518D01*
X111117147Y-105147574D01*
X111122242Y-105148416D01*
X111133390Y-105150500D01*
X111133393Y-105150500D01*
X111346608Y-105150500D01*
X111346610Y-105150500D01*
X111556198Y-105111321D01*
X111755019Y-105034298D01*
X111936302Y-104922052D01*
X112093872Y-104778407D01*
X112222366Y-104608255D01*
X112292945Y-104466512D01*
X112317403Y-104417394D01*
X112317403Y-104417393D01*
X112317405Y-104417389D01*
X112375756Y-104212310D01*
X112386529Y-104096047D01*
X112412315Y-104031111D01*
X112454622Y-104000804D01*
X112563130Y-104000804D01*
X112599503Y-104021668D01*
X112631693Y-104083681D01*
X112633470Y-104096047D01*
X112644244Y-104212310D01*
X112685376Y-104356873D01*
X112702596Y-104417392D01*
X112702596Y-104417394D01*
X112797632Y-104608253D01*
X112926127Y-104778406D01*
X112926128Y-104778407D01*
X113083698Y-104922052D01*
X113264981Y-105034298D01*
X113463802Y-105111321D01*
X113673390Y-105150500D01*
X113673392Y-105150500D01*
X113886608Y-105150500D01*
X113886610Y-105150500D01*
X114096198Y-105111321D01*
X114295019Y-105034298D01*
X114476302Y-104922052D01*
X114633872Y-104778407D01*
X114762366Y-104608255D01*
X114832945Y-104466512D01*
X114857403Y-104417394D01*
X114857403Y-104417393D01*
X114857405Y-104417389D01*
X114915756Y-104212310D01*
X114935429Y-104000000D01*
X114915756Y-103787690D01*
X114857405Y-103582611D01*
X114857403Y-103582606D01*
X114857403Y-103582605D01*
X114762367Y-103391746D01*
X114633872Y-103221593D01*
X114476302Y-103077948D01*
X114295019Y-102965702D01*
X114295017Y-102965701D01*
X114195608Y-102927190D01*
X114096198Y-102888679D01*
X113886610Y-102849500D01*
X113673390Y-102849500D01*
X113463802Y-102888679D01*
X113463799Y-102888679D01*
X113463799Y-102888680D01*
X113264982Y-102965701D01*
X113264980Y-102965702D01*
X113083699Y-103077947D01*
X112926127Y-103221593D01*
X112797632Y-103391746D01*
X112702596Y-103582605D01*
X112702596Y-103582607D01*
X112644244Y-103787689D01*
X112633471Y-103903951D01*
X112607685Y-103968888D01*
X112563130Y-104000804D01*
X112454622Y-104000804D01*
X112456869Y-103999194D01*
X112420497Y-103978331D01*
X112388307Y-103916318D01*
X112386529Y-103903951D01*
X112385849Y-103896613D01*
X112375756Y-103787690D01*
X112317405Y-103582611D01*
X112317403Y-103582606D01*
X112317403Y-103582605D01*
X112222367Y-103391746D01*
X112093872Y-103221593D01*
X111936302Y-103077948D01*
X111755019Y-102965702D01*
X111755017Y-102965701D01*
X111655608Y-102927190D01*
X111556198Y-102888679D01*
X111346610Y-102849500D01*
X111133390Y-102849500D01*
X110923802Y-102888679D01*
X110923799Y-102888679D01*
X110923799Y-102888680D01*
X110724982Y-102965701D01*
X110724980Y-102965702D01*
X110543699Y-103077947D01*
X110386127Y-103221593D01*
X110257632Y-103391746D01*
X110162596Y-103582605D01*
X110162596Y-103582607D01*
X110104244Y-103787689D01*
X110093471Y-103903951D01*
X110067685Y-103968888D01*
X110023130Y-104000804D01*
X110059503Y-104021668D01*
X110091693Y-104083681D01*
X110093471Y-104096048D01*
X110104243Y-104212305D01*
X110135634Y-104322633D01*
X110138841Y-104375964D01*
X110136504Y-104390720D01*
X110131962Y-104409639D01*
X110124500Y-104432604D01*
X110124500Y-105600500D01*
X110104815Y-105667539D01*
X110052011Y-105713294D01*
X110000500Y-105724500D01*
X108349500Y-105724500D01*
X108282461Y-105704815D01*
X108236706Y-105652011D01*
X108225500Y-105600500D01*
X108225500Y-105277610D01*
X108245185Y-105210571D01*
X108261818Y-105189930D01*
X108301039Y-105150708D01*
X108362361Y-105117222D01*
X108411502Y-105116499D01*
X108593390Y-105150500D01*
X108593392Y-105150500D01*
X108806608Y-105150500D01*
X108806610Y-105150500D01*
X109016198Y-105111321D01*
X109215019Y-105034298D01*
X109396302Y-104922052D01*
X109553872Y-104778407D01*
X109682366Y-104608255D01*
X109752945Y-104466512D01*
X109777403Y-104417394D01*
X109777403Y-104417393D01*
X109777405Y-104417389D01*
X109835756Y-104212310D01*
X109846529Y-104096047D01*
X109872315Y-104031111D01*
X109916869Y-103999194D01*
X109880497Y-103978331D01*
X109848307Y-103916318D01*
X109846529Y-103903951D01*
X109845849Y-103896613D01*
X109835756Y-103787690D01*
X109777405Y-103582611D01*
X109777403Y-103582606D01*
X109777403Y-103582605D01*
X109682367Y-103391746D01*
X109553872Y-103221593D01*
X109396302Y-103077948D01*
X109215019Y-102965702D01*
X109215017Y-102965701D01*
X109115608Y-102927190D01*
X109016198Y-102888679D01*
X108819385Y-102851888D01*
X108757106Y-102820221D01*
X108721833Y-102759908D01*
X108724767Y-102690100D01*
X108764976Y-102632960D01*
X108819384Y-102608111D01*
X109016198Y-102571321D01*
X109215019Y-102494298D01*
X109396302Y-102382052D01*
X109553872Y-102238407D01*
X109682366Y-102068255D01*
X109777405Y-101877389D01*
X109835756Y-101672310D01*
X109855429Y-101460000D01*
X109835756Y-101247690D01*
X109777405Y-101042611D01*
X109777403Y-101042606D01*
X109777403Y-101042605D01*
X109682367Y-100851746D01*
X109553872Y-100681593D01*
X109490959Y-100624240D01*
X109396302Y-100537948D01*
X109215019Y-100425702D01*
X109215017Y-100425701D01*
X109061399Y-100366190D01*
X109016198Y-100348679D01*
X108806610Y-100309500D01*
X108806608Y-100309500D01*
X108662610Y-100309500D01*
X108595571Y-100289815D01*
X108574929Y-100273181D01*
X108261819Y-99960071D01*
X108228334Y-99898748D01*
X108225500Y-99872390D01*
X108225500Y-99593245D01*
X108227027Y-99573846D01*
X108230804Y-99550000D01*
X108230804Y-99549997D01*
X108209720Y-99416878D01*
X108209719Y-99416876D01*
X108209719Y-99416874D01*
X108148528Y-99296780D01*
X108148526Y-99296778D01*
X108148523Y-99296774D01*
X108053225Y-99201476D01*
X108053221Y-99201473D01*
X108053220Y-99201472D01*
X107933126Y-99140281D01*
X107933124Y-99140280D01*
X107933121Y-99140279D01*
X107833489Y-99124500D01*
X107833488Y-99124500D01*
X107816744Y-99121848D01*
X107800001Y-99119196D01*
X107800000Y-99119196D01*
X107776152Y-99122973D01*
X107756755Y-99124500D01*
X104727610Y-99124500D01*
X104660571Y-99104815D01*
X104639929Y-99088181D01*
X102486819Y-96935071D01*
X102453334Y-96873748D01*
X102450500Y-96847390D01*
X102450500Y-95090014D01*
X102450499Y-95089999D01*
X102435620Y-94910437D01*
X102376610Y-94677409D01*
X102280049Y-94457272D01*
X102274236Y-94448375D01*
X102148572Y-94256033D01*
X102148571Y-94256031D01*
X101985764Y-94079175D01*
X101985759Y-94079171D01*
X101985757Y-94079169D01*
X101796075Y-93931533D01*
X101796069Y-93931529D01*
X101584657Y-93817118D01*
X101584652Y-93817116D01*
X101357300Y-93739066D01*
X101179468Y-93709391D01*
X101120192Y-93699500D01*
X100879808Y-93699500D01*
X100832387Y-93707413D01*
X100642699Y-93739066D01*
X100415347Y-93817116D01*
X100415342Y-93817118D01*
X100203930Y-93931529D01*
X100203924Y-93931533D01*
X100014242Y-94079169D01*
X100014239Y-94079172D01*
X99851430Y-94256029D01*
X99851427Y-94256033D01*
X99719951Y-94457270D01*
X99623389Y-94677410D01*
X99564379Y-94910440D01*
X99549500Y-95089999D01*
X99549500Y-96648390D01*
X99529815Y-96715429D01*
X99477011Y-96761184D01*
X99407853Y-96771128D01*
X99344297Y-96742103D01*
X99337819Y-96736071D01*
X97577963Y-94976215D01*
X97544478Y-94914892D01*
X97542707Y-94904731D01*
X97536330Y-94856291D01*
X97480861Y-94722375D01*
X97392621Y-94607379D01*
X97277625Y-94519139D01*
X97277624Y-94519138D01*
X97277622Y-94519137D01*
X97143712Y-94463671D01*
X97143710Y-94463670D01*
X97143709Y-94463670D01*
X97071854Y-94454210D01*
X97000001Y-94444750D01*
X96999998Y-94444750D01*
X96890685Y-94459141D01*
X96821650Y-94448375D01*
X96769394Y-94401995D01*
X96750500Y-94336202D01*
X96750500Y-87708675D01*
X96770185Y-87641636D01*
X96786814Y-87620999D01*
X101506431Y-82901381D01*
X101527068Y-82884751D01*
X101531128Y-82882143D01*
X101563653Y-82844605D01*
X101569658Y-82838155D01*
X101579221Y-82828593D01*
X101587316Y-82817778D01*
X101592859Y-82810899D01*
X101625377Y-82773373D01*
X101627375Y-82768995D01*
X101640907Y-82746189D01*
X101643796Y-82742331D01*
X101661149Y-82695801D01*
X101664534Y-82687630D01*
X101685165Y-82642457D01*
X101685850Y-82637685D01*
X101692409Y-82611992D01*
X101694091Y-82607483D01*
X101697633Y-82557951D01*
X101698580Y-82549148D01*
X101700500Y-82535799D01*
X101700500Y-82522308D01*
X101700816Y-82513461D01*
X101704359Y-82463927D01*
X101703332Y-82459206D01*
X101700500Y-82432858D01*
X101700500Y-81658675D01*
X101720185Y-81591636D01*
X101736814Y-81570999D01*
X103706431Y-79601381D01*
X103727068Y-79584751D01*
X103731128Y-79582143D01*
X103763653Y-79544605D01*
X103769658Y-79538155D01*
X103779221Y-79528593D01*
X103787316Y-79517778D01*
X103792859Y-79510899D01*
X103825377Y-79473373D01*
X103827375Y-79468995D01*
X103840907Y-79446189D01*
X103843796Y-79442331D01*
X103861149Y-79395801D01*
X103864534Y-79387630D01*
X103885165Y-79342457D01*
X103885850Y-79337685D01*
X103892409Y-79311992D01*
X103894091Y-79307483D01*
X103897633Y-79257951D01*
X103898580Y-79249148D01*
X103900500Y-79235799D01*
X103900500Y-79222308D01*
X103900816Y-79213461D01*
X103904359Y-79163927D01*
X103903332Y-79159206D01*
X103900500Y-79132858D01*
X103900500Y-76708676D01*
X103920185Y-76641637D01*
X103936819Y-76620995D01*
X104120995Y-76436819D01*
X104182318Y-76403334D01*
X104208676Y-76400500D01*
X117125500Y-76400500D01*
X117192539Y-76420185D01*
X117238294Y-76472989D01*
X117249500Y-76524500D01*
X117249500Y-76593102D01*
X117252850Y-76620995D01*
X117260122Y-76681561D01*
X117315639Y-76822343D01*
X117407077Y-76942922D01*
X117527656Y-77034360D01*
X117527657Y-77034360D01*
X117527658Y-77034361D01*
X117668436Y-77089877D01*
X117756898Y-77100500D01*
X117756903Y-77100500D01*
X120843097Y-77100500D01*
X120843102Y-77100500D01*
X120931564Y-77089877D01*
X121072342Y-77034361D01*
X121192922Y-76942922D01*
X121284361Y-76822342D01*
X121339877Y-76681564D01*
X121350500Y-76593102D01*
X121350500Y-75406898D01*
X121339877Y-75318436D01*
X121284361Y-75177658D01*
X121284360Y-75177657D01*
X121284360Y-75177656D01*
X121192922Y-75057077D01*
X121072343Y-74965639D01*
X120931561Y-74910122D01*
X120885926Y-74904642D01*
X120843102Y-74899500D01*
X117756898Y-74899500D01*
X117717853Y-74904188D01*
X117668438Y-74910122D01*
X117527656Y-74965639D01*
X117407077Y-75057077D01*
X117315638Y-75177658D01*
X117315637Y-75177660D01*
X117259115Y-75320990D01*
X117216209Y-75376134D01*
X117150302Y-75399327D01*
X117143761Y-75399500D01*
X104208676Y-75399500D01*
X104141637Y-75379815D01*
X104120995Y-75363181D01*
X103801385Y-75043571D01*
X103784750Y-75022928D01*
X103782145Y-75018874D01*
X103782143Y-75018872D01*
X103744614Y-74986353D01*
X103738147Y-74980333D01*
X103728593Y-74970779D01*
X103717785Y-74962688D01*
X103710904Y-74957144D01*
X103673373Y-74924623D01*
X103673372Y-74924622D01*
X103671660Y-74923139D01*
X103633886Y-74864360D01*
X103633886Y-74794491D01*
X103671661Y-74735713D01*
X103677377Y-74731050D01*
X103677621Y-74730862D01*
X103677625Y-74730861D01*
X103716379Y-74701123D01*
X103781548Y-74675930D01*
X103791864Y-74675500D01*
X105275501Y-74675500D01*
X105342540Y-74695185D01*
X105388295Y-74747989D01*
X105399501Y-74799500D01*
X105399501Y-74844856D01*
X105399502Y-74844882D01*
X105402413Y-74869987D01*
X105402415Y-74869991D01*
X105447793Y-74972764D01*
X105447794Y-74972765D01*
X105527235Y-75052206D01*
X105630009Y-75097585D01*
X105655135Y-75100500D01*
X107244864Y-75100499D01*
X107244879Y-75100497D01*
X107244882Y-75100497D01*
X107269987Y-75097586D01*
X107269988Y-75097585D01*
X107269991Y-75097585D01*
X107372765Y-75052206D01*
X107452206Y-74972765D01*
X107497585Y-74869991D01*
X107500500Y-74844865D01*
X107500499Y-73855136D01*
X107500048Y-73851243D01*
X107497586Y-73830012D01*
X107497585Y-73830010D01*
X107497585Y-73830009D01*
X107452206Y-73727235D01*
X107372765Y-73647794D01*
X107372763Y-73647793D01*
X107269992Y-73602415D01*
X107244865Y-73599500D01*
X105655143Y-73599500D01*
X105655117Y-73599502D01*
X105630012Y-73602413D01*
X105630008Y-73602415D01*
X105527235Y-73647793D01*
X105447796Y-73727232D01*
X105447790Y-73727240D01*
X105437483Y-73750586D01*
X105392397Y-73803963D01*
X105325611Y-73824490D01*
X105324049Y-73824500D01*
X103791864Y-73824500D01*
X103724825Y-73804815D01*
X103716390Y-73798885D01*
X103677625Y-73769139D01*
X103677624Y-73769138D01*
X103677622Y-73769137D01*
X103543712Y-73713671D01*
X103543710Y-73713670D01*
X103543709Y-73713670D01*
X103471854Y-73704210D01*
X103400001Y-73694750D01*
X103399999Y-73694750D01*
X103256291Y-73713670D01*
X103256287Y-73713671D01*
X103122377Y-73769137D01*
X103007379Y-73857379D01*
X102919137Y-73972377D01*
X102863671Y-74106287D01*
X102863670Y-74106291D01*
X102847438Y-74229582D01*
X102819171Y-74293478D01*
X102760847Y-74331949D01*
X102690982Y-74332780D01*
X102631759Y-74295708D01*
X102601980Y-74232502D01*
X102600499Y-74213396D01*
X102600499Y-73855143D01*
X102600499Y-73855136D01*
X102600048Y-73851243D01*
X102597586Y-73830012D01*
X102597585Y-73830010D01*
X102597585Y-73830009D01*
X102552206Y-73727235D01*
X102472765Y-73647794D01*
X102472763Y-73647793D01*
X102369992Y-73602415D01*
X102344865Y-73599500D01*
X100755143Y-73599500D01*
X100755117Y-73599502D01*
X100730012Y-73602413D01*
X100730008Y-73602415D01*
X100627235Y-73647793D01*
X100627234Y-73647794D01*
X100561848Y-73713181D01*
X100500525Y-73746666D01*
X100474167Y-73749500D01*
X93208676Y-73749500D01*
X93141637Y-73729815D01*
X93120995Y-73713181D01*
X87301385Y-67893571D01*
X87284750Y-67872928D01*
X87282145Y-67868874D01*
X87282143Y-67868872D01*
X87244614Y-67836353D01*
X87238147Y-67830333D01*
X87228593Y-67820779D01*
X87217785Y-67812688D01*
X87210904Y-67807144D01*
X87173373Y-67774623D01*
X87173372Y-67774622D01*
X87173367Y-67774619D01*
X87168983Y-67772617D01*
X87146194Y-67759096D01*
X87142331Y-67756204D01*
X87142329Y-67756203D01*
X87095790Y-67738845D01*
X87087622Y-67735461D01*
X87042457Y-67714835D01*
X87042455Y-67714834D01*
X87037682Y-67714148D01*
X87012000Y-67707593D01*
X87007486Y-67705909D01*
X86957946Y-67702365D01*
X86949159Y-67701420D01*
X86935799Y-67699500D01*
X86935797Y-67699500D01*
X86922308Y-67699500D01*
X86913461Y-67699184D01*
X86863929Y-67695641D01*
X86863925Y-67695641D01*
X86859215Y-67696666D01*
X86832857Y-67699500D01*
X77258676Y-67699500D01*
X77191637Y-67679815D01*
X77170995Y-67663181D01*
X75638847Y-66131033D01*
X75605362Y-66069710D01*
X75602528Y-66043352D01*
X75602528Y-65498722D01*
X75602528Y-65498716D01*
X75592387Y-65414270D01*
X75539392Y-65279885D01*
X75539391Y-65279884D01*
X75539391Y-65279883D01*
X75452106Y-65164781D01*
X75337004Y-65077496D01*
X75202616Y-65024500D01*
X75159270Y-65019295D01*
X75118172Y-65014360D01*
X75118166Y-65014360D01*
X74874500Y-65014360D01*
X74807461Y-64994675D01*
X74761706Y-64941871D01*
X74750500Y-64890360D01*
X74750500Y-64002461D01*
X74770185Y-63935422D01*
X74822989Y-63889667D01*
X74892147Y-63879723D01*
X74955703Y-63908748D01*
X74989061Y-63955009D01*
X75019137Y-64027622D01*
X75019138Y-64027624D01*
X75019139Y-64027625D01*
X75107379Y-64142621D01*
X75222375Y-64230861D01*
X75356291Y-64286330D01*
X75483280Y-64303048D01*
X75499999Y-64305250D01*
X75500000Y-64305250D01*
X75500001Y-64305250D01*
X75514977Y-64303278D01*
X75643709Y-64286330D01*
X75777625Y-64230861D01*
X75892621Y-64142621D01*
X75980861Y-64027625D01*
X76036330Y-63893709D01*
X76042706Y-63845277D01*
X76070970Y-63781383D01*
X76077951Y-63773795D01*
X82851746Y-57000000D01*
X100294357Y-57000000D01*
X100314884Y-57221535D01*
X100314885Y-57221537D01*
X100375769Y-57435523D01*
X100375775Y-57435538D01*
X100474938Y-57634683D01*
X100474943Y-57634691D01*
X100609020Y-57812238D01*
X100773437Y-57962123D01*
X100773439Y-57962125D01*
X100962595Y-58079245D01*
X100962596Y-58079245D01*
X100962599Y-58079247D01*
X101170060Y-58159618D01*
X101388757Y-58200500D01*
X101388759Y-58200500D01*
X101611241Y-58200500D01*
X101611243Y-58200500D01*
X101829940Y-58159618D01*
X102037401Y-58079247D01*
X102226562Y-57962124D01*
X102390981Y-57812236D01*
X102525058Y-57634689D01*
X102624229Y-57435528D01*
X102630734Y-57412661D01*
X102668012Y-57353571D01*
X102731322Y-57324013D01*
X102800561Y-57333375D01*
X102853748Y-57378684D01*
X102869264Y-57412658D01*
X102875770Y-57435523D01*
X102875772Y-57435530D01*
X102875775Y-57435538D01*
X102974938Y-57634683D01*
X102974943Y-57634691D01*
X103109020Y-57812238D01*
X103273437Y-57962123D01*
X103273439Y-57962125D01*
X103462595Y-58079245D01*
X103462596Y-58079245D01*
X103462599Y-58079247D01*
X103670060Y-58159618D01*
X103888757Y-58200500D01*
X103888759Y-58200500D01*
X104111241Y-58200500D01*
X104111243Y-58200500D01*
X104329940Y-58159618D01*
X104537401Y-58079247D01*
X104726562Y-57962124D01*
X104890981Y-57812236D01*
X105025058Y-57634689D01*
X105124229Y-57435528D01*
X105185115Y-57221536D01*
X105205643Y-57000000D01*
X105193655Y-56870632D01*
X105185115Y-56778464D01*
X105185114Y-56778462D01*
X105153293Y-56666624D01*
X105124229Y-56564472D01*
X105124224Y-56564461D01*
X105025061Y-56365316D01*
X105025056Y-56365308D01*
X104890979Y-56187761D01*
X104726562Y-56037876D01*
X104726560Y-56037874D01*
X104537404Y-55920754D01*
X104537398Y-55920752D01*
X104329940Y-55840382D01*
X104111243Y-55799500D01*
X103888757Y-55799500D01*
X103670060Y-55840382D01*
X103538864Y-55891207D01*
X103462601Y-55920752D01*
X103462595Y-55920754D01*
X103273439Y-56037874D01*
X103273437Y-56037876D01*
X103109020Y-56187761D01*
X102974943Y-56365308D01*
X102974938Y-56365316D01*
X102875775Y-56564461D01*
X102875769Y-56564476D01*
X102869266Y-56587335D01*
X102831987Y-56646429D01*
X102768677Y-56675986D01*
X102699438Y-56666624D01*
X102646251Y-56621314D01*
X102630734Y-56587335D01*
X102624230Y-56564476D01*
X102624229Y-56564472D01*
X102624224Y-56564461D01*
X102525061Y-56365316D01*
X102525056Y-56365308D01*
X102390979Y-56187761D01*
X102226562Y-56037876D01*
X102226560Y-56037874D01*
X102037404Y-55920754D01*
X102037398Y-55920752D01*
X101829940Y-55840382D01*
X101611243Y-55799500D01*
X101388757Y-55799500D01*
X101170060Y-55840382D01*
X101038864Y-55891207D01*
X100962601Y-55920752D01*
X100962595Y-55920754D01*
X100773439Y-56037874D01*
X100773437Y-56037876D01*
X100609020Y-56187761D01*
X100474943Y-56365308D01*
X100474938Y-56365316D01*
X100375775Y-56564461D01*
X100375769Y-56564476D01*
X100314885Y-56778462D01*
X100314884Y-56778464D01*
X100294357Y-56999999D01*
X100294357Y-57000000D01*
X82851746Y-57000000D01*
X89636232Y-50215515D01*
X97849500Y-50215515D01*
X97864196Y-50411620D01*
X97864197Y-50411625D01*
X97922576Y-50667402D01*
X97922578Y-50667411D01*
X97922580Y-50667416D01*
X98018432Y-50911643D01*
X98149614Y-51138857D01*
X98281736Y-51304533D01*
X98313198Y-51343985D01*
X98494753Y-51512441D01*
X98505521Y-51522433D01*
X98722296Y-51670228D01*
X98722301Y-51670230D01*
X98722302Y-51670231D01*
X98722303Y-51670232D01*
X98847843Y-51730688D01*
X98958673Y-51784061D01*
X98958674Y-51784061D01*
X98958677Y-51784063D01*
X99209385Y-51861396D01*
X99468818Y-51900500D01*
X99731182Y-51900500D01*
X99990615Y-51861396D01*
X100241323Y-51784063D01*
X100477704Y-51670228D01*
X100694479Y-51522433D01*
X100886805Y-51343981D01*
X101050386Y-51138857D01*
X101181568Y-50911643D01*
X101277420Y-50667416D01*
X101335802Y-50411630D01*
X101335803Y-50411620D01*
X101350499Y-50215515D01*
X106649500Y-50215515D01*
X106664196Y-50411620D01*
X106664197Y-50411625D01*
X106722576Y-50667402D01*
X106722578Y-50667411D01*
X106722580Y-50667416D01*
X106818432Y-50911643D01*
X106949614Y-51138857D01*
X107081736Y-51304533D01*
X107113198Y-51343985D01*
X107294753Y-51512441D01*
X107305521Y-51522433D01*
X107522296Y-51670228D01*
X107522301Y-51670230D01*
X107522302Y-51670231D01*
X107522303Y-51670232D01*
X107647843Y-51730688D01*
X107758673Y-51784061D01*
X107758674Y-51784061D01*
X107758677Y-51784063D01*
X108009385Y-51861396D01*
X108268818Y-51900500D01*
X108531182Y-51900500D01*
X108790615Y-51861396D01*
X109041323Y-51784063D01*
X109277704Y-51670228D01*
X109494479Y-51522433D01*
X109686805Y-51343981D01*
X109850386Y-51138857D01*
X109981568Y-50911643D01*
X110077420Y-50667416D01*
X110135802Y-50411630D01*
X110135803Y-50411620D01*
X110150499Y-50215515D01*
X110150500Y-50215492D01*
X110150500Y-49784507D01*
X110150499Y-49784484D01*
X110135803Y-49588379D01*
X110135802Y-49588374D01*
X110135802Y-49588370D01*
X110077420Y-49332584D01*
X109981568Y-49088357D01*
X109850386Y-48861143D01*
X109686805Y-48656019D01*
X109686804Y-48656018D01*
X109686801Y-48656014D01*
X109494479Y-48477567D01*
X109277704Y-48329772D01*
X109277700Y-48329770D01*
X109277697Y-48329768D01*
X109277696Y-48329767D01*
X109041325Y-48215938D01*
X109041327Y-48215938D01*
X108790623Y-48138606D01*
X108790619Y-48138605D01*
X108790615Y-48138604D01*
X108665823Y-48119794D01*
X108531187Y-48099500D01*
X108531182Y-48099500D01*
X108268818Y-48099500D01*
X108268812Y-48099500D01*
X108107247Y-48123853D01*
X108009385Y-48138604D01*
X108009382Y-48138605D01*
X108009376Y-48138606D01*
X107758673Y-48215938D01*
X107522303Y-48329767D01*
X107522302Y-48329768D01*
X107305520Y-48477567D01*
X107113198Y-48656014D01*
X106949614Y-48861143D01*
X106818432Y-49088356D01*
X106722582Y-49332578D01*
X106722576Y-49332597D01*
X106664197Y-49588374D01*
X106664196Y-49588379D01*
X106649500Y-49784484D01*
X106649500Y-50215515D01*
X101350499Y-50215515D01*
X101350500Y-50215492D01*
X101350500Y-49784507D01*
X101350499Y-49784484D01*
X101335803Y-49588379D01*
X101335802Y-49588374D01*
X101335802Y-49588370D01*
X101277420Y-49332584D01*
X101181568Y-49088357D01*
X101050386Y-48861143D01*
X100886805Y-48656019D01*
X100886804Y-48656018D01*
X100886801Y-48656014D01*
X100694479Y-48477567D01*
X100477704Y-48329772D01*
X100477700Y-48329770D01*
X100477697Y-48329768D01*
X100477696Y-48329767D01*
X100241325Y-48215938D01*
X100241327Y-48215938D01*
X99990623Y-48138606D01*
X99990619Y-48138605D01*
X99990615Y-48138604D01*
X99865823Y-48119794D01*
X99731187Y-48099500D01*
X99731182Y-48099500D01*
X99468818Y-48099500D01*
X99468812Y-48099500D01*
X99307247Y-48123853D01*
X99209385Y-48138604D01*
X99209382Y-48138605D01*
X99209376Y-48138606D01*
X98958673Y-48215938D01*
X98722303Y-48329767D01*
X98722302Y-48329768D01*
X98505520Y-48477567D01*
X98313198Y-48656014D01*
X98149614Y-48861143D01*
X98018432Y-49088356D01*
X97922582Y-49332578D01*
X97922576Y-49332597D01*
X97864197Y-49588374D01*
X97864196Y-49588379D01*
X97849500Y-49784484D01*
X97849500Y-50215515D01*
X89636232Y-50215515D01*
X101414929Y-38436818D01*
X101476252Y-38403333D01*
X101502610Y-38400499D01*
X102344856Y-38400499D01*
X102344864Y-38400499D01*
X102344879Y-38400497D01*
X102344882Y-38400497D01*
X102369987Y-38397586D01*
X102369988Y-38397585D01*
X102369991Y-38397585D01*
X102472765Y-38352206D01*
X102552206Y-38272765D01*
X102597585Y-38169991D01*
X102600500Y-38144865D01*
X102600499Y-37155136D01*
X102600497Y-37155117D01*
X102597586Y-37130012D01*
X102597585Y-37130010D01*
X102597585Y-37130009D01*
X102552206Y-37027235D01*
X102472765Y-36947794D01*
X102420009Y-36924500D01*
X102369992Y-36902415D01*
X102344865Y-36899500D01*
X100755143Y-36899500D01*
X100755117Y-36899502D01*
X100730012Y-36902413D01*
X100730008Y-36902415D01*
X100627235Y-36947793D01*
X100547794Y-37027234D01*
X100502415Y-37130006D01*
X100502415Y-37130008D01*
X100499500Y-37155131D01*
X100499500Y-38097388D01*
X100479815Y-38164427D01*
X100463181Y-38185069D01*
X75476215Y-63172035D01*
X75414892Y-63205520D01*
X75404722Y-63207293D01*
X75356289Y-63213670D01*
X75222377Y-63269137D01*
X75107379Y-63357379D01*
X75019137Y-63472377D01*
X74989061Y-63544990D01*
X74945220Y-63599394D01*
X74878926Y-63621459D01*
X74811227Y-63604180D01*
X74763616Y-63553043D01*
X74750500Y-63497538D01*
X74750500Y-62450840D01*
X74770185Y-62383801D01*
X74822989Y-62338046D01*
X74828973Y-62335500D01*
X74908907Y-62303979D01*
X75024010Y-62216693D01*
X75111296Y-62101590D01*
X75164291Y-61967205D01*
X75174432Y-61882759D01*
X75174432Y-61300471D01*
X75164291Y-61216025D01*
X75111296Y-61081640D01*
X75111295Y-61081639D01*
X75111295Y-61081638D01*
X75024010Y-60966536D01*
X74908908Y-60879251D01*
X74774520Y-60826255D01*
X74731174Y-60821050D01*
X74690076Y-60816115D01*
X74157788Y-60816115D01*
X74119773Y-60820680D01*
X74073343Y-60826255D01*
X73938955Y-60879251D01*
X73823853Y-60966536D01*
X73736568Y-61081638D01*
X73683572Y-61216026D01*
X73677997Y-61262456D01*
X73673432Y-61300471D01*
X73673432Y-61882759D01*
X73678757Y-61927109D01*
X73683572Y-61967203D01*
X73739680Y-62109481D01*
X73737284Y-62110425D01*
X73749500Y-62157060D01*
X73749500Y-65375500D01*
X73729815Y-65442539D01*
X73677011Y-65488294D01*
X73625500Y-65499500D01*
X70658676Y-65499500D01*
X70591637Y-65479815D01*
X70570995Y-65463181D01*
X70185541Y-65077727D01*
X70152056Y-65016404D01*
X70150107Y-64975264D01*
X70153830Y-64944265D01*
X70153830Y-64361977D01*
X70143689Y-64277531D01*
X70090694Y-64143146D01*
X70090693Y-64143145D01*
X70090693Y-64143144D01*
X70003408Y-64028042D01*
X69888306Y-63940757D01*
X69753918Y-63887761D01*
X69710572Y-63882556D01*
X69669474Y-63877621D01*
X69137186Y-63877621D01*
X69090860Y-63883184D01*
X69061547Y-63886704D01*
X68992639Y-63875152D01*
X68959083Y-63851269D01*
X68736819Y-63629005D01*
X68703334Y-63567682D01*
X68700500Y-63541324D01*
X68700500Y-61581137D01*
X68720185Y-61514098D01*
X68749571Y-61482336D01*
X68825078Y-61425078D01*
X68912364Y-61309975D01*
X68965359Y-61175590D01*
X68975500Y-61091144D01*
X68975500Y-60508856D01*
X68965359Y-60424410D01*
X68912364Y-60290025D01*
X68912363Y-60290024D01*
X68912363Y-60290023D01*
X68825078Y-60174921D01*
X68709976Y-60087636D01*
X68575588Y-60034640D01*
X68532242Y-60029435D01*
X68491144Y-60024500D01*
X67958856Y-60024500D01*
X67920841Y-60029065D01*
X67874411Y-60034640D01*
X67740023Y-60087636D01*
X67624921Y-60174921D01*
X67537636Y-60290023D01*
X67484640Y-60424411D01*
X67479065Y-60470841D01*
X67474500Y-60508856D01*
X67474500Y-61091144D01*
X67479825Y-61135494D01*
X67484640Y-61175588D01*
X67537636Y-61309976D01*
X67624918Y-61425073D01*
X67624922Y-61425078D01*
X67650425Y-61444417D01*
X67691948Y-61500609D01*
X67699500Y-61543221D01*
X67699500Y-62625500D01*
X67679815Y-62692539D01*
X67627011Y-62738294D01*
X67575500Y-62749500D01*
X64058676Y-62749500D01*
X63991637Y-62729815D01*
X63970995Y-62713181D01*
X63532113Y-62274299D01*
X63498628Y-62212976D01*
X63503612Y-62143284D01*
X63520988Y-62111695D01*
X63539203Y-62087677D01*
X63592198Y-61953292D01*
X63602339Y-61868846D01*
X63602339Y-61286558D01*
X63592198Y-61202112D01*
X63539203Y-61067727D01*
X63539202Y-61067726D01*
X63539202Y-61067725D01*
X63451917Y-60952623D01*
X63336812Y-60865336D01*
X63279010Y-60842542D01*
X63223866Y-60799636D01*
X63200673Y-60733728D01*
X63200500Y-60727188D01*
X63200500Y-58250000D01*
X76694750Y-58250000D01*
X76713670Y-58393708D01*
X76713671Y-58393712D01*
X76769137Y-58527622D01*
X76769138Y-58527624D01*
X76769139Y-58527625D01*
X76857379Y-58642621D01*
X76972375Y-58730861D01*
X77106291Y-58786330D01*
X77233280Y-58803048D01*
X77249999Y-58805250D01*
X77250000Y-58805250D01*
X77250001Y-58805250D01*
X77264977Y-58803278D01*
X77393709Y-58786330D01*
X77527625Y-58730861D01*
X77642621Y-58642621D01*
X77730861Y-58527625D01*
X77786330Y-58393709D01*
X77805250Y-58250000D01*
X77786330Y-58106291D01*
X77730861Y-57972375D01*
X77642621Y-57857379D01*
X77527625Y-57769139D01*
X77527624Y-57769138D01*
X77527622Y-57769137D01*
X77393712Y-57713671D01*
X77393710Y-57713670D01*
X77393709Y-57713670D01*
X77321854Y-57704210D01*
X77250001Y-57694750D01*
X77249999Y-57694750D01*
X77106291Y-57713670D01*
X77106287Y-57713671D01*
X76972377Y-57769137D01*
X76857379Y-57857379D01*
X76769137Y-57972377D01*
X76713671Y-58106287D01*
X76713670Y-58106291D01*
X76694750Y-58249999D01*
X76694750Y-58250000D01*
X63200500Y-58250000D01*
X63200500Y-57000000D01*
X65294357Y-57000000D01*
X65314884Y-57221535D01*
X65314885Y-57221537D01*
X65375769Y-57435523D01*
X65375775Y-57435538D01*
X65474938Y-57634683D01*
X65474943Y-57634691D01*
X65609020Y-57812238D01*
X65773437Y-57962123D01*
X65773439Y-57962125D01*
X65962595Y-58079245D01*
X65962596Y-58079245D01*
X65962599Y-58079247D01*
X66170060Y-58159618D01*
X66388757Y-58200500D01*
X66388759Y-58200500D01*
X66611241Y-58200500D01*
X66611243Y-58200500D01*
X66829940Y-58159618D01*
X67037401Y-58079247D01*
X67226562Y-57962124D01*
X67390981Y-57812236D01*
X67525058Y-57634689D01*
X67624229Y-57435528D01*
X67630734Y-57412661D01*
X67668012Y-57353571D01*
X67731322Y-57324013D01*
X67800561Y-57333375D01*
X67853748Y-57378684D01*
X67869264Y-57412658D01*
X67875770Y-57435523D01*
X67875772Y-57435530D01*
X67875775Y-57435538D01*
X67974938Y-57634683D01*
X67974943Y-57634691D01*
X68109020Y-57812238D01*
X68273437Y-57962123D01*
X68273439Y-57962125D01*
X68462595Y-58079245D01*
X68462596Y-58079245D01*
X68462599Y-58079247D01*
X68670060Y-58159618D01*
X68888757Y-58200500D01*
X68888759Y-58200500D01*
X69111241Y-58200500D01*
X69111243Y-58200500D01*
X69329940Y-58159618D01*
X69537401Y-58079247D01*
X69726562Y-57962124D01*
X69890981Y-57812236D01*
X70025058Y-57634689D01*
X70124229Y-57435528D01*
X70185115Y-57221536D01*
X70205643Y-57000000D01*
X70193655Y-56870632D01*
X70185115Y-56778464D01*
X70185114Y-56778462D01*
X70153293Y-56666624D01*
X70124229Y-56564472D01*
X70124224Y-56564461D01*
X70025061Y-56365316D01*
X70025056Y-56365308D01*
X69890979Y-56187761D01*
X69726562Y-56037876D01*
X69726560Y-56037874D01*
X69537404Y-55920754D01*
X69537398Y-55920752D01*
X69329940Y-55840382D01*
X69111243Y-55799500D01*
X68888757Y-55799500D01*
X68670060Y-55840382D01*
X68538864Y-55891207D01*
X68462601Y-55920752D01*
X68462595Y-55920754D01*
X68273439Y-56037874D01*
X68273437Y-56037876D01*
X68109020Y-56187761D01*
X67974943Y-56365308D01*
X67974938Y-56365316D01*
X67875775Y-56564461D01*
X67875769Y-56564476D01*
X67869266Y-56587335D01*
X67831987Y-56646429D01*
X67768677Y-56675986D01*
X67699438Y-56666624D01*
X67646251Y-56621314D01*
X67630734Y-56587335D01*
X67624230Y-56564476D01*
X67624229Y-56564472D01*
X67624224Y-56564461D01*
X67525061Y-56365316D01*
X67525056Y-56365308D01*
X67390979Y-56187761D01*
X67226562Y-56037876D01*
X67226560Y-56037874D01*
X67037404Y-55920754D01*
X67037398Y-55920752D01*
X66829940Y-55840382D01*
X66611243Y-55799500D01*
X66388757Y-55799500D01*
X66170060Y-55840382D01*
X66038864Y-55891207D01*
X65962601Y-55920752D01*
X65962595Y-55920754D01*
X65773439Y-56037874D01*
X65773437Y-56037876D01*
X65609020Y-56187761D01*
X65474943Y-56365308D01*
X65474938Y-56365316D01*
X65375775Y-56564461D01*
X65375769Y-56564476D01*
X65314885Y-56778462D01*
X65314884Y-56778464D01*
X65294357Y-56999999D01*
X65294357Y-57000000D01*
X63200500Y-57000000D01*
X63200500Y-53417138D01*
X63203334Y-53390779D01*
X63204358Y-53386073D01*
X63200816Y-53336547D01*
X63200500Y-53327701D01*
X63200500Y-53314200D01*
X63198579Y-53300845D01*
X63197632Y-53292035D01*
X63194091Y-53242519D01*
X63194091Y-53242515D01*
X63192408Y-53238004D01*
X63185851Y-53212316D01*
X63185165Y-53207543D01*
X63164536Y-53162372D01*
X63161149Y-53154195D01*
X63154391Y-53136080D01*
X63143795Y-53107669D01*
X63140908Y-53103813D01*
X63127379Y-53081012D01*
X63125377Y-53076627D01*
X63092857Y-53039097D01*
X63087304Y-53032206D01*
X63079220Y-53021406D01*
X63079214Y-53021400D01*
X63079210Y-53021395D01*
X63069676Y-53011861D01*
X63063643Y-53005382D01*
X63031129Y-52967858D01*
X63031125Y-52967854D01*
X63027066Y-52965246D01*
X63006428Y-52948614D01*
X62686819Y-52629005D01*
X62653334Y-52567682D01*
X62650500Y-52541324D01*
X62650500Y-50575886D01*
X62670185Y-50508847D01*
X62722989Y-50463092D01*
X62792147Y-50453148D01*
X62855703Y-50482173D01*
X62893477Y-50540951D01*
X62895391Y-50548294D01*
X62922576Y-50667402D01*
X62922578Y-50667411D01*
X62922580Y-50667416D01*
X63018432Y-50911643D01*
X63149614Y-51138857D01*
X63281736Y-51304533D01*
X63313198Y-51343985D01*
X63494753Y-51512441D01*
X63505521Y-51522433D01*
X63722296Y-51670228D01*
X63722301Y-51670230D01*
X63722302Y-51670231D01*
X63722303Y-51670232D01*
X63847843Y-51730688D01*
X63958673Y-51784061D01*
X63958674Y-51784061D01*
X63958677Y-51784063D01*
X64209385Y-51861396D01*
X64468818Y-51900500D01*
X64731182Y-51900500D01*
X64990615Y-51861396D01*
X65241323Y-51784063D01*
X65477704Y-51670228D01*
X65694479Y-51522433D01*
X65886805Y-51343981D01*
X66050386Y-51138857D01*
X66181568Y-50911643D01*
X66277420Y-50667416D01*
X66335802Y-50411630D01*
X66335803Y-50411620D01*
X66350499Y-50215515D01*
X71649500Y-50215515D01*
X71664196Y-50411620D01*
X71664197Y-50411625D01*
X71722576Y-50667402D01*
X71722578Y-50667411D01*
X71722580Y-50667416D01*
X71818432Y-50911643D01*
X71949614Y-51138857D01*
X72081736Y-51304533D01*
X72113198Y-51343985D01*
X72294753Y-51512441D01*
X72305521Y-51522433D01*
X72522296Y-51670228D01*
X72522301Y-51670230D01*
X72522302Y-51670231D01*
X72522303Y-51670232D01*
X72647843Y-51730688D01*
X72758673Y-51784061D01*
X72758674Y-51784061D01*
X72758677Y-51784063D01*
X73009385Y-51861396D01*
X73268818Y-51900500D01*
X73531182Y-51900500D01*
X73790615Y-51861396D01*
X74041323Y-51784063D01*
X74277704Y-51670228D01*
X74494479Y-51522433D01*
X74686805Y-51343981D01*
X74850386Y-51138857D01*
X74981568Y-50911643D01*
X75077420Y-50667416D01*
X75135802Y-50411630D01*
X75135803Y-50411620D01*
X75150499Y-50215515D01*
X75150500Y-50215492D01*
X75150500Y-49784507D01*
X75150499Y-49784484D01*
X75135803Y-49588379D01*
X75135802Y-49588374D01*
X75135802Y-49588370D01*
X75077420Y-49332584D01*
X74981568Y-49088357D01*
X74850386Y-48861143D01*
X74686805Y-48656019D01*
X74686804Y-48656018D01*
X74686801Y-48656014D01*
X74494479Y-48477567D01*
X74277704Y-48329772D01*
X74277700Y-48329770D01*
X74277697Y-48329768D01*
X74277696Y-48329767D01*
X74041325Y-48215938D01*
X74041327Y-48215938D01*
X73790623Y-48138606D01*
X73790619Y-48138605D01*
X73790615Y-48138604D01*
X73665823Y-48119794D01*
X73531187Y-48099500D01*
X73531182Y-48099500D01*
X73268818Y-48099500D01*
X73268812Y-48099500D01*
X73107247Y-48123853D01*
X73009385Y-48138604D01*
X73009382Y-48138605D01*
X73009376Y-48138606D01*
X72758673Y-48215938D01*
X72522303Y-48329767D01*
X72522302Y-48329768D01*
X72305520Y-48477567D01*
X72113198Y-48656014D01*
X71949614Y-48861143D01*
X71818432Y-49088356D01*
X71722582Y-49332578D01*
X71722576Y-49332597D01*
X71664197Y-49588374D01*
X71664196Y-49588379D01*
X71649500Y-49784484D01*
X71649500Y-50215515D01*
X66350499Y-50215515D01*
X66350500Y-50215492D01*
X66350500Y-49784507D01*
X66350499Y-49784484D01*
X66335803Y-49588379D01*
X66335802Y-49588374D01*
X66335802Y-49588370D01*
X66277420Y-49332584D01*
X66181568Y-49088357D01*
X66050386Y-48861143D01*
X65886805Y-48656019D01*
X65886804Y-48656018D01*
X65886801Y-48656014D01*
X65694479Y-48477567D01*
X65477704Y-48329772D01*
X65477700Y-48329770D01*
X65477697Y-48329768D01*
X65477696Y-48329767D01*
X65241325Y-48215938D01*
X65241327Y-48215938D01*
X64990623Y-48138606D01*
X64990619Y-48138605D01*
X64990615Y-48138604D01*
X64865823Y-48119794D01*
X64731187Y-48099500D01*
X64731182Y-48099500D01*
X64468818Y-48099500D01*
X64468812Y-48099500D01*
X64307247Y-48123853D01*
X64209385Y-48138604D01*
X64209382Y-48138605D01*
X64209376Y-48138606D01*
X63958673Y-48215938D01*
X63722303Y-48329767D01*
X63722302Y-48329768D01*
X63505520Y-48477567D01*
X63313198Y-48656014D01*
X63149614Y-48861143D01*
X63018432Y-49088356D01*
X62922582Y-49332578D01*
X62922576Y-49332597D01*
X62895391Y-49451705D01*
X62861282Y-49512684D01*
X62799621Y-49545542D01*
X62729984Y-49539847D01*
X62674480Y-49497407D01*
X62650732Y-49431697D01*
X62650500Y-49424113D01*
X62650500Y-47558674D01*
X62670185Y-47491635D01*
X62686814Y-47470998D01*
X65206428Y-44951383D01*
X65227069Y-44934750D01*
X65231128Y-44932143D01*
X65263660Y-44894596D01*
X65269684Y-44888128D01*
X65279213Y-44878600D01*
X65279213Y-44878599D01*
X65279220Y-44878593D01*
X65287319Y-44867772D01*
X65292850Y-44860909D01*
X65325377Y-44823373D01*
X65327375Y-44818995D01*
X65340907Y-44796189D01*
X65343796Y-44792331D01*
X65361149Y-44745801D01*
X65364534Y-44737630D01*
X65385165Y-44692457D01*
X65385850Y-44687685D01*
X65392409Y-44661992D01*
X65394091Y-44657483D01*
X65397633Y-44607951D01*
X65398580Y-44599148D01*
X65400500Y-44585799D01*
X65400500Y-44572308D01*
X65400816Y-44563461D01*
X65404359Y-44513927D01*
X65403332Y-44509206D01*
X65400500Y-44482858D01*
X65400500Y-38424833D01*
X65420185Y-38357794D01*
X65472989Y-38312039D01*
X65542147Y-38302095D01*
X65605703Y-38331120D01*
X65612181Y-38337152D01*
X65627235Y-38352206D01*
X65730009Y-38397585D01*
X65755135Y-38400500D01*
X67344864Y-38400499D01*
X67344879Y-38400497D01*
X67344882Y-38400497D01*
X67369987Y-38397586D01*
X67369988Y-38397585D01*
X67369991Y-38397585D01*
X67472765Y-38352206D01*
X67552206Y-38272765D01*
X67597585Y-38169991D01*
X67600500Y-38144865D01*
X67600499Y-37399499D01*
X67620183Y-37332461D01*
X67672987Y-37286706D01*
X67724499Y-37275500D01*
X69367392Y-37275500D01*
X69367393Y-37275500D01*
X69390360Y-37268036D01*
X69409276Y-37263495D01*
X69433126Y-37259719D01*
X69454636Y-37248757D01*
X69472614Y-37241310D01*
X69495581Y-37233849D01*
X69515118Y-37219653D01*
X69531706Y-37209488D01*
X69553220Y-37198528D01*
X69648528Y-37103220D01*
X70539929Y-36211819D01*
X70601252Y-36178334D01*
X70627610Y-36175500D01*
X104567392Y-36175500D01*
X104567393Y-36175500D01*
X104590360Y-36168036D01*
X104609276Y-36163495D01*
X104633126Y-36159719D01*
X104654636Y-36148757D01*
X104672614Y-36141310D01*
X104695581Y-36133849D01*
X104715118Y-36119653D01*
X104731706Y-36109488D01*
X104753220Y-36098528D01*
X104848528Y-36003220D01*
X105189929Y-35661819D01*
X105251252Y-35628334D01*
X105277610Y-35625500D01*
X105667392Y-35625500D01*
X105667393Y-35625500D01*
X105690360Y-35618036D01*
X105709276Y-35613495D01*
X105733126Y-35609719D01*
X105754636Y-35598757D01*
X105772614Y-35591310D01*
X105795581Y-35583849D01*
X105815118Y-35569653D01*
X105831706Y-35559488D01*
X105853220Y-35548528D01*
X105948528Y-35453220D01*
X106264929Y-35136817D01*
X106326252Y-35103333D01*
X106352610Y-35100499D01*
X107244856Y-35100499D01*
X107244864Y-35100499D01*
X107244879Y-35100497D01*
X107244882Y-35100497D01*
X107269987Y-35097586D01*
X107269988Y-35097585D01*
X107269991Y-35097585D01*
X107372765Y-35052206D01*
X107452206Y-34972765D01*
X107497585Y-34869991D01*
X107500500Y-34844865D01*
X107500499Y-33855136D01*
X107500497Y-33855117D01*
X107497586Y-33830012D01*
X107497585Y-33830010D01*
X107497585Y-33830009D01*
X107452206Y-33727235D01*
X107372765Y-33647794D01*
X107359976Y-33642147D01*
X107269992Y-33602415D01*
X107244865Y-33599500D01*
X105655143Y-33599500D01*
X105655117Y-33599502D01*
X105630012Y-33602413D01*
X105630008Y-33602415D01*
X105527235Y-33647793D01*
X105447794Y-33727234D01*
X105402415Y-33830006D01*
X105402415Y-33830008D01*
X105399500Y-33855131D01*
X105399500Y-33855137D01*
X105399501Y-34650500D01*
X105379817Y-34717539D01*
X105327013Y-34763294D01*
X105275501Y-34774500D01*
X104982604Y-34774500D01*
X104959639Y-34781962D01*
X104940722Y-34786503D01*
X104916873Y-34790280D01*
X104895358Y-34801243D01*
X104877386Y-34808688D01*
X104854418Y-34816151D01*
X104854416Y-34816152D01*
X104834884Y-34830343D01*
X104818299Y-34840506D01*
X104796782Y-34851469D01*
X104796780Y-34851471D01*
X104360071Y-35288181D01*
X104298748Y-35321666D01*
X104272390Y-35324500D01*
X102443901Y-35324500D01*
X102376862Y-35304815D01*
X102331107Y-35252011D01*
X102321163Y-35182853D01*
X102350188Y-35119297D01*
X102393815Y-35087066D01*
X102424975Y-35073306D01*
X102472765Y-35052206D01*
X102552206Y-34972765D01*
X102597585Y-34869991D01*
X102600500Y-34844865D01*
X102600499Y-33855136D01*
X102600497Y-33855117D01*
X102597586Y-33830012D01*
X102597585Y-33830010D01*
X102597585Y-33830009D01*
X102552206Y-33727235D01*
X102472765Y-33647794D01*
X102459976Y-33642147D01*
X102369992Y-33602415D01*
X102344868Y-33599500D01*
X102344865Y-33599500D01*
X102008676Y-33599500D01*
X101941637Y-33579815D01*
X101920995Y-33563181D01*
X101051385Y-32693571D01*
X101034750Y-32672928D01*
X101032145Y-32668874D01*
X101032143Y-32668872D01*
X100994614Y-32636353D01*
X100988143Y-32630329D01*
X100978593Y-32620779D01*
X100967785Y-32612688D01*
X100960904Y-32607144D01*
X100923373Y-32574623D01*
X100923372Y-32574622D01*
X100923367Y-32574619D01*
X100918983Y-32572617D01*
X100896194Y-32559096D01*
X100892331Y-32556204D01*
X100892329Y-32556203D01*
X100845790Y-32538845D01*
X100837622Y-32535461D01*
X100792457Y-32514835D01*
X100792455Y-32514834D01*
X100787682Y-32514148D01*
X100762000Y-32507593D01*
X100757486Y-32505909D01*
X100707946Y-32502365D01*
X100699159Y-32501420D01*
X100685799Y-32499500D01*
X100685797Y-32499500D01*
X100672308Y-32499500D01*
X100663461Y-32499184D01*
X100613929Y-32495641D01*
X100613925Y-32495641D01*
X100609215Y-32496666D01*
X100582857Y-32499500D01*
X69917143Y-32499500D01*
X69890785Y-32496666D01*
X69886074Y-32495641D01*
X69886070Y-32495641D01*
X69836539Y-32499184D01*
X69827692Y-32499500D01*
X69814200Y-32499500D01*
X69808063Y-32500382D01*
X69800840Y-32501420D01*
X69792054Y-32502365D01*
X69742516Y-32505909D01*
X69742513Y-32505910D01*
X69737986Y-32507598D01*
X69712327Y-32514146D01*
X69707550Y-32514833D01*
X69707543Y-32514835D01*
X69662365Y-32535466D01*
X69654191Y-32538851D01*
X69607675Y-32556200D01*
X69607664Y-32556206D01*
X69603799Y-32559100D01*
X69581020Y-32572615D01*
X69576636Y-32574617D01*
X69576625Y-32574624D01*
X69539108Y-32607132D01*
X69532226Y-32612678D01*
X69521403Y-32620780D01*
X69511854Y-32630329D01*
X69505384Y-32636353D01*
X69467861Y-32668867D01*
X69467854Y-32668876D01*
X69465243Y-32672938D01*
X69448616Y-32693568D01*
X68579005Y-33563181D01*
X68517682Y-33596666D01*
X68491324Y-33599500D01*
X65755143Y-33599500D01*
X65755117Y-33599502D01*
X65730012Y-33602413D01*
X65730008Y-33602415D01*
X65627235Y-33647793D01*
X65547794Y-33727234D01*
X65502415Y-33830006D01*
X65502415Y-33830008D01*
X65499500Y-33855131D01*
X65499500Y-34844856D01*
X65499502Y-34844882D01*
X65502413Y-34869986D01*
X65502414Y-34869990D01*
X65504793Y-34875376D01*
X65513865Y-34944654D01*
X65484043Y-35007839D01*
X65479040Y-35013145D01*
X64729005Y-35763181D01*
X64667682Y-35796666D01*
X64641324Y-35799500D01*
X33808676Y-35799500D01*
X33741637Y-35779815D01*
X33720995Y-35763181D01*
X32802670Y-34844856D01*
X35399500Y-34844856D01*
X35399502Y-34844882D01*
X35402413Y-34869987D01*
X35402415Y-34869991D01*
X35447793Y-34972764D01*
X35447794Y-34972765D01*
X35527235Y-35052206D01*
X35630009Y-35097585D01*
X35655135Y-35100500D01*
X37244864Y-35100499D01*
X37244879Y-35100497D01*
X37244882Y-35100497D01*
X37269987Y-35097586D01*
X37269988Y-35097585D01*
X37269991Y-35097585D01*
X37372765Y-35052206D01*
X37452206Y-34972765D01*
X37497585Y-34869991D01*
X37500500Y-34844865D01*
X37500499Y-33855136D01*
X37500497Y-33855117D01*
X37497586Y-33830012D01*
X37497585Y-33830010D01*
X37497585Y-33830009D01*
X37452206Y-33727235D01*
X37372765Y-33647794D01*
X37359976Y-33642147D01*
X37269992Y-33602415D01*
X37244868Y-33599500D01*
X37244865Y-33599500D01*
X36554876Y-33599500D01*
X36507427Y-33590062D01*
X36443709Y-33563670D01*
X36443708Y-33563669D01*
X36443706Y-33563669D01*
X36300001Y-33544750D01*
X36299999Y-33544750D01*
X36156289Y-33563670D01*
X36092572Y-33590062D01*
X36045121Y-33599500D01*
X35655143Y-33599500D01*
X35655117Y-33599502D01*
X35630012Y-33602413D01*
X35630008Y-33602415D01*
X35527235Y-33647793D01*
X35447794Y-33727234D01*
X35402415Y-33830006D01*
X35402415Y-33830008D01*
X35399500Y-33855131D01*
X35399500Y-34844856D01*
X32802670Y-34844856D01*
X32636818Y-34679004D01*
X32603333Y-34617681D01*
X32600499Y-34591323D01*
X32600499Y-33855143D01*
X32600499Y-33855137D01*
X32600499Y-33855136D01*
X32600497Y-33855117D01*
X32597586Y-33830012D01*
X32597585Y-33830010D01*
X32597585Y-33830009D01*
X32552206Y-33727235D01*
X32472765Y-33647794D01*
X32459976Y-33642147D01*
X32369992Y-33602415D01*
X32344868Y-33599500D01*
X32344865Y-33599500D01*
X31372314Y-33599500D01*
X31363468Y-33599184D01*
X31313928Y-33595640D01*
X31310509Y-33596384D01*
X31309208Y-33596667D01*
X31282855Y-33599500D01*
X30755143Y-33599500D01*
X30755117Y-33599502D01*
X30730012Y-33602413D01*
X30730008Y-33602415D01*
X30627235Y-33647793D01*
X30547794Y-33727234D01*
X30502415Y-33830006D01*
X30502415Y-33830008D01*
X30499500Y-33855131D01*
X30499500Y-34844856D01*
X30499502Y-34844882D01*
X30502413Y-34869987D01*
X30502415Y-34869991D01*
X30547793Y-34972764D01*
X30547794Y-34972765D01*
X30627235Y-35052206D01*
X30730009Y-35097585D01*
X30755135Y-35100500D01*
X31591323Y-35100499D01*
X31658362Y-35120183D01*
X31679004Y-35136818D01*
X33148614Y-36606428D01*
X33165246Y-36627066D01*
X33167854Y-36631125D01*
X33167857Y-36631128D01*
X33205400Y-36663658D01*
X33211863Y-36669677D01*
X33221407Y-36679221D01*
X33221413Y-36679226D01*
X33221416Y-36679228D01*
X33232207Y-36687306D01*
X33239100Y-36692860D01*
X33276627Y-36725377D01*
X33281010Y-36727379D01*
X33303807Y-36740905D01*
X33307669Y-36743796D01*
X33354212Y-36761155D01*
X33362360Y-36764530D01*
X33389673Y-36777004D01*
X33407540Y-36785164D01*
X33407541Y-36785164D01*
X33407543Y-36785165D01*
X33412312Y-36785850D01*
X33438002Y-36792407D01*
X33442517Y-36794091D01*
X33492049Y-36797633D01*
X33500843Y-36798579D01*
X33514201Y-36800500D01*
X33527692Y-36800500D01*
X33536538Y-36800815D01*
X33586073Y-36804359D01*
X33590785Y-36803334D01*
X33617143Y-36800500D01*
X38048390Y-36800500D01*
X38115429Y-36820185D01*
X38161184Y-36872989D01*
X38171128Y-36942147D01*
X38142103Y-37005703D01*
X38136071Y-37012181D01*
X37110071Y-38038181D01*
X37048748Y-38071666D01*
X37022390Y-38074500D01*
X35727609Y-38074500D01*
X35660570Y-38054815D01*
X35639928Y-38038181D01*
X35027194Y-37425446D01*
X35003218Y-37401470D01*
X34981703Y-37390508D01*
X34965110Y-37380340D01*
X34945580Y-37366150D01*
X34922615Y-37358688D01*
X34904641Y-37351243D01*
X34883127Y-37340281D01*
X34878010Y-37339470D01*
X34859273Y-37336503D01*
X34840358Y-37331962D01*
X34817394Y-37324500D01*
X34817393Y-37324500D01*
X34783488Y-37324500D01*
X32724499Y-37324500D01*
X32657460Y-37304815D01*
X32611705Y-37252011D01*
X32600499Y-37200500D01*
X32600499Y-37155143D01*
X32600499Y-37155136D01*
X32600497Y-37155117D01*
X32597586Y-37130012D01*
X32597585Y-37130010D01*
X32597585Y-37130009D01*
X32552206Y-37027235D01*
X32472765Y-36947794D01*
X32420009Y-36924500D01*
X32369992Y-36902415D01*
X32344865Y-36899500D01*
X30755143Y-36899500D01*
X30755117Y-36899502D01*
X30730012Y-36902413D01*
X30730008Y-36902415D01*
X30627235Y-36947793D01*
X30547794Y-37027234D01*
X30502415Y-37130006D01*
X30502415Y-37130008D01*
X30499500Y-37155131D01*
X30499500Y-38144856D01*
X30499502Y-38144882D01*
X30502413Y-38169987D01*
X30502415Y-38169991D01*
X30547793Y-38272764D01*
X30547794Y-38272765D01*
X30627235Y-38352206D01*
X30730009Y-38397585D01*
X30755135Y-38400500D01*
X32344864Y-38400499D01*
X32344879Y-38400497D01*
X32344882Y-38400497D01*
X32369987Y-38397586D01*
X32369988Y-38397585D01*
X32369991Y-38397585D01*
X32472765Y-38352206D01*
X32552206Y-38272765D01*
X32562517Y-38249414D01*
X32607603Y-38196037D01*
X32674389Y-38175510D01*
X32675951Y-38175500D01*
X34522390Y-38175500D01*
X34589429Y-38195185D01*
X34610071Y-38211819D01*
X35144401Y-38746148D01*
X35144404Y-38746152D01*
X35151472Y-38753220D01*
X35246780Y-38848528D01*
X35268301Y-38859493D01*
X35284880Y-38869653D01*
X35304419Y-38883849D01*
X35327381Y-38891309D01*
X35345354Y-38898753D01*
X35366874Y-38909719D01*
X35390724Y-38913495D01*
X35409645Y-38918039D01*
X35431489Y-38925136D01*
X35432607Y-38925500D01*
X35432608Y-38925500D01*
X37317392Y-38925500D01*
X37317393Y-38925500D01*
X37340360Y-38918036D01*
X37359276Y-38913495D01*
X37383126Y-38909719D01*
X37404636Y-38898757D01*
X37422614Y-38891310D01*
X37445581Y-38883849D01*
X37465118Y-38869653D01*
X37481706Y-38859488D01*
X37503220Y-38848528D01*
X37598528Y-38753220D01*
X38889929Y-37461819D01*
X38951252Y-37428334D01*
X38977610Y-37425500D01*
X49358136Y-37425500D01*
X49425175Y-37445185D01*
X49433609Y-37451114D01*
X49472375Y-37480861D01*
X49606291Y-37536330D01*
X49733280Y-37553048D01*
X49749999Y-37555250D01*
X49750000Y-37555250D01*
X49750001Y-37555250D01*
X49764977Y-37553278D01*
X49893709Y-37536330D01*
X50027625Y-37480861D01*
X50142621Y-37392621D01*
X50230861Y-37277625D01*
X50286330Y-37143709D01*
X50305250Y-37000000D01*
X50297441Y-36940685D01*
X50308206Y-36871650D01*
X50354586Y-36819394D01*
X50420380Y-36800500D01*
X64275500Y-36800500D01*
X64342539Y-36820185D01*
X64388294Y-36872989D01*
X64399500Y-36924500D01*
X64399500Y-44291323D01*
X64379815Y-44358362D01*
X64363181Y-44379004D01*
X61843568Y-46898616D01*
X61822938Y-46915243D01*
X61818876Y-46917854D01*
X61818867Y-46917861D01*
X61786353Y-46955384D01*
X61780329Y-46961854D01*
X61770780Y-46971403D01*
X61762678Y-46982226D01*
X61757132Y-46989108D01*
X61724624Y-47026625D01*
X61724617Y-47026636D01*
X61722615Y-47031020D01*
X61709100Y-47053799D01*
X61706206Y-47057664D01*
X61706200Y-47057675D01*
X61688851Y-47104191D01*
X61685466Y-47112365D01*
X61664835Y-47157543D01*
X61664833Y-47157550D01*
X61664146Y-47162327D01*
X61657598Y-47187986D01*
X61655910Y-47192513D01*
X61655909Y-47192516D01*
X61652365Y-47242054D01*
X61651420Y-47250845D01*
X61649500Y-47264200D01*
X61649500Y-47277690D01*
X61649184Y-47286537D01*
X61645641Y-47336069D01*
X61645641Y-47336073D01*
X61646666Y-47340785D01*
X61649500Y-47367143D01*
X61649500Y-52732858D01*
X61646667Y-52759206D01*
X61645641Y-52763927D01*
X61645641Y-52763929D01*
X61645641Y-52763930D01*
X61649184Y-52813461D01*
X61649500Y-52822308D01*
X61649500Y-52835797D01*
X61651420Y-52849154D01*
X61652365Y-52857946D01*
X61655909Y-52907486D01*
X61657593Y-52912000D01*
X61664148Y-52937682D01*
X61664834Y-52942455D01*
X61664835Y-52942457D01*
X61676433Y-52967854D01*
X61685457Y-52987612D01*
X61688845Y-52995790D01*
X61706203Y-53042329D01*
X61709096Y-53046194D01*
X61722617Y-53068983D01*
X61724619Y-53073367D01*
X61724622Y-53073372D01*
X61724623Y-53073373D01*
X61757144Y-53110904D01*
X61762688Y-53117785D01*
X61770779Y-53128593D01*
X61780333Y-53138147D01*
X61786353Y-53144614D01*
X61818872Y-53182143D01*
X61818874Y-53182145D01*
X61822928Y-53184750D01*
X61843571Y-53201385D01*
X62163181Y-53520995D01*
X62196666Y-53582318D01*
X62199500Y-53608676D01*
X62199500Y-60979840D01*
X62179815Y-61046879D01*
X62174304Y-61054765D01*
X62164476Y-61067724D01*
X62164473Y-61067730D01*
X62111480Y-61202110D01*
X62111480Y-61202112D01*
X62101339Y-61286558D01*
X62101339Y-61868846D01*
X62103010Y-61882759D01*
X62111479Y-61953290D01*
X62164475Y-62087678D01*
X62174302Y-62100636D01*
X62199127Y-62165947D01*
X62199500Y-62175563D01*
X62199500Y-62185797D01*
X62201420Y-62199154D01*
X62202365Y-62207946D01*
X62205909Y-62257486D01*
X62207593Y-62262000D01*
X62214148Y-62287682D01*
X62214834Y-62292455D01*
X62214835Y-62292457D01*
X62234485Y-62335485D01*
X62235457Y-62337612D01*
X62238845Y-62345790D01*
X62256203Y-62392329D01*
X62259096Y-62396194D01*
X62272617Y-62418983D01*
X62274619Y-62423367D01*
X62274622Y-62423372D01*
X62274623Y-62423373D01*
X62307144Y-62460904D01*
X62312688Y-62467785D01*
X62320779Y-62478593D01*
X62330333Y-62488147D01*
X62336353Y-62494614D01*
X62368872Y-62532143D01*
X62368874Y-62532145D01*
X62372928Y-62534750D01*
X62393571Y-62551385D01*
X63398614Y-63556428D01*
X63415246Y-63577066D01*
X63417854Y-63581125D01*
X63417857Y-63581128D01*
X63455400Y-63613658D01*
X63461863Y-63619677D01*
X63471407Y-63629221D01*
X63471413Y-63629226D01*
X63471416Y-63629228D01*
X63482207Y-63637306D01*
X63489100Y-63642860D01*
X63526627Y-63675377D01*
X63531010Y-63677379D01*
X63553807Y-63690905D01*
X63557669Y-63693796D01*
X63604212Y-63711155D01*
X63612360Y-63714530D01*
X63639673Y-63727004D01*
X63657540Y-63735164D01*
X63657541Y-63735164D01*
X63657543Y-63735165D01*
X63662312Y-63735850D01*
X63688002Y-63742407D01*
X63692517Y-63744091D01*
X63742049Y-63747633D01*
X63750843Y-63748579D01*
X63764201Y-63750500D01*
X63777692Y-63750500D01*
X63786538Y-63750815D01*
X63836073Y-63754359D01*
X63840785Y-63753334D01*
X63867143Y-63750500D01*
X63937258Y-63750500D01*
X64004297Y-63770185D01*
X64050052Y-63822989D01*
X64059996Y-63892147D01*
X64030971Y-63955703D01*
X64019230Y-63967442D01*
X63986353Y-64005384D01*
X63980329Y-64011854D01*
X63970780Y-64021403D01*
X63962678Y-64032226D01*
X63957132Y-64039108D01*
X63924624Y-64076625D01*
X63924617Y-64076636D01*
X63922615Y-64081020D01*
X63909096Y-64103804D01*
X63901083Y-64114509D01*
X63845151Y-64156383D01*
X63816598Y-64163318D01*
X63794901Y-64165923D01*
X63660509Y-64218920D01*
X63545407Y-64306205D01*
X63458122Y-64421307D01*
X63405126Y-64555695D01*
X63401556Y-64585431D01*
X63394986Y-64640140D01*
X63394986Y-65222428D01*
X63400311Y-65266778D01*
X63405126Y-65306872D01*
X63458122Y-65441260D01*
X63545407Y-65556362D01*
X63660509Y-65643647D01*
X63660510Y-65643647D01*
X63660511Y-65643648D01*
X63794896Y-65696643D01*
X63879342Y-65706784D01*
X63879348Y-65706784D01*
X64411624Y-65706784D01*
X64411630Y-65706784D01*
X64496076Y-65696643D01*
X64630461Y-65643648D01*
X64745564Y-65556362D01*
X64832850Y-65441259D01*
X64885845Y-65306874D01*
X64895986Y-65222428D01*
X64895986Y-64640140D01*
X64889415Y-64585427D01*
X64900965Y-64516522D01*
X64924846Y-64482966D01*
X65206431Y-64201381D01*
X65227071Y-64184750D01*
X65231128Y-64182143D01*
X65263644Y-64144616D01*
X65269674Y-64138139D01*
X65269680Y-64138133D01*
X65279220Y-64128594D01*
X65287314Y-64117780D01*
X65292852Y-64110906D01*
X65325377Y-64073373D01*
X65327377Y-64068992D01*
X65340911Y-64046183D01*
X65343795Y-64042331D01*
X65361154Y-63995790D01*
X65364533Y-63987633D01*
X65364543Y-63987612D01*
X65385165Y-63942457D01*
X65385851Y-63937683D01*
X65392407Y-63911996D01*
X65394091Y-63907483D01*
X65394091Y-63907478D01*
X65394092Y-63907477D01*
X65397082Y-63865657D01*
X65421497Y-63800192D01*
X65477429Y-63758319D01*
X65520766Y-63750500D01*
X67579233Y-63750500D01*
X67646272Y-63770185D01*
X67692027Y-63822989D01*
X67702917Y-63865653D01*
X67705909Y-63907485D01*
X67707593Y-63912000D01*
X67714148Y-63937682D01*
X67714834Y-63942455D01*
X67714835Y-63942457D01*
X67721952Y-63958042D01*
X67735457Y-63987612D01*
X67738845Y-63995790D01*
X67756202Y-64042327D01*
X67756204Y-64042331D01*
X67759088Y-64046183D01*
X67759096Y-64046194D01*
X67772617Y-64068983D01*
X67774619Y-64073367D01*
X67774622Y-64073372D01*
X67774623Y-64073373D01*
X67807144Y-64110904D01*
X67812688Y-64117785D01*
X67820779Y-64128593D01*
X67830333Y-64138147D01*
X67836353Y-64144614D01*
X67868872Y-64182143D01*
X67868874Y-64182145D01*
X67872928Y-64184750D01*
X67893571Y-64201385D01*
X68624743Y-64932557D01*
X68658228Y-64993880D01*
X68660177Y-65005449D01*
X68661493Y-65016404D01*
X68662971Y-65028711D01*
X68682301Y-65077727D01*
X68715966Y-65163097D01*
X68803251Y-65278199D01*
X68918353Y-65365484D01*
X68918354Y-65365484D01*
X68918355Y-65365485D01*
X69052740Y-65418480D01*
X69075995Y-65421272D01*
X69140209Y-65448808D01*
X69148893Y-65456707D01*
X69604504Y-65912318D01*
X69637989Y-65973641D01*
X69633005Y-66043333D01*
X69604504Y-66087680D01*
X68443568Y-67248616D01*
X68422938Y-67265243D01*
X68418876Y-67267854D01*
X68418867Y-67267861D01*
X68386353Y-67305384D01*
X68380329Y-67311854D01*
X68370780Y-67321403D01*
X68362678Y-67332226D01*
X68357132Y-67339108D01*
X68324624Y-67376625D01*
X68324617Y-67376636D01*
X68322615Y-67381020D01*
X68309100Y-67403799D01*
X68306206Y-67407664D01*
X68306200Y-67407675D01*
X68288851Y-67454191D01*
X68285466Y-67462365D01*
X68264835Y-67507543D01*
X68264833Y-67507550D01*
X68264146Y-67512327D01*
X68257598Y-67537986D01*
X68255910Y-67542513D01*
X68255909Y-67542516D01*
X68252365Y-67592054D01*
X68251420Y-67600845D01*
X68249500Y-67614200D01*
X68249500Y-67627690D01*
X68249184Y-67636537D01*
X68245641Y-67686069D01*
X68245641Y-67686073D01*
X68246666Y-67690785D01*
X68249500Y-67717143D01*
X68249500Y-68491323D01*
X68229815Y-68558362D01*
X68213181Y-68579004D01*
X67343568Y-69448616D01*
X67322938Y-69465243D01*
X67318876Y-69467854D01*
X67318867Y-69467861D01*
X67286353Y-69505384D01*
X67280329Y-69511854D01*
X67270780Y-69521403D01*
X67262678Y-69532226D01*
X67257132Y-69539108D01*
X67224624Y-69576625D01*
X67224617Y-69576636D01*
X67222615Y-69581020D01*
X67209100Y-69603799D01*
X67206206Y-69607664D01*
X67206200Y-69607675D01*
X67188851Y-69654191D01*
X67185466Y-69662365D01*
X67164835Y-69707543D01*
X67164833Y-69707550D01*
X67164146Y-69712327D01*
X67157598Y-69737986D01*
X67155910Y-69742513D01*
X67155909Y-69742516D01*
X67152365Y-69792054D01*
X67151420Y-69800845D01*
X67149500Y-69814200D01*
X67149500Y-69827690D01*
X67149184Y-69836537D01*
X67145641Y-69886069D01*
X67145641Y-69886073D01*
X67146666Y-69890785D01*
X67149500Y-69917143D01*
X67149500Y-72341324D01*
X67129815Y-72408363D01*
X67113181Y-72429005D01*
X66379005Y-73163181D01*
X66317682Y-73196666D01*
X66291324Y-73199500D01*
X50308676Y-73199500D01*
X50241637Y-73179815D01*
X50220995Y-73163181D01*
X49351385Y-72293571D01*
X49334750Y-72272928D01*
X49332145Y-72268874D01*
X49332143Y-72268872D01*
X49294614Y-72236353D01*
X49288147Y-72230333D01*
X49278593Y-72220779D01*
X49267785Y-72212688D01*
X49260901Y-72207141D01*
X49223373Y-72174623D01*
X49223372Y-72174622D01*
X49223367Y-72174619D01*
X49218983Y-72172617D01*
X49196194Y-72159096D01*
X49192331Y-72156204D01*
X49192329Y-72156203D01*
X49145790Y-72138845D01*
X49137622Y-72135461D01*
X49092457Y-72114835D01*
X49092455Y-72114834D01*
X49087682Y-72114148D01*
X49062000Y-72107593D01*
X49057486Y-72105909D01*
X49007946Y-72102365D01*
X48999159Y-72101420D01*
X48985799Y-72099500D01*
X48985797Y-72099500D01*
X48972308Y-72099500D01*
X48963461Y-72099184D01*
X48913929Y-72095641D01*
X48913925Y-72095641D01*
X48909215Y-72096666D01*
X48882857Y-72099500D01*
X33067138Y-72099500D01*
X33040781Y-72096666D01*
X33036076Y-72095642D01*
X33036068Y-72095642D01*
X32986547Y-72099184D01*
X32977701Y-72099500D01*
X32964197Y-72099500D01*
X32950835Y-72101421D01*
X32942045Y-72102366D01*
X32892514Y-72105909D01*
X32887986Y-72107598D01*
X32862327Y-72114146D01*
X32857550Y-72114833D01*
X32857543Y-72114835D01*
X32812365Y-72135466D01*
X32804191Y-72138851D01*
X32757675Y-72156200D01*
X32757668Y-72156204D01*
X32753800Y-72159100D01*
X32731019Y-72172616D01*
X32726627Y-72174623D01*
X32690733Y-72205724D01*
X32689098Y-72207141D01*
X32682219Y-72212684D01*
X32671409Y-72220777D01*
X32661860Y-72230325D01*
X32655395Y-72236343D01*
X32617859Y-72268870D01*
X32617856Y-72268873D01*
X32615245Y-72272936D01*
X32598615Y-72293570D01*
X31329003Y-73563181D01*
X31267680Y-73596666D01*
X31241322Y-73599500D01*
X30755143Y-73599500D01*
X30755117Y-73599502D01*
X30730012Y-73602413D01*
X30730008Y-73602415D01*
X30627235Y-73647793D01*
X30547794Y-73727234D01*
X30502415Y-73830006D01*
X30502415Y-73830008D01*
X30499500Y-73855131D01*
X30499500Y-74844856D01*
X30499502Y-74844882D01*
X30502413Y-74869987D01*
X30502415Y-74869991D01*
X30547793Y-74972764D01*
X30547794Y-74972765D01*
X30627235Y-75052206D01*
X30730009Y-75097585D01*
X30755135Y-75100500D01*
X32344864Y-75100499D01*
X32344879Y-75100497D01*
X32344882Y-75100497D01*
X32369987Y-75097586D01*
X32369988Y-75097585D01*
X32369991Y-75097585D01*
X32472765Y-75052206D01*
X32552206Y-74972765D01*
X32597585Y-74869991D01*
X32600500Y-74844865D01*
X32600500Y-74844856D01*
X35399500Y-74844856D01*
X35399502Y-74844882D01*
X35402413Y-74869987D01*
X35402415Y-74869991D01*
X35447793Y-74972764D01*
X35447794Y-74972765D01*
X35527235Y-75052206D01*
X35630009Y-75097585D01*
X35655135Y-75100500D01*
X37244864Y-75100499D01*
X37244879Y-75100497D01*
X37244882Y-75100497D01*
X37269987Y-75097586D01*
X37269988Y-75097585D01*
X37269991Y-75097585D01*
X37372765Y-75052206D01*
X37452206Y-74972765D01*
X37497585Y-74869991D01*
X37500500Y-74844865D01*
X37500499Y-73855136D01*
X37500048Y-73851243D01*
X37497586Y-73830012D01*
X37497585Y-73830010D01*
X37497585Y-73830009D01*
X37452206Y-73727235D01*
X37372765Y-73647794D01*
X37372763Y-73647793D01*
X37269992Y-73602415D01*
X37244865Y-73599500D01*
X35655143Y-73599500D01*
X35655117Y-73599502D01*
X35630012Y-73602413D01*
X35630008Y-73602415D01*
X35527235Y-73647793D01*
X35447794Y-73727234D01*
X35402415Y-73830006D01*
X35402415Y-73830008D01*
X35399500Y-73855131D01*
X35399500Y-74844856D01*
X32600500Y-74844856D01*
X32600499Y-73855136D01*
X32600048Y-73851243D01*
X32597586Y-73830012D01*
X32597585Y-73830010D01*
X32597584Y-73830008D01*
X32595204Y-73824618D01*
X32586134Y-73755341D01*
X32615958Y-73692156D01*
X32620942Y-73686870D01*
X33170994Y-73136819D01*
X33232317Y-73103334D01*
X33258675Y-73100500D01*
X48691324Y-73100500D01*
X48758363Y-73120185D01*
X48779005Y-73136819D01*
X49648614Y-74006428D01*
X49665246Y-74027066D01*
X49667854Y-74031125D01*
X49667857Y-74031128D01*
X49705400Y-74063658D01*
X49711863Y-74069677D01*
X49721407Y-74079221D01*
X49721413Y-74079226D01*
X49721416Y-74079228D01*
X49732207Y-74087306D01*
X49739100Y-74092860D01*
X49758262Y-74109464D01*
X49776627Y-74125377D01*
X49781010Y-74127379D01*
X49803807Y-74140905D01*
X49807669Y-74143796D01*
X49854212Y-74161155D01*
X49862360Y-74164530D01*
X49889673Y-74177004D01*
X49907540Y-74185164D01*
X49907541Y-74185164D01*
X49907543Y-74185165D01*
X49912312Y-74185850D01*
X49938002Y-74192407D01*
X49942517Y-74194091D01*
X49992049Y-74197633D01*
X50000843Y-74198579D01*
X50014201Y-74200500D01*
X50027692Y-74200500D01*
X50036538Y-74200815D01*
X50086073Y-74204359D01*
X50090785Y-74203334D01*
X50117143Y-74200500D01*
X65375500Y-74200500D01*
X65442539Y-74220185D01*
X65488294Y-74272989D01*
X65499500Y-74324500D01*
X65499500Y-74844856D01*
X65499502Y-74844882D01*
X65502413Y-74869987D01*
X65502415Y-74869991D01*
X65547793Y-74972764D01*
X65547794Y-74972765D01*
X65627235Y-75052206D01*
X65730009Y-75097585D01*
X65755135Y-75100500D01*
X67344864Y-75100499D01*
X67344879Y-75100497D01*
X67344882Y-75100497D01*
X67369987Y-75097586D01*
X67369988Y-75097585D01*
X67369991Y-75097585D01*
X67472765Y-75052206D01*
X67552206Y-74972765D01*
X67597585Y-74869991D01*
X67600500Y-74844865D01*
X67600499Y-73855136D01*
X67600048Y-73851243D01*
X67597586Y-73830012D01*
X67597585Y-73830010D01*
X67597585Y-73830009D01*
X67552206Y-73727235D01*
X67479073Y-73654102D01*
X67445588Y-73592779D01*
X67450572Y-73523087D01*
X67479073Y-73478740D01*
X67956431Y-73001381D01*
X67977068Y-72984751D01*
X67981128Y-72982143D01*
X68013653Y-72944605D01*
X68019658Y-72938155D01*
X68029221Y-72928593D01*
X68037316Y-72917778D01*
X68042859Y-72910899D01*
X68075377Y-72873373D01*
X68077375Y-72868995D01*
X68090907Y-72846189D01*
X68093796Y-72842331D01*
X68111149Y-72795801D01*
X68114534Y-72787630D01*
X68135165Y-72742457D01*
X68135850Y-72737685D01*
X68142409Y-72711992D01*
X68144091Y-72707483D01*
X68147633Y-72657951D01*
X68148580Y-72649148D01*
X68150500Y-72635799D01*
X68150500Y-72622308D01*
X68150816Y-72613461D01*
X68154359Y-72563927D01*
X68153332Y-72559206D01*
X68150500Y-72532858D01*
X68150500Y-71677094D01*
X68170185Y-71610055D01*
X68222989Y-71564300D01*
X68258313Y-71554155D01*
X68393709Y-71536330D01*
X68527625Y-71480861D01*
X68642621Y-71392621D01*
X68730861Y-71277625D01*
X68786330Y-71143709D01*
X68792706Y-71095277D01*
X68820970Y-71031383D01*
X68827951Y-71023795D01*
X71273785Y-68577961D01*
X71335106Y-68544478D01*
X71345261Y-68542708D01*
X71393709Y-68536330D01*
X71527625Y-68480861D01*
X71642621Y-68392621D01*
X71730861Y-68277625D01*
X71786330Y-68143709D01*
X71805250Y-68000000D01*
X71786330Y-67856291D01*
X71730861Y-67722375D01*
X71642621Y-67607379D01*
X71527625Y-67519139D01*
X71527624Y-67519138D01*
X71527622Y-67519137D01*
X71393712Y-67463671D01*
X71393710Y-67463670D01*
X71393709Y-67463670D01*
X71321710Y-67454191D01*
X71250001Y-67444750D01*
X71249999Y-67444750D01*
X71106291Y-67463670D01*
X71106287Y-67463671D01*
X70972377Y-67519137D01*
X70857379Y-67607379D01*
X70769137Y-67722377D01*
X70713670Y-67856289D01*
X70707293Y-67904722D01*
X70679025Y-67968618D01*
X70672035Y-67976215D01*
X68362181Y-70286070D01*
X68300858Y-70319555D01*
X68231166Y-70314571D01*
X68175233Y-70272699D01*
X68150816Y-70207235D01*
X68150500Y-70198389D01*
X68150500Y-70108675D01*
X68170185Y-70041636D01*
X68186815Y-70020998D01*
X69056431Y-69151381D01*
X69077068Y-69134751D01*
X69081128Y-69132143D01*
X69113653Y-69094605D01*
X69119658Y-69088155D01*
X69129221Y-69078593D01*
X69137316Y-69067778D01*
X69142859Y-69060899D01*
X69175377Y-69023373D01*
X69177375Y-69018995D01*
X69190907Y-68996189D01*
X69193796Y-68992331D01*
X69211149Y-68945801D01*
X69214534Y-68937630D01*
X69235165Y-68892457D01*
X69235850Y-68887685D01*
X69242409Y-68861992D01*
X69244091Y-68857483D01*
X69247633Y-68807951D01*
X69248580Y-68799148D01*
X69250500Y-68785799D01*
X69250500Y-68772308D01*
X69250816Y-68763461D01*
X69254359Y-68713927D01*
X69253332Y-68709206D01*
X69250500Y-68682858D01*
X69250500Y-67908675D01*
X69270185Y-67841636D01*
X69286819Y-67820994D01*
X70570994Y-66536819D01*
X70632317Y-66503334D01*
X70658675Y-66500500D01*
X74178039Y-66500500D01*
X74321961Y-66500500D01*
X74339114Y-66500500D01*
X74384602Y-66509144D01*
X74501438Y-66555219D01*
X74585884Y-66565360D01*
X74606184Y-66565360D01*
X74673223Y-66585045D01*
X74693865Y-66601679D01*
X76598614Y-68506428D01*
X76615246Y-68527066D01*
X76617854Y-68531125D01*
X76617857Y-68531128D01*
X76655400Y-68563658D01*
X76661863Y-68569677D01*
X76671407Y-68579221D01*
X76671413Y-68579226D01*
X76671416Y-68579228D01*
X76682207Y-68587306D01*
X76689100Y-68592860D01*
X76726627Y-68625377D01*
X76731010Y-68627379D01*
X76753807Y-68640905D01*
X76757669Y-68643796D01*
X76804212Y-68661155D01*
X76812360Y-68664530D01*
X76839673Y-68677004D01*
X76857540Y-68685164D01*
X76857541Y-68685164D01*
X76857543Y-68685165D01*
X76862312Y-68685850D01*
X76888002Y-68692407D01*
X76892517Y-68694091D01*
X76942049Y-68697633D01*
X76950843Y-68698579D01*
X76964201Y-68700500D01*
X76977692Y-68700500D01*
X76986538Y-68700815D01*
X77036073Y-68704359D01*
X77040785Y-68703334D01*
X77067143Y-68700500D01*
X86641324Y-68700500D01*
X86708363Y-68720185D01*
X86729005Y-68736819D01*
X92548614Y-74556428D01*
X92565246Y-74577066D01*
X92567854Y-74581125D01*
X92567857Y-74581128D01*
X92605400Y-74613658D01*
X92611863Y-74619677D01*
X92621407Y-74629221D01*
X92621413Y-74629226D01*
X92621416Y-74629228D01*
X92632207Y-74637306D01*
X92639100Y-74642860D01*
X92676627Y-74675377D01*
X92681010Y-74677379D01*
X92703807Y-74690905D01*
X92707669Y-74693796D01*
X92754212Y-74711155D01*
X92762360Y-74714530D01*
X92789673Y-74727004D01*
X92807540Y-74735164D01*
X92807541Y-74735164D01*
X92807543Y-74735165D01*
X92812312Y-74735850D01*
X92838002Y-74742407D01*
X92842517Y-74744091D01*
X92892049Y-74747633D01*
X92900843Y-74748579D01*
X92914201Y-74750500D01*
X92927692Y-74750500D01*
X92936538Y-74750815D01*
X92986073Y-74754359D01*
X92990785Y-74753334D01*
X93017143Y-74750500D01*
X100378107Y-74750500D01*
X100445146Y-74770185D01*
X100490901Y-74822989D01*
X100501281Y-74860213D01*
X100501762Y-74864360D01*
X100502415Y-74869992D01*
X100547793Y-74972764D01*
X100547794Y-74972765D01*
X100627235Y-75052206D01*
X100730009Y-75097585D01*
X100755135Y-75100500D01*
X101841323Y-75100499D01*
X101908362Y-75120184D01*
X101929004Y-75136818D01*
X102448614Y-75656428D01*
X102465246Y-75677066D01*
X102467854Y-75681125D01*
X102467857Y-75681128D01*
X102505400Y-75713658D01*
X102511863Y-75719677D01*
X102521407Y-75729221D01*
X102521413Y-75729226D01*
X102521416Y-75729228D01*
X102532207Y-75737306D01*
X102539100Y-75742860D01*
X102576627Y-75775377D01*
X102581010Y-75777379D01*
X102603807Y-75790905D01*
X102607669Y-75793796D01*
X102654212Y-75811155D01*
X102662360Y-75814530D01*
X102689673Y-75827004D01*
X102707540Y-75835164D01*
X102707541Y-75835164D01*
X102707543Y-75835165D01*
X102712312Y-75835850D01*
X102738002Y-75842407D01*
X102742517Y-75844091D01*
X102792049Y-75847633D01*
X102800843Y-75848579D01*
X102814201Y-75850500D01*
X102827692Y-75850500D01*
X102836538Y-75850815D01*
X102886073Y-75854359D01*
X102890785Y-75853334D01*
X102917143Y-75850500D01*
X102987258Y-75850500D01*
X103054297Y-75870185D01*
X103100052Y-75922989D01*
X103109996Y-75992147D01*
X103080971Y-76055703D01*
X103069230Y-76067442D01*
X103036353Y-76105384D01*
X103030329Y-76111854D01*
X103020780Y-76121403D01*
X103012678Y-76132226D01*
X103007132Y-76139108D01*
X102974624Y-76176625D01*
X102974617Y-76176636D01*
X102972615Y-76181020D01*
X102959100Y-76203799D01*
X102956206Y-76207664D01*
X102956200Y-76207675D01*
X102938851Y-76254191D01*
X102935466Y-76262365D01*
X102914835Y-76307543D01*
X102914833Y-76307550D01*
X102914146Y-76312327D01*
X102907598Y-76337986D01*
X102905910Y-76342513D01*
X102905909Y-76342516D01*
X102902365Y-76392054D01*
X102901420Y-76400845D01*
X102899500Y-76414200D01*
X102899500Y-76427690D01*
X102899184Y-76436537D01*
X102895641Y-76486069D01*
X102895641Y-76486073D01*
X102896666Y-76490785D01*
X102899500Y-76517143D01*
X102899500Y-78941323D01*
X102879815Y-79008362D01*
X102863181Y-79029004D01*
X100893568Y-80998616D01*
X100872938Y-81015243D01*
X100868876Y-81017854D01*
X100868867Y-81017861D01*
X100836353Y-81055384D01*
X100830329Y-81061854D01*
X100820780Y-81071403D01*
X100812678Y-81082226D01*
X100807132Y-81089108D01*
X100774624Y-81126625D01*
X100774617Y-81126636D01*
X100772615Y-81131020D01*
X100759100Y-81153799D01*
X100756206Y-81157664D01*
X100756200Y-81157675D01*
X100738851Y-81204191D01*
X100735466Y-81212365D01*
X100714835Y-81257543D01*
X100714833Y-81257550D01*
X100714146Y-81262327D01*
X100707598Y-81287986D01*
X100705910Y-81292513D01*
X100705909Y-81292516D01*
X100702365Y-81342054D01*
X100701420Y-81350845D01*
X100699500Y-81364200D01*
X100699500Y-81377690D01*
X100699184Y-81386537D01*
X100695641Y-81436069D01*
X100695641Y-81436073D01*
X100696666Y-81440785D01*
X100699500Y-81467143D01*
X100699500Y-82241323D01*
X100679815Y-82308362D01*
X100663181Y-82329004D01*
X95943568Y-87048616D01*
X95922938Y-87065243D01*
X95918876Y-87067854D01*
X95918867Y-87067861D01*
X95886353Y-87105384D01*
X95880329Y-87111854D01*
X95870780Y-87121403D01*
X95862678Y-87132226D01*
X95857132Y-87139108D01*
X95824624Y-87176625D01*
X95824617Y-87176636D01*
X95822615Y-87181020D01*
X95809100Y-87203799D01*
X95806206Y-87207664D01*
X95806200Y-87207675D01*
X95788851Y-87254191D01*
X95785466Y-87262365D01*
X95764835Y-87307543D01*
X95764833Y-87307550D01*
X95764146Y-87312327D01*
X95757598Y-87337986D01*
X95755910Y-87342513D01*
X95755909Y-87342516D01*
X95752365Y-87392054D01*
X95751420Y-87400845D01*
X95749500Y-87414200D01*
X95749500Y-87427690D01*
X95749184Y-87436537D01*
X95745641Y-87486069D01*
X95745641Y-87486073D01*
X95746666Y-87490785D01*
X95749500Y-87517143D01*
X95749500Y-100238285D01*
X95729815Y-100305324D01*
X95677011Y-100351079D01*
X95670294Y-100353912D01*
X95484982Y-100425701D01*
X95484980Y-100425702D01*
X95303699Y-100537947D01*
X95146127Y-100681593D01*
X95017632Y-100851746D01*
X94922596Y-101042605D01*
X94922596Y-101042607D01*
X94864244Y-101247689D01*
X94844571Y-101459999D01*
X94844571Y-101460000D01*
X94864244Y-101672310D01*
X94922596Y-101877392D01*
X94922596Y-101877394D01*
X95017632Y-102068253D01*
X95146127Y-102238406D01*
X95146128Y-102238407D01*
X95303698Y-102382052D01*
X95484981Y-102494298D01*
X95683802Y-102571321D01*
X95893390Y-102610500D01*
X95893392Y-102610500D01*
X96106608Y-102610500D01*
X96106610Y-102610500D01*
X96316198Y-102571321D01*
X96515019Y-102494298D01*
X96696302Y-102382052D01*
X96853872Y-102238407D01*
X96982366Y-102068255D01*
X97077405Y-101877389D01*
X97135756Y-101672310D01*
X97155429Y-101460000D01*
X97135756Y-101247690D01*
X97077405Y-101042611D01*
X97077403Y-101042606D01*
X97077403Y-101042605D01*
X96982367Y-100851746D01*
X96925913Y-100776990D01*
X96853872Y-100681593D01*
X96853869Y-100681590D01*
X96853870Y-100681590D01*
X96790961Y-100624240D01*
X96754680Y-100564528D01*
X96750500Y-100532604D01*
X96750500Y-98913797D01*
X96770185Y-98846758D01*
X96822989Y-98801003D01*
X96890678Y-98790857D01*
X96904717Y-98792705D01*
X96968612Y-98820968D01*
X96976215Y-98827963D01*
X99288181Y-101139929D01*
X99321666Y-101201252D01*
X99324500Y-101227610D01*
X99324500Y-102817394D01*
X99331962Y-102840358D01*
X99336503Y-102859273D01*
X99338580Y-102872387D01*
X99340281Y-102883129D01*
X99341102Y-102885654D01*
X99341194Y-102888893D01*
X99341808Y-102892767D01*
X99341307Y-102892846D01*
X99343097Y-102955495D01*
X99307017Y-103015328D01*
X99244316Y-103046156D01*
X99174902Y-103038191D01*
X99157894Y-103029399D01*
X99055024Y-102965705D01*
X99055017Y-102965701D01*
X98955608Y-102927190D01*
X98856198Y-102888679D01*
X98646610Y-102849500D01*
X98433390Y-102849500D01*
X98223802Y-102888679D01*
X98223799Y-102888679D01*
X98223799Y-102888680D01*
X98024982Y-102965701D01*
X98024980Y-102965702D01*
X97843699Y-103077947D01*
X97686127Y-103221593D01*
X97557632Y-103391746D01*
X97462596Y-103582605D01*
X97462596Y-103582607D01*
X97462596Y-103582608D01*
X97462595Y-103582611D01*
X97404244Y-103787690D01*
X97384571Y-104000000D01*
X97404244Y-104212310D01*
X97445376Y-104356873D01*
X97462596Y-104417392D01*
X97462596Y-104417394D01*
X97557632Y-104608253D01*
X97686127Y-104778406D01*
X97686128Y-104778407D01*
X97843698Y-104922052D01*
X98024981Y-105034298D01*
X98223802Y-105111321D01*
X98433390Y-105150500D01*
X98433392Y-105150500D01*
X98646608Y-105150500D01*
X98646610Y-105150500D01*
X98856198Y-105111321D01*
X99055019Y-105034298D01*
X99236302Y-104922052D01*
X99393872Y-104778407D01*
X99522366Y-104608255D01*
X99592945Y-104466512D01*
X99617403Y-104417394D01*
X99617403Y-104417393D01*
X99617405Y-104417389D01*
X99675756Y-104212310D01*
X99686529Y-104096047D01*
X99712315Y-104031111D01*
X99756869Y-103999194D01*
X99720497Y-103978331D01*
X99688307Y-103916318D01*
X99686529Y-103903951D01*
X99685849Y-103896613D01*
X99675756Y-103787690D01*
X99617405Y-103582611D01*
X99617403Y-103582607D01*
X99595760Y-103539142D01*
X99583499Y-103470356D01*
X99610372Y-103405861D01*
X99667848Y-103366134D01*
X99737678Y-103363786D01*
X99794441Y-103396189D01*
X99946253Y-103548001D01*
X99979738Y-103609324D01*
X99977839Y-103669615D01*
X99944243Y-103787692D01*
X99933471Y-103903951D01*
X99907685Y-103968888D01*
X99863130Y-104000804D01*
X99899503Y-104021668D01*
X99931693Y-104083681D01*
X99933470Y-104096047D01*
X99944244Y-104212310D01*
X99985376Y-104356873D01*
X100002596Y-104417392D01*
X100002596Y-104417394D01*
X100097632Y-104608253D01*
X100226127Y-104778406D01*
X100226128Y-104778407D01*
X100383698Y-104922052D01*
X100564981Y-105034298D01*
X100763802Y-105111321D01*
X100973390Y-105150500D01*
X100973392Y-105150500D01*
X101186608Y-105150500D01*
X101186610Y-105150500D01*
X101396198Y-105111321D01*
X101595019Y-105034298D01*
X101776302Y-104922052D01*
X101933872Y-104778407D01*
X102062366Y-104608255D01*
X102132945Y-104466512D01*
X102157403Y-104417394D01*
X102157403Y-104417393D01*
X102157405Y-104417389D01*
X102215756Y-104212310D01*
X102226529Y-104096047D01*
X102252315Y-104031111D01*
X102296869Y-103999194D01*
X102260497Y-103978331D01*
X102228307Y-103916318D01*
X102226529Y-103903951D01*
X102225849Y-103896613D01*
X102215756Y-103787690D01*
X102157405Y-103582611D01*
X102157403Y-103582606D01*
X102157403Y-103582605D01*
X102062367Y-103391746D01*
X101933872Y-103221593D01*
X101776302Y-103077948D01*
X101595019Y-102965702D01*
X101595017Y-102965701D01*
X101495608Y-102927190D01*
X101396198Y-102888679D01*
X101199385Y-102851888D01*
X101137106Y-102820221D01*
X101101833Y-102759908D01*
X101104767Y-102690100D01*
X101144976Y-102632960D01*
X101199384Y-102608111D01*
X101396198Y-102571321D01*
X101595019Y-102494298D01*
X101776302Y-102382052D01*
X101933872Y-102238407D01*
X102062366Y-102068255D01*
X102157405Y-101877389D01*
X102215756Y-101672310D01*
X102226529Y-101556047D01*
X102252315Y-101491111D01*
X102296869Y-101459194D01*
X102260497Y-101438331D01*
X102228307Y-101376318D01*
X102226529Y-101363951D01*
X102225849Y-101356613D01*
X102215756Y-101247690D01*
X102175341Y-101105648D01*
X102175927Y-101035784D01*
X102214193Y-100977325D01*
X102277990Y-100948834D01*
X102347063Y-100959358D01*
X102382288Y-100984035D01*
X102468533Y-101070280D01*
X102502018Y-101131603D01*
X102500119Y-101191894D01*
X102484243Y-101247692D01*
X102473471Y-101363951D01*
X102447685Y-101428888D01*
X102403130Y-101460804D01*
X102439503Y-101481668D01*
X102471693Y-101543681D01*
X102473471Y-101556048D01*
X102484244Y-101672310D01*
X102542596Y-101877392D01*
X102542596Y-101877394D01*
X102637632Y-102068253D01*
X102766127Y-102238406D01*
X102766128Y-102238407D01*
X102923698Y-102382052D01*
X103104981Y-102494298D01*
X103303802Y-102571321D01*
X103500613Y-102608111D01*
X103562893Y-102639779D01*
X103598166Y-102700092D01*
X103595232Y-102769900D01*
X103555023Y-102827040D01*
X103500613Y-102851888D01*
X103303802Y-102888679D01*
X103303799Y-102888679D01*
X103303799Y-102888680D01*
X103104982Y-102965701D01*
X103104980Y-102965702D01*
X102923699Y-103077947D01*
X102766127Y-103221593D01*
X102637632Y-103391746D01*
X102542596Y-103582605D01*
X102542596Y-103582607D01*
X102484244Y-103787689D01*
X102473471Y-103903951D01*
X102447685Y-103968888D01*
X102403130Y-104000804D01*
X102439503Y-104021668D01*
X102471693Y-104083681D01*
X102473470Y-104096047D01*
X102484244Y-104212310D01*
X102525376Y-104356873D01*
X102542596Y-104417392D01*
X102542596Y-104417394D01*
X102637632Y-104608253D01*
X102766127Y-104778406D01*
X102766128Y-104778407D01*
X102923698Y-104922052D01*
X103104981Y-105034298D01*
X103303802Y-105111321D01*
X103513390Y-105150500D01*
X103513392Y-105150500D01*
X103726608Y-105150500D01*
X103726610Y-105150500D01*
X103936198Y-105111321D01*
X104135019Y-105034298D01*
X104316302Y-104922052D01*
X104473872Y-104778407D01*
X104602366Y-104608255D01*
X104672945Y-104466512D01*
X104697403Y-104417394D01*
X104697403Y-104417393D01*
X104697405Y-104417389D01*
X104755756Y-104212310D01*
X104766529Y-104096047D01*
X104792315Y-104031111D01*
X104834622Y-104000804D01*
X104943130Y-104000804D01*
X104979503Y-104021668D01*
X105011693Y-104083681D01*
X105013470Y-104096047D01*
X105024244Y-104212310D01*
X105065376Y-104356873D01*
X105082596Y-104417392D01*
X105082596Y-104417394D01*
X105177632Y-104608253D01*
X105306127Y-104778406D01*
X105306128Y-104778407D01*
X105463698Y-104922052D01*
X105644981Y-105034298D01*
X105843802Y-105111321D01*
X106053390Y-105150500D01*
X106053392Y-105150500D01*
X106266608Y-105150500D01*
X106266610Y-105150500D01*
X106476198Y-105111321D01*
X106675019Y-105034298D01*
X106856302Y-104922052D01*
X107013872Y-104778407D01*
X107142366Y-104608255D01*
X107212945Y-104466512D01*
X107237403Y-104417394D01*
X107237403Y-104417393D01*
X107237405Y-104417389D01*
X107295756Y-104212310D01*
X107306529Y-104096047D01*
X107332315Y-104031111D01*
X107376869Y-103999194D01*
X107340497Y-103978331D01*
X107308307Y-103916318D01*
X107306529Y-103903951D01*
X107305849Y-103896613D01*
X107295756Y-103787690D01*
X107237405Y-103582611D01*
X107237403Y-103582606D01*
X107237403Y-103582605D01*
X107142367Y-103391746D01*
X107013872Y-103221593D01*
X106856302Y-103077948D01*
X106675019Y-102965702D01*
X106675017Y-102965701D01*
X106575608Y-102927190D01*
X106476198Y-102888679D01*
X106279385Y-102851888D01*
X106217106Y-102820221D01*
X106181833Y-102759908D01*
X106184767Y-102690100D01*
X106224976Y-102632960D01*
X106279384Y-102608111D01*
X106476198Y-102571321D01*
X106675019Y-102494298D01*
X106856302Y-102382052D01*
X107013872Y-102238407D01*
X107142366Y-102068255D01*
X107237405Y-101877389D01*
X107295756Y-101672310D01*
X107306529Y-101556047D01*
X107332315Y-101491111D01*
X107376869Y-101459194D01*
X107340497Y-101438331D01*
X107308307Y-101376318D01*
X107306529Y-101363951D01*
X107305849Y-101356613D01*
X107295756Y-101247690D01*
X107237405Y-101042611D01*
X107237403Y-101042606D01*
X107237403Y-101042605D01*
X107142367Y-100851746D01*
X107013872Y-100681593D01*
X106950959Y-100624240D01*
X106856302Y-100537948D01*
X106675019Y-100425702D01*
X106675017Y-100425701D01*
X106521399Y-100366190D01*
X106476198Y-100348679D01*
X106266610Y-100309500D01*
X106053390Y-100309500D01*
X105843802Y-100348679D01*
X105843799Y-100348679D01*
X105843799Y-100348680D01*
X105644982Y-100425701D01*
X105644980Y-100425702D01*
X105463699Y-100537947D01*
X105306127Y-100681593D01*
X105177632Y-100851746D01*
X105082596Y-101042605D01*
X105082596Y-101042607D01*
X105024244Y-101247689D01*
X105013471Y-101363951D01*
X104987685Y-101428888D01*
X104943130Y-101460804D01*
X104979503Y-101481668D01*
X105011693Y-101543681D01*
X105013471Y-101556048D01*
X105024244Y-101672310D01*
X105082596Y-101877392D01*
X105082596Y-101877394D01*
X105177632Y-102068253D01*
X105306127Y-102238406D01*
X105306128Y-102238407D01*
X105463698Y-102382052D01*
X105644981Y-102494298D01*
X105843802Y-102571321D01*
X106040613Y-102608111D01*
X106102893Y-102639779D01*
X106138166Y-102700092D01*
X106135232Y-102769900D01*
X106095023Y-102827040D01*
X106040613Y-102851888D01*
X105843802Y-102888679D01*
X105843799Y-102888679D01*
X105843799Y-102888680D01*
X105644982Y-102965701D01*
X105644980Y-102965702D01*
X105463699Y-103077947D01*
X105306127Y-103221593D01*
X105177632Y-103391746D01*
X105082596Y-103582605D01*
X105082596Y-103582607D01*
X105024244Y-103787689D01*
X105013471Y-103903951D01*
X104987685Y-103968888D01*
X104943130Y-104000804D01*
X104834622Y-104000804D01*
X104836869Y-103999194D01*
X104800497Y-103978331D01*
X104768307Y-103916318D01*
X104766529Y-103903951D01*
X104765849Y-103896613D01*
X104755756Y-103787690D01*
X104697405Y-103582611D01*
X104697403Y-103582606D01*
X104697403Y-103582605D01*
X104602367Y-103391746D01*
X104473872Y-103221593D01*
X104316302Y-103077948D01*
X104135019Y-102965702D01*
X104135017Y-102965701D01*
X104035608Y-102927190D01*
X103936198Y-102888679D01*
X103739385Y-102851888D01*
X103677106Y-102820221D01*
X103641833Y-102759908D01*
X103644767Y-102690100D01*
X103684976Y-102632960D01*
X103739384Y-102608111D01*
X103936198Y-102571321D01*
X104135019Y-102494298D01*
X104316302Y-102382052D01*
X104473872Y-102238407D01*
X104602366Y-102068255D01*
X104697405Y-101877389D01*
X104755756Y-101672310D01*
X104766529Y-101556047D01*
X104792315Y-101491111D01*
X104836869Y-101459194D01*
X104800497Y-101438331D01*
X104768307Y-101376318D01*
X104766529Y-101363951D01*
X104765849Y-101356613D01*
X104755756Y-101247690D01*
X104697405Y-101042611D01*
X104697403Y-101042606D01*
X104697403Y-101042605D01*
X104602367Y-100851746D01*
X104473872Y-100681593D01*
X104410959Y-100624240D01*
X104316302Y-100537948D01*
X104135019Y-100425702D01*
X104135017Y-100425701D01*
X103981399Y-100366190D01*
X103936198Y-100348679D01*
X103726610Y-100309500D01*
X103513390Y-100309500D01*
X103369505Y-100336397D01*
X103303796Y-100348680D01*
X103124438Y-100418163D01*
X103054815Y-100424025D01*
X102993075Y-100391314D01*
X102991964Y-100390217D01*
X101103754Y-98502007D01*
X101070269Y-98440684D01*
X101075253Y-98370992D01*
X101117125Y-98315059D01*
X101171023Y-98292017D01*
X101357297Y-98260934D01*
X101584656Y-98182882D01*
X101796067Y-98068472D01*
X101985764Y-97920825D01*
X102034034Y-97868388D01*
X102093917Y-97832399D01*
X102163755Y-97834498D01*
X102212943Y-97864691D01*
X104151472Y-99803220D01*
X104246780Y-99898528D01*
X104268296Y-99909491D01*
X104284878Y-99919653D01*
X104304419Y-99933850D01*
X104327383Y-99941311D01*
X104345362Y-99948757D01*
X104366874Y-99959719D01*
X104390721Y-99963495D01*
X104409643Y-99968039D01*
X104432601Y-99975499D01*
X104432607Y-99975500D01*
X104466512Y-99975500D01*
X107250500Y-99975500D01*
X107317539Y-99995185D01*
X107363294Y-100047989D01*
X107374500Y-100099500D01*
X107374500Y-100167394D01*
X107381962Y-100190358D01*
X107386503Y-100209273D01*
X107387592Y-100216148D01*
X107390281Y-100233127D01*
X107401243Y-100254641D01*
X107408688Y-100272615D01*
X107416150Y-100295580D01*
X107430340Y-100315110D01*
X107440508Y-100331703D01*
X107451470Y-100353218D01*
X107741309Y-100643057D01*
X107774794Y-100704380D01*
X107769810Y-100774072D01*
X107752583Y-100805464D01*
X107717632Y-100851746D01*
X107622596Y-101042605D01*
X107622596Y-101042607D01*
X107564244Y-101247689D01*
X107553471Y-101363951D01*
X107527685Y-101428888D01*
X107483130Y-101460804D01*
X107519503Y-101481668D01*
X107551693Y-101543681D01*
X107553471Y-101556048D01*
X107564244Y-101672310D01*
X107622596Y-101877392D01*
X107622596Y-101877394D01*
X107717632Y-102068253D01*
X107846127Y-102238406D01*
X107846128Y-102238407D01*
X108003698Y-102382052D01*
X108184981Y-102494298D01*
X108383802Y-102571321D01*
X108580613Y-102608111D01*
X108642893Y-102639779D01*
X108678166Y-102700092D01*
X108675232Y-102769900D01*
X108635023Y-102827040D01*
X108580613Y-102851888D01*
X108383802Y-102888679D01*
X108383799Y-102888679D01*
X108383799Y-102888680D01*
X108184982Y-102965701D01*
X108184980Y-102965702D01*
X108003699Y-103077947D01*
X107846127Y-103221593D01*
X107717632Y-103391746D01*
X107622596Y-103582605D01*
X107622596Y-103582607D01*
X107564244Y-103787689D01*
X107553471Y-103903951D01*
X107527685Y-103968888D01*
X107483130Y-104000804D01*
X107519503Y-104021668D01*
X107551693Y-104083681D01*
X107553470Y-104096047D01*
X107564244Y-104212310D01*
X107622595Y-104417389D01*
X107630171Y-104432604D01*
X107652058Y-104476559D01*
X107664318Y-104545345D01*
X107637444Y-104609839D01*
X107628739Y-104619510D01*
X107546780Y-104701471D01*
X107546779Y-104701472D01*
X107451472Y-104796778D01*
X107440510Y-104818293D01*
X107430346Y-104834878D01*
X107416152Y-104854414D01*
X107416151Y-104854417D01*
X107408688Y-104877385D01*
X107401243Y-104895358D01*
X107390280Y-104916873D01*
X107386503Y-104940722D01*
X107381962Y-104959639D01*
X107374500Y-104982604D01*
X107374500Y-105600500D01*
X107354815Y-105667539D01*
X107302011Y-105713294D01*
X107250500Y-105724500D01*
X40927610Y-105724500D01*
X40860571Y-105704815D01*
X40839929Y-105688181D01*
X32446177Y-97294429D01*
X32412692Y-97233106D01*
X32413652Y-97176308D01*
X32435620Y-97089563D01*
X32450500Y-96909990D01*
X32450500Y-95090010D01*
X32435620Y-94910437D01*
X32376610Y-94677409D01*
X32280049Y-94457272D01*
X32274236Y-94448375D01*
X32148572Y-94256033D01*
X32148571Y-94256031D01*
X31985764Y-94079175D01*
X31985759Y-94079171D01*
X31985757Y-94079169D01*
X31796075Y-93931533D01*
X31796069Y-93931529D01*
X31584657Y-93817118D01*
X31584652Y-93817116D01*
X31357300Y-93739066D01*
X31179468Y-93709391D01*
X31120192Y-93699500D01*
X30879808Y-93699500D01*
X30832387Y-93707413D01*
X30642699Y-93739066D01*
X30415347Y-93817116D01*
X30415342Y-93817118D01*
X30203930Y-93931529D01*
X30203924Y-93931533D01*
X30014242Y-94079169D01*
X30014239Y-94079172D01*
X29851430Y-94256029D01*
X29851427Y-94256033D01*
X29719951Y-94457270D01*
X29623389Y-94677410D01*
X29564379Y-94910440D01*
X29549500Y-95089999D01*
X29549500Y-96910000D01*
X1300000Y-96910000D01*
X1300000Y-78144856D01*
X30499500Y-78144856D01*
X30499502Y-78144882D01*
X30502413Y-78169987D01*
X30502415Y-78169991D01*
X30547793Y-78272764D01*
X30547794Y-78272765D01*
X30627235Y-78352206D01*
X30730009Y-78397585D01*
X30755135Y-78400500D01*
X31547389Y-78400499D01*
X31614428Y-78420183D01*
X31635070Y-78436818D01*
X32651472Y-79453220D01*
X32746780Y-79548528D01*
X32768300Y-79559493D01*
X32784875Y-79569649D01*
X32804419Y-79583849D01*
X32827381Y-79591309D01*
X32845354Y-79598753D01*
X32866874Y-79609719D01*
X32890724Y-79613495D01*
X32909645Y-79618039D01*
X32931489Y-79625136D01*
X32932607Y-79625500D01*
X32932608Y-79625500D01*
X73217392Y-79625500D01*
X73217393Y-79625500D01*
X73240360Y-79618036D01*
X73259276Y-79613495D01*
X73283126Y-79609719D01*
X73304636Y-79598757D01*
X73322614Y-79591310D01*
X73345581Y-79583849D01*
X73365118Y-79569653D01*
X73381706Y-79559488D01*
X73403220Y-79548528D01*
X73498528Y-79453220D01*
X74389929Y-78561819D01*
X74451252Y-78528334D01*
X74477610Y-78525500D01*
X99158136Y-78525500D01*
X99225175Y-78545185D01*
X99233609Y-78551114D01*
X99272375Y-78580861D01*
X99406291Y-78636330D01*
X99533280Y-78653048D01*
X99549999Y-78655250D01*
X99550000Y-78655250D01*
X99550001Y-78655250D01*
X99564977Y-78653278D01*
X99693709Y-78636330D01*
X99827625Y-78580861D01*
X99942621Y-78492621D01*
X100030861Y-78377625D01*
X100086330Y-78243709D01*
X100105250Y-78100000D01*
X100105250Y-78099500D01*
X100105369Y-78099092D01*
X100106311Y-78091942D01*
X100107426Y-78092088D01*
X100124935Y-78032461D01*
X100177739Y-77986706D01*
X100229250Y-77975500D01*
X100375501Y-77975500D01*
X100442540Y-77995185D01*
X100488295Y-78047989D01*
X100499501Y-78099500D01*
X100499501Y-78144856D01*
X100499502Y-78144882D01*
X100502413Y-78169987D01*
X100502415Y-78169991D01*
X100547793Y-78272764D01*
X100547794Y-78272765D01*
X100627235Y-78352206D01*
X100730009Y-78397585D01*
X100755135Y-78400500D01*
X102344864Y-78400499D01*
X102344879Y-78400497D01*
X102344882Y-78400497D01*
X102369987Y-78397586D01*
X102369988Y-78397585D01*
X102369991Y-78397585D01*
X102472765Y-78352206D01*
X102552206Y-78272765D01*
X102597585Y-78169991D01*
X102600500Y-78144865D01*
X102600499Y-77155136D01*
X102600497Y-77155117D01*
X102597586Y-77130012D01*
X102597585Y-77130010D01*
X102597585Y-77130009D01*
X102552206Y-77027235D01*
X102472765Y-76947794D01*
X102461731Y-76942922D01*
X102369992Y-76902415D01*
X102344865Y-76899500D01*
X100755143Y-76899500D01*
X100755117Y-76899502D01*
X100730012Y-76902413D01*
X100730008Y-76902415D01*
X100627235Y-76947793D01*
X100547796Y-77027232D01*
X100547790Y-77027240D01*
X100537483Y-77050586D01*
X100492397Y-77103963D01*
X100425611Y-77124490D01*
X100424049Y-77124500D01*
X88777610Y-77124500D01*
X88710571Y-77104815D01*
X88689929Y-77088181D01*
X85503218Y-73901470D01*
X85481703Y-73890508D01*
X85465110Y-73880340D01*
X85445580Y-73866150D01*
X85422615Y-73858688D01*
X85404641Y-73851243D01*
X85383127Y-73840281D01*
X85378010Y-73839470D01*
X85359273Y-73836503D01*
X85340358Y-73831962D01*
X85317394Y-73824500D01*
X85317393Y-73824500D01*
X85283488Y-73824500D01*
X72575951Y-73824500D01*
X72508912Y-73804815D01*
X72463157Y-73752011D01*
X72462517Y-73750586D01*
X72452209Y-73727240D01*
X72452207Y-73727237D01*
X72452206Y-73727235D01*
X72372765Y-73647794D01*
X72372763Y-73647793D01*
X72269992Y-73602415D01*
X72244865Y-73599500D01*
X70655143Y-73599500D01*
X70655117Y-73599502D01*
X70630012Y-73602413D01*
X70630008Y-73602415D01*
X70527235Y-73647793D01*
X70447794Y-73727234D01*
X70402415Y-73830006D01*
X70402415Y-73830008D01*
X70399500Y-73855131D01*
X70399500Y-74844856D01*
X70399502Y-74844882D01*
X70402413Y-74869987D01*
X70402415Y-74869991D01*
X70447793Y-74972764D01*
X70447794Y-74972765D01*
X70527235Y-75052206D01*
X70630009Y-75097585D01*
X70655135Y-75100500D01*
X72244864Y-75100499D01*
X72244879Y-75100497D01*
X72244882Y-75100497D01*
X72269987Y-75097586D01*
X72269988Y-75097585D01*
X72269991Y-75097585D01*
X72372765Y-75052206D01*
X72452206Y-74972765D01*
X72497585Y-74869991D01*
X72500500Y-74844865D01*
X72500500Y-74799500D01*
X72520185Y-74732461D01*
X72572989Y-74686706D01*
X72624500Y-74675500D01*
X85022390Y-74675500D01*
X85089429Y-74695185D01*
X85110071Y-74711819D01*
X87861071Y-77462819D01*
X87894556Y-77524142D01*
X87889572Y-77593834D01*
X87847700Y-77649767D01*
X87782236Y-77674184D01*
X87773390Y-77674500D01*
X74182604Y-77674500D01*
X74159639Y-77681962D01*
X74140722Y-77686503D01*
X74116873Y-77690280D01*
X74095358Y-77701243D01*
X74077385Y-77708688D01*
X74054417Y-77716151D01*
X74054414Y-77716152D01*
X74034878Y-77730346D01*
X74018293Y-77740510D01*
X73996780Y-77751471D01*
X73984794Y-77763458D01*
X73972806Y-77775446D01*
X73010071Y-78738181D01*
X72948748Y-78771666D01*
X72922390Y-78774500D01*
X33227610Y-78774500D01*
X33160571Y-78754815D01*
X33139929Y-78738181D01*
X32636818Y-78235070D01*
X32603333Y-78173747D01*
X32600499Y-78147389D01*
X32600499Y-78144873D01*
X32600500Y-78144865D01*
X32600500Y-78144856D01*
X65499500Y-78144856D01*
X65499502Y-78144882D01*
X65502413Y-78169987D01*
X65502415Y-78169991D01*
X65547793Y-78272764D01*
X65547794Y-78272765D01*
X65627235Y-78352206D01*
X65730009Y-78397585D01*
X65755135Y-78400500D01*
X67344864Y-78400499D01*
X67344879Y-78400497D01*
X67344882Y-78400497D01*
X67369987Y-78397586D01*
X67369988Y-78397585D01*
X67369991Y-78397585D01*
X67472765Y-78352206D01*
X67552206Y-78272765D01*
X67597585Y-78169991D01*
X67600500Y-78144865D01*
X67600499Y-77155136D01*
X67600497Y-77155117D01*
X67597586Y-77130012D01*
X67597585Y-77130010D01*
X67597585Y-77130009D01*
X67552206Y-77027235D01*
X67472765Y-76947794D01*
X67461731Y-76942922D01*
X67369992Y-76902415D01*
X67344865Y-76899500D01*
X65755143Y-76899500D01*
X65755117Y-76899502D01*
X65730012Y-76902413D01*
X65730008Y-76902415D01*
X65627235Y-76947793D01*
X65547794Y-77027234D01*
X65502415Y-77130006D01*
X65502415Y-77130008D01*
X65499500Y-77155131D01*
X65499500Y-78144856D01*
X32600500Y-78144856D01*
X32600499Y-77155136D01*
X32600497Y-77155117D01*
X32597586Y-77130012D01*
X32597585Y-77130010D01*
X32597585Y-77130009D01*
X32552206Y-77027235D01*
X32472765Y-76947794D01*
X32461731Y-76942922D01*
X32369992Y-76902415D01*
X32344865Y-76899500D01*
X30755143Y-76899500D01*
X30755117Y-76899502D01*
X30730012Y-76902413D01*
X30730008Y-76902415D01*
X30627235Y-76947793D01*
X30547794Y-77027234D01*
X30502415Y-77130006D01*
X30502415Y-77130008D01*
X30499500Y-77155131D01*
X30499500Y-78144856D01*
X1300000Y-78144856D01*
X1300000Y-57000000D01*
X30294357Y-57000000D01*
X30314884Y-57221535D01*
X30314885Y-57221537D01*
X30375769Y-57435523D01*
X30375775Y-57435538D01*
X30474938Y-57634683D01*
X30474943Y-57634691D01*
X30609020Y-57812238D01*
X30773437Y-57962123D01*
X30773439Y-57962125D01*
X30962595Y-58079245D01*
X30962596Y-58079245D01*
X30962599Y-58079247D01*
X31170060Y-58159618D01*
X31388757Y-58200500D01*
X31388759Y-58200500D01*
X31611241Y-58200500D01*
X31611243Y-58200500D01*
X31829940Y-58159618D01*
X32037401Y-58079247D01*
X32226562Y-57962124D01*
X32390981Y-57812236D01*
X32525058Y-57634689D01*
X32624229Y-57435528D01*
X32630734Y-57412661D01*
X32668012Y-57353571D01*
X32731322Y-57324013D01*
X32800561Y-57333375D01*
X32853748Y-57378684D01*
X32869264Y-57412658D01*
X32875770Y-57435523D01*
X32875772Y-57435530D01*
X32875775Y-57435538D01*
X32974938Y-57634683D01*
X32974943Y-57634691D01*
X33109020Y-57812238D01*
X33273437Y-57962123D01*
X33273439Y-57962125D01*
X33462595Y-58079245D01*
X33462596Y-58079245D01*
X33462599Y-58079247D01*
X33670060Y-58159618D01*
X33888757Y-58200500D01*
X33888759Y-58200500D01*
X34111241Y-58200500D01*
X34111243Y-58200500D01*
X34329940Y-58159618D01*
X34537401Y-58079247D01*
X34726562Y-57962124D01*
X34839845Y-57858852D01*
X34902646Y-57828237D01*
X34972033Y-57836434D01*
X35011062Y-57862810D01*
X35651472Y-58503220D01*
X35746780Y-58598528D01*
X35768299Y-58609492D01*
X35784878Y-58619651D01*
X35804419Y-58633849D01*
X35827381Y-58641309D01*
X35845354Y-58648753D01*
X35866874Y-58659719D01*
X35890724Y-58663495D01*
X35909645Y-58668039D01*
X35931489Y-58675136D01*
X35932607Y-58675500D01*
X35966512Y-58675500D01*
X60858136Y-58675500D01*
X60925175Y-58695185D01*
X60933609Y-58701114D01*
X60972375Y-58730861D01*
X61106291Y-58786330D01*
X61233280Y-58803048D01*
X61249999Y-58805250D01*
X61250000Y-58805250D01*
X61250001Y-58805250D01*
X61264977Y-58803278D01*
X61393709Y-58786330D01*
X61527625Y-58730861D01*
X61642621Y-58642621D01*
X61730861Y-58527625D01*
X61786330Y-58393709D01*
X61805250Y-58250000D01*
X61786330Y-58106291D01*
X61730861Y-57972375D01*
X61642621Y-57857379D01*
X61527625Y-57769139D01*
X61527624Y-57769138D01*
X61527622Y-57769137D01*
X61393712Y-57713671D01*
X61393710Y-57713670D01*
X61393709Y-57713670D01*
X61321854Y-57704210D01*
X61250001Y-57694750D01*
X61249999Y-57694750D01*
X61106291Y-57713670D01*
X61106287Y-57713671D01*
X60972377Y-57769137D01*
X60967820Y-57772634D01*
X60933621Y-57798875D01*
X60868455Y-57824070D01*
X60858136Y-57824500D01*
X36227610Y-57824500D01*
X36160571Y-57804815D01*
X36139929Y-57788181D01*
X35222380Y-56870632D01*
X35188895Y-56809309D01*
X35186590Y-56794388D01*
X35185115Y-56778469D01*
X35185115Y-56778464D01*
X35124229Y-56564472D01*
X35124224Y-56564461D01*
X35025061Y-56365316D01*
X35025056Y-56365308D01*
X34890979Y-56187761D01*
X34726562Y-56037876D01*
X34726560Y-56037874D01*
X34537404Y-55920754D01*
X34537398Y-55920752D01*
X34329940Y-55840382D01*
X34111243Y-55799500D01*
X33888757Y-55799500D01*
X33670060Y-55840382D01*
X33538864Y-55891207D01*
X33462601Y-55920752D01*
X33462595Y-55920754D01*
X33273439Y-56037874D01*
X33273437Y-56037876D01*
X33109020Y-56187761D01*
X32974943Y-56365308D01*
X32974938Y-56365316D01*
X32875775Y-56564461D01*
X32875769Y-56564476D01*
X32869266Y-56587335D01*
X32831987Y-56646429D01*
X32768677Y-56675986D01*
X32699438Y-56666624D01*
X32646251Y-56621314D01*
X32630734Y-56587335D01*
X32624230Y-56564476D01*
X32624229Y-56564472D01*
X32624224Y-56564461D01*
X32525061Y-56365316D01*
X32525056Y-56365308D01*
X32390979Y-56187761D01*
X32226562Y-56037876D01*
X32226560Y-56037874D01*
X32037404Y-55920754D01*
X32037398Y-55920752D01*
X31829940Y-55840382D01*
X31611243Y-55799500D01*
X31388757Y-55799500D01*
X31170060Y-55840382D01*
X31038864Y-55891207D01*
X30962601Y-55920752D01*
X30962595Y-55920754D01*
X30773439Y-56037874D01*
X30773437Y-56037876D01*
X30609020Y-56187761D01*
X30474943Y-56365308D01*
X30474938Y-56365316D01*
X30375775Y-56564461D01*
X30375769Y-56564476D01*
X30314885Y-56778462D01*
X30314884Y-56778464D01*
X30294357Y-56999999D01*
X30294357Y-57000000D01*
X1300000Y-57000000D01*
X1300000Y-50215515D01*
X27849500Y-50215515D01*
X27864196Y-50411620D01*
X27864197Y-50411625D01*
X27922576Y-50667402D01*
X27922578Y-50667411D01*
X27922580Y-50667416D01*
X28018432Y-50911643D01*
X28149614Y-51138857D01*
X28281736Y-51304533D01*
X28313198Y-51343985D01*
X28494753Y-51512441D01*
X28505521Y-51522433D01*
X28722296Y-51670228D01*
X28722301Y-51670230D01*
X28722302Y-51670231D01*
X28722303Y-51670232D01*
X28847843Y-51730688D01*
X28958673Y-51784061D01*
X28958674Y-51784061D01*
X28958677Y-51784063D01*
X29209385Y-51861396D01*
X29468818Y-51900500D01*
X29731182Y-51900500D01*
X29990615Y-51861396D01*
X30241323Y-51784063D01*
X30477704Y-51670228D01*
X30694479Y-51522433D01*
X30886805Y-51343981D01*
X31050386Y-51138857D01*
X31181568Y-50911643D01*
X31277420Y-50667416D01*
X31335802Y-50411630D01*
X31335803Y-50411620D01*
X31350499Y-50215515D01*
X36649500Y-50215515D01*
X36664196Y-50411620D01*
X36664197Y-50411625D01*
X36722576Y-50667402D01*
X36722578Y-50667411D01*
X36722580Y-50667416D01*
X36818432Y-50911643D01*
X36949614Y-51138857D01*
X37081736Y-51304533D01*
X37113198Y-51343985D01*
X37294753Y-51512441D01*
X37305521Y-51522433D01*
X37522296Y-51670228D01*
X37522301Y-51670230D01*
X37522302Y-51670231D01*
X37522303Y-51670232D01*
X37647843Y-51730688D01*
X37758673Y-51784061D01*
X37758674Y-51784061D01*
X37758677Y-51784063D01*
X38009385Y-51861396D01*
X38268818Y-51900500D01*
X38531182Y-51900500D01*
X38790615Y-51861396D01*
X39041323Y-51784063D01*
X39277704Y-51670228D01*
X39494479Y-51522433D01*
X39686805Y-51343981D01*
X39850386Y-51138857D01*
X39981568Y-50911643D01*
X40077420Y-50667416D01*
X40135802Y-50411630D01*
X40135803Y-50411620D01*
X40150499Y-50215515D01*
X40150500Y-50215492D01*
X40150500Y-49784507D01*
X40150499Y-49784484D01*
X40135803Y-49588379D01*
X40135802Y-49588374D01*
X40135802Y-49588370D01*
X40077420Y-49332584D01*
X39981568Y-49088357D01*
X39850386Y-48861143D01*
X39686805Y-48656019D01*
X39686804Y-48656018D01*
X39686801Y-48656014D01*
X39494479Y-48477567D01*
X39277704Y-48329772D01*
X39277700Y-48329770D01*
X39277697Y-48329768D01*
X39277696Y-48329767D01*
X39041325Y-48215938D01*
X39041327Y-48215938D01*
X38790623Y-48138606D01*
X38790619Y-48138605D01*
X38790615Y-48138604D01*
X38665823Y-48119794D01*
X38531187Y-48099500D01*
X38531182Y-48099500D01*
X38268818Y-48099500D01*
X38268812Y-48099500D01*
X38107247Y-48123853D01*
X38009385Y-48138604D01*
X38009382Y-48138605D01*
X38009376Y-48138606D01*
X37758673Y-48215938D01*
X37522303Y-48329767D01*
X37522302Y-48329768D01*
X37305520Y-48477567D01*
X37113198Y-48656014D01*
X36949614Y-48861143D01*
X36818432Y-49088356D01*
X36722582Y-49332578D01*
X36722576Y-49332597D01*
X36664197Y-49588374D01*
X36664196Y-49588379D01*
X36649500Y-49784484D01*
X36649500Y-50215515D01*
X31350499Y-50215515D01*
X31350500Y-50215492D01*
X31350500Y-49784507D01*
X31350499Y-49784484D01*
X31335803Y-49588379D01*
X31335802Y-49588374D01*
X31335802Y-49588370D01*
X31277420Y-49332584D01*
X31181568Y-49088357D01*
X31050386Y-48861143D01*
X30886805Y-48656019D01*
X30886804Y-48656018D01*
X30886801Y-48656014D01*
X30694479Y-48477567D01*
X30477704Y-48329772D01*
X30477700Y-48329770D01*
X30477697Y-48329768D01*
X30477696Y-48329767D01*
X30241325Y-48215938D01*
X30241327Y-48215938D01*
X29990623Y-48138606D01*
X29990619Y-48138605D01*
X29990615Y-48138604D01*
X29865823Y-48119794D01*
X29731187Y-48099500D01*
X29731182Y-48099500D01*
X29468818Y-48099500D01*
X29468812Y-48099500D01*
X29307247Y-48123853D01*
X29209385Y-48138604D01*
X29209382Y-48138605D01*
X29209376Y-48138606D01*
X28958673Y-48215938D01*
X28722303Y-48329767D01*
X28722302Y-48329768D01*
X28505520Y-48477567D01*
X28313198Y-48656014D01*
X28149614Y-48861143D01*
X28018432Y-49088356D01*
X27922582Y-49332578D01*
X27922576Y-49332597D01*
X27864197Y-49588374D01*
X27864196Y-49588379D01*
X27849500Y-49784484D01*
X27849500Y-50215515D01*
X1300000Y-50215515D01*
X1300000Y-29000000D01*
X30294357Y-29000000D01*
X30314884Y-29221535D01*
X30314885Y-29221537D01*
X30375769Y-29435523D01*
X30375775Y-29435538D01*
X30474938Y-29634683D01*
X30474943Y-29634691D01*
X30609020Y-29812238D01*
X30773437Y-29962123D01*
X30773439Y-29962125D01*
X30962595Y-30079245D01*
X30962596Y-30079245D01*
X30962599Y-30079247D01*
X31170060Y-30159618D01*
X31388757Y-30200500D01*
X31388759Y-30200500D01*
X31611242Y-30200500D01*
X31611243Y-30200500D01*
X31613038Y-30200164D01*
X31615610Y-30199684D01*
X31685125Y-30206714D01*
X31726077Y-30233891D01*
X32598614Y-31106427D01*
X32615250Y-31127071D01*
X32617857Y-31131128D01*
X32655390Y-31163650D01*
X32661869Y-31169683D01*
X32671396Y-31179210D01*
X32671402Y-31179215D01*
X32671407Y-31179220D01*
X32671410Y-31179222D01*
X32671411Y-31179223D01*
X32682198Y-31187298D01*
X32689091Y-31192853D01*
X32726622Y-31225374D01*
X32726624Y-31225375D01*
X32726625Y-31225375D01*
X32726627Y-31225377D01*
X32731010Y-31227379D01*
X32753807Y-31240905D01*
X32757669Y-31243796D01*
X32804212Y-31261155D01*
X32812360Y-31264530D01*
X32839673Y-31277004D01*
X32857540Y-31285164D01*
X32857541Y-31285164D01*
X32857543Y-31285165D01*
X32862312Y-31285850D01*
X32888002Y-31292407D01*
X32892511Y-31294089D01*
X32892517Y-31294091D01*
X32892518Y-31294091D01*
X32892522Y-31294092D01*
X32942035Y-31297632D01*
X32950836Y-31298578D01*
X32964201Y-31300500D01*
X32977701Y-31300500D01*
X32986547Y-31300816D01*
X33036073Y-31304358D01*
X33039302Y-31303655D01*
X33040781Y-31303334D01*
X33067138Y-31300500D01*
X48882857Y-31300500D01*
X48909215Y-31303334D01*
X48913927Y-31304359D01*
X48963461Y-31300815D01*
X48972308Y-31300500D01*
X48985799Y-31300500D01*
X48999156Y-31298579D01*
X49007951Y-31297633D01*
X49057483Y-31294091D01*
X49061992Y-31292408D01*
X49087685Y-31285850D01*
X49092457Y-31285165D01*
X49137637Y-31264530D01*
X49145801Y-31261149D01*
X49192331Y-31243796D01*
X49196189Y-31240907D01*
X49218995Y-31227375D01*
X49223373Y-31225377D01*
X49260907Y-31192853D01*
X49267778Y-31187316D01*
X49278593Y-31179221D01*
X49288155Y-31169658D01*
X49294617Y-31163643D01*
X49332143Y-31131128D01*
X49334751Y-31127068D01*
X49351381Y-31106431D01*
X50220995Y-30236819D01*
X50282318Y-30203334D01*
X50308676Y-30200500D01*
X66291324Y-30200500D01*
X66358363Y-30220185D01*
X66379005Y-30236819D01*
X67248614Y-31106428D01*
X67265246Y-31127066D01*
X67267854Y-31131125D01*
X67267857Y-31131128D01*
X67305400Y-31163658D01*
X67311861Y-31169675D01*
X67321407Y-31179221D01*
X67321410Y-31179223D01*
X67321416Y-31179228D01*
X67332207Y-31187306D01*
X67339100Y-31192860D01*
X67376627Y-31225377D01*
X67381010Y-31227379D01*
X67403807Y-31240905D01*
X67407669Y-31243796D01*
X67454212Y-31261155D01*
X67462360Y-31264530D01*
X67489673Y-31277004D01*
X67507540Y-31285164D01*
X67507541Y-31285164D01*
X67507543Y-31285165D01*
X67512312Y-31285850D01*
X67538002Y-31292407D01*
X67542517Y-31294091D01*
X67592049Y-31297633D01*
X67600843Y-31298579D01*
X67614201Y-31300500D01*
X67627692Y-31300500D01*
X67636538Y-31300815D01*
X67686073Y-31304359D01*
X67690785Y-31303334D01*
X67717143Y-31300500D01*
X85182857Y-31300500D01*
X85209215Y-31303334D01*
X85213927Y-31304359D01*
X85263461Y-31300815D01*
X85272308Y-31300500D01*
X85285799Y-31300500D01*
X85299156Y-31298579D01*
X85307951Y-31297633D01*
X85357483Y-31294091D01*
X85361992Y-31292408D01*
X85387685Y-31285850D01*
X85392457Y-31285165D01*
X85437637Y-31264530D01*
X85445801Y-31261149D01*
X85492331Y-31243796D01*
X85496189Y-31240907D01*
X85518995Y-31227375D01*
X85523373Y-31225377D01*
X85560907Y-31192853D01*
X85567778Y-31187316D01*
X85578593Y-31179221D01*
X85588155Y-31169658D01*
X85594617Y-31163643D01*
X85632143Y-31131128D01*
X85634751Y-31127068D01*
X85651381Y-31106431D01*
X87070994Y-29686819D01*
X87132317Y-29653334D01*
X87158675Y-29650500D01*
X100425137Y-29650500D01*
X100492176Y-29670185D01*
X100524091Y-29699773D01*
X100609021Y-29812238D01*
X100609025Y-29812242D01*
X100773437Y-29962123D01*
X100773439Y-29962125D01*
X100962595Y-30079245D01*
X100962596Y-30079245D01*
X100962599Y-30079247D01*
X101170060Y-30159618D01*
X101388757Y-30200500D01*
X101388759Y-30200500D01*
X101611241Y-30200500D01*
X101611243Y-30200500D01*
X101829940Y-30159618D01*
X102037401Y-30079247D01*
X102226562Y-29962124D01*
X102380032Y-29822217D01*
X102390979Y-29812238D01*
X102475909Y-29699773D01*
X102525058Y-29634689D01*
X102624229Y-29435528D01*
X102630734Y-29412661D01*
X102668012Y-29353571D01*
X102731322Y-29324013D01*
X102800561Y-29333375D01*
X102853748Y-29378684D01*
X102869264Y-29412658D01*
X102875770Y-29435523D01*
X102875772Y-29435530D01*
X102875775Y-29435538D01*
X102974938Y-29634683D01*
X102974943Y-29634691D01*
X103109020Y-29812238D01*
X103273437Y-29962123D01*
X103273439Y-29962125D01*
X103462595Y-30079245D01*
X103462596Y-30079245D01*
X103462599Y-30079247D01*
X103670060Y-30159618D01*
X103888757Y-30200500D01*
X103888759Y-30200500D01*
X104111241Y-30200500D01*
X104111243Y-30200500D01*
X104329940Y-30159618D01*
X104537401Y-30079247D01*
X104726562Y-29962124D01*
X104880032Y-29822217D01*
X104890979Y-29812238D01*
X104975909Y-29699773D01*
X105025058Y-29634689D01*
X105124229Y-29435528D01*
X105185115Y-29221536D01*
X105205643Y-29000000D01*
X105185115Y-28778464D01*
X105124229Y-28564472D01*
X105124224Y-28564461D01*
X105025061Y-28365316D01*
X105025056Y-28365308D01*
X104890979Y-28187761D01*
X104726562Y-28037876D01*
X104726560Y-28037874D01*
X104537404Y-27920754D01*
X104537398Y-27920752D01*
X104329940Y-27840382D01*
X104111243Y-27799500D01*
X103888757Y-27799500D01*
X103670060Y-27840382D01*
X103538864Y-27891207D01*
X103462601Y-27920752D01*
X103462595Y-27920754D01*
X103273439Y-28037874D01*
X103273437Y-28037876D01*
X103109020Y-28187761D01*
X102974943Y-28365308D01*
X102974938Y-28365316D01*
X102875775Y-28564461D01*
X102875769Y-28564476D01*
X102869266Y-28587335D01*
X102831987Y-28646429D01*
X102768677Y-28675986D01*
X102699438Y-28666624D01*
X102646251Y-28621314D01*
X102630734Y-28587335D01*
X102624230Y-28564476D01*
X102624229Y-28564472D01*
X102624224Y-28564461D01*
X102525061Y-28365316D01*
X102525056Y-28365308D01*
X102390979Y-28187761D01*
X102226562Y-28037876D01*
X102226560Y-28037874D01*
X102037404Y-27920754D01*
X102037398Y-27920752D01*
X101829940Y-27840382D01*
X101611243Y-27799500D01*
X101388757Y-27799500D01*
X101170060Y-27840382D01*
X101038864Y-27891207D01*
X100962601Y-27920752D01*
X100962595Y-27920754D01*
X100773439Y-28037874D01*
X100773437Y-28037876D01*
X100609020Y-28187761D01*
X100474943Y-28365308D01*
X100474936Y-28365320D01*
X100375775Y-28564462D01*
X100373700Y-28569820D01*
X100371263Y-28568875D01*
X100339874Y-28618572D01*
X100276548Y-28648095D01*
X100257938Y-28649500D01*
X86967138Y-28649500D01*
X86940781Y-28646666D01*
X86936076Y-28645642D01*
X86936068Y-28645642D01*
X86886547Y-28649184D01*
X86877701Y-28649500D01*
X86864197Y-28649500D01*
X86850835Y-28651421D01*
X86842045Y-28652366D01*
X86792514Y-28655909D01*
X86787986Y-28657598D01*
X86762327Y-28664146D01*
X86757550Y-28664833D01*
X86757543Y-28664835D01*
X86712365Y-28685466D01*
X86704191Y-28688851D01*
X86657675Y-28706200D01*
X86657668Y-28706204D01*
X86653800Y-28709100D01*
X86631019Y-28722616D01*
X86626627Y-28724623D01*
X86590733Y-28755724D01*
X86589098Y-28757141D01*
X86582219Y-28762684D01*
X86571409Y-28770777D01*
X86561860Y-28780325D01*
X86555395Y-28786343D01*
X86517859Y-28818870D01*
X86517856Y-28818873D01*
X86515245Y-28822936D01*
X86498615Y-28843570D01*
X85079005Y-30263181D01*
X85017682Y-30296666D01*
X84991324Y-30299500D01*
X69617495Y-30299500D01*
X69550456Y-30279815D01*
X69504701Y-30227011D01*
X69494757Y-30157853D01*
X69523782Y-30094297D01*
X69552218Y-30070073D01*
X69726560Y-29962125D01*
X69726559Y-29962125D01*
X69726562Y-29962124D01*
X69880032Y-29822217D01*
X69890979Y-29812238D01*
X69975909Y-29699773D01*
X70025058Y-29634689D01*
X70124229Y-29435528D01*
X70185115Y-29221536D01*
X70205643Y-29000000D01*
X70185115Y-28778464D01*
X70124229Y-28564472D01*
X70124224Y-28564461D01*
X70025061Y-28365316D01*
X70025056Y-28365308D01*
X69890979Y-28187761D01*
X69726562Y-28037876D01*
X69726560Y-28037874D01*
X69537404Y-27920754D01*
X69537398Y-27920752D01*
X69329940Y-27840382D01*
X69111243Y-27799500D01*
X68888757Y-27799500D01*
X68670060Y-27840382D01*
X68538864Y-27891207D01*
X68462601Y-27920752D01*
X68462595Y-27920754D01*
X68273439Y-28037874D01*
X68273437Y-28037876D01*
X68109020Y-28187761D01*
X67974943Y-28365308D01*
X67974938Y-28365316D01*
X67875775Y-28564461D01*
X67875769Y-28564476D01*
X67869266Y-28587335D01*
X67831987Y-28646429D01*
X67768677Y-28675986D01*
X67699438Y-28666624D01*
X67646251Y-28621314D01*
X67630734Y-28587335D01*
X67624230Y-28564476D01*
X67624229Y-28564472D01*
X67624224Y-28564461D01*
X67525061Y-28365316D01*
X67525056Y-28365308D01*
X67390979Y-28187761D01*
X67226562Y-28037876D01*
X67226560Y-28037874D01*
X67037404Y-27920754D01*
X67037398Y-27920752D01*
X66829940Y-27840382D01*
X66611243Y-27799500D01*
X66388757Y-27799500D01*
X66170060Y-27840382D01*
X66038864Y-27891207D01*
X65962601Y-27920752D01*
X65962595Y-27920754D01*
X65773439Y-28037874D01*
X65773437Y-28037876D01*
X65609020Y-28187761D01*
X65474943Y-28365308D01*
X65474938Y-28365316D01*
X65375775Y-28564461D01*
X65375769Y-28564476D01*
X65314885Y-28778462D01*
X65314884Y-28778464D01*
X65294356Y-28999999D01*
X65300293Y-29064058D01*
X65286878Y-29132628D01*
X65238521Y-29183060D01*
X65176822Y-29199500D01*
X50117143Y-29199500D01*
X50090785Y-29196666D01*
X50086074Y-29195641D01*
X50086070Y-29195641D01*
X50036539Y-29199184D01*
X50027692Y-29199500D01*
X50014200Y-29199500D01*
X50008063Y-29200382D01*
X50000840Y-29201420D01*
X49992054Y-29202365D01*
X49942516Y-29205909D01*
X49942513Y-29205910D01*
X49937986Y-29207598D01*
X49912327Y-29214146D01*
X49907550Y-29214833D01*
X49907543Y-29214835D01*
X49862365Y-29235466D01*
X49854191Y-29238851D01*
X49807675Y-29256200D01*
X49807664Y-29256206D01*
X49803799Y-29259100D01*
X49781020Y-29272615D01*
X49776636Y-29274617D01*
X49776625Y-29274624D01*
X49739108Y-29307132D01*
X49732226Y-29312678D01*
X49721403Y-29320780D01*
X49711854Y-29330329D01*
X49705384Y-29336353D01*
X49667861Y-29368867D01*
X49667854Y-29368876D01*
X49665243Y-29372938D01*
X49648616Y-29393568D01*
X48779005Y-30263181D01*
X48717682Y-30296666D01*
X48691324Y-30299500D01*
X34617495Y-30299500D01*
X34550456Y-30279815D01*
X34504701Y-30227011D01*
X34494757Y-30157853D01*
X34523782Y-30094297D01*
X34552218Y-30070073D01*
X34726560Y-29962125D01*
X34726559Y-29962125D01*
X34726562Y-29962124D01*
X34880032Y-29822217D01*
X34890979Y-29812238D01*
X34975909Y-29699773D01*
X35025058Y-29634689D01*
X35124229Y-29435528D01*
X35185115Y-29221536D01*
X35205643Y-29000000D01*
X35185115Y-28778464D01*
X35124229Y-28564472D01*
X35124224Y-28564461D01*
X35025061Y-28365316D01*
X35025056Y-28365308D01*
X34890979Y-28187761D01*
X34726562Y-28037876D01*
X34726560Y-28037874D01*
X34537404Y-27920754D01*
X34537398Y-27920752D01*
X34329940Y-27840382D01*
X34111243Y-27799500D01*
X33888757Y-27799500D01*
X33670060Y-27840382D01*
X33538864Y-27891207D01*
X33462601Y-27920752D01*
X33462595Y-27920754D01*
X33273439Y-28037874D01*
X33273437Y-28037876D01*
X33109020Y-28187761D01*
X32974943Y-28365308D01*
X32974938Y-28365316D01*
X32875775Y-28564461D01*
X32875769Y-28564476D01*
X32869266Y-28587335D01*
X32831987Y-28646429D01*
X32768677Y-28675986D01*
X32699438Y-28666624D01*
X32646251Y-28621314D01*
X32630734Y-28587335D01*
X32624230Y-28564476D01*
X32624229Y-28564472D01*
X32624224Y-28564461D01*
X32525061Y-28365316D01*
X32525056Y-28365308D01*
X32390979Y-28187761D01*
X32226562Y-28037876D01*
X32226560Y-28037874D01*
X32037404Y-27920754D01*
X32037398Y-27920752D01*
X31829940Y-27840382D01*
X31611243Y-27799500D01*
X31388757Y-27799500D01*
X31170060Y-27840382D01*
X31038864Y-27891207D01*
X30962601Y-27920752D01*
X30962595Y-27920754D01*
X30773439Y-28037874D01*
X30773437Y-28037876D01*
X30609020Y-28187761D01*
X30474943Y-28365308D01*
X30474938Y-28365316D01*
X30375775Y-28564461D01*
X30375769Y-28564476D01*
X30314885Y-28778462D01*
X30314884Y-28778464D01*
X30294357Y-28999999D01*
X30294357Y-29000000D01*
X1300000Y-29000000D01*
X1300000Y-22215515D01*
X27849500Y-22215515D01*
X27864196Y-22411620D01*
X27864197Y-22411625D01*
X27922576Y-22667402D01*
X27922578Y-22667411D01*
X27922580Y-22667416D01*
X28018432Y-22911643D01*
X28149614Y-23138857D01*
X28281736Y-23304533D01*
X28313198Y-23343985D01*
X28494753Y-23512441D01*
X28505521Y-23522433D01*
X28722296Y-23670228D01*
X28722301Y-23670230D01*
X28722302Y-23670231D01*
X28722303Y-23670232D01*
X28847843Y-23730688D01*
X28958673Y-23784061D01*
X28958674Y-23784061D01*
X28958677Y-23784063D01*
X29209385Y-23861396D01*
X29468818Y-23900500D01*
X29731182Y-23900500D01*
X29990615Y-23861396D01*
X30241323Y-23784063D01*
X30477704Y-23670228D01*
X30694479Y-23522433D01*
X30886805Y-23343981D01*
X31050386Y-23138857D01*
X31181568Y-22911643D01*
X31277420Y-22667416D01*
X31335802Y-22411630D01*
X31335803Y-22411620D01*
X31350499Y-22215515D01*
X36649500Y-22215515D01*
X36664196Y-22411620D01*
X36664197Y-22411625D01*
X36722576Y-22667402D01*
X36722578Y-22667411D01*
X36722580Y-22667416D01*
X36818432Y-22911643D01*
X36949614Y-23138857D01*
X37081736Y-23304533D01*
X37113198Y-23343985D01*
X37294753Y-23512441D01*
X37305521Y-23522433D01*
X37522296Y-23670228D01*
X37522301Y-23670230D01*
X37522302Y-23670231D01*
X37522303Y-23670232D01*
X37647843Y-23730688D01*
X37758673Y-23784061D01*
X37758674Y-23784061D01*
X37758677Y-23784063D01*
X38009385Y-23861396D01*
X38268818Y-23900500D01*
X38531182Y-23900500D01*
X38790615Y-23861396D01*
X39041323Y-23784063D01*
X39277704Y-23670228D01*
X39494479Y-23522433D01*
X39686805Y-23343981D01*
X39850386Y-23138857D01*
X39981568Y-22911643D01*
X40077420Y-22667416D01*
X40135802Y-22411630D01*
X40135803Y-22411620D01*
X40150499Y-22215515D01*
X62849500Y-22215515D01*
X62864196Y-22411620D01*
X62864197Y-22411625D01*
X62922576Y-22667402D01*
X62922578Y-22667411D01*
X62922580Y-22667416D01*
X63018432Y-22911643D01*
X63149614Y-23138857D01*
X63281736Y-23304533D01*
X63313198Y-23343985D01*
X63494753Y-23512441D01*
X63505521Y-23522433D01*
X63722296Y-23670228D01*
X63722301Y-23670230D01*
X63722302Y-23670231D01*
X63722303Y-23670232D01*
X63847843Y-23730688D01*
X63958673Y-23784061D01*
X63958674Y-23784061D01*
X63958677Y-23784063D01*
X64209385Y-23861396D01*
X64468818Y-23900500D01*
X64731182Y-23900500D01*
X64990615Y-23861396D01*
X65241323Y-23784063D01*
X65477704Y-23670228D01*
X65694479Y-23522433D01*
X65886805Y-23343981D01*
X66050386Y-23138857D01*
X66181568Y-22911643D01*
X66277420Y-22667416D01*
X66335802Y-22411630D01*
X66335803Y-22411620D01*
X66350499Y-22215515D01*
X71649500Y-22215515D01*
X71664196Y-22411620D01*
X71664197Y-22411625D01*
X71722576Y-22667402D01*
X71722578Y-22667411D01*
X71722580Y-22667416D01*
X71818432Y-22911643D01*
X71949614Y-23138857D01*
X72081736Y-23304533D01*
X72113198Y-23343985D01*
X72294753Y-23512441D01*
X72305521Y-23522433D01*
X72522296Y-23670228D01*
X72522301Y-23670230D01*
X72522302Y-23670231D01*
X72522303Y-23670232D01*
X72647843Y-23730688D01*
X72758673Y-23784061D01*
X72758674Y-23784061D01*
X72758677Y-23784063D01*
X73009385Y-23861396D01*
X73268818Y-23900500D01*
X73531182Y-23900500D01*
X73790615Y-23861396D01*
X74041323Y-23784063D01*
X74277704Y-23670228D01*
X74494479Y-23522433D01*
X74686805Y-23343981D01*
X74850386Y-23138857D01*
X74981568Y-22911643D01*
X75077420Y-22667416D01*
X75135802Y-22411630D01*
X75135803Y-22411620D01*
X75150499Y-22215515D01*
X97849500Y-22215515D01*
X97864196Y-22411620D01*
X97864197Y-22411625D01*
X97922576Y-22667402D01*
X97922578Y-22667411D01*
X97922580Y-22667416D01*
X98018432Y-22911643D01*
X98149614Y-23138857D01*
X98281736Y-23304533D01*
X98313198Y-23343985D01*
X98494753Y-23512441D01*
X98505521Y-23522433D01*
X98722296Y-23670228D01*
X98722301Y-23670230D01*
X98722302Y-23670231D01*
X98722303Y-23670232D01*
X98847843Y-23730688D01*
X98958673Y-23784061D01*
X98958674Y-23784061D01*
X98958677Y-23784063D01*
X99209385Y-23861396D01*
X99468818Y-23900500D01*
X99731182Y-23900500D01*
X99990615Y-23861396D01*
X100241323Y-23784063D01*
X100477704Y-23670228D01*
X100694479Y-23522433D01*
X100886805Y-23343981D01*
X101050386Y-23138857D01*
X101181568Y-22911643D01*
X101277420Y-22667416D01*
X101335802Y-22411630D01*
X101335803Y-22411620D01*
X101350499Y-22215515D01*
X106649500Y-22215515D01*
X106664196Y-22411620D01*
X106664197Y-22411625D01*
X106722576Y-22667402D01*
X106722578Y-22667411D01*
X106722580Y-22667416D01*
X106818432Y-22911643D01*
X106949614Y-23138857D01*
X107081736Y-23304533D01*
X107113198Y-23343985D01*
X107294753Y-23512441D01*
X107305521Y-23522433D01*
X107522296Y-23670228D01*
X107522301Y-23670230D01*
X107522302Y-23670231D01*
X107522303Y-23670232D01*
X107647843Y-23730688D01*
X107758673Y-23784061D01*
X107758674Y-23784061D01*
X107758677Y-23784063D01*
X108009385Y-23861396D01*
X108268818Y-23900500D01*
X108531182Y-23900500D01*
X108790615Y-23861396D01*
X109041323Y-23784063D01*
X109277704Y-23670228D01*
X109494479Y-23522433D01*
X109686805Y-23343981D01*
X109850386Y-23138857D01*
X109981568Y-22911643D01*
X110077420Y-22667416D01*
X110135802Y-22411630D01*
X110135803Y-22411620D01*
X110150499Y-22215515D01*
X110150500Y-22215492D01*
X110150500Y-21784507D01*
X110150499Y-21784484D01*
X110135803Y-21588379D01*
X110135802Y-21588374D01*
X110135802Y-21588370D01*
X110077420Y-21332584D01*
X109981568Y-21088357D01*
X109850386Y-20861143D01*
X109686805Y-20656019D01*
X109686804Y-20656018D01*
X109686801Y-20656014D01*
X109494479Y-20477567D01*
X109277704Y-20329772D01*
X109277700Y-20329770D01*
X109277697Y-20329768D01*
X109277696Y-20329767D01*
X109041325Y-20215938D01*
X109041327Y-20215938D01*
X108790623Y-20138606D01*
X108790619Y-20138605D01*
X108790615Y-20138604D01*
X108665823Y-20119794D01*
X108531187Y-20099500D01*
X108531182Y-20099500D01*
X108268818Y-20099500D01*
X108268812Y-20099500D01*
X108107247Y-20123853D01*
X108009385Y-20138604D01*
X108009382Y-20138605D01*
X108009376Y-20138606D01*
X107758673Y-20215938D01*
X107522303Y-20329767D01*
X107522302Y-20329768D01*
X107305520Y-20477567D01*
X107113198Y-20656014D01*
X106949614Y-20861143D01*
X106818432Y-21088356D01*
X106722582Y-21332578D01*
X106722576Y-21332597D01*
X106664197Y-21588374D01*
X106664196Y-21588379D01*
X106649500Y-21784484D01*
X106649500Y-22215515D01*
X101350499Y-22215515D01*
X101350500Y-22215492D01*
X101350500Y-21784507D01*
X101350499Y-21784484D01*
X101335803Y-21588379D01*
X101335802Y-21588374D01*
X101335802Y-21588370D01*
X101277420Y-21332584D01*
X101181568Y-21088357D01*
X101050386Y-20861143D01*
X100886805Y-20656019D01*
X100886804Y-20656018D01*
X100886801Y-20656014D01*
X100694479Y-20477567D01*
X100477704Y-20329772D01*
X100477700Y-20329770D01*
X100477697Y-20329768D01*
X100477696Y-20329767D01*
X100241325Y-20215938D01*
X100241327Y-20215938D01*
X99990623Y-20138606D01*
X99990619Y-20138605D01*
X99990615Y-20138604D01*
X99865823Y-20119794D01*
X99731187Y-20099500D01*
X99731182Y-20099500D01*
X99468818Y-20099500D01*
X99468812Y-20099500D01*
X99307247Y-20123853D01*
X99209385Y-20138604D01*
X99209382Y-20138605D01*
X99209376Y-20138606D01*
X98958673Y-20215938D01*
X98722303Y-20329767D01*
X98722302Y-20329768D01*
X98505520Y-20477567D01*
X98313198Y-20656014D01*
X98149614Y-20861143D01*
X98018432Y-21088356D01*
X97922582Y-21332578D01*
X97922576Y-21332597D01*
X97864197Y-21588374D01*
X97864196Y-21588379D01*
X97849500Y-21784484D01*
X97849500Y-22215515D01*
X75150499Y-22215515D01*
X75150500Y-22215492D01*
X75150500Y-21784507D01*
X75150499Y-21784484D01*
X75135803Y-21588379D01*
X75135802Y-21588374D01*
X75135802Y-21588370D01*
X75077420Y-21332584D01*
X74981568Y-21088357D01*
X74850386Y-20861143D01*
X74686805Y-20656019D01*
X74686804Y-20656018D01*
X74686801Y-20656014D01*
X74494479Y-20477567D01*
X74277704Y-20329772D01*
X74277700Y-20329770D01*
X74277697Y-20329768D01*
X74277696Y-20329767D01*
X74041325Y-20215938D01*
X74041327Y-20215938D01*
X73790623Y-20138606D01*
X73790619Y-20138605D01*
X73790615Y-20138604D01*
X73665823Y-20119794D01*
X73531187Y-20099500D01*
X73531182Y-20099500D01*
X73268818Y-20099500D01*
X73268812Y-20099500D01*
X73107247Y-20123853D01*
X73009385Y-20138604D01*
X73009382Y-20138605D01*
X73009376Y-20138606D01*
X72758673Y-20215938D01*
X72522303Y-20329767D01*
X72522302Y-20329768D01*
X72305520Y-20477567D01*
X72113198Y-20656014D01*
X71949614Y-20861143D01*
X71818432Y-21088356D01*
X71722582Y-21332578D01*
X71722576Y-21332597D01*
X71664197Y-21588374D01*
X71664196Y-21588379D01*
X71649500Y-21784484D01*
X71649500Y-22215515D01*
X66350499Y-22215515D01*
X66350500Y-22215492D01*
X66350500Y-21784507D01*
X66350499Y-21784484D01*
X66335803Y-21588379D01*
X66335802Y-21588374D01*
X66335802Y-21588370D01*
X66277420Y-21332584D01*
X66181568Y-21088357D01*
X66050386Y-20861143D01*
X65886805Y-20656019D01*
X65886804Y-20656018D01*
X65886801Y-20656014D01*
X65694479Y-20477567D01*
X65477704Y-20329772D01*
X65477700Y-20329770D01*
X65477697Y-20329768D01*
X65477696Y-20329767D01*
X65241325Y-20215938D01*
X65241327Y-20215938D01*
X64990623Y-20138606D01*
X64990619Y-20138605D01*
X64990615Y-20138604D01*
X64865823Y-20119794D01*
X64731187Y-20099500D01*
X64731182Y-20099500D01*
X64468818Y-20099500D01*
X64468812Y-20099500D01*
X64307247Y-20123853D01*
X64209385Y-20138604D01*
X64209382Y-20138605D01*
X64209376Y-20138606D01*
X63958673Y-20215938D01*
X63722303Y-20329767D01*
X63722302Y-20329768D01*
X63505520Y-20477567D01*
X63313198Y-20656014D01*
X63149614Y-20861143D01*
X63018432Y-21088356D01*
X62922582Y-21332578D01*
X62922576Y-21332597D01*
X62864197Y-21588374D01*
X62864196Y-21588379D01*
X62849500Y-21784484D01*
X62849500Y-22215515D01*
X40150499Y-22215515D01*
X40150500Y-22215492D01*
X40150500Y-21784507D01*
X40150499Y-21784484D01*
X40135803Y-21588379D01*
X40135802Y-21588374D01*
X40135802Y-21588370D01*
X40077420Y-21332584D01*
X39981568Y-21088357D01*
X39850386Y-20861143D01*
X39686805Y-20656019D01*
X39686804Y-20656018D01*
X39686801Y-20656014D01*
X39494479Y-20477567D01*
X39277704Y-20329772D01*
X39277700Y-20329770D01*
X39277697Y-20329768D01*
X39277696Y-20329767D01*
X39041325Y-20215938D01*
X39041327Y-20215938D01*
X38790623Y-20138606D01*
X38790619Y-20138605D01*
X38790615Y-20138604D01*
X38665823Y-20119794D01*
X38531187Y-20099500D01*
X38531182Y-20099500D01*
X38268818Y-20099500D01*
X38268812Y-20099500D01*
X38107247Y-20123853D01*
X38009385Y-20138604D01*
X38009382Y-20138605D01*
X38009376Y-20138606D01*
X37758673Y-20215938D01*
X37522303Y-20329767D01*
X37522302Y-20329768D01*
X37305520Y-20477567D01*
X37113198Y-20656014D01*
X36949614Y-20861143D01*
X36818432Y-21088356D01*
X36722582Y-21332578D01*
X36722576Y-21332597D01*
X36664197Y-21588374D01*
X36664196Y-21588379D01*
X36649500Y-21784484D01*
X36649500Y-22215515D01*
X31350499Y-22215515D01*
X31350500Y-22215492D01*
X31350500Y-21784507D01*
X31350499Y-21784484D01*
X31335803Y-21588379D01*
X31335802Y-21588374D01*
X31335802Y-21588370D01*
X31277420Y-21332584D01*
X31181568Y-21088357D01*
X31050386Y-20861143D01*
X30886805Y-20656019D01*
X30886804Y-20656018D01*
X30886801Y-20656014D01*
X30694479Y-20477567D01*
X30477704Y-20329772D01*
X30477700Y-20329770D01*
X30477697Y-20329768D01*
X30477696Y-20329767D01*
X30241325Y-20215938D01*
X30241327Y-20215938D01*
X29990623Y-20138606D01*
X29990619Y-20138605D01*
X29990615Y-20138604D01*
X29865823Y-20119794D01*
X29731187Y-20099500D01*
X29731182Y-20099500D01*
X29468818Y-20099500D01*
X29468812Y-20099500D01*
X29307247Y-20123853D01*
X29209385Y-20138604D01*
X29209382Y-20138605D01*
X29209376Y-20138606D01*
X28958673Y-20215938D01*
X28722303Y-20329767D01*
X28722302Y-20329768D01*
X28505520Y-20477567D01*
X28313198Y-20656014D01*
X28149614Y-20861143D01*
X28018432Y-21088356D01*
X27922582Y-21332578D01*
X27922576Y-21332597D01*
X27864197Y-21588374D01*
X27864196Y-21588379D01*
X27849500Y-21784484D01*
X27849500Y-22215515D01*
X1300000Y-22215515D01*
X1300000Y-11524500D01*
X1319685Y-11457461D01*
X1372489Y-11411706D01*
X1424000Y-11400500D01*
X10958725Y-11400500D01*
X10978120Y-11402026D01*
X11000000Y-11405492D01*
X11000003Y-11405492D01*
X11125300Y-11385647D01*
X11125301Y-11385647D01*
X11125302Y-11385646D01*
X11125304Y-11385646D01*
X11238342Y-11328050D01*
X11328050Y-11238342D01*
X11385646Y-11125304D01*
X11385646Y-11125302D01*
X11385647Y-11125301D01*
X11401260Y-11026724D01*
X11401260Y-11026714D01*
X11405492Y-11000000D01*
X11402026Y-10978121D01*
X11400500Y-10958724D01*
X11400500Y-1424000D01*
X11420185Y-1356961D01*
X11472989Y-1311206D01*
X11524500Y-1300000D01*
X126475500Y-1300000D01*
X126542539Y-1319685D01*
G37*
%TD.AperFunction*%
%TD*%
M02*
