M48
; DRILL file KiCad 10.0.4 date 2026-08-02T04:08:04
; FORMAT={-:-/ absolute / metric / decimal}
; #@! TF.CreationDate,2026-08-02T04:08:04-05:00
; #@! TF.GenerationSoftware,Kicad,Pcbnew,10.0.4
; #@! TF.FileFunction,Plated,1,4,PTH
FMAT,2
METRIC
; #@! TA.AperFunction,Plated,PTH,ViaDrill
T1C0.300
; #@! TA.AperFunction,Plated,PTH,ComponentDrill
T2C1.000
; #@! TA.AperFunction,Plated,PTH,ComponentDrill
T3C1.100
; #@! TA.AperFunction,Plated,PTH,ComponentDrill
T4C1.300
; #@! TA.AperFunction,Plated,PTH,ComponentDrill
T5C1.900
%
G90
G05
T1
X6.0Y-15.0
X6.0Y-24.0
X6.0Y-33.0
X6.0Y-42.0
X6.0Y-51.0
X6.0Y-60.0
X6.0Y-69.0
X6.0Y-78.0
X6.0Y-87.0
X6.0Y-96.0
X15.0Y-6.0
X15.0Y-15.0
X15.0Y-24.0
X15.0Y-33.0
X15.0Y-42.0
X15.0Y-51.0
X15.0Y-60.0
X15.0Y-69.0
X15.0Y-78.0
X15.0Y-87.0
X15.0Y-96.0
X15.0Y-105.0
X24.0Y-6.0
X24.0Y-15.0
X24.0Y-24.0
X24.0Y-33.0
X24.0Y-42.0
X24.0Y-51.0
X24.0Y-60.0
X24.0Y-69.0
X24.0Y-78.0
X24.0Y-87.0
X24.0Y-96.0
X24.0Y-105.0
X33.0Y-6.0
X33.0Y-15.0
X33.0Y-24.0
X33.0Y-42.0
X33.0Y-60.0
X33.0Y-69.0
X33.0Y-87.0
X33.0Y-105.0
X36.3Y-34.1
X36.5Y-74.25
X42.0Y-6.0
X42.0Y-15.0
X42.0Y-24.0
X42.0Y-33.0
X42.0Y-51.0
X42.0Y-60.0
X42.0Y-69.0
X42.0Y-87.0
X42.0Y-96.0
X49.75Y-37.0
X51.0Y-6.0
X51.0Y-15.0
X51.0Y-24.0
X51.0Y-33.0
X51.0Y-42.0
X51.0Y-60.0
X51.0Y-69.0
X51.0Y-87.0
X51.0Y-96.0
X60.0Y-6.0
X60.0Y-15.0
X60.0Y-24.0
X60.0Y-33.0
X60.0Y-42.0
X60.0Y-51.0
X60.0Y-69.0
X60.0Y-87.0
X60.0Y-96.0
X61.25Y-58.25
X68.25Y-71.0
X69.0Y-6.0
X69.0Y-15.0
X69.0Y-24.0
X69.0Y-42.0
X69.0Y-51.0
X69.0Y-87.0
X69.0Y-96.0
X71.25Y-68.0
X71.5Y-34.25
X75.5Y-63.75
X77.25Y-58.25
X78.0Y-6.0
X78.0Y-15.0
X78.0Y-24.0
X78.0Y-42.0
X78.0Y-87.0
X87.0Y-6.0
X87.0Y-15.0
X87.0Y-24.0
X87.0Y-42.0
X87.0Y-60.0
X93.5Y-106.7
X96.0Y-6.0
X96.0Y-15.0
X96.0Y-24.0
X96.0Y-51.0
X96.0Y-60.0
X97.0Y-95.0
X97.0Y-98.25
X99.55Y-78.1
X103.4Y-74.25
X105.0Y-6.0
X105.0Y-15.0
X105.0Y-24.0
X105.0Y-42.0
X105.0Y-51.0
X114.0Y-6.0
X114.0Y-15.0
X114.0Y-24.0
X114.0Y-33.0
X114.0Y-42.0
X114.0Y-51.0
X114.0Y-60.0
X114.0Y-69.0
X114.0Y-78.0
X114.0Y-87.0
X114.0Y-96.0
X123.0Y-6.0
X123.0Y-15.0
X123.0Y-24.0
X123.0Y-33.0
X123.0Y-42.0
X123.0Y-51.0
X123.0Y-60.0
X123.0Y-69.0
X123.0Y-87.0
X123.0Y-96.0
X123.0Y-105.0
X132.0Y-15.0
X132.0Y-24.0
X132.0Y-33.0
X132.0Y-42.0
X132.0Y-51.0
X132.0Y-60.0
X132.0Y-69.0
X132.0Y-78.0
X132.0Y-87.0
X132.0Y-96.0
T2
X96.0Y-101.46
X96.0Y-104.0
X98.54Y-101.46
X98.54Y-104.0
X101.08Y-101.46
X101.08Y-104.0
X103.62Y-101.46
X103.62Y-104.0
X106.16Y-101.46
X106.16Y-104.0
X108.7Y-101.46
X108.7Y-104.0
X111.24Y-101.46
X111.24Y-104.0
X113.78Y-101.46
X113.78Y-104.0
T3
X31.5Y-29.0
X31.5Y-57.0
X34.0Y-29.0
X34.0Y-57.0
X36.5Y-29.0
X36.5Y-57.0
X66.5Y-29.0
X66.5Y-57.0
X69.0Y-29.0
X69.0Y-57.0
X71.5Y-29.0
X71.5Y-57.0
X101.5Y-29.0
X101.5Y-57.0
X104.0Y-29.0
X104.0Y-57.0
X106.5Y-29.0
X106.5Y-57.0
T4
X31.0Y-95.15G85X31.0Y-96.85
G05
X37.0Y-95.15G85X37.0Y-96.85
G05
X101.0Y-95.15G85X101.0Y-96.85
G05
X107.0Y-95.15G85X107.0Y-96.85
G05
T5
X29.6Y-21.85G85X29.6Y-22.15
G05
X29.6Y-49.85G85X29.6Y-50.15
G05
X38.4Y-21.85G85X38.4Y-22.15
G05
X38.4Y-49.85G85X38.4Y-50.15
G05
X64.6Y-21.85G85X64.6Y-22.15
G05
X64.6Y-49.85G85X64.6Y-50.15
G05
X73.4Y-21.85G85X73.4Y-22.15
G05
X73.4Y-49.85G85X73.4Y-50.15
G05
X99.6Y-21.85G85X99.6Y-22.15
G05
X99.6Y-49.85G85X99.6Y-50.15
G05
X108.4Y-21.85G85X108.4Y-22.15
G05
X108.4Y-49.85G85X108.4Y-50.15
G05
M30
