%TF.GenerationSoftware,KiCad,Pcbnew,10.0.4*%
%TF.CreationDate,2026-07-25T08:40:23-05:00*%
%TF.ProjectId,glitchwave567_ctrl,676c6974-6368-4776-9176-653536375f63,rev?*%
%TF.SameCoordinates,Original*%
%TF.FileFunction,Copper,L4,Bot*%
%TF.FilePolarity,Positive*%
%FSLAX46Y46*%
G04 Gerber Fmt 4.6, Leading zero omitted, Abs format (unit mm)*
G04 Created by KiCad (PCBNEW 10.0.4) date 2026-07-25 08:40:23*
%MOMM*%
%LPD*%
G01*
G04 APERTURE LIST*
%TA.AperFunction,ComponentPad*%
%ADD10C,1.800000*%
%TD*%
%TA.AperFunction,ComponentPad*%
%ADD11O,2.900000X3.200000*%
%TD*%
%TA.AperFunction,ComponentPad*%
%ADD12R,1.700000X1.700000*%
%TD*%
%TA.AperFunction,ComponentPad*%
%ADD13O,1.700000X1.700000*%
%TD*%
%TA.AperFunction,ComponentPad*%
%ADD14O,2.300000X4.000000*%
%TD*%
%TA.AperFunction,ViaPad*%
%ADD15C,0.500000*%
%TD*%
%TA.AperFunction,Conductor*%
%ADD16C,0.250000*%
%TD*%
%TA.AperFunction,Conductor*%
%ADD17C,0.400000*%
%TD*%
G04 APERTURE END LIST*
D10*
%TO.P,RV6,1*%
%TO.N,3V3*%
X101500000Y-57000000D03*
%TO.P,RV6,2*%
%TO.N,/POT6_W*%
X104000000Y-57000000D03*
%TO.P,RV6,3*%
%TO.N,GND*%
X106500000Y-57000000D03*
D11*
%TO.P,RV6,MP*%
%TO.N,N/C*%
X99600000Y-50000000D03*
X108400000Y-50000000D03*
%TD*%
D10*
%TO.P,RV2,1*%
%TO.N,3V3*%
X66500000Y-29000000D03*
%TO.P,RV2,2*%
%TO.N,/POT2_W*%
X69000000Y-29000000D03*
%TO.P,RV2,3*%
%TO.N,GND*%
X71500000Y-29000000D03*
D11*
%TO.P,RV2,MP*%
%TO.N,N/C*%
X64600000Y-22000000D03*
X73400000Y-22000000D03*
%TD*%
D10*
%TO.P,RV5,1*%
%TO.N,3V3*%
X66500000Y-57000000D03*
%TO.P,RV5,2*%
%TO.N,/POT5_W*%
X69000000Y-57000000D03*
%TO.P,RV5,3*%
%TO.N,GND*%
X71500000Y-57000000D03*
D11*
%TO.P,RV5,MP*%
%TO.N,N/C*%
X64600000Y-50000000D03*
X73400000Y-50000000D03*
%TD*%
D12*
%TO.P,J1,1*%
%TO.N,GND*%
X96000000Y-104000000D03*
D13*
%TO.P,J1,2*%
%TO.N,+5V*%
X96000000Y-101460000D03*
%TO.P,J1,3*%
%TO.N,3V3*%
X98540000Y-104000000D03*
%TO.P,J1,4*%
%TO.N,GND*%
X98540000Y-101460000D03*
%TO.P,J1,5*%
%TO.N,/POT1_W*%
X101080000Y-104000000D03*
%TO.P,J1,6*%
%TO.N,/POT2_W*%
X101080000Y-101460000D03*
%TO.P,J1,7*%
%TO.N,/POT3_W*%
X103620000Y-104000000D03*
%TO.P,J1,8*%
%TO.N,/POT4_W*%
X103620000Y-101460000D03*
%TO.P,J1,9*%
%TO.N,/POT5_W*%
X106160000Y-104000000D03*
%TO.P,J1,10*%
%TO.N,/POT6_W*%
X106160000Y-101460000D03*
%TO.P,J1,11*%
%TO.N,/STOMP1*%
X108700000Y-104000000D03*
%TO.P,J1,12*%
%TO.N,/STOMP2*%
X108700000Y-101460000D03*
%TO.P,J1,13*%
%TO.N,/WS_IN*%
X111240000Y-104000000D03*
%TO.P,J1,14*%
%TO.N,GND*%
X111240000Y-101460000D03*
%TO.P,J1,15*%
%TO.N,unconnected-(J1-Pin_15-Pad15)*%
X113780000Y-104000000D03*
%TO.P,J1,16*%
%TO.N,GND*%
X113780000Y-101460000D03*
%TD*%
D14*
%TO.P,SW2,1*%
%TO.N,/STOMP2*%
X101000000Y-96000000D03*
%TO.P,SW2,2*%
%TO.N,GND*%
X107000000Y-96000000D03*
%TD*%
%TO.P,SW1,1*%
%TO.N,/STOMP1*%
X31000000Y-96000000D03*
%TO.P,SW1,2*%
%TO.N,GND*%
X37000000Y-96000000D03*
%TD*%
D10*
%TO.P,RV4,1*%
%TO.N,3V3*%
X31500000Y-57000000D03*
%TO.P,RV4,2*%
%TO.N,/POT4_W*%
X34000000Y-57000000D03*
%TO.P,RV4,3*%
%TO.N,GND*%
X36500000Y-57000000D03*
D11*
%TO.P,RV4,MP*%
%TO.N,N/C*%
X29600000Y-50000000D03*
X38400000Y-50000000D03*
%TD*%
D10*
%TO.P,RV1,1*%
%TO.N,3V3*%
X31500000Y-29000000D03*
%TO.P,RV1,2*%
%TO.N,/POT1_W*%
X34000000Y-29000000D03*
%TO.P,RV1,3*%
%TO.N,GND*%
X36500000Y-29000000D03*
D11*
%TO.P,RV1,MP*%
%TO.N,N/C*%
X29600000Y-22000000D03*
X38400000Y-22000000D03*
%TD*%
D10*
%TO.P,RV3,1*%
%TO.N,3V3*%
X101500000Y-29000000D03*
%TO.P,RV3,2*%
%TO.N,/POT3_W*%
X104000000Y-29000000D03*
%TO.P,RV3,3*%
%TO.N,GND*%
X106500000Y-29000000D03*
D11*
%TO.P,RV3,MP*%
%TO.N,N/C*%
X99600000Y-22000000D03*
X108400000Y-22000000D03*
%TD*%
D15*
%TO.N,/POT1_W*%
X97000000Y-98250000D03*
%TO.N,/POT4_W*%
X97000000Y-95000000D03*
X77250000Y-58250000D03*
X61250000Y-58250000D03*
%TO.N,/WSD1*%
X49750000Y-37000000D03*
X71500000Y-34250000D03*
%TO.N,/WSD3*%
X71250000Y-68000000D03*
X68250000Y-71000000D03*
X36500000Y-74250000D03*
X75500000Y-63750000D03*
%TO.N,/WSD4*%
X103400000Y-74250000D03*
X99550000Y-78100000D03*
%TO.N,/WS_IN*%
X36300000Y-34100000D03*
X93500000Y-106700000D03*
%TO.N,GND*%
X132000000Y-96000000D03*
X15000000Y-87000000D03*
X123000000Y-6000000D03*
X6000000Y-78000000D03*
X51000000Y-60000000D03*
X24000000Y-51000000D03*
X42000000Y-96000000D03*
X69000000Y-87000000D03*
X78000000Y-6000000D03*
X96000000Y-24000000D03*
X24000000Y-96000000D03*
X132000000Y-78000000D03*
X69000000Y-96000000D03*
X15000000Y-51000000D03*
X15000000Y-33000000D03*
X132000000Y-60000000D03*
X60000000Y-15000000D03*
X24000000Y-87000000D03*
X114000000Y-33000000D03*
X132000000Y-24000000D03*
X51000000Y-87000000D03*
X132000000Y-51000000D03*
X24000000Y-69000000D03*
X24000000Y-33000000D03*
X123000000Y-96000000D03*
X42000000Y-51000000D03*
X42000000Y-60000000D03*
X24000000Y-78000000D03*
X42000000Y-87000000D03*
X42000000Y-69000000D03*
X114000000Y-24000000D03*
X60000000Y-69000000D03*
X96000000Y-6000000D03*
X123000000Y-105000000D03*
X96000000Y-60000000D03*
X42000000Y-33000000D03*
X123000000Y-51000000D03*
X33000000Y-6000000D03*
X114000000Y-51000000D03*
X15000000Y-6000000D03*
X51000000Y-24000000D03*
X123000000Y-69000000D03*
X78000000Y-42000000D03*
X87000000Y-60000000D03*
X114000000Y-96000000D03*
X60000000Y-6000000D03*
X123000000Y-24000000D03*
X123000000Y-42000000D03*
X51000000Y-42000000D03*
X51000000Y-33000000D03*
X69000000Y-24000000D03*
X78000000Y-87000000D03*
X114000000Y-15000000D03*
X24000000Y-105000000D03*
X132000000Y-33000000D03*
X24000000Y-6000000D03*
X114000000Y-78000000D03*
X60000000Y-24000000D03*
X6000000Y-42000000D03*
X96000000Y-15000000D03*
X60000000Y-51000000D03*
X6000000Y-33000000D03*
X6000000Y-60000000D03*
X60000000Y-33000000D03*
X87000000Y-6000000D03*
X33000000Y-15000000D03*
X78000000Y-15000000D03*
X15000000Y-60000000D03*
X33000000Y-60000000D03*
X6000000Y-15000000D03*
X6000000Y-69000000D03*
X51000000Y-96000000D03*
X114000000Y-60000000D03*
X132000000Y-15000000D03*
X60000000Y-96000000D03*
X15000000Y-24000000D03*
X51000000Y-6000000D03*
X15000000Y-105000000D03*
X33000000Y-42000000D03*
X105000000Y-42000000D03*
X6000000Y-96000000D03*
X87000000Y-15000000D03*
X105000000Y-24000000D03*
X132000000Y-87000000D03*
X105000000Y-15000000D03*
X69000000Y-51000000D03*
X114000000Y-6000000D03*
X60000000Y-87000000D03*
X33000000Y-24000000D03*
X123000000Y-33000000D03*
X42000000Y-24000000D03*
X24000000Y-15000000D03*
X87000000Y-24000000D03*
X87000000Y-42000000D03*
X24000000Y-60000000D03*
X69000000Y-42000000D03*
X6000000Y-51000000D03*
X51000000Y-69000000D03*
X105000000Y-51000000D03*
X114000000Y-87000000D03*
X33000000Y-105000000D03*
X123000000Y-15000000D03*
X6000000Y-24000000D03*
X123000000Y-87000000D03*
X78000000Y-24000000D03*
X15000000Y-15000000D03*
X60000000Y-42000000D03*
X24000000Y-42000000D03*
X105000000Y-6000000D03*
X24000000Y-24000000D03*
X42000000Y-15000000D03*
X69000000Y-15000000D03*
X132000000Y-69000000D03*
X6000000Y-87000000D03*
X123000000Y-60000000D03*
X114000000Y-69000000D03*
X96000000Y-51000000D03*
X15000000Y-78000000D03*
X51000000Y-15000000D03*
X33000000Y-69000000D03*
X15000000Y-42000000D03*
X132000000Y-42000000D03*
X114000000Y-42000000D03*
X15000000Y-69000000D03*
X69000000Y-6000000D03*
X42000000Y-6000000D03*
X15000000Y-96000000D03*
X33000000Y-87000000D03*
%TD*%
%TO.N,/POT3_W*%
D16*
X104500000Y-105050000D02*
X103400000Y-103950000D01*
X115500000Y-40700000D02*
X115500000Y-106150000D01*
X104500000Y-105600000D02*
X104500000Y-105050000D01*
X103950000Y-29150000D02*
X115500000Y-40700000D01*
X105050000Y-106150000D02*
X104500000Y-105600000D01*
X115500000Y-106150000D02*
X105050000Y-106150000D01*
%TO.N,/POT4_W*%
X77250000Y-58250000D02*
X61250000Y-58250000D01*
%TO.N,/POT6_W*%
X103950000Y-97900000D02*
X103950000Y-57200000D01*
X106150000Y-101200000D02*
X105600000Y-100650000D01*
X105600000Y-100650000D02*
X105600000Y-99550000D01*
X105600000Y-99550000D02*
X103950000Y-97900000D01*
%TO.N,/WSD3*%
X75500000Y-63750000D02*
X71250000Y-68000000D01*
%TO.N,/WS_IN*%
X89650000Y-87450000D02*
X89650000Y-101750000D01*
X92950000Y-106150000D02*
X93500000Y-106700000D01*
X89650000Y-101750000D02*
X92950000Y-105050000D01*
X36300000Y-34100000D02*
X89650000Y-87450000D01*
X92950000Y-105050000D02*
X92950000Y-106150000D01*
%TO.N,3V3*%
D17*
X31900000Y-47300000D02*
X31350000Y-46750000D01*
X97900000Y-104500000D02*
X97900000Y-106150000D01*
X97900000Y-106150000D02*
X94050000Y-106150000D01*
X102300000Y-40150000D02*
X102300000Y-52800000D01*
X66550000Y-57200000D02*
X67100000Y-56650000D01*
X94050000Y-106150000D02*
X94050000Y-72050000D01*
X101750000Y-64350000D02*
X101750000Y-57200000D01*
X102300000Y-52800000D02*
X101750000Y-53350000D01*
X31350000Y-57200000D02*
X31900000Y-56650000D01*
X67100000Y-56650000D02*
X67100000Y-47300000D01*
X94050000Y-72050000D02*
X101750000Y-64350000D01*
X98450000Y-103950000D02*
X97900000Y-104500000D01*
X67100000Y-47300000D02*
X66550000Y-46750000D01*
X66550000Y-46750000D02*
X66550000Y-29150000D01*
X31900000Y-56650000D02*
X31900000Y-47300000D01*
X101750000Y-53350000D02*
X101750000Y-57200000D01*
X101750000Y-39600000D02*
X102300000Y-40150000D01*
X31350000Y-46750000D02*
X31350000Y-29150000D01*
X101750000Y-29150000D02*
X101750000Y-39600000D01*
%TD*%
%TA.AperFunction,Conductor*%
%TO.N,GND*%
G36*
X126542539Y-1319685D02*
G01*
X126588294Y-1372489D01*
X126599500Y-1424000D01*
X126599500Y-10958724D01*
X126597973Y-10978123D01*
X126594508Y-10999999D01*
X126594508Y-11000000D01*
X126598736Y-11026693D01*
X126598739Y-11026722D01*
X126614352Y-11125301D01*
X126614354Y-11125304D01*
X126671950Y-11238342D01*
X126671952Y-11238344D01*
X126671954Y-11238347D01*
X126761652Y-11328045D01*
X126761654Y-11328046D01*
X126761658Y-11328050D01*
X126874696Y-11385646D01*
X126874697Y-11385646D01*
X126874699Y-11385647D01*
X126999997Y-11405492D01*
X127000000Y-11405492D01*
X127021879Y-11402026D01*
X127041275Y-11400500D01*
X136576000Y-11400500D01*
X136643039Y-11420185D01*
X136688794Y-11472989D01*
X136700000Y-11524500D01*
X136700000Y-102475500D01*
X136680315Y-102542539D01*
X136627511Y-102588294D01*
X136576000Y-102599500D01*
X127041275Y-102599500D01*
X127021879Y-102597973D01*
X127000000Y-102594508D01*
X126999998Y-102594508D01*
X126968481Y-102599500D01*
X126968480Y-102599500D01*
X126874699Y-102614352D01*
X126874698Y-102614352D01*
X126799337Y-102652751D01*
X126761658Y-102671950D01*
X126761657Y-102671951D01*
X126761652Y-102671954D01*
X126671954Y-102761652D01*
X126671951Y-102761657D01*
X126671950Y-102761658D01*
X126652751Y-102799337D01*
X126614352Y-102874698D01*
X126614352Y-102874699D01*
X126594508Y-102999996D01*
X126594508Y-103000000D01*
X126597973Y-103021876D01*
X126599500Y-103041275D01*
X126599500Y-112576000D01*
X126579815Y-112643039D01*
X126527011Y-112688794D01*
X126475500Y-112700000D01*
X11524500Y-112700000D01*
X11457461Y-112680315D01*
X11411706Y-112627511D01*
X11400500Y-112576000D01*
X11400500Y-103041275D01*
X11402027Y-103021876D01*
X11405492Y-103000000D01*
X11405492Y-102999996D01*
X11385647Y-102874699D01*
X11385647Y-102874698D01*
X11372808Y-102849500D01*
X11328050Y-102761658D01*
X11328046Y-102761654D01*
X11328045Y-102761652D01*
X11238347Y-102671954D01*
X11238344Y-102671952D01*
X11238342Y-102671950D01*
X11125304Y-102614354D01*
X11125303Y-102614353D01*
X11125300Y-102614352D01*
X11031520Y-102599500D01*
X11031519Y-102599500D01*
X11000002Y-102594508D01*
X11000000Y-102594508D01*
X10978120Y-102597973D01*
X10958725Y-102599500D01*
X1424000Y-102599500D01*
X1356961Y-102579815D01*
X1311206Y-102527011D01*
X1300000Y-102475500D01*
X1300000Y-96910000D01*
X29549500Y-96910000D01*
X29564379Y-97089559D01*
X29623389Y-97322589D01*
X29719951Y-97542729D01*
X29851427Y-97743966D01*
X29851429Y-97743969D01*
X30014236Y-97920825D01*
X30014239Y-97920827D01*
X30014242Y-97920830D01*
X30203924Y-98068466D01*
X30203930Y-98068470D01*
X30203933Y-98068472D01*
X30377399Y-98162347D01*
X30404833Y-98177194D01*
X30415344Y-98182882D01*
X30415347Y-98182883D01*
X30642699Y-98260933D01*
X30642701Y-98260933D01*
X30642703Y-98260934D01*
X30879808Y-98300500D01*
X30879809Y-98300500D01*
X31120191Y-98300500D01*
X31120192Y-98300500D01*
X31357297Y-98260934D01*
X31584656Y-98182882D01*
X31796067Y-98068472D01*
X31985764Y-97920825D01*
X32148571Y-97743969D01*
X32280049Y-97542728D01*
X32376610Y-97322591D01*
X32435620Y-97089563D01*
X32450500Y-96909990D01*
X32450500Y-95090010D01*
X32435620Y-94910437D01*
X32376610Y-94677409D01*
X32280049Y-94457272D01*
X32148571Y-94256031D01*
X31985764Y-94079175D01*
X31985759Y-94079171D01*
X31985757Y-94079169D01*
X31796075Y-93931533D01*
X31796069Y-93931529D01*
X31584657Y-93817118D01*
X31584652Y-93817116D01*
X31357300Y-93739066D01*
X31179468Y-93709391D01*
X31120192Y-93699500D01*
X30879808Y-93699500D01*
X30832387Y-93707413D01*
X30642699Y-93739066D01*
X30415347Y-93817116D01*
X30415342Y-93817118D01*
X30203930Y-93931529D01*
X30203924Y-93931533D01*
X30014242Y-94079169D01*
X30014239Y-94079172D01*
X29851430Y-94256029D01*
X29851427Y-94256033D01*
X29719951Y-94457270D01*
X29623389Y-94677410D01*
X29564379Y-94910440D01*
X29549500Y-95089999D01*
X29549500Y-96910000D01*
X1300000Y-96910000D01*
X1300000Y-74250000D01*
X35944750Y-74250000D01*
X35963670Y-74393708D01*
X35963671Y-74393712D01*
X36019137Y-74527622D01*
X36019138Y-74527624D01*
X36019139Y-74527625D01*
X36107379Y-74642621D01*
X36222375Y-74730861D01*
X36356291Y-74786330D01*
X36483280Y-74803048D01*
X36499999Y-74805250D01*
X36500000Y-74805250D01*
X36500001Y-74805250D01*
X36514977Y-74803278D01*
X36643709Y-74786330D01*
X36777625Y-74730861D01*
X36892621Y-74642621D01*
X36980861Y-74527625D01*
X37036330Y-74393709D01*
X37055250Y-74250000D01*
X37036330Y-74106291D01*
X36980861Y-73972375D01*
X36892621Y-73857379D01*
X36777625Y-73769139D01*
X36777624Y-73769138D01*
X36777622Y-73769137D01*
X36643712Y-73713671D01*
X36643710Y-73713670D01*
X36643709Y-73713670D01*
X36571854Y-73704210D01*
X36500001Y-73694750D01*
X36499999Y-73694750D01*
X36356291Y-73713670D01*
X36356287Y-73713671D01*
X36222377Y-73769137D01*
X36107379Y-73857379D01*
X36019137Y-73972377D01*
X35963671Y-74106287D01*
X35963670Y-74106291D01*
X35944750Y-74249999D01*
X35944750Y-74250000D01*
X1300000Y-74250000D01*
X1300000Y-71000000D01*
X67694750Y-71000000D01*
X67713670Y-71143708D01*
X67713671Y-71143712D01*
X67769137Y-71277622D01*
X67769138Y-71277624D01*
X67769139Y-71277625D01*
X67857379Y-71392621D01*
X67972375Y-71480861D01*
X68106291Y-71536330D01*
X68233280Y-71553048D01*
X68249999Y-71555250D01*
X68250000Y-71555250D01*
X68250001Y-71555250D01*
X68264977Y-71553278D01*
X68393709Y-71536330D01*
X68527625Y-71480861D01*
X68642621Y-71392621D01*
X68730861Y-71277625D01*
X68786330Y-71143709D01*
X68805250Y-71000000D01*
X68786330Y-70856291D01*
X68730861Y-70722375D01*
X68642621Y-70607379D01*
X68527625Y-70519139D01*
X68527624Y-70519138D01*
X68527622Y-70519137D01*
X68393712Y-70463671D01*
X68393710Y-70463670D01*
X68393709Y-70463670D01*
X68321854Y-70454210D01*
X68250001Y-70444750D01*
X68249999Y-70444750D01*
X68106291Y-70463670D01*
X68106287Y-70463671D01*
X67972377Y-70519137D01*
X67857379Y-70607379D01*
X67769137Y-70722377D01*
X67713671Y-70856287D01*
X67713670Y-70856291D01*
X67694750Y-70999999D01*
X67694750Y-71000000D01*
X1300000Y-71000000D01*
X1300000Y-50215515D01*
X27849500Y-50215515D01*
X27864196Y-50411620D01*
X27864197Y-50411625D01*
X27922576Y-50667402D01*
X27922578Y-50667411D01*
X27922580Y-50667416D01*
X28018432Y-50911643D01*
X28149614Y-51138857D01*
X28281736Y-51304533D01*
X28313198Y-51343985D01*
X28494753Y-51512441D01*
X28505521Y-51522433D01*
X28722296Y-51670228D01*
X28722301Y-51670230D01*
X28722302Y-51670231D01*
X28722303Y-51670232D01*
X28847843Y-51730688D01*
X28958673Y-51784061D01*
X28958674Y-51784061D01*
X28958677Y-51784063D01*
X29209385Y-51861396D01*
X29468818Y-51900500D01*
X29731182Y-51900500D01*
X29990615Y-51861396D01*
X30241323Y-51784063D01*
X30477704Y-51670228D01*
X30694479Y-51522433D01*
X30886805Y-51343981D01*
X31050386Y-51138857D01*
X31168113Y-50934948D01*
X31218680Y-50886732D01*
X31287287Y-50873509D01*
X31352152Y-50899477D01*
X31392680Y-50956392D01*
X31399500Y-50996948D01*
X31399500Y-55694523D01*
X31379815Y-55761562D01*
X31327011Y-55807317D01*
X31298286Y-55816411D01*
X31170071Y-55840379D01*
X31170062Y-55840381D01*
X31170060Y-55840382D01*
X31038864Y-55891207D01*
X30962601Y-55920752D01*
X30962595Y-55920754D01*
X30773439Y-56037874D01*
X30773437Y-56037876D01*
X30609020Y-56187761D01*
X30474943Y-56365308D01*
X30474938Y-56365316D01*
X30375775Y-56564461D01*
X30375769Y-56564476D01*
X30314885Y-56778462D01*
X30314884Y-56778464D01*
X30294357Y-56999999D01*
X30294357Y-57000000D01*
X30314884Y-57221535D01*
X30314885Y-57221537D01*
X30375769Y-57435523D01*
X30375775Y-57435538D01*
X30474938Y-57634683D01*
X30474943Y-57634691D01*
X30609020Y-57812238D01*
X30773437Y-57962123D01*
X30773439Y-57962125D01*
X30962595Y-58079245D01*
X30962596Y-58079245D01*
X30962599Y-58079247D01*
X31170060Y-58159618D01*
X31388757Y-58200500D01*
X31388759Y-58200500D01*
X31611241Y-58200500D01*
X31611243Y-58200500D01*
X31829940Y-58159618D01*
X32037401Y-58079247D01*
X32226562Y-57962124D01*
X32390981Y-57812236D01*
X32525058Y-57634689D01*
X32624229Y-57435528D01*
X32630734Y-57412661D01*
X32668012Y-57353571D01*
X32731322Y-57324013D01*
X32800561Y-57333375D01*
X32853748Y-57378684D01*
X32869264Y-57412658D01*
X32875770Y-57435523D01*
X32875772Y-57435530D01*
X32875775Y-57435538D01*
X32974938Y-57634683D01*
X32974943Y-57634691D01*
X33109020Y-57812238D01*
X33273437Y-57962123D01*
X33273439Y-57962125D01*
X33462595Y-58079245D01*
X33462596Y-58079245D01*
X33462599Y-58079247D01*
X33670060Y-58159618D01*
X33888757Y-58200500D01*
X33888759Y-58200500D01*
X34111241Y-58200500D01*
X34111243Y-58200500D01*
X34329940Y-58159618D01*
X34537401Y-58079247D01*
X34726562Y-57962124D01*
X34890981Y-57812236D01*
X35025058Y-57634689D01*
X35124229Y-57435528D01*
X35185115Y-57221536D01*
X35205643Y-57000000D01*
X35185115Y-56778464D01*
X35124229Y-56564472D01*
X35124224Y-56564461D01*
X35025061Y-56365316D01*
X35025056Y-56365308D01*
X34890979Y-56187761D01*
X34726562Y-56037876D01*
X34726560Y-56037874D01*
X34537404Y-55920754D01*
X34537398Y-55920752D01*
X34329940Y-55840382D01*
X34111243Y-55799500D01*
X33888757Y-55799500D01*
X33670060Y-55840382D01*
X33538864Y-55891207D01*
X33462601Y-55920752D01*
X33462595Y-55920754D01*
X33273439Y-56037874D01*
X33273437Y-56037876D01*
X33109020Y-56187761D01*
X32974943Y-56365308D01*
X32974938Y-56365316D01*
X32875775Y-56564461D01*
X32875769Y-56564476D01*
X32869266Y-56587335D01*
X32831987Y-56646429D01*
X32768677Y-56675986D01*
X32699438Y-56666624D01*
X32646251Y-56621314D01*
X32630734Y-56587335D01*
X32624230Y-56564476D01*
X32624229Y-56564472D01*
X32624224Y-56564461D01*
X32525061Y-56365316D01*
X32525052Y-56365302D01*
X32425546Y-56233534D01*
X32400854Y-56168173D01*
X32400500Y-56158808D01*
X32400500Y-50215515D01*
X36649500Y-50215515D01*
X36664196Y-50411620D01*
X36664197Y-50411625D01*
X36722576Y-50667402D01*
X36722578Y-50667411D01*
X36722580Y-50667416D01*
X36818432Y-50911643D01*
X36949614Y-51138857D01*
X37081736Y-51304533D01*
X37113198Y-51343985D01*
X37294753Y-51512441D01*
X37305521Y-51522433D01*
X37522296Y-51670228D01*
X37522301Y-51670230D01*
X37522302Y-51670231D01*
X37522303Y-51670232D01*
X37647843Y-51730688D01*
X37758673Y-51784061D01*
X37758674Y-51784061D01*
X37758677Y-51784063D01*
X38009385Y-51861396D01*
X38268818Y-51900500D01*
X38531182Y-51900500D01*
X38790615Y-51861396D01*
X39041323Y-51784063D01*
X39277704Y-51670228D01*
X39494479Y-51522433D01*
X39686805Y-51343981D01*
X39850386Y-51138857D01*
X39981568Y-50911643D01*
X40077420Y-50667416D01*
X40135802Y-50411630D01*
X40135803Y-50411620D01*
X40150499Y-50215515D01*
X40150500Y-50215492D01*
X40150500Y-49784507D01*
X40150499Y-49784484D01*
X40135803Y-49588379D01*
X40135802Y-49588374D01*
X40135802Y-49588370D01*
X40077420Y-49332584D01*
X39981568Y-49088357D01*
X39850386Y-48861143D01*
X39686805Y-48656019D01*
X39686804Y-48656018D01*
X39686801Y-48656014D01*
X39494479Y-48477567D01*
X39277704Y-48329772D01*
X39277700Y-48329770D01*
X39277697Y-48329768D01*
X39277696Y-48329767D01*
X39041325Y-48215938D01*
X39041327Y-48215938D01*
X38790623Y-48138606D01*
X38790619Y-48138605D01*
X38790615Y-48138604D01*
X38665823Y-48119794D01*
X38531187Y-48099500D01*
X38531182Y-48099500D01*
X38268818Y-48099500D01*
X38268812Y-48099500D01*
X38107247Y-48123853D01*
X38009385Y-48138604D01*
X38009382Y-48138605D01*
X38009376Y-48138606D01*
X37758673Y-48215938D01*
X37522303Y-48329767D01*
X37522302Y-48329768D01*
X37305520Y-48477567D01*
X37113198Y-48656014D01*
X36949614Y-48861143D01*
X36818432Y-49088356D01*
X36722582Y-49332578D01*
X36722576Y-49332597D01*
X36664197Y-49588374D01*
X36664196Y-49588379D01*
X36649500Y-49784484D01*
X36649500Y-50215515D01*
X32400500Y-50215515D01*
X32400500Y-47367138D01*
X32403334Y-47340779D01*
X32404358Y-47336073D01*
X32400816Y-47286547D01*
X32400500Y-47277701D01*
X32400500Y-47264200D01*
X32398579Y-47250845D01*
X32397632Y-47242035D01*
X32394091Y-47192519D01*
X32394091Y-47192515D01*
X32392408Y-47188004D01*
X32385851Y-47162316D01*
X32385165Y-47157543D01*
X32364536Y-47112372D01*
X32361149Y-47104195D01*
X32354391Y-47086080D01*
X32343795Y-47057669D01*
X32340908Y-47053813D01*
X32327379Y-47031012D01*
X32325377Y-47026627D01*
X32292857Y-46989097D01*
X32287304Y-46982206D01*
X32279220Y-46971406D01*
X32279214Y-46971400D01*
X32279210Y-46971395D01*
X32269676Y-46961861D01*
X32263643Y-46955382D01*
X32231129Y-46917858D01*
X32231125Y-46917854D01*
X32227066Y-46915246D01*
X32206428Y-46898614D01*
X31886819Y-46579005D01*
X31853334Y-46517682D01*
X31850500Y-46491324D01*
X31850500Y-34100000D01*
X35744750Y-34100000D01*
X35763670Y-34243708D01*
X35763671Y-34243712D01*
X35819137Y-34377622D01*
X35819138Y-34377624D01*
X35819139Y-34377625D01*
X35907379Y-34492621D01*
X36022375Y-34580861D01*
X36156291Y-34636330D01*
X36204719Y-34642705D01*
X36268615Y-34670971D01*
X36276215Y-34677963D01*
X89188181Y-87589929D01*
X89221666Y-87651252D01*
X89224500Y-87677610D01*
X89224500Y-101817394D01*
X89231962Y-101840358D01*
X89236503Y-101859273D01*
X89239372Y-101877389D01*
X89240281Y-101883127D01*
X89251243Y-101904641D01*
X89258688Y-101922615D01*
X89266150Y-101945580D01*
X89280340Y-101965110D01*
X89290508Y-101981703D01*
X89301470Y-102003218D01*
X92488181Y-105189929D01*
X92521666Y-105251252D01*
X92524500Y-105277610D01*
X92524500Y-106217394D01*
X92531962Y-106240358D01*
X92536503Y-106259273D01*
X92539470Y-106278010D01*
X92540281Y-106283127D01*
X92551243Y-106304641D01*
X92558688Y-106322615D01*
X92566150Y-106345580D01*
X92580340Y-106365110D01*
X92590508Y-106381703D01*
X92601470Y-106403218D01*
X92922035Y-106723783D01*
X92955520Y-106785106D01*
X92957293Y-106795276D01*
X92963670Y-106843710D01*
X93019137Y-106977622D01*
X93019138Y-106977624D01*
X93019139Y-106977625D01*
X93107379Y-107092621D01*
X93222375Y-107180861D01*
X93356291Y-107236330D01*
X93483280Y-107253048D01*
X93499999Y-107255250D01*
X93500000Y-107255250D01*
X93500001Y-107255250D01*
X93514977Y-107253278D01*
X93643709Y-107236330D01*
X93777625Y-107180861D01*
X93892621Y-107092621D01*
X93980861Y-106977625D01*
X94036330Y-106843709D01*
X94047573Y-106758314D01*
X94075840Y-106694417D01*
X94134165Y-106655947D01*
X94170512Y-106650500D01*
X97971960Y-106650500D01*
X97971961Y-106650500D01*
X97998153Y-106642809D01*
X98015436Y-106639050D01*
X98019882Y-106638410D01*
X98042457Y-106635165D01*
X98067287Y-106623824D01*
X98083862Y-106617642D01*
X98110053Y-106609953D01*
X98133020Y-106595192D01*
X98148540Y-106586717D01*
X98173373Y-106575377D01*
X98194006Y-106557497D01*
X98208148Y-106546910D01*
X98231128Y-106532143D01*
X98249015Y-106511499D01*
X98261499Y-106499015D01*
X98282143Y-106481128D01*
X98296910Y-106458148D01*
X98307497Y-106444006D01*
X98325377Y-106423373D01*
X98336717Y-106398540D01*
X98345192Y-106383020D01*
X98359953Y-106360053D01*
X98367642Y-106333862D01*
X98373824Y-106317287D01*
X98385165Y-106292457D01*
X98389050Y-106265436D01*
X98392809Y-106248153D01*
X98400500Y-106221961D01*
X98400500Y-106078039D01*
X98400500Y-105274500D01*
X98420185Y-105207461D01*
X98472989Y-105161706D01*
X98524500Y-105150500D01*
X98646608Y-105150500D01*
X98646610Y-105150500D01*
X98856198Y-105111321D01*
X99055019Y-105034298D01*
X99236302Y-104922052D01*
X99393872Y-104778407D01*
X99522366Y-104608255D01*
X99558310Y-104536069D01*
X99617403Y-104417394D01*
X99617403Y-104417393D01*
X99617405Y-104417389D01*
X99675756Y-104212310D01*
X99686529Y-104096047D01*
X99712315Y-104031111D01*
X99754622Y-104000804D01*
X99863130Y-104000804D01*
X99899503Y-104021668D01*
X99931693Y-104083681D01*
X99933470Y-104096047D01*
X99944244Y-104212310D01*
X99990679Y-104375511D01*
X100002596Y-104417392D01*
X100002596Y-104417394D01*
X100097632Y-104608253D01*
X100226127Y-104778406D01*
X100226128Y-104778407D01*
X100383698Y-104922052D01*
X100564981Y-105034298D01*
X100763802Y-105111321D01*
X100973390Y-105150500D01*
X100973392Y-105150500D01*
X101186608Y-105150500D01*
X101186610Y-105150500D01*
X101396198Y-105111321D01*
X101595019Y-105034298D01*
X101776302Y-104922052D01*
X101933872Y-104778407D01*
X102062366Y-104608255D01*
X102098310Y-104536069D01*
X102157403Y-104417394D01*
X102157403Y-104417393D01*
X102157405Y-104417389D01*
X102215756Y-104212310D01*
X102226529Y-104096047D01*
X102252315Y-104031111D01*
X102296869Y-103999194D01*
X102260497Y-103978331D01*
X102228307Y-103916318D01*
X102226529Y-103903951D01*
X102225849Y-103896613D01*
X102215756Y-103787690D01*
X102157405Y-103582611D01*
X102157403Y-103582606D01*
X102157403Y-103582605D01*
X102062367Y-103391746D01*
X101933872Y-103221593D01*
X101776302Y-103077948D01*
X101595019Y-102965702D01*
X101595017Y-102965701D01*
X101495608Y-102927190D01*
X101396198Y-102888679D01*
X101199385Y-102851888D01*
X101137106Y-102820221D01*
X101101833Y-102759908D01*
X101104767Y-102690100D01*
X101144976Y-102632960D01*
X101199384Y-102608111D01*
X101396198Y-102571321D01*
X101595019Y-102494298D01*
X101776302Y-102382052D01*
X101933872Y-102238407D01*
X102062366Y-102068255D01*
X102094750Y-102003218D01*
X102157403Y-101877394D01*
X102157403Y-101877393D01*
X102157405Y-101877389D01*
X102215756Y-101672310D01*
X102226529Y-101556047D01*
X102252315Y-101491111D01*
X102296869Y-101459194D01*
X102260497Y-101438331D01*
X102228307Y-101376318D01*
X102226529Y-101363951D01*
X102225849Y-101356613D01*
X102215756Y-101247690D01*
X102157405Y-101042611D01*
X102157403Y-101042606D01*
X102157403Y-101042605D01*
X102062367Y-100851746D01*
X101933872Y-100681593D01*
X101825290Y-100582607D01*
X101776302Y-100537948D01*
X101595019Y-100425702D01*
X101595017Y-100425701D01*
X101495608Y-100387190D01*
X101396198Y-100348679D01*
X101186610Y-100309500D01*
X100973390Y-100309500D01*
X100763802Y-100348679D01*
X100763799Y-100348679D01*
X100763799Y-100348680D01*
X100564982Y-100425701D01*
X100564980Y-100425702D01*
X100383699Y-100537947D01*
X100226127Y-100681593D01*
X100097632Y-100851746D01*
X100002596Y-101042605D01*
X100002596Y-101042607D01*
X99944244Y-101247689D01*
X99924571Y-101459999D01*
X99924571Y-101460000D01*
X99944244Y-101672310D01*
X100002596Y-101877392D01*
X100002596Y-101877394D01*
X100097632Y-102068253D01*
X100097634Y-102068255D01*
X100226128Y-102238407D01*
X100383698Y-102382052D01*
X100564981Y-102494298D01*
X100763802Y-102571321D01*
X100960613Y-102608111D01*
X101022893Y-102639779D01*
X101058166Y-102700092D01*
X101055232Y-102769900D01*
X101015023Y-102827040D01*
X100960613Y-102851888D01*
X100763802Y-102888679D01*
X100763799Y-102888679D01*
X100763799Y-102888680D01*
X100564982Y-102965701D01*
X100564980Y-102965702D01*
X100383699Y-103077947D01*
X100226127Y-103221593D01*
X100097632Y-103391746D01*
X100002596Y-103582605D01*
X100002596Y-103582607D01*
X99944244Y-103787689D01*
X99933471Y-103903951D01*
X99907685Y-103968888D01*
X99863130Y-104000804D01*
X99754622Y-104000804D01*
X99756869Y-103999194D01*
X99720497Y-103978331D01*
X99688307Y-103916318D01*
X99686529Y-103903951D01*
X99685849Y-103896613D01*
X99675756Y-103787690D01*
X99617405Y-103582611D01*
X99617403Y-103582606D01*
X99617403Y-103582605D01*
X99522367Y-103391746D01*
X99393872Y-103221593D01*
X99236302Y-103077948D01*
X99055019Y-102965702D01*
X99055017Y-102965701D01*
X98955608Y-102927190D01*
X98856198Y-102888679D01*
X98646610Y-102849500D01*
X98433390Y-102849500D01*
X98223802Y-102888679D01*
X98223799Y-102888679D01*
X98223799Y-102888680D01*
X98024982Y-102965701D01*
X98024980Y-102965702D01*
X97843699Y-103077947D01*
X97686127Y-103221593D01*
X97557632Y-103391746D01*
X97462596Y-103582605D01*
X97462596Y-103582607D01*
X97404244Y-103787689D01*
X97384571Y-103999999D01*
X97384571Y-104000000D01*
X97404243Y-104212307D01*
X97421275Y-104272167D01*
X97420687Y-104342035D01*
X97414852Y-104357482D01*
X97414834Y-104357545D01*
X97414146Y-104362327D01*
X97407598Y-104387986D01*
X97405910Y-104392513D01*
X97405909Y-104392516D01*
X97402365Y-104442054D01*
X97401420Y-104450845D01*
X97399500Y-104464200D01*
X97399500Y-104477690D01*
X97399184Y-104486537D01*
X97395641Y-104536069D01*
X97395641Y-104536073D01*
X97396666Y-104540785D01*
X97399500Y-104567143D01*
X97399500Y-105525500D01*
X97379815Y-105592539D01*
X97327011Y-105638294D01*
X97275500Y-105649500D01*
X94674500Y-105649500D01*
X94607461Y-105629815D01*
X94561706Y-105577011D01*
X94550500Y-105525500D01*
X94550500Y-101460000D01*
X94844571Y-101460000D01*
X94864244Y-101672310D01*
X94922596Y-101877392D01*
X94922596Y-101877394D01*
X95017632Y-102068253D01*
X95017634Y-102068255D01*
X95146128Y-102238407D01*
X95303698Y-102382052D01*
X95484981Y-102494298D01*
X95683802Y-102571321D01*
X95893390Y-102610500D01*
X95893392Y-102610500D01*
X96106608Y-102610500D01*
X96106610Y-102610500D01*
X96316198Y-102571321D01*
X96515019Y-102494298D01*
X96696302Y-102382052D01*
X96853872Y-102238407D01*
X96982366Y-102068255D01*
X97014750Y-102003218D01*
X97077403Y-101877394D01*
X97077403Y-101877393D01*
X97077405Y-101877389D01*
X97135756Y-101672310D01*
X97155429Y-101460000D01*
X97135756Y-101247690D01*
X97077405Y-101042611D01*
X97077403Y-101042606D01*
X97077403Y-101042605D01*
X96982367Y-100851746D01*
X96853872Y-100681593D01*
X96745290Y-100582607D01*
X96696302Y-100537948D01*
X96515019Y-100425702D01*
X96515017Y-100425701D01*
X96415608Y-100387190D01*
X96316198Y-100348679D01*
X96106610Y-100309500D01*
X95893390Y-100309500D01*
X95683802Y-100348679D01*
X95683799Y-100348679D01*
X95683799Y-100348680D01*
X95484982Y-100425701D01*
X95484980Y-100425702D01*
X95303699Y-100537947D01*
X95146127Y-100681593D01*
X95017632Y-100851746D01*
X94922596Y-101042605D01*
X94922596Y-101042607D01*
X94864244Y-101247689D01*
X94844571Y-101459999D01*
X94844571Y-101460000D01*
X94550500Y-101460000D01*
X94550500Y-98250000D01*
X96444750Y-98250000D01*
X96463670Y-98393708D01*
X96463671Y-98393712D01*
X96519137Y-98527622D01*
X96519138Y-98527624D01*
X96519139Y-98527625D01*
X96607379Y-98642621D01*
X96722375Y-98730861D01*
X96856291Y-98786330D01*
X96983280Y-98803048D01*
X96999999Y-98805250D01*
X97000000Y-98805250D01*
X97000001Y-98805250D01*
X97014977Y-98803278D01*
X97143709Y-98786330D01*
X97277625Y-98730861D01*
X97392621Y-98642621D01*
X97480861Y-98527625D01*
X97536330Y-98393709D01*
X97555250Y-98250000D01*
X97536330Y-98106291D01*
X97480861Y-97972375D01*
X97392621Y-97857379D01*
X97277625Y-97769139D01*
X97277624Y-97769138D01*
X97277622Y-97769137D01*
X97143712Y-97713671D01*
X97143710Y-97713670D01*
X97143709Y-97713670D01*
X97071854Y-97704210D01*
X97000001Y-97694750D01*
X96999999Y-97694750D01*
X96856291Y-97713670D01*
X96856287Y-97713671D01*
X96722377Y-97769137D01*
X96607379Y-97857379D01*
X96519137Y-97972377D01*
X96463671Y-98106287D01*
X96463670Y-98106291D01*
X96444750Y-98249999D01*
X96444750Y-98250000D01*
X94550500Y-98250000D01*
X94550500Y-96910000D01*
X99549500Y-96910000D01*
X99564379Y-97089559D01*
X99623389Y-97322589D01*
X99719951Y-97542729D01*
X99851427Y-97743966D01*
X99851429Y-97743969D01*
X100014236Y-97920825D01*
X100014239Y-97920827D01*
X100014242Y-97920830D01*
X100203924Y-98068466D01*
X100203930Y-98068470D01*
X100203933Y-98068472D01*
X100377399Y-98162347D01*
X100404833Y-98177194D01*
X100415344Y-98182882D01*
X100415347Y-98182883D01*
X100642699Y-98260933D01*
X100642701Y-98260933D01*
X100642703Y-98260934D01*
X100879808Y-98300500D01*
X100879809Y-98300500D01*
X101120191Y-98300500D01*
X101120192Y-98300500D01*
X101357297Y-98260934D01*
X101584656Y-98182882D01*
X101796067Y-98068472D01*
X101985764Y-97920825D01*
X102148571Y-97743969D01*
X102280049Y-97542728D01*
X102376610Y-97322591D01*
X102435620Y-97089563D01*
X102450500Y-96909990D01*
X102450500Y-95090010D01*
X102435620Y-94910437D01*
X102376610Y-94677409D01*
X102280049Y-94457272D01*
X102148571Y-94256031D01*
X101985764Y-94079175D01*
X101985759Y-94079171D01*
X101985757Y-94079169D01*
X101796075Y-93931533D01*
X101796069Y-93931529D01*
X101584657Y-93817118D01*
X101584652Y-93817116D01*
X101357300Y-93739066D01*
X101179468Y-93709391D01*
X101120192Y-93699500D01*
X100879808Y-93699500D01*
X100832387Y-93707413D01*
X100642699Y-93739066D01*
X100415347Y-93817116D01*
X100415342Y-93817118D01*
X100203930Y-93931529D01*
X100203924Y-93931533D01*
X100014242Y-94079169D01*
X100014239Y-94079172D01*
X99851430Y-94256029D01*
X99851427Y-94256033D01*
X99719951Y-94457270D01*
X99623389Y-94677410D01*
X99564379Y-94910440D01*
X99549500Y-95089999D01*
X99549500Y-96910000D01*
X94550500Y-96910000D01*
X94550500Y-95000000D01*
X96444750Y-95000000D01*
X96463670Y-95143708D01*
X96463671Y-95143712D01*
X96519137Y-95277622D01*
X96519138Y-95277624D01*
X96519139Y-95277625D01*
X96607379Y-95392621D01*
X96722375Y-95480861D01*
X96856291Y-95536330D01*
X96983280Y-95553048D01*
X96999999Y-95555250D01*
X97000000Y-95555250D01*
X97000001Y-95555250D01*
X97014977Y-95553278D01*
X97143709Y-95536330D01*
X97277625Y-95480861D01*
X97392621Y-95392621D01*
X97480861Y-95277625D01*
X97536330Y-95143709D01*
X97555250Y-95000000D01*
X97536330Y-94856291D01*
X97480861Y-94722375D01*
X97392621Y-94607379D01*
X97277625Y-94519139D01*
X97277624Y-94519138D01*
X97277622Y-94519137D01*
X97143712Y-94463671D01*
X97143710Y-94463670D01*
X97143709Y-94463670D01*
X97071854Y-94454210D01*
X97000001Y-94444750D01*
X96999999Y-94444750D01*
X96856291Y-94463670D01*
X96856287Y-94463671D01*
X96722377Y-94519137D01*
X96607379Y-94607379D01*
X96519137Y-94722377D01*
X96463671Y-94856287D01*
X96463670Y-94856291D01*
X96444750Y-94999999D01*
X96444750Y-95000000D01*
X94550500Y-95000000D01*
X94550500Y-78100000D01*
X98994750Y-78100000D01*
X99013670Y-78243708D01*
X99013671Y-78243712D01*
X99069137Y-78377622D01*
X99069138Y-78377624D01*
X99069139Y-78377625D01*
X99157379Y-78492621D01*
X99272375Y-78580861D01*
X99406291Y-78636330D01*
X99533280Y-78653048D01*
X99549999Y-78655250D01*
X99550000Y-78655250D01*
X99550001Y-78655250D01*
X99564977Y-78653278D01*
X99693709Y-78636330D01*
X99827625Y-78580861D01*
X99942621Y-78492621D01*
X100030861Y-78377625D01*
X100086330Y-78243709D01*
X100105250Y-78100000D01*
X100086330Y-77956291D01*
X100030861Y-77822375D01*
X99942621Y-77707379D01*
X99827625Y-77619139D01*
X99827624Y-77619138D01*
X99827622Y-77619137D01*
X99693712Y-77563671D01*
X99693710Y-77563670D01*
X99693709Y-77563670D01*
X99621854Y-77554210D01*
X99550001Y-77544750D01*
X99549999Y-77544750D01*
X99406291Y-77563670D01*
X99406287Y-77563671D01*
X99272377Y-77619137D01*
X99157379Y-77707379D01*
X99069137Y-77822377D01*
X99013671Y-77956287D01*
X99013670Y-77956291D01*
X98994750Y-78099999D01*
X98994750Y-78100000D01*
X94550500Y-78100000D01*
X94550500Y-72308675D01*
X94570185Y-72241636D01*
X94586814Y-72220999D01*
X102056431Y-64751381D01*
X102077068Y-64734751D01*
X102081128Y-64732143D01*
X102113640Y-64694620D01*
X102119674Y-64688139D01*
X102129220Y-64678594D01*
X102137314Y-64667780D01*
X102142852Y-64660906D01*
X102175377Y-64623373D01*
X102177377Y-64618992D01*
X102190911Y-64596183D01*
X102193795Y-64592331D01*
X102211146Y-64545807D01*
X102214533Y-64537633D01*
X102235165Y-64492457D01*
X102235851Y-64487683D01*
X102242407Y-64461996D01*
X102244091Y-64457483D01*
X102244091Y-64457478D01*
X102244092Y-64457477D01*
X102245650Y-64435678D01*
X102247633Y-64407946D01*
X102248574Y-64399184D01*
X102250500Y-64385799D01*
X102250500Y-64372297D01*
X102250816Y-64363450D01*
X102254358Y-64313927D01*
X102254357Y-64313923D01*
X102253334Y-64309219D01*
X102250500Y-64282862D01*
X102250500Y-57995052D01*
X102270185Y-57928013D01*
X102290957Y-57903418D01*
X102390981Y-57812236D01*
X102525058Y-57634689D01*
X102624229Y-57435528D01*
X102630734Y-57412661D01*
X102668012Y-57353571D01*
X102731322Y-57324013D01*
X102800561Y-57333375D01*
X102853748Y-57378684D01*
X102869264Y-57412658D01*
X102875770Y-57435523D01*
X102875772Y-57435530D01*
X102875775Y-57435538D01*
X102974938Y-57634683D01*
X102974943Y-57634691D01*
X103109020Y-57812238D01*
X103273437Y-57962123D01*
X103273439Y-57962125D01*
X103289994Y-57972375D01*
X103462599Y-58079247D01*
X103462602Y-58079248D01*
X103465777Y-58081214D01*
X103512413Y-58133241D01*
X103524500Y-58186641D01*
X103524500Y-73570750D01*
X103504815Y-73637789D01*
X103452011Y-73683544D01*
X103407983Y-73693122D01*
X103408058Y-73693689D01*
X103401267Y-73694582D01*
X103400500Y-73694750D01*
X103399999Y-73694750D01*
X103256291Y-73713670D01*
X103256287Y-73713671D01*
X103122377Y-73769137D01*
X103007379Y-73857379D01*
X102919137Y-73972377D01*
X102863671Y-74106287D01*
X102863670Y-74106291D01*
X102844750Y-74249999D01*
X102844750Y-74250000D01*
X102863670Y-74393708D01*
X102863671Y-74393712D01*
X102919137Y-74527622D01*
X102919138Y-74527624D01*
X102919139Y-74527625D01*
X103007379Y-74642621D01*
X103122375Y-74730861D01*
X103256291Y-74786330D01*
X103400000Y-74805250D01*
X103400500Y-74805250D01*
X103400906Y-74805369D01*
X103408059Y-74806311D01*
X103407912Y-74807426D01*
X103467539Y-74824935D01*
X103513294Y-74877739D01*
X103524500Y-74929250D01*
X103524500Y-97967394D01*
X103531962Y-97990358D01*
X103536503Y-98009273D01*
X103539470Y-98028010D01*
X103540281Y-98033127D01*
X103551243Y-98054641D01*
X103558688Y-98072615D01*
X103566150Y-98095580D01*
X103580340Y-98115110D01*
X103590508Y-98131703D01*
X103601470Y-98153218D01*
X105138181Y-99689929D01*
X105171666Y-99751252D01*
X105174500Y-99777610D01*
X105174500Y-100717394D01*
X105181962Y-100740358D01*
X105186505Y-100759284D01*
X105189271Y-100776752D01*
X105180314Y-100846045D01*
X105177798Y-100851416D01*
X105082595Y-101042611D01*
X105024244Y-101247689D01*
X105013471Y-101363951D01*
X104987685Y-101428888D01*
X104943130Y-101460804D01*
X104979503Y-101481668D01*
X105011693Y-101543681D01*
X105013471Y-101556048D01*
X105024244Y-101672310D01*
X105082596Y-101877392D01*
X105082596Y-101877394D01*
X105177632Y-102068253D01*
X105177634Y-102068255D01*
X105306128Y-102238407D01*
X105463698Y-102382052D01*
X105644981Y-102494298D01*
X105843802Y-102571321D01*
X106040613Y-102608111D01*
X106102893Y-102639779D01*
X106138166Y-102700092D01*
X106135232Y-102769900D01*
X106095023Y-102827040D01*
X106040613Y-102851888D01*
X105843802Y-102888679D01*
X105843799Y-102888679D01*
X105843799Y-102888680D01*
X105644982Y-102965701D01*
X105644980Y-102965702D01*
X105463699Y-103077947D01*
X105306127Y-103221593D01*
X105177632Y-103391746D01*
X105082596Y-103582605D01*
X105082596Y-103582607D01*
X105024244Y-103787689D01*
X105013471Y-103903951D01*
X104987685Y-103968888D01*
X104943130Y-104000804D01*
X104979503Y-104021668D01*
X105011693Y-104083681D01*
X105013470Y-104096047D01*
X105024244Y-104212310D01*
X105070679Y-104375511D01*
X105082596Y-104417392D01*
X105082596Y-104417394D01*
X105177632Y-104608253D01*
X105306127Y-104778406D01*
X105306128Y-104778407D01*
X105463698Y-104922052D01*
X105644981Y-105034298D01*
X105843802Y-105111321D01*
X106053390Y-105150500D01*
X106053392Y-105150500D01*
X106266608Y-105150500D01*
X106266610Y-105150500D01*
X106476198Y-105111321D01*
X106675019Y-105034298D01*
X106856302Y-104922052D01*
X107013872Y-104778407D01*
X107142366Y-104608255D01*
X107178310Y-104536069D01*
X107237403Y-104417394D01*
X107237403Y-104417393D01*
X107237405Y-104417389D01*
X107295756Y-104212310D01*
X107306529Y-104096047D01*
X107332315Y-104031111D01*
X107374622Y-104000804D01*
X107483130Y-104000804D01*
X107519503Y-104021668D01*
X107551693Y-104083681D01*
X107553470Y-104096047D01*
X107564244Y-104212310D01*
X107610679Y-104375511D01*
X107622596Y-104417392D01*
X107622596Y-104417394D01*
X107717632Y-104608253D01*
X107846127Y-104778406D01*
X107846128Y-104778407D01*
X108003698Y-104922052D01*
X108184981Y-105034298D01*
X108383802Y-105111321D01*
X108593390Y-105150500D01*
X108593392Y-105150500D01*
X108806608Y-105150500D01*
X108806610Y-105150500D01*
X109016198Y-105111321D01*
X109215019Y-105034298D01*
X109396302Y-104922052D01*
X109553872Y-104778407D01*
X109682366Y-104608255D01*
X109718310Y-104536069D01*
X109777403Y-104417394D01*
X109777403Y-104417393D01*
X109777405Y-104417389D01*
X109835756Y-104212310D01*
X109846529Y-104096047D01*
X109872315Y-104031111D01*
X109914622Y-104000804D01*
X110023130Y-104000804D01*
X110059503Y-104021668D01*
X110091693Y-104083681D01*
X110093470Y-104096047D01*
X110104244Y-104212310D01*
X110150679Y-104375511D01*
X110162596Y-104417392D01*
X110162596Y-104417394D01*
X110257632Y-104608253D01*
X110386127Y-104778406D01*
X110386128Y-104778407D01*
X110543698Y-104922052D01*
X110724981Y-105034298D01*
X110923802Y-105111321D01*
X111133390Y-105150500D01*
X111133392Y-105150500D01*
X111346608Y-105150500D01*
X111346610Y-105150500D01*
X111556198Y-105111321D01*
X111755019Y-105034298D01*
X111936302Y-104922052D01*
X112093872Y-104778407D01*
X112222366Y-104608255D01*
X112258310Y-104536069D01*
X112317403Y-104417394D01*
X112317403Y-104417393D01*
X112317405Y-104417389D01*
X112375756Y-104212310D01*
X112386529Y-104096047D01*
X112412315Y-104031111D01*
X112456869Y-103999194D01*
X112420497Y-103978331D01*
X112388307Y-103916318D01*
X112386529Y-103903951D01*
X112385849Y-103896613D01*
X112375756Y-103787690D01*
X112317405Y-103582611D01*
X112317403Y-103582606D01*
X112317403Y-103582605D01*
X112222367Y-103391746D01*
X112093872Y-103221593D01*
X111936302Y-103077948D01*
X111755019Y-102965702D01*
X111755017Y-102965701D01*
X111655608Y-102927190D01*
X111556198Y-102888679D01*
X111346610Y-102849500D01*
X111133390Y-102849500D01*
X110923802Y-102888679D01*
X110923799Y-102888679D01*
X110923799Y-102888680D01*
X110724982Y-102965701D01*
X110724980Y-102965702D01*
X110543699Y-103077947D01*
X110386127Y-103221593D01*
X110257632Y-103391746D01*
X110162596Y-103582605D01*
X110162596Y-103582607D01*
X110104244Y-103787689D01*
X110093471Y-103903951D01*
X110067685Y-103968888D01*
X110023130Y-104000804D01*
X109914622Y-104000804D01*
X109916869Y-103999194D01*
X109880497Y-103978331D01*
X109848307Y-103916318D01*
X109846529Y-103903951D01*
X109845849Y-103896613D01*
X109835756Y-103787690D01*
X109777405Y-103582611D01*
X109777403Y-103582606D01*
X109777403Y-103582605D01*
X109682367Y-103391746D01*
X109553872Y-103221593D01*
X109396302Y-103077948D01*
X109215019Y-102965702D01*
X109215017Y-102965701D01*
X109115608Y-102927190D01*
X109016198Y-102888679D01*
X108819385Y-102851888D01*
X108757106Y-102820221D01*
X108721833Y-102759908D01*
X108724767Y-102690100D01*
X108764976Y-102632960D01*
X108819384Y-102608111D01*
X109016198Y-102571321D01*
X109215019Y-102494298D01*
X109396302Y-102382052D01*
X109553872Y-102238407D01*
X109682366Y-102068255D01*
X109714750Y-102003218D01*
X109777403Y-101877394D01*
X109777403Y-101877393D01*
X109777405Y-101877389D01*
X109835756Y-101672310D01*
X109855429Y-101460000D01*
X109835756Y-101247690D01*
X109777405Y-101042611D01*
X109777403Y-101042606D01*
X109777403Y-101042605D01*
X109682367Y-100851746D01*
X109553872Y-100681593D01*
X109445290Y-100582607D01*
X109396302Y-100537948D01*
X109215019Y-100425702D01*
X109215017Y-100425701D01*
X109115608Y-100387190D01*
X109016198Y-100348679D01*
X108806610Y-100309500D01*
X108593390Y-100309500D01*
X108383802Y-100348679D01*
X108383799Y-100348679D01*
X108383799Y-100348680D01*
X108184982Y-100425701D01*
X108184980Y-100425702D01*
X108003699Y-100537947D01*
X107846127Y-100681593D01*
X107717632Y-100851746D01*
X107622596Y-101042605D01*
X107622596Y-101042607D01*
X107564244Y-101247689D01*
X107553471Y-101363951D01*
X107527685Y-101428888D01*
X107483130Y-101460804D01*
X107519503Y-101481668D01*
X107551693Y-101543681D01*
X107553471Y-101556048D01*
X107564244Y-101672310D01*
X107622596Y-101877392D01*
X107622596Y-101877394D01*
X107717632Y-102068253D01*
X107717634Y-102068255D01*
X107846128Y-102238407D01*
X108003698Y-102382052D01*
X108184981Y-102494298D01*
X108383802Y-102571321D01*
X108580613Y-102608111D01*
X108642893Y-102639779D01*
X108678166Y-102700092D01*
X108675232Y-102769900D01*
X108635023Y-102827040D01*
X108580613Y-102851888D01*
X108383802Y-102888679D01*
X108383799Y-102888679D01*
X108383799Y-102888680D01*
X108184982Y-102965701D01*
X108184980Y-102965702D01*
X108003699Y-103077947D01*
X107846127Y-103221593D01*
X107717632Y-103391746D01*
X107622596Y-103582605D01*
X107622596Y-103582607D01*
X107564244Y-103787689D01*
X107553471Y-103903951D01*
X107527685Y-103968888D01*
X107483130Y-104000804D01*
X107374622Y-104000804D01*
X107376869Y-103999194D01*
X107340497Y-103978331D01*
X107308307Y-103916318D01*
X107306529Y-103903951D01*
X107305849Y-103896613D01*
X107295756Y-103787690D01*
X107237405Y-103582611D01*
X107237403Y-103582606D01*
X107237403Y-103582605D01*
X107142367Y-103391746D01*
X107013872Y-103221593D01*
X106856302Y-103077948D01*
X106675019Y-102965702D01*
X106675017Y-102965701D01*
X106575608Y-102927190D01*
X106476198Y-102888679D01*
X106279385Y-102851888D01*
X106217106Y-102820221D01*
X106181833Y-102759908D01*
X106184767Y-102690100D01*
X106224976Y-102632960D01*
X106279384Y-102608111D01*
X106476198Y-102571321D01*
X106675019Y-102494298D01*
X106856302Y-102382052D01*
X107013872Y-102238407D01*
X107142366Y-102068255D01*
X107174750Y-102003218D01*
X107237403Y-101877394D01*
X107237403Y-101877393D01*
X107237405Y-101877389D01*
X107295756Y-101672310D01*
X107306529Y-101556047D01*
X107332315Y-101491111D01*
X107376869Y-101459194D01*
X107340497Y-101438331D01*
X107308307Y-101376318D01*
X107306529Y-101363951D01*
X107305849Y-101356613D01*
X107295756Y-101247690D01*
X107237405Y-101042611D01*
X107237403Y-101042606D01*
X107237403Y-101042605D01*
X107142367Y-100851746D01*
X107013872Y-100681593D01*
X106905290Y-100582607D01*
X106856302Y-100537948D01*
X106675019Y-100425702D01*
X106675017Y-100425701D01*
X106575608Y-100387190D01*
X106476198Y-100348679D01*
X106266610Y-100309500D01*
X106149500Y-100309500D01*
X106082461Y-100289815D01*
X106036706Y-100237011D01*
X106025500Y-100185500D01*
X106025500Y-99482608D01*
X106025499Y-99482604D01*
X106018039Y-99459645D01*
X106013495Y-99440721D01*
X106009719Y-99416874D01*
X105998753Y-99395354D01*
X105991308Y-99377378D01*
X105983849Y-99354420D01*
X105983849Y-99354419D01*
X105969649Y-99334875D01*
X105959493Y-99318300D01*
X105948528Y-99296780D01*
X105853220Y-99201472D01*
X104411819Y-97760071D01*
X104378334Y-97698748D01*
X104375500Y-97672390D01*
X104375500Y-58226909D01*
X104395185Y-58159870D01*
X104447989Y-58114115D01*
X104454694Y-58111287D01*
X104537401Y-58079247D01*
X104726562Y-57962124D01*
X104890981Y-57812236D01*
X105025058Y-57634689D01*
X105124229Y-57435528D01*
X105185115Y-57221536D01*
X105205643Y-57000000D01*
X105185115Y-56778464D01*
X105124229Y-56564472D01*
X105124224Y-56564461D01*
X105025061Y-56365316D01*
X105025056Y-56365308D01*
X104890979Y-56187761D01*
X104726562Y-56037876D01*
X104726560Y-56037874D01*
X104537404Y-55920754D01*
X104537398Y-55920752D01*
X104329940Y-55840382D01*
X104111243Y-55799500D01*
X103888757Y-55799500D01*
X103670060Y-55840382D01*
X103538864Y-55891207D01*
X103462601Y-55920752D01*
X103462595Y-55920754D01*
X103273439Y-56037874D01*
X103273437Y-56037876D01*
X103109020Y-56187761D01*
X102974943Y-56365308D01*
X102974938Y-56365316D01*
X102875775Y-56564461D01*
X102875769Y-56564476D01*
X102869266Y-56587335D01*
X102831987Y-56646429D01*
X102768677Y-56675986D01*
X102699438Y-56666624D01*
X102646251Y-56621314D01*
X102630734Y-56587335D01*
X102624230Y-56564476D01*
X102624229Y-56564472D01*
X102624224Y-56564461D01*
X102525061Y-56365316D01*
X102525056Y-56365308D01*
X102489459Y-56318171D01*
X102390981Y-56187764D01*
X102390978Y-56187761D01*
X102390974Y-56187757D01*
X102290962Y-56096584D01*
X102254680Y-56036873D01*
X102250500Y-56004947D01*
X102250500Y-53608675D01*
X102270185Y-53541636D01*
X102286815Y-53520998D01*
X102606431Y-53201381D01*
X102627068Y-53184751D01*
X102631128Y-53182143D01*
X102663640Y-53144620D01*
X102669674Y-53138139D01*
X102679220Y-53128594D01*
X102687314Y-53117780D01*
X102692852Y-53110906D01*
X102725377Y-53073373D01*
X102727377Y-53068992D01*
X102740911Y-53046183D01*
X102743795Y-53042331D01*
X102761146Y-52995807D01*
X102764533Y-52987633D01*
X102773563Y-52967861D01*
X102785165Y-52942457D01*
X102785851Y-52937683D01*
X102792407Y-52911996D01*
X102794091Y-52907483D01*
X102794091Y-52907478D01*
X102794092Y-52907477D01*
X102795650Y-52885678D01*
X102797633Y-52857946D01*
X102798574Y-52849184D01*
X102800500Y-52835799D01*
X102800500Y-52822297D01*
X102800816Y-52813450D01*
X102804358Y-52763927D01*
X102804357Y-52763923D01*
X102803334Y-52759219D01*
X102800500Y-52732862D01*
X102800500Y-50215515D01*
X106649500Y-50215515D01*
X106664196Y-50411620D01*
X106664197Y-50411625D01*
X106722576Y-50667402D01*
X106722578Y-50667411D01*
X106722580Y-50667416D01*
X106818432Y-50911643D01*
X106949614Y-51138857D01*
X107081736Y-51304533D01*
X107113198Y-51343985D01*
X107294753Y-51512441D01*
X107305521Y-51522433D01*
X107522296Y-51670228D01*
X107522301Y-51670230D01*
X107522302Y-51670231D01*
X107522303Y-51670232D01*
X107647843Y-51730688D01*
X107758673Y-51784061D01*
X107758674Y-51784061D01*
X107758677Y-51784063D01*
X108009385Y-51861396D01*
X108268818Y-51900500D01*
X108531182Y-51900500D01*
X108790615Y-51861396D01*
X109041323Y-51784063D01*
X109277704Y-51670228D01*
X109494479Y-51522433D01*
X109686805Y-51343981D01*
X109850386Y-51138857D01*
X109981568Y-50911643D01*
X110077420Y-50667416D01*
X110135802Y-50411630D01*
X110135803Y-50411620D01*
X110150499Y-50215515D01*
X110150500Y-50215492D01*
X110150500Y-49784507D01*
X110150499Y-49784484D01*
X110135803Y-49588379D01*
X110135802Y-49588374D01*
X110135802Y-49588370D01*
X110077420Y-49332584D01*
X109981568Y-49088357D01*
X109850386Y-48861143D01*
X109686805Y-48656019D01*
X109686804Y-48656018D01*
X109686801Y-48656014D01*
X109494479Y-48477567D01*
X109277704Y-48329772D01*
X109277700Y-48329770D01*
X109277697Y-48329768D01*
X109277696Y-48329767D01*
X109041325Y-48215938D01*
X109041327Y-48215938D01*
X108790623Y-48138606D01*
X108790619Y-48138605D01*
X108790615Y-48138604D01*
X108665823Y-48119794D01*
X108531187Y-48099500D01*
X108531182Y-48099500D01*
X108268818Y-48099500D01*
X108268812Y-48099500D01*
X108107247Y-48123853D01*
X108009385Y-48138604D01*
X108009382Y-48138605D01*
X108009376Y-48138606D01*
X107758673Y-48215938D01*
X107522303Y-48329767D01*
X107522302Y-48329768D01*
X107305520Y-48477567D01*
X107113198Y-48656014D01*
X106949614Y-48861143D01*
X106818432Y-49088356D01*
X106722582Y-49332578D01*
X106722576Y-49332597D01*
X106664197Y-49588374D01*
X106664196Y-49588379D01*
X106649500Y-49784484D01*
X106649500Y-50215515D01*
X102800500Y-50215515D01*
X102800500Y-40217138D01*
X102803334Y-40190779D01*
X102804358Y-40186073D01*
X102800816Y-40136547D01*
X102800500Y-40127701D01*
X102800500Y-40114200D01*
X102798579Y-40100845D01*
X102797632Y-40092035D01*
X102794091Y-40042519D01*
X102794091Y-40042515D01*
X102792408Y-40038004D01*
X102785851Y-40012316D01*
X102785165Y-40007543D01*
X102764536Y-39962372D01*
X102761149Y-39954195D01*
X102754391Y-39936080D01*
X102743795Y-39907669D01*
X102740908Y-39903813D01*
X102727379Y-39881012D01*
X102725377Y-39876627D01*
X102692857Y-39839097D01*
X102687304Y-39832206D01*
X102679220Y-39821406D01*
X102679214Y-39821400D01*
X102679210Y-39821395D01*
X102669676Y-39811861D01*
X102663643Y-39805382D01*
X102631129Y-39767858D01*
X102631125Y-39767854D01*
X102627066Y-39765246D01*
X102606428Y-39748614D01*
X102286819Y-39429005D01*
X102253334Y-39367682D01*
X102250500Y-39341324D01*
X102250500Y-29995052D01*
X102270185Y-29928013D01*
X102290957Y-29903418D01*
X102390981Y-29812236D01*
X102525058Y-29634689D01*
X102624229Y-29435528D01*
X102630734Y-29412661D01*
X102668012Y-29353571D01*
X102731322Y-29324013D01*
X102800561Y-29333375D01*
X102853748Y-29378684D01*
X102869264Y-29412658D01*
X102875770Y-29435523D01*
X102875772Y-29435530D01*
X102875775Y-29435538D01*
X102974938Y-29634683D01*
X102974943Y-29634691D01*
X103109020Y-29812238D01*
X103273437Y-29962123D01*
X103273439Y-29962125D01*
X103462595Y-30079245D01*
X103462596Y-30079245D01*
X103462599Y-30079247D01*
X103670060Y-30159618D01*
X103888757Y-30200500D01*
X103888759Y-30200500D01*
X104111242Y-30200500D01*
X104111243Y-30200500D01*
X104289223Y-30167229D01*
X104358736Y-30174259D01*
X104399688Y-30201436D01*
X115038181Y-40839929D01*
X115071666Y-40901252D01*
X115074500Y-40927610D01*
X115074500Y-103491380D01*
X115054815Y-103558419D01*
X115002011Y-103604174D01*
X114932853Y-103614118D01*
X114869297Y-103585093D01*
X114839500Y-103546651D01*
X114762367Y-103391746D01*
X114633872Y-103221593D01*
X114476302Y-103077948D01*
X114295019Y-102965702D01*
X114295017Y-102965701D01*
X114195608Y-102927190D01*
X114096198Y-102888679D01*
X113886610Y-102849500D01*
X113673390Y-102849500D01*
X113463802Y-102888679D01*
X113463799Y-102888679D01*
X113463799Y-102888680D01*
X113264982Y-102965701D01*
X113264980Y-102965702D01*
X113083699Y-103077947D01*
X112926127Y-103221593D01*
X112797632Y-103391746D01*
X112702596Y-103582605D01*
X112702596Y-103582607D01*
X112644244Y-103787689D01*
X112633471Y-103903951D01*
X112607685Y-103968888D01*
X112563130Y-104000804D01*
X112599503Y-104021668D01*
X112631693Y-104083681D01*
X112633470Y-104096047D01*
X112644244Y-104212310D01*
X112690679Y-104375511D01*
X112702596Y-104417392D01*
X112702596Y-104417394D01*
X112797632Y-104608253D01*
X112926127Y-104778406D01*
X112926128Y-104778407D01*
X113083698Y-104922052D01*
X113264981Y-105034298D01*
X113463802Y-105111321D01*
X113673390Y-105150500D01*
X113673392Y-105150500D01*
X113886608Y-105150500D01*
X113886610Y-105150500D01*
X114096198Y-105111321D01*
X114295019Y-105034298D01*
X114476302Y-104922052D01*
X114633872Y-104778407D01*
X114762366Y-104608255D01*
X114839500Y-104453346D01*
X114887002Y-104402111D01*
X114954665Y-104384689D01*
X115021005Y-104406614D01*
X115064961Y-104460925D01*
X115074500Y-104508619D01*
X115074500Y-105600500D01*
X115054815Y-105667539D01*
X115002011Y-105713294D01*
X114950500Y-105724500D01*
X105277610Y-105724500D01*
X105210571Y-105704815D01*
X105189929Y-105688181D01*
X104961819Y-105460071D01*
X104928334Y-105398748D01*
X104925500Y-105372390D01*
X104925500Y-104982608D01*
X104925499Y-104982604D01*
X104918039Y-104959645D01*
X104913495Y-104940721D01*
X104909719Y-104916874D01*
X104898753Y-104895354D01*
X104891308Y-104877378D01*
X104883849Y-104854420D01*
X104883849Y-104854419D01*
X104869651Y-104834878D01*
X104859492Y-104818299D01*
X104848528Y-104796780D01*
X104753220Y-104701472D01*
X104684612Y-104632864D01*
X104651127Y-104571541D01*
X104656111Y-104501849D01*
X104661286Y-104489924D01*
X104697405Y-104417389D01*
X104755756Y-104212310D01*
X104766529Y-104096047D01*
X104792315Y-104031111D01*
X104836869Y-103999194D01*
X104800497Y-103978331D01*
X104768307Y-103916318D01*
X104766529Y-103903951D01*
X104765849Y-103896613D01*
X104755756Y-103787690D01*
X104697405Y-103582611D01*
X104697403Y-103582606D01*
X104697403Y-103582605D01*
X104602367Y-103391746D01*
X104473872Y-103221593D01*
X104316302Y-103077948D01*
X104135019Y-102965702D01*
X104135017Y-102965701D01*
X104035608Y-102927190D01*
X103936198Y-102888679D01*
X103739385Y-102851888D01*
X103677106Y-102820221D01*
X103641833Y-102759908D01*
X103644767Y-102690100D01*
X103684976Y-102632960D01*
X103739384Y-102608111D01*
X103936198Y-102571321D01*
X104135019Y-102494298D01*
X104316302Y-102382052D01*
X104473872Y-102238407D01*
X104602366Y-102068255D01*
X104634750Y-102003218D01*
X104697403Y-101877394D01*
X104697403Y-101877393D01*
X104697405Y-101877389D01*
X104755756Y-101672310D01*
X104766529Y-101556047D01*
X104792315Y-101491111D01*
X104836869Y-101459194D01*
X104800497Y-101438331D01*
X104768307Y-101376318D01*
X104766529Y-101363951D01*
X104765849Y-101356613D01*
X104755756Y-101247690D01*
X104697405Y-101042611D01*
X104697403Y-101042606D01*
X104697403Y-101042605D01*
X104602367Y-100851746D01*
X104473872Y-100681593D01*
X104365290Y-100582607D01*
X104316302Y-100537948D01*
X104135019Y-100425702D01*
X104135017Y-100425701D01*
X104035608Y-100387190D01*
X103936198Y-100348679D01*
X103726610Y-100309500D01*
X103513390Y-100309500D01*
X103303802Y-100348679D01*
X103303799Y-100348679D01*
X103303799Y-100348680D01*
X103104982Y-100425701D01*
X103104980Y-100425702D01*
X102923699Y-100537947D01*
X102766127Y-100681593D01*
X102637632Y-100851746D01*
X102542596Y-101042605D01*
X102542596Y-101042607D01*
X102484244Y-101247689D01*
X102473471Y-101363951D01*
X102447685Y-101428888D01*
X102403130Y-101460804D01*
X102439503Y-101481668D01*
X102471693Y-101543681D01*
X102473471Y-101556048D01*
X102484244Y-101672310D01*
X102542596Y-101877392D01*
X102542596Y-101877394D01*
X102637632Y-102068253D01*
X102637634Y-102068255D01*
X102766128Y-102238407D01*
X102923698Y-102382052D01*
X103104981Y-102494298D01*
X103303802Y-102571321D01*
X103500613Y-102608111D01*
X103562893Y-102639779D01*
X103598166Y-102700092D01*
X103595232Y-102769900D01*
X103555023Y-102827040D01*
X103500613Y-102851888D01*
X103303802Y-102888679D01*
X103303799Y-102888679D01*
X103303799Y-102888680D01*
X103104982Y-102965701D01*
X103104980Y-102965702D01*
X102923699Y-103077947D01*
X102766127Y-103221593D01*
X102637632Y-103391746D01*
X102542596Y-103582605D01*
X102542596Y-103582607D01*
X102484244Y-103787689D01*
X102473471Y-103903951D01*
X102447685Y-103968888D01*
X102403130Y-104000804D01*
X102439503Y-104021668D01*
X102471693Y-104083681D01*
X102473470Y-104096047D01*
X102484244Y-104212310D01*
X102530679Y-104375511D01*
X102542596Y-104417392D01*
X102542596Y-104417394D01*
X102637632Y-104608253D01*
X102766127Y-104778406D01*
X102766128Y-104778407D01*
X102923698Y-104922052D01*
X103104981Y-105034298D01*
X103303802Y-105111321D01*
X103513390Y-105150500D01*
X103513392Y-105150500D01*
X103726608Y-105150500D01*
X103726610Y-105150500D01*
X103891645Y-105119649D01*
X103961158Y-105126680D01*
X104002109Y-105153857D01*
X104038181Y-105189929D01*
X104071666Y-105251252D01*
X104074500Y-105277610D01*
X104074500Y-105667394D01*
X104081962Y-105690358D01*
X104086503Y-105709273D01*
X104087140Y-105713294D01*
X104090281Y-105733127D01*
X104101243Y-105754641D01*
X104108688Y-105772615D01*
X104116150Y-105795580D01*
X104130340Y-105815110D01*
X104140508Y-105831703D01*
X104151470Y-105853218D01*
X104151472Y-105853220D01*
X104175446Y-105877194D01*
X104701472Y-106403220D01*
X104796780Y-106498528D01*
X104818300Y-106509493D01*
X104834875Y-106519649D01*
X104854419Y-106533849D01*
X104877381Y-106541309D01*
X104895354Y-106548753D01*
X104916874Y-106559719D01*
X104940724Y-106563495D01*
X104959645Y-106568039D01*
X104981489Y-106575136D01*
X104982607Y-106575500D01*
X105016512Y-106575500D01*
X115456755Y-106575500D01*
X115476152Y-106577026D01*
X115500000Y-106580804D01*
X115500002Y-106580804D01*
X115633121Y-106559720D01*
X115633121Y-106559719D01*
X115633126Y-106559719D01*
X115753220Y-106498528D01*
X115848528Y-106403220D01*
X115909719Y-106283126D01*
X115909719Y-106283124D01*
X115909720Y-106283123D01*
X115909720Y-106283122D01*
X115919407Y-106221962D01*
X115919407Y-106221961D01*
X115930804Y-106150002D01*
X115930804Y-106149999D01*
X115927027Y-106126153D01*
X115925500Y-106106754D01*
X115925500Y-40632606D01*
X115925499Y-40632601D01*
X115918039Y-40609643D01*
X115913495Y-40590719D01*
X115909719Y-40566874D01*
X115898757Y-40545362D01*
X115891309Y-40527379D01*
X115883850Y-40504420D01*
X115883850Y-40504419D01*
X115869653Y-40484878D01*
X115859491Y-40468296D01*
X115848528Y-40446780D01*
X115753220Y-40351472D01*
X105091927Y-29690179D01*
X105058442Y-29628856D01*
X105063426Y-29559164D01*
X105068596Y-29547250D01*
X105124229Y-29435528D01*
X105185115Y-29221536D01*
X105205643Y-29000000D01*
X105185115Y-28778464D01*
X105124229Y-28564472D01*
X105124224Y-28564461D01*
X105025061Y-28365316D01*
X105025056Y-28365308D01*
X104890979Y-28187761D01*
X104726562Y-28037876D01*
X104726560Y-28037874D01*
X104537404Y-27920754D01*
X104537398Y-27920752D01*
X104329940Y-27840382D01*
X104111243Y-27799500D01*
X103888757Y-27799500D01*
X103670060Y-27840382D01*
X103538864Y-27891207D01*
X103462601Y-27920752D01*
X103462595Y-27920754D01*
X103273439Y-28037874D01*
X103273437Y-28037876D01*
X103109020Y-28187761D01*
X102974943Y-28365308D01*
X102974938Y-28365316D01*
X102875775Y-28564461D01*
X102875769Y-28564476D01*
X102869266Y-28587335D01*
X102831987Y-28646429D01*
X102768677Y-28675986D01*
X102699438Y-28666624D01*
X102646251Y-28621314D01*
X102630734Y-28587335D01*
X102624230Y-28564476D01*
X102624229Y-28564472D01*
X102624224Y-28564461D01*
X102525061Y-28365316D01*
X102525056Y-28365308D01*
X102390979Y-28187761D01*
X102226562Y-28037876D01*
X102226560Y-28037874D01*
X102037404Y-27920754D01*
X102037398Y-27920752D01*
X101829940Y-27840382D01*
X101611243Y-27799500D01*
X101388757Y-27799500D01*
X101170060Y-27840382D01*
X101038864Y-27891207D01*
X100962601Y-27920752D01*
X100962595Y-27920754D01*
X100773439Y-28037874D01*
X100773437Y-28037876D01*
X100609020Y-28187761D01*
X100474943Y-28365308D01*
X100474938Y-28365316D01*
X100375775Y-28564461D01*
X100375769Y-28564476D01*
X100314885Y-28778462D01*
X100314884Y-28778464D01*
X100294357Y-28999999D01*
X100294357Y-29000000D01*
X100314884Y-29221535D01*
X100314885Y-29221537D01*
X100375769Y-29435523D01*
X100375775Y-29435538D01*
X100474938Y-29634683D01*
X100474943Y-29634691D01*
X100609020Y-29812238D01*
X100773437Y-29962123D01*
X100773439Y-29962125D01*
X100962595Y-30079245D01*
X100962597Y-30079246D01*
X100962599Y-30079247D01*
X101170060Y-30159618D01*
X101170066Y-30159619D01*
X101170293Y-30159707D01*
X101225695Y-30202280D01*
X101249286Y-30268046D01*
X101249500Y-30275334D01*
X101249500Y-39532858D01*
X101246667Y-39559206D01*
X101245641Y-39563927D01*
X101245641Y-39563929D01*
X101245641Y-39563930D01*
X101249184Y-39613461D01*
X101249500Y-39622308D01*
X101249500Y-39635797D01*
X101251420Y-39649154D01*
X101252365Y-39657946D01*
X101255909Y-39707486D01*
X101257593Y-39712000D01*
X101264148Y-39737682D01*
X101264834Y-39742455D01*
X101264835Y-39742457D01*
X101276433Y-39767854D01*
X101285457Y-39787612D01*
X101288845Y-39795790D01*
X101306203Y-39842329D01*
X101309096Y-39846194D01*
X101322617Y-39868983D01*
X101324619Y-39873367D01*
X101324622Y-39873372D01*
X101324623Y-39873373D01*
X101357144Y-39910904D01*
X101362688Y-39917785D01*
X101370779Y-39928593D01*
X101380333Y-39938147D01*
X101386353Y-39944614D01*
X101418872Y-39982143D01*
X101418874Y-39982145D01*
X101422928Y-39984750D01*
X101443571Y-40001385D01*
X101763181Y-40320995D01*
X101796666Y-40382318D01*
X101799500Y-40408676D01*
X101799500Y-52541323D01*
X101779815Y-52608362D01*
X101763181Y-52629004D01*
X101443569Y-52948615D01*
X101422941Y-52965240D01*
X101418880Y-52967850D01*
X101418867Y-52967861D01*
X101386353Y-53005384D01*
X101380329Y-53011854D01*
X101370780Y-53021403D01*
X101362678Y-53032226D01*
X101357132Y-53039108D01*
X101324624Y-53076625D01*
X101324617Y-53076636D01*
X101322615Y-53081020D01*
X101309100Y-53103799D01*
X101306206Y-53107664D01*
X101306200Y-53107675D01*
X101288851Y-53154191D01*
X101285466Y-53162365D01*
X101264835Y-53207543D01*
X101264833Y-53207550D01*
X101264146Y-53212327D01*
X101257598Y-53237986D01*
X101255910Y-53242513D01*
X101255909Y-53242516D01*
X101252365Y-53292054D01*
X101251420Y-53300845D01*
X101249500Y-53314200D01*
X101249500Y-53327690D01*
X101249184Y-53336537D01*
X101245641Y-53386069D01*
X101245641Y-53386073D01*
X101246666Y-53390785D01*
X101249500Y-53417143D01*
X101249500Y-55724664D01*
X101229815Y-55791703D01*
X101177011Y-55837458D01*
X101170294Y-55840290D01*
X100962610Y-55920747D01*
X100962595Y-55920754D01*
X100773439Y-56037874D01*
X100773437Y-56037876D01*
X100609020Y-56187761D01*
X100474943Y-56365308D01*
X100474938Y-56365316D01*
X100375775Y-56564461D01*
X100375769Y-56564476D01*
X100314885Y-56778462D01*
X100314884Y-56778464D01*
X100294357Y-56999999D01*
X100294357Y-57000000D01*
X100314884Y-57221535D01*
X100314885Y-57221537D01*
X100375769Y-57435523D01*
X100375775Y-57435538D01*
X100474938Y-57634683D01*
X100474943Y-57634691D01*
X100609020Y-57812238D01*
X100773437Y-57962123D01*
X100773439Y-57962125D01*
X100962595Y-58079245D01*
X100962597Y-58079246D01*
X100962599Y-58079247D01*
X101170060Y-58159618D01*
X101170066Y-58159619D01*
X101170293Y-58159707D01*
X101225695Y-58202280D01*
X101249286Y-58268046D01*
X101249500Y-58275334D01*
X101249500Y-64091323D01*
X101229815Y-64158362D01*
X101213181Y-64179004D01*
X93743568Y-71648616D01*
X93722938Y-71665243D01*
X93718876Y-71667854D01*
X93718867Y-71667861D01*
X93686353Y-71705384D01*
X93680329Y-71711854D01*
X93670780Y-71721403D01*
X93662678Y-71732226D01*
X93657132Y-71739108D01*
X93624624Y-71776625D01*
X93624617Y-71776636D01*
X93622615Y-71781020D01*
X93609100Y-71803799D01*
X93606206Y-71807664D01*
X93606200Y-71807675D01*
X93588851Y-71854191D01*
X93585466Y-71862365D01*
X93564835Y-71907543D01*
X93564833Y-71907550D01*
X93564146Y-71912327D01*
X93557598Y-71937986D01*
X93555910Y-71942513D01*
X93555909Y-71942516D01*
X93552365Y-71992054D01*
X93551420Y-72000845D01*
X93549500Y-72014200D01*
X93549500Y-72027690D01*
X93549184Y-72036537D01*
X93545641Y-72086069D01*
X93545641Y-72086073D01*
X93546666Y-72090785D01*
X93549500Y-72117143D01*
X93549500Y-104769602D01*
X93529815Y-104836641D01*
X93477011Y-104882396D01*
X93407853Y-104892340D01*
X93344297Y-104863315D01*
X93325187Y-104842494D01*
X93319658Y-104834885D01*
X93309491Y-104818296D01*
X93298528Y-104796780D01*
X93203220Y-104701472D01*
X90111819Y-101610071D01*
X90078334Y-101548748D01*
X90075500Y-101522390D01*
X90075500Y-87382610D01*
X90075500Y-87382607D01*
X90068036Y-87359639D01*
X90063496Y-87340728D01*
X90059719Y-87316874D01*
X90048756Y-87295359D01*
X90041311Y-87277383D01*
X90033850Y-87254420D01*
X90019656Y-87234884D01*
X90009490Y-87218294D01*
X89998528Y-87196780D01*
X89903220Y-87101472D01*
X71485596Y-68683848D01*
X71452111Y-68622525D01*
X71457095Y-68552833D01*
X71498967Y-68496900D01*
X71525828Y-68481605D01*
X71527625Y-68480861D01*
X71642621Y-68392621D01*
X71730861Y-68277625D01*
X71786330Y-68143709D01*
X71792706Y-68095277D01*
X71820970Y-68031383D01*
X71827951Y-68023795D01*
X75523785Y-64327961D01*
X75585106Y-64294478D01*
X75595261Y-64292708D01*
X75643709Y-64286330D01*
X75777625Y-64230861D01*
X75892621Y-64142621D01*
X75980861Y-64027625D01*
X76036330Y-63893709D01*
X76055250Y-63750000D01*
X76036330Y-63606291D01*
X75980861Y-63472375D01*
X75892621Y-63357379D01*
X75777625Y-63269139D01*
X75777624Y-63269138D01*
X75777622Y-63269137D01*
X75643712Y-63213671D01*
X75643710Y-63213670D01*
X75643709Y-63213670D01*
X75571854Y-63204210D01*
X75500001Y-63194750D01*
X75499999Y-63194750D01*
X75356291Y-63213670D01*
X75356287Y-63213671D01*
X75222377Y-63269137D01*
X75107379Y-63357379D01*
X75019137Y-63472377D01*
X74963670Y-63606289D01*
X74957293Y-63654722D01*
X74929025Y-63718618D01*
X74922035Y-63726215D01*
X71226215Y-67422035D01*
X71164892Y-67455520D01*
X71154722Y-67457293D01*
X71106289Y-67463670D01*
X70972377Y-67519137D01*
X70857379Y-67607379D01*
X70769137Y-67722377D01*
X70768391Y-67724180D01*
X70767353Y-67725466D01*
X70765075Y-67729414D01*
X70764459Y-67729058D01*
X70724547Y-67778581D01*
X70658252Y-67800643D01*
X70590554Y-67783361D01*
X70566151Y-67764403D01*
X61688929Y-58887181D01*
X61655444Y-58825858D01*
X61660428Y-58756166D01*
X61702300Y-58700233D01*
X61767764Y-58675816D01*
X61776610Y-58675500D01*
X76858136Y-58675500D01*
X76925175Y-58695185D01*
X76933609Y-58701114D01*
X76972375Y-58730861D01*
X77106291Y-58786330D01*
X77233280Y-58803048D01*
X77249999Y-58805250D01*
X77250000Y-58805250D01*
X77250001Y-58805250D01*
X77264977Y-58803278D01*
X77393709Y-58786330D01*
X77527625Y-58730861D01*
X77642621Y-58642621D01*
X77730861Y-58527625D01*
X77786330Y-58393709D01*
X77805250Y-58250000D01*
X77786330Y-58106291D01*
X77730861Y-57972375D01*
X77642621Y-57857379D01*
X77527625Y-57769139D01*
X77527624Y-57769138D01*
X77527622Y-57769137D01*
X77393712Y-57713671D01*
X77393710Y-57713670D01*
X77393709Y-57713670D01*
X77309481Y-57702581D01*
X77250001Y-57694750D01*
X77249999Y-57694750D01*
X77106291Y-57713670D01*
X77106287Y-57713671D01*
X76972377Y-57769137D01*
X76959703Y-57778862D01*
X76933621Y-57798875D01*
X76868455Y-57824070D01*
X76858136Y-57824500D01*
X70130155Y-57824500D01*
X70063116Y-57804815D01*
X70017361Y-57752011D01*
X70007417Y-57682853D01*
X70022972Y-57640054D01*
X70022503Y-57639821D01*
X70024554Y-57635700D01*
X70024729Y-57635221D01*
X70025056Y-57634691D01*
X70025058Y-57634689D01*
X70124229Y-57435528D01*
X70185115Y-57221536D01*
X70205643Y-57000000D01*
X70185115Y-56778464D01*
X70124229Y-56564472D01*
X70124224Y-56564461D01*
X70025061Y-56365316D01*
X70025056Y-56365308D01*
X69890979Y-56187761D01*
X69726562Y-56037876D01*
X69726560Y-56037874D01*
X69537404Y-55920754D01*
X69537398Y-55920752D01*
X69329940Y-55840382D01*
X69111243Y-55799500D01*
X68888757Y-55799500D01*
X68670060Y-55840382D01*
X68538864Y-55891207D01*
X68462601Y-55920752D01*
X68462595Y-55920754D01*
X68273439Y-56037874D01*
X68273437Y-56037876D01*
X68109020Y-56187761D01*
X67974943Y-56365308D01*
X67974938Y-56365316D01*
X67875775Y-56564461D01*
X67875769Y-56564476D01*
X67869266Y-56587335D01*
X67831987Y-56646429D01*
X67768677Y-56675986D01*
X67699438Y-56666624D01*
X67646251Y-56621314D01*
X67630734Y-56587335D01*
X67624230Y-56564476D01*
X67624229Y-56564472D01*
X67624224Y-56564461D01*
X67624222Y-56564456D01*
X67613500Y-56542923D01*
X67600500Y-56487652D01*
X67600500Y-50215515D01*
X71649500Y-50215515D01*
X71664196Y-50411620D01*
X71664197Y-50411625D01*
X71722576Y-50667402D01*
X71722578Y-50667411D01*
X71722580Y-50667416D01*
X71818432Y-50911643D01*
X71949614Y-51138857D01*
X72081736Y-51304533D01*
X72113198Y-51343985D01*
X72294753Y-51512441D01*
X72305521Y-51522433D01*
X72522296Y-51670228D01*
X72522301Y-51670230D01*
X72522302Y-51670231D01*
X72522303Y-51670232D01*
X72647843Y-51730688D01*
X72758673Y-51784061D01*
X72758674Y-51784061D01*
X72758677Y-51784063D01*
X73009385Y-51861396D01*
X73268818Y-51900500D01*
X73531182Y-51900500D01*
X73790615Y-51861396D01*
X74041323Y-51784063D01*
X74277704Y-51670228D01*
X74494479Y-51522433D01*
X74686805Y-51343981D01*
X74850386Y-51138857D01*
X74981568Y-50911643D01*
X75077420Y-50667416D01*
X75135802Y-50411630D01*
X75135803Y-50411620D01*
X75150499Y-50215515D01*
X97849500Y-50215515D01*
X97864196Y-50411620D01*
X97864197Y-50411625D01*
X97922576Y-50667402D01*
X97922578Y-50667411D01*
X97922580Y-50667416D01*
X98018432Y-50911643D01*
X98149614Y-51138857D01*
X98281736Y-51304533D01*
X98313198Y-51343985D01*
X98494753Y-51512441D01*
X98505521Y-51522433D01*
X98722296Y-51670228D01*
X98722301Y-51670230D01*
X98722302Y-51670231D01*
X98722303Y-51670232D01*
X98847843Y-51730688D01*
X98958673Y-51784061D01*
X98958674Y-51784061D01*
X98958677Y-51784063D01*
X99209385Y-51861396D01*
X99468818Y-51900500D01*
X99731182Y-51900500D01*
X99990615Y-51861396D01*
X100241323Y-51784063D01*
X100477704Y-51670228D01*
X100694479Y-51522433D01*
X100886805Y-51343981D01*
X101050386Y-51138857D01*
X101181568Y-50911643D01*
X101277420Y-50667416D01*
X101335802Y-50411630D01*
X101335803Y-50411620D01*
X101350499Y-50215515D01*
X101350500Y-50215492D01*
X101350500Y-49784507D01*
X101350499Y-49784484D01*
X101335803Y-49588379D01*
X101335802Y-49588374D01*
X101335802Y-49588370D01*
X101277420Y-49332584D01*
X101181568Y-49088357D01*
X101050386Y-48861143D01*
X100886805Y-48656019D01*
X100886804Y-48656018D01*
X100886801Y-48656014D01*
X100694479Y-48477567D01*
X100477704Y-48329772D01*
X100477700Y-48329770D01*
X100477697Y-48329768D01*
X100477696Y-48329767D01*
X100241325Y-48215938D01*
X100241327Y-48215938D01*
X99990623Y-48138606D01*
X99990619Y-48138605D01*
X99990615Y-48138604D01*
X99865823Y-48119794D01*
X99731187Y-48099500D01*
X99731182Y-48099500D01*
X99468818Y-48099500D01*
X99468812Y-48099500D01*
X99307247Y-48123853D01*
X99209385Y-48138604D01*
X99209382Y-48138605D01*
X99209376Y-48138606D01*
X98958673Y-48215938D01*
X98722303Y-48329767D01*
X98722302Y-48329768D01*
X98505520Y-48477567D01*
X98313198Y-48656014D01*
X98149614Y-48861143D01*
X98018432Y-49088356D01*
X97922582Y-49332578D01*
X97922576Y-49332597D01*
X97864197Y-49588374D01*
X97864196Y-49588379D01*
X97849500Y-49784484D01*
X97849500Y-50215515D01*
X75150499Y-50215515D01*
X75150500Y-50215492D01*
X75150500Y-49784507D01*
X75150499Y-49784484D01*
X75135803Y-49588379D01*
X75135802Y-49588374D01*
X75135802Y-49588370D01*
X75077420Y-49332584D01*
X74981568Y-49088357D01*
X74850386Y-48861143D01*
X74686805Y-48656019D01*
X74686804Y-48656018D01*
X74686801Y-48656014D01*
X74494479Y-48477567D01*
X74277704Y-48329772D01*
X74277700Y-48329770D01*
X74277697Y-48329768D01*
X74277696Y-48329767D01*
X74041325Y-48215938D01*
X74041327Y-48215938D01*
X73790623Y-48138606D01*
X73790619Y-48138605D01*
X73790615Y-48138604D01*
X73665823Y-48119794D01*
X73531187Y-48099500D01*
X73531182Y-48099500D01*
X73268818Y-48099500D01*
X73268812Y-48099500D01*
X73107247Y-48123853D01*
X73009385Y-48138604D01*
X73009382Y-48138605D01*
X73009376Y-48138606D01*
X72758673Y-48215938D01*
X72522303Y-48329767D01*
X72522302Y-48329768D01*
X72305520Y-48477567D01*
X72113198Y-48656014D01*
X71949614Y-48861143D01*
X71818432Y-49088356D01*
X71722582Y-49332578D01*
X71722576Y-49332597D01*
X71664197Y-49588374D01*
X71664196Y-49588379D01*
X71649500Y-49784484D01*
X71649500Y-50215515D01*
X67600500Y-50215515D01*
X67600500Y-47367138D01*
X67603334Y-47340779D01*
X67604358Y-47336073D01*
X67600816Y-47286547D01*
X67600500Y-47277701D01*
X67600500Y-47264200D01*
X67598579Y-47250845D01*
X67597632Y-47242035D01*
X67594091Y-47192519D01*
X67594091Y-47192515D01*
X67592408Y-47188004D01*
X67585851Y-47162316D01*
X67585165Y-47157543D01*
X67564536Y-47112372D01*
X67561149Y-47104195D01*
X67554391Y-47086080D01*
X67543795Y-47057669D01*
X67540908Y-47053813D01*
X67527379Y-47031012D01*
X67525377Y-47026627D01*
X67492857Y-46989097D01*
X67487304Y-46982206D01*
X67479220Y-46971406D01*
X67479214Y-46971400D01*
X67479210Y-46971395D01*
X67469676Y-46961861D01*
X67463643Y-46955382D01*
X67431129Y-46917858D01*
X67431125Y-46917854D01*
X67427066Y-46915246D01*
X67406428Y-46898614D01*
X67086819Y-46579005D01*
X67053334Y-46517682D01*
X67050500Y-46491324D01*
X67050500Y-34250000D01*
X70944750Y-34250000D01*
X70961552Y-34377625D01*
X70963670Y-34393708D01*
X70963671Y-34393712D01*
X71019137Y-34527622D01*
X71019138Y-34527624D01*
X71019139Y-34527625D01*
X71107379Y-34642621D01*
X71222375Y-34730861D01*
X71356291Y-34786330D01*
X71483280Y-34803048D01*
X71499999Y-34805250D01*
X71500000Y-34805250D01*
X71500001Y-34805250D01*
X71514977Y-34803278D01*
X71643709Y-34786330D01*
X71777625Y-34730861D01*
X71892621Y-34642621D01*
X71980861Y-34527625D01*
X72036330Y-34393709D01*
X72055250Y-34250000D01*
X72036330Y-34106291D01*
X71980861Y-33972375D01*
X71892621Y-33857379D01*
X71777625Y-33769139D01*
X71777624Y-33769138D01*
X71777622Y-33769137D01*
X71643712Y-33713671D01*
X71643710Y-33713670D01*
X71643709Y-33713670D01*
X71571854Y-33704210D01*
X71500001Y-33694750D01*
X71499999Y-33694750D01*
X71356291Y-33713670D01*
X71356287Y-33713671D01*
X71222377Y-33769137D01*
X71107379Y-33857379D01*
X71019137Y-33972377D01*
X70963671Y-34106287D01*
X70963670Y-34106291D01*
X70944750Y-34250000D01*
X67050500Y-34250000D01*
X67050500Y-30140203D01*
X67070185Y-30073164D01*
X67109221Y-30034777D01*
X67226562Y-29962124D01*
X67390981Y-29812236D01*
X67525058Y-29634689D01*
X67624229Y-29435528D01*
X67630734Y-29412661D01*
X67668012Y-29353571D01*
X67731322Y-29324013D01*
X67800561Y-29333375D01*
X67853748Y-29378684D01*
X67869264Y-29412658D01*
X67875770Y-29435523D01*
X67875772Y-29435530D01*
X67875775Y-29435538D01*
X67974938Y-29634683D01*
X67974943Y-29634691D01*
X68109020Y-29812238D01*
X68273437Y-29962123D01*
X68273439Y-29962125D01*
X68462595Y-30079245D01*
X68462596Y-30079245D01*
X68462599Y-30079247D01*
X68670060Y-30159618D01*
X68888757Y-30200500D01*
X68888759Y-30200500D01*
X69111241Y-30200500D01*
X69111243Y-30200500D01*
X69329940Y-30159618D01*
X69537401Y-30079247D01*
X69726562Y-29962124D01*
X69890981Y-29812236D01*
X70025058Y-29634689D01*
X70124229Y-29435528D01*
X70185115Y-29221536D01*
X70205643Y-29000000D01*
X70185115Y-28778464D01*
X70124229Y-28564472D01*
X70124224Y-28564461D01*
X70025061Y-28365316D01*
X70025056Y-28365308D01*
X69890979Y-28187761D01*
X69726562Y-28037876D01*
X69726560Y-28037874D01*
X69537404Y-27920754D01*
X69537398Y-27920752D01*
X69329940Y-27840382D01*
X69111243Y-27799500D01*
X68888757Y-27799500D01*
X68670060Y-27840382D01*
X68538864Y-27891207D01*
X68462601Y-27920752D01*
X68462595Y-27920754D01*
X68273439Y-28037874D01*
X68273437Y-28037876D01*
X68109020Y-28187761D01*
X67974943Y-28365308D01*
X67974938Y-28365316D01*
X67875775Y-28564461D01*
X67875769Y-28564476D01*
X67869266Y-28587335D01*
X67831987Y-28646429D01*
X67768677Y-28675986D01*
X67699438Y-28666624D01*
X67646251Y-28621314D01*
X67630734Y-28587335D01*
X67624230Y-28564476D01*
X67624229Y-28564472D01*
X67624224Y-28564461D01*
X67525061Y-28365316D01*
X67525056Y-28365308D01*
X67390979Y-28187761D01*
X67226562Y-28037876D01*
X67226560Y-28037874D01*
X67037404Y-27920754D01*
X67037398Y-27920752D01*
X66829940Y-27840382D01*
X66611243Y-27799500D01*
X66388757Y-27799500D01*
X66170060Y-27840382D01*
X66038864Y-27891207D01*
X65962601Y-27920752D01*
X65962595Y-27920754D01*
X65773439Y-28037874D01*
X65773437Y-28037876D01*
X65609020Y-28187761D01*
X65474943Y-28365308D01*
X65474938Y-28365316D01*
X65375775Y-28564461D01*
X65375769Y-28564476D01*
X65314885Y-28778462D01*
X65314884Y-28778464D01*
X65294357Y-28999999D01*
X65294357Y-29000000D01*
X65314884Y-29221535D01*
X65314885Y-29221537D01*
X65375769Y-29435523D01*
X65375775Y-29435538D01*
X65474938Y-29634683D01*
X65474943Y-29634691D01*
X65609020Y-29812238D01*
X65773437Y-29962123D01*
X65773439Y-29962125D01*
X65849499Y-30009219D01*
X65962599Y-30079247D01*
X65970289Y-30082226D01*
X66025692Y-30124795D01*
X66049285Y-30190561D01*
X66049500Y-30197854D01*
X66049500Y-46682858D01*
X66046667Y-46709206D01*
X66045641Y-46713927D01*
X66045641Y-46713929D01*
X66045641Y-46713930D01*
X66049184Y-46763461D01*
X66049500Y-46772308D01*
X66049500Y-46785797D01*
X66051420Y-46799154D01*
X66052365Y-46807946D01*
X66055909Y-46857486D01*
X66057593Y-46862000D01*
X66064148Y-46887682D01*
X66064834Y-46892455D01*
X66064835Y-46892457D01*
X66076433Y-46917854D01*
X66085457Y-46937612D01*
X66088845Y-46945790D01*
X66106203Y-46992329D01*
X66109096Y-46996194D01*
X66122617Y-47018983D01*
X66124619Y-47023367D01*
X66124622Y-47023372D01*
X66124623Y-47023373D01*
X66157144Y-47060904D01*
X66162688Y-47067785D01*
X66170779Y-47078593D01*
X66180333Y-47088147D01*
X66186353Y-47094614D01*
X66218872Y-47132143D01*
X66218874Y-47132145D01*
X66222928Y-47134750D01*
X66243571Y-47151385D01*
X66563181Y-47470995D01*
X66596666Y-47532318D01*
X66599500Y-47558676D01*
X66599500Y-55675500D01*
X66579815Y-55742539D01*
X66527011Y-55788294D01*
X66475500Y-55799500D01*
X66388757Y-55799500D01*
X66170060Y-55840382D01*
X66038864Y-55891207D01*
X65962601Y-55920752D01*
X65962595Y-55920754D01*
X65773439Y-56037874D01*
X65773437Y-56037876D01*
X65609020Y-56187761D01*
X65474943Y-56365308D01*
X65474938Y-56365316D01*
X65375775Y-56564461D01*
X65375769Y-56564476D01*
X65314885Y-56778462D01*
X65314884Y-56778464D01*
X65294357Y-56999999D01*
X65294357Y-57000000D01*
X65314884Y-57221535D01*
X65314885Y-57221537D01*
X65375769Y-57435523D01*
X65375775Y-57435538D01*
X65474941Y-57634688D01*
X65475271Y-57635221D01*
X65475350Y-57635511D01*
X65477497Y-57639821D01*
X65476653Y-57640240D01*
X65493828Y-57702581D01*
X65473021Y-57769281D01*
X65419456Y-57814143D01*
X65369845Y-57824500D01*
X61641864Y-57824500D01*
X61574825Y-57804815D01*
X61566390Y-57798885D01*
X61527625Y-57769139D01*
X61527624Y-57769138D01*
X61527622Y-57769137D01*
X61393712Y-57713671D01*
X61393710Y-57713670D01*
X61393709Y-57713670D01*
X61309481Y-57702581D01*
X61250001Y-57694750D01*
X61249999Y-57694750D01*
X61106291Y-57713670D01*
X61106287Y-57713671D01*
X60972377Y-57769137D01*
X60857376Y-57857381D01*
X60857375Y-57857384D01*
X60857371Y-57857386D01*
X60851633Y-57863125D01*
X60850737Y-57862229D01*
X60800945Y-57898584D01*
X60731199Y-57902736D01*
X60671322Y-57869574D01*
X53017263Y-50215515D01*
X62849500Y-50215515D01*
X62864196Y-50411620D01*
X62864197Y-50411625D01*
X62922576Y-50667402D01*
X62922578Y-50667411D01*
X62922580Y-50667416D01*
X63018432Y-50911643D01*
X63149614Y-51138857D01*
X63281736Y-51304533D01*
X63313198Y-51343985D01*
X63494753Y-51512441D01*
X63505521Y-51522433D01*
X63722296Y-51670228D01*
X63722301Y-51670230D01*
X63722302Y-51670231D01*
X63722303Y-51670232D01*
X63847843Y-51730688D01*
X63958673Y-51784061D01*
X63958674Y-51784061D01*
X63958677Y-51784063D01*
X64209385Y-51861396D01*
X64468818Y-51900500D01*
X64731182Y-51900500D01*
X64990615Y-51861396D01*
X65241323Y-51784063D01*
X65477704Y-51670228D01*
X65694479Y-51522433D01*
X65886805Y-51343981D01*
X66050386Y-51138857D01*
X66181568Y-50911643D01*
X66277420Y-50667416D01*
X66335802Y-50411630D01*
X66335803Y-50411620D01*
X66350499Y-50215515D01*
X66350500Y-50215492D01*
X66350500Y-49784507D01*
X66350499Y-49784484D01*
X66335803Y-49588379D01*
X66335802Y-49588374D01*
X66335802Y-49588370D01*
X66277420Y-49332584D01*
X66181568Y-49088357D01*
X66050386Y-48861143D01*
X65886805Y-48656019D01*
X65886804Y-48656018D01*
X65886801Y-48656014D01*
X65694479Y-48477567D01*
X65477704Y-48329772D01*
X65477700Y-48329770D01*
X65477697Y-48329768D01*
X65477696Y-48329767D01*
X65241325Y-48215938D01*
X65241327Y-48215938D01*
X64990623Y-48138606D01*
X64990619Y-48138605D01*
X64990615Y-48138604D01*
X64865823Y-48119794D01*
X64731187Y-48099500D01*
X64731182Y-48099500D01*
X64468818Y-48099500D01*
X64468812Y-48099500D01*
X64307247Y-48123853D01*
X64209385Y-48138604D01*
X64209382Y-48138605D01*
X64209376Y-48138606D01*
X63958673Y-48215938D01*
X63722303Y-48329767D01*
X63722302Y-48329768D01*
X63505520Y-48477567D01*
X63313198Y-48656014D01*
X63149614Y-48861143D01*
X63018432Y-49088356D01*
X62922582Y-49332578D01*
X62922576Y-49332597D01*
X62864197Y-49588374D01*
X62864196Y-49588379D01*
X62849500Y-49784484D01*
X62849500Y-50215515D01*
X53017263Y-50215515D01*
X39801748Y-37000000D01*
X49194750Y-37000000D01*
X49213670Y-37143708D01*
X49213671Y-37143712D01*
X49269137Y-37277622D01*
X49269138Y-37277624D01*
X49269139Y-37277625D01*
X49357379Y-37392621D01*
X49472375Y-37480861D01*
X49606291Y-37536330D01*
X49733280Y-37553048D01*
X49749999Y-37555250D01*
X49750000Y-37555250D01*
X49750001Y-37555250D01*
X49764977Y-37553278D01*
X49893709Y-37536330D01*
X50027625Y-37480861D01*
X50142621Y-37392621D01*
X50230861Y-37277625D01*
X50286330Y-37143709D01*
X50305250Y-37000000D01*
X50286330Y-36856291D01*
X50230861Y-36722375D01*
X50142621Y-36607379D01*
X50027625Y-36519139D01*
X50027624Y-36519138D01*
X50027622Y-36519137D01*
X49893712Y-36463671D01*
X49893710Y-36463670D01*
X49893709Y-36463670D01*
X49821854Y-36454210D01*
X49750001Y-36444750D01*
X49749999Y-36444750D01*
X49606291Y-36463670D01*
X49606287Y-36463671D01*
X49472377Y-36519137D01*
X49357379Y-36607379D01*
X49269137Y-36722377D01*
X49213671Y-36856287D01*
X49213670Y-36856291D01*
X49194750Y-36999999D01*
X49194750Y-37000000D01*
X39801748Y-37000000D01*
X36877963Y-34076215D01*
X36844478Y-34014892D01*
X36842707Y-34004731D01*
X36836330Y-33956291D01*
X36780861Y-33822375D01*
X36692621Y-33707379D01*
X36577625Y-33619139D01*
X36577624Y-33619138D01*
X36577622Y-33619137D01*
X36443712Y-33563671D01*
X36443710Y-33563670D01*
X36443709Y-33563670D01*
X36371854Y-33554210D01*
X36300001Y-33544750D01*
X36299999Y-33544750D01*
X36156291Y-33563670D01*
X36156287Y-33563671D01*
X36022377Y-33619137D01*
X35907379Y-33707379D01*
X35819137Y-33822377D01*
X35763671Y-33956287D01*
X35763670Y-33956291D01*
X35744750Y-34099999D01*
X35744750Y-34100000D01*
X31850500Y-34100000D01*
X31850500Y-30236594D01*
X31870185Y-30169555D01*
X31922989Y-30123800D01*
X31929695Y-30120971D01*
X32037401Y-30079247D01*
X32226562Y-29962124D01*
X32390981Y-29812236D01*
X32525058Y-29634689D01*
X32624229Y-29435528D01*
X32630734Y-29412661D01*
X32668012Y-29353571D01*
X32731322Y-29324013D01*
X32800561Y-29333375D01*
X32853748Y-29378684D01*
X32869264Y-29412658D01*
X32875770Y-29435523D01*
X32875772Y-29435530D01*
X32875775Y-29435538D01*
X32974938Y-29634683D01*
X32974943Y-29634691D01*
X33109020Y-29812238D01*
X33273437Y-29962123D01*
X33273439Y-29962125D01*
X33462595Y-30079245D01*
X33462596Y-30079245D01*
X33462599Y-30079247D01*
X33670060Y-30159618D01*
X33888757Y-30200500D01*
X33888759Y-30200500D01*
X34111241Y-30200500D01*
X34111243Y-30200500D01*
X34329940Y-30159618D01*
X34537401Y-30079247D01*
X34726562Y-29962124D01*
X34890981Y-29812236D01*
X35025058Y-29634689D01*
X35124229Y-29435528D01*
X35185115Y-29221536D01*
X35205643Y-29000000D01*
X35185115Y-28778464D01*
X35124229Y-28564472D01*
X35124224Y-28564461D01*
X35025061Y-28365316D01*
X35025056Y-28365308D01*
X34890979Y-28187761D01*
X34726562Y-28037876D01*
X34726560Y-28037874D01*
X34537404Y-27920754D01*
X34537398Y-27920752D01*
X34329940Y-27840382D01*
X34111243Y-27799500D01*
X33888757Y-27799500D01*
X33670060Y-27840382D01*
X33538864Y-27891207D01*
X33462601Y-27920752D01*
X33462595Y-27920754D01*
X33273439Y-28037874D01*
X33273437Y-28037876D01*
X33109020Y-28187761D01*
X32974943Y-28365308D01*
X32974938Y-28365316D01*
X32875775Y-28564461D01*
X32875769Y-28564476D01*
X32869266Y-28587335D01*
X32831987Y-28646429D01*
X32768677Y-28675986D01*
X32699438Y-28666624D01*
X32646251Y-28621314D01*
X32630734Y-28587335D01*
X32624230Y-28564476D01*
X32624229Y-28564472D01*
X32624224Y-28564461D01*
X32525061Y-28365316D01*
X32525056Y-28365308D01*
X32390979Y-28187761D01*
X32226562Y-28037876D01*
X32226560Y-28037874D01*
X32037404Y-27920754D01*
X32037398Y-27920752D01*
X31829940Y-27840382D01*
X31611243Y-27799500D01*
X31388757Y-27799500D01*
X31170060Y-27840382D01*
X31038864Y-27891207D01*
X30962601Y-27920752D01*
X30962595Y-27920754D01*
X30773439Y-28037874D01*
X30773437Y-28037876D01*
X30609020Y-28187761D01*
X30474943Y-28365308D01*
X30474938Y-28365316D01*
X30375775Y-28564461D01*
X30375769Y-28564476D01*
X30314885Y-28778462D01*
X30314884Y-28778464D01*
X30294357Y-28999999D01*
X30294357Y-29000000D01*
X30314884Y-29221535D01*
X30314885Y-29221537D01*
X30375769Y-29435523D01*
X30375775Y-29435538D01*
X30474938Y-29634683D01*
X30474943Y-29634691D01*
X30609020Y-29812238D01*
X30773433Y-29962120D01*
X30773435Y-29962122D01*
X30773438Y-29962124D01*
X30790775Y-29972859D01*
X30837412Y-30024884D01*
X30849500Y-30078286D01*
X30849500Y-46682858D01*
X30846667Y-46709206D01*
X30845641Y-46713927D01*
X30845641Y-46713929D01*
X30845641Y-46713930D01*
X30849184Y-46763461D01*
X30849500Y-46772308D01*
X30849500Y-46785797D01*
X30851420Y-46799154D01*
X30852365Y-46807946D01*
X30855909Y-46857486D01*
X30857593Y-46862000D01*
X30864148Y-46887682D01*
X30864834Y-46892455D01*
X30864835Y-46892457D01*
X30876433Y-46917854D01*
X30885457Y-46937612D01*
X30888845Y-46945790D01*
X30906203Y-46992329D01*
X30909096Y-46996194D01*
X30922617Y-47018983D01*
X30924619Y-47023367D01*
X30924622Y-47023372D01*
X30924623Y-47023373D01*
X30957144Y-47060904D01*
X30962688Y-47067785D01*
X30970779Y-47078593D01*
X30980333Y-47088147D01*
X30986353Y-47094614D01*
X31018872Y-47132143D01*
X31018874Y-47132145D01*
X31022928Y-47134750D01*
X31043571Y-47151385D01*
X31363181Y-47470995D01*
X31396666Y-47532318D01*
X31399500Y-47558676D01*
X31399500Y-49003051D01*
X31379815Y-49070090D01*
X31327011Y-49115845D01*
X31257853Y-49125789D01*
X31194297Y-49096764D01*
X31168113Y-49065051D01*
X31118879Y-48979776D01*
X31050386Y-48861143D01*
X30886805Y-48656019D01*
X30886804Y-48656018D01*
X30886801Y-48656014D01*
X30694479Y-48477567D01*
X30477704Y-48329772D01*
X30477700Y-48329770D01*
X30477697Y-48329768D01*
X30477696Y-48329767D01*
X30241325Y-48215938D01*
X30241327Y-48215938D01*
X29990623Y-48138606D01*
X29990619Y-48138605D01*
X29990615Y-48138604D01*
X29865823Y-48119794D01*
X29731187Y-48099500D01*
X29731182Y-48099500D01*
X29468818Y-48099500D01*
X29468812Y-48099500D01*
X29307247Y-48123853D01*
X29209385Y-48138604D01*
X29209382Y-48138605D01*
X29209376Y-48138606D01*
X28958673Y-48215938D01*
X28722303Y-48329767D01*
X28722302Y-48329768D01*
X28505520Y-48477567D01*
X28313198Y-48656014D01*
X28149614Y-48861143D01*
X28018432Y-49088356D01*
X27922582Y-49332578D01*
X27922576Y-49332597D01*
X27864197Y-49588374D01*
X27864196Y-49588379D01*
X27849500Y-49784484D01*
X27849500Y-50215515D01*
X1300000Y-50215515D01*
X1300000Y-22215515D01*
X27849500Y-22215515D01*
X27864196Y-22411620D01*
X27864197Y-22411625D01*
X27922576Y-22667402D01*
X27922578Y-22667411D01*
X27922580Y-22667416D01*
X28018432Y-22911643D01*
X28149614Y-23138857D01*
X28281736Y-23304533D01*
X28313198Y-23343985D01*
X28494753Y-23512441D01*
X28505521Y-23522433D01*
X28722296Y-23670228D01*
X28722301Y-23670230D01*
X28722302Y-23670231D01*
X28722303Y-23670232D01*
X28847843Y-23730688D01*
X28958673Y-23784061D01*
X28958674Y-23784061D01*
X28958677Y-23784063D01*
X29209385Y-23861396D01*
X29468818Y-23900500D01*
X29731182Y-23900500D01*
X29990615Y-23861396D01*
X30241323Y-23784063D01*
X30477704Y-23670228D01*
X30694479Y-23522433D01*
X30886805Y-23343981D01*
X31050386Y-23138857D01*
X31181568Y-22911643D01*
X31277420Y-22667416D01*
X31335802Y-22411630D01*
X31335803Y-22411620D01*
X31350499Y-22215515D01*
X36649500Y-22215515D01*
X36664196Y-22411620D01*
X36664197Y-22411625D01*
X36722576Y-22667402D01*
X36722578Y-22667411D01*
X36722580Y-22667416D01*
X36818432Y-22911643D01*
X36949614Y-23138857D01*
X37081736Y-23304533D01*
X37113198Y-23343985D01*
X37294753Y-23512441D01*
X37305521Y-23522433D01*
X37522296Y-23670228D01*
X37522301Y-23670230D01*
X37522302Y-23670231D01*
X37522303Y-23670232D01*
X37647843Y-23730688D01*
X37758673Y-23784061D01*
X37758674Y-23784061D01*
X37758677Y-23784063D01*
X38009385Y-23861396D01*
X38268818Y-23900500D01*
X38531182Y-23900500D01*
X38790615Y-23861396D01*
X39041323Y-23784063D01*
X39277704Y-23670228D01*
X39494479Y-23522433D01*
X39686805Y-23343981D01*
X39850386Y-23138857D01*
X39981568Y-22911643D01*
X40077420Y-22667416D01*
X40135802Y-22411630D01*
X40135803Y-22411620D01*
X40150499Y-22215515D01*
X62849500Y-22215515D01*
X62864196Y-22411620D01*
X62864197Y-22411625D01*
X62922576Y-22667402D01*
X62922578Y-22667411D01*
X62922580Y-22667416D01*
X63018432Y-22911643D01*
X63149614Y-23138857D01*
X63281736Y-23304533D01*
X63313198Y-23343985D01*
X63494753Y-23512441D01*
X63505521Y-23522433D01*
X63722296Y-23670228D01*
X63722301Y-23670230D01*
X63722302Y-23670231D01*
X63722303Y-23670232D01*
X63847843Y-23730688D01*
X63958673Y-23784061D01*
X63958674Y-23784061D01*
X63958677Y-23784063D01*
X64209385Y-23861396D01*
X64468818Y-23900500D01*
X64731182Y-23900500D01*
X64990615Y-23861396D01*
X65241323Y-23784063D01*
X65477704Y-23670228D01*
X65694479Y-23522433D01*
X65886805Y-23343981D01*
X66050386Y-23138857D01*
X66181568Y-22911643D01*
X66277420Y-22667416D01*
X66335802Y-22411630D01*
X66335803Y-22411620D01*
X66350499Y-22215515D01*
X71649500Y-22215515D01*
X71664196Y-22411620D01*
X71664197Y-22411625D01*
X71722576Y-22667402D01*
X71722578Y-22667411D01*
X71722580Y-22667416D01*
X71818432Y-22911643D01*
X71949614Y-23138857D01*
X72081736Y-23304533D01*
X72113198Y-23343985D01*
X72294753Y-23512441D01*
X72305521Y-23522433D01*
X72522296Y-23670228D01*
X72522301Y-23670230D01*
X72522302Y-23670231D01*
X72522303Y-23670232D01*
X72647843Y-23730688D01*
X72758673Y-23784061D01*
X72758674Y-23784061D01*
X72758677Y-23784063D01*
X73009385Y-23861396D01*
X73268818Y-23900500D01*
X73531182Y-23900500D01*
X73790615Y-23861396D01*
X74041323Y-23784063D01*
X74277704Y-23670228D01*
X74494479Y-23522433D01*
X74686805Y-23343981D01*
X74850386Y-23138857D01*
X74981568Y-22911643D01*
X75077420Y-22667416D01*
X75135802Y-22411630D01*
X75135803Y-22411620D01*
X75150499Y-22215515D01*
X97849500Y-22215515D01*
X97864196Y-22411620D01*
X97864197Y-22411625D01*
X97922576Y-22667402D01*
X97922578Y-22667411D01*
X97922580Y-22667416D01*
X98018432Y-22911643D01*
X98149614Y-23138857D01*
X98281736Y-23304533D01*
X98313198Y-23343985D01*
X98494753Y-23512441D01*
X98505521Y-23522433D01*
X98722296Y-23670228D01*
X98722301Y-23670230D01*
X98722302Y-23670231D01*
X98722303Y-23670232D01*
X98847843Y-23730688D01*
X98958673Y-23784061D01*
X98958674Y-23784061D01*
X98958677Y-23784063D01*
X99209385Y-23861396D01*
X99468818Y-23900500D01*
X99731182Y-23900500D01*
X99990615Y-23861396D01*
X100241323Y-23784063D01*
X100477704Y-23670228D01*
X100694479Y-23522433D01*
X100886805Y-23343981D01*
X101050386Y-23138857D01*
X101181568Y-22911643D01*
X101277420Y-22667416D01*
X101335802Y-22411630D01*
X101335803Y-22411620D01*
X101350499Y-22215515D01*
X106649500Y-22215515D01*
X106664196Y-22411620D01*
X106664197Y-22411625D01*
X106722576Y-22667402D01*
X106722578Y-22667411D01*
X106722580Y-22667416D01*
X106818432Y-22911643D01*
X106949614Y-23138857D01*
X107081736Y-23304533D01*
X107113198Y-23343985D01*
X107294753Y-23512441D01*
X107305521Y-23522433D01*
X107522296Y-23670228D01*
X107522301Y-23670230D01*
X107522302Y-23670231D01*
X107522303Y-23670232D01*
X107647843Y-23730688D01*
X107758673Y-23784061D01*
X107758674Y-23784061D01*
X107758677Y-23784063D01*
X108009385Y-23861396D01*
X108268818Y-23900500D01*
X108531182Y-23900500D01*
X108790615Y-23861396D01*
X109041323Y-23784063D01*
X109277704Y-23670228D01*
X109494479Y-23522433D01*
X109686805Y-23343981D01*
X109850386Y-23138857D01*
X109981568Y-22911643D01*
X110077420Y-22667416D01*
X110135802Y-22411630D01*
X110135803Y-22411620D01*
X110150499Y-22215515D01*
X110150500Y-22215492D01*
X110150500Y-21784507D01*
X110150499Y-21784484D01*
X110135803Y-21588379D01*
X110135802Y-21588374D01*
X110135802Y-21588370D01*
X110077420Y-21332584D01*
X109981568Y-21088357D01*
X109850386Y-20861143D01*
X109686805Y-20656019D01*
X109686804Y-20656018D01*
X109686801Y-20656014D01*
X109494479Y-20477567D01*
X109277704Y-20329772D01*
X109277700Y-20329770D01*
X109277697Y-20329768D01*
X109277696Y-20329767D01*
X109041325Y-20215938D01*
X109041327Y-20215938D01*
X108790623Y-20138606D01*
X108790619Y-20138605D01*
X108790615Y-20138604D01*
X108665823Y-20119794D01*
X108531187Y-20099500D01*
X108531182Y-20099500D01*
X108268818Y-20099500D01*
X108268812Y-20099500D01*
X108107247Y-20123853D01*
X108009385Y-20138604D01*
X108009382Y-20138605D01*
X108009376Y-20138606D01*
X107758673Y-20215938D01*
X107522303Y-20329767D01*
X107522302Y-20329768D01*
X107305520Y-20477567D01*
X107113198Y-20656014D01*
X106949614Y-20861143D01*
X106818432Y-21088356D01*
X106722582Y-21332578D01*
X106722576Y-21332597D01*
X106664197Y-21588374D01*
X106664196Y-21588379D01*
X106649500Y-21784484D01*
X106649500Y-22215515D01*
X101350499Y-22215515D01*
X101350500Y-22215492D01*
X101350500Y-21784507D01*
X101350499Y-21784484D01*
X101335803Y-21588379D01*
X101335802Y-21588374D01*
X101335802Y-21588370D01*
X101277420Y-21332584D01*
X101181568Y-21088357D01*
X101050386Y-20861143D01*
X100886805Y-20656019D01*
X100886804Y-20656018D01*
X100886801Y-20656014D01*
X100694479Y-20477567D01*
X100477704Y-20329772D01*
X100477700Y-20329770D01*
X100477697Y-20329768D01*
X100477696Y-20329767D01*
X100241325Y-20215938D01*
X100241327Y-20215938D01*
X99990623Y-20138606D01*
X99990619Y-20138605D01*
X99990615Y-20138604D01*
X99865823Y-20119794D01*
X99731187Y-20099500D01*
X99731182Y-20099500D01*
X99468818Y-20099500D01*
X99468812Y-20099500D01*
X99307247Y-20123853D01*
X99209385Y-20138604D01*
X99209382Y-20138605D01*
X99209376Y-20138606D01*
X98958673Y-20215938D01*
X98722303Y-20329767D01*
X98722302Y-20329768D01*
X98505520Y-20477567D01*
X98313198Y-20656014D01*
X98149614Y-20861143D01*
X98018432Y-21088356D01*
X97922582Y-21332578D01*
X97922576Y-21332597D01*
X97864197Y-21588374D01*
X97864196Y-21588379D01*
X97849500Y-21784484D01*
X97849500Y-22215515D01*
X75150499Y-22215515D01*
X75150500Y-22215492D01*
X75150500Y-21784507D01*
X75150499Y-21784484D01*
X75135803Y-21588379D01*
X75135802Y-21588374D01*
X75135802Y-21588370D01*
X75077420Y-21332584D01*
X74981568Y-21088357D01*
X74850386Y-20861143D01*
X74686805Y-20656019D01*
X74686804Y-20656018D01*
X74686801Y-20656014D01*
X74494479Y-20477567D01*
X74277704Y-20329772D01*
X74277700Y-20329770D01*
X74277697Y-20329768D01*
X74277696Y-20329767D01*
X74041325Y-20215938D01*
X74041327Y-20215938D01*
X73790623Y-20138606D01*
X73790619Y-20138605D01*
X73790615Y-20138604D01*
X73665823Y-20119794D01*
X73531187Y-20099500D01*
X73531182Y-20099500D01*
X73268818Y-20099500D01*
X73268812Y-20099500D01*
X73107247Y-20123853D01*
X73009385Y-20138604D01*
X73009382Y-20138605D01*
X73009376Y-20138606D01*
X72758673Y-20215938D01*
X72522303Y-20329767D01*
X72522302Y-20329768D01*
X72305520Y-20477567D01*
X72113198Y-20656014D01*
X71949614Y-20861143D01*
X71818432Y-21088356D01*
X71722582Y-21332578D01*
X71722576Y-21332597D01*
X71664197Y-21588374D01*
X71664196Y-21588379D01*
X71649500Y-21784484D01*
X71649500Y-22215515D01*
X66350499Y-22215515D01*
X66350500Y-22215492D01*
X66350500Y-21784507D01*
X66350499Y-21784484D01*
X66335803Y-21588379D01*
X66335802Y-21588374D01*
X66335802Y-21588370D01*
X66277420Y-21332584D01*
X66181568Y-21088357D01*
X66050386Y-20861143D01*
X65886805Y-20656019D01*
X65886804Y-20656018D01*
X65886801Y-20656014D01*
X65694479Y-20477567D01*
X65477704Y-20329772D01*
X65477700Y-20329770D01*
X65477697Y-20329768D01*
X65477696Y-20329767D01*
X65241325Y-20215938D01*
X65241327Y-20215938D01*
X64990623Y-20138606D01*
X64990619Y-20138605D01*
X64990615Y-20138604D01*
X64865823Y-20119794D01*
X64731187Y-20099500D01*
X64731182Y-20099500D01*
X64468818Y-20099500D01*
X64468812Y-20099500D01*
X64307247Y-20123853D01*
X64209385Y-20138604D01*
X64209382Y-20138605D01*
X64209376Y-20138606D01*
X63958673Y-20215938D01*
X63722303Y-20329767D01*
X63722302Y-20329768D01*
X63505520Y-20477567D01*
X63313198Y-20656014D01*
X63149614Y-20861143D01*
X63018432Y-21088356D01*
X62922582Y-21332578D01*
X62922576Y-21332597D01*
X62864197Y-21588374D01*
X62864196Y-21588379D01*
X62849500Y-21784484D01*
X62849500Y-22215515D01*
X40150499Y-22215515D01*
X40150500Y-22215492D01*
X40150500Y-21784507D01*
X40150499Y-21784484D01*
X40135803Y-21588379D01*
X40135802Y-21588374D01*
X40135802Y-21588370D01*
X40077420Y-21332584D01*
X39981568Y-21088357D01*
X39850386Y-20861143D01*
X39686805Y-20656019D01*
X39686804Y-20656018D01*
X39686801Y-20656014D01*
X39494479Y-20477567D01*
X39277704Y-20329772D01*
X39277700Y-20329770D01*
X39277697Y-20329768D01*
X39277696Y-20329767D01*
X39041325Y-20215938D01*
X39041327Y-20215938D01*
X38790623Y-20138606D01*
X38790619Y-20138605D01*
X38790615Y-20138604D01*
X38665823Y-20119794D01*
X38531187Y-20099500D01*
X38531182Y-20099500D01*
X38268818Y-20099500D01*
X38268812Y-20099500D01*
X38107247Y-20123853D01*
X38009385Y-20138604D01*
X38009382Y-20138605D01*
X38009376Y-20138606D01*
X37758673Y-20215938D01*
X37522303Y-20329767D01*
X37522302Y-20329768D01*
X37305520Y-20477567D01*
X37113198Y-20656014D01*
X36949614Y-20861143D01*
X36818432Y-21088356D01*
X36722582Y-21332578D01*
X36722576Y-21332597D01*
X36664197Y-21588374D01*
X36664196Y-21588379D01*
X36649500Y-21784484D01*
X36649500Y-22215515D01*
X31350499Y-22215515D01*
X31350500Y-22215492D01*
X31350500Y-21784507D01*
X31350499Y-21784484D01*
X31335803Y-21588379D01*
X31335802Y-21588374D01*
X31335802Y-21588370D01*
X31277420Y-21332584D01*
X31181568Y-21088357D01*
X31050386Y-20861143D01*
X30886805Y-20656019D01*
X30886804Y-20656018D01*
X30886801Y-20656014D01*
X30694479Y-20477567D01*
X30477704Y-20329772D01*
X30477700Y-20329770D01*
X30477697Y-20329768D01*
X30477696Y-20329767D01*
X30241325Y-20215938D01*
X30241327Y-20215938D01*
X29990623Y-20138606D01*
X29990619Y-20138605D01*
X29990615Y-20138604D01*
X29865823Y-20119794D01*
X29731187Y-20099500D01*
X29731182Y-20099500D01*
X29468818Y-20099500D01*
X29468812Y-20099500D01*
X29307247Y-20123853D01*
X29209385Y-20138604D01*
X29209382Y-20138605D01*
X29209376Y-20138606D01*
X28958673Y-20215938D01*
X28722303Y-20329767D01*
X28722302Y-20329768D01*
X28505520Y-20477567D01*
X28313198Y-20656014D01*
X28149614Y-20861143D01*
X28018432Y-21088356D01*
X27922582Y-21332578D01*
X27922576Y-21332597D01*
X27864197Y-21588374D01*
X27864196Y-21588379D01*
X27849500Y-21784484D01*
X27849500Y-22215515D01*
X1300000Y-22215515D01*
X1300000Y-11524500D01*
X1319685Y-11457461D01*
X1372489Y-11411706D01*
X1424000Y-11400500D01*
X10958725Y-11400500D01*
X10978120Y-11402026D01*
X11000000Y-11405492D01*
X11000003Y-11405492D01*
X11125300Y-11385647D01*
X11125301Y-11385647D01*
X11125302Y-11385646D01*
X11125304Y-11385646D01*
X11238342Y-11328050D01*
X11328050Y-11238342D01*
X11385646Y-11125304D01*
X11385646Y-11125302D01*
X11385647Y-11125301D01*
X11401260Y-11026724D01*
X11401260Y-11026714D01*
X11405492Y-11000000D01*
X11402026Y-10978121D01*
X11400500Y-10958724D01*
X11400500Y-1424000D01*
X11420185Y-1356961D01*
X11472989Y-1311206D01*
X11524500Y-1300000D01*
X126475500Y-1300000D01*
X126542539Y-1319685D01*
G37*
%TD.AperFunction*%
%TD*%
M02*
