%TF.GenerationSoftware,KiCad,Pcbnew,10.0.4*%
%TF.CreationDate,2026-09-21T01:42:24-06:00*%
%TF.ProjectId,glitchwave567_ctrl,676c6974-6368-4776-9176-653536375f63,rev?*%
%TF.SameCoordinates,Original*%
%TF.FileFunction,Copper,L1,Top*%
%TF.FilePolarity,Positive*%
%FSLAX46Y46*%
G04 Gerber Fmt 4.6, Leading zero omitted, Abs format (unit mm)*
G04 Created by KiCad (PCBNEW 10.0.4) date 2026-09-21 01:42:24*
%MOMM*%
%LPD*%
G01*
G04 APERTURE LIST*
G04 Aperture macros list*
%AMRoundRect*
0 Rectangle with rounded corners*
0 $1 Rounding radius*
0 $2 $3 $4 $5 $6 $7 $8 $9 X,Y pos of 4 corners*
0 Add a 4 corners polygon primitive as box body*
4,1,4,$2,$3,$4,$5,$6,$7,$8,$9,$2,$3,0*
0 Add four circle primitives for the rounded corners*
1,1,$1+$1,$2,$3*
1,1,$1+$1,$4,$5*
1,1,$1+$1,$6,$7*
1,1,$1+$1,$8,$9*
0 Add four rect primitives between the rounded corners*
20,1,$1+$1,$2,$3,$4,$5,0*
20,1,$1+$1,$4,$5,$6,$7,0*
20,1,$1+$1,$6,$7,$8,$9,0*
20,1,$1+$1,$8,$9,$2,$3,0*%
G04 Aperture macros list end*
%TA.AperFunction,ComponentPad*%
%ADD10C,1.800000*%
%TD*%
%TA.AperFunction,ComponentPad*%
%ADD11O,2.900000X3.200000*%
%TD*%
%TA.AperFunction,SMDPad,CuDef*%
%ADD12R,1.500000X0.900000*%
%TD*%
%TA.AperFunction,SMDPad,CuDef*%
%ADD13RoundRect,0.250000X-1.500000X-0.550000X1.500000X-0.550000X1.500000X0.550000X-1.500000X0.550000X0*%
%TD*%
%TA.AperFunction,SMDPad,CuDef*%
%ADD14RoundRect,0.225000X-0.225000X-0.250000X0.225000X-0.250000X0.225000X0.250000X-0.225000X0.250000X0*%
%TD*%
%TA.AperFunction,ComponentPad*%
%ADD15R,1.700000X1.700000*%
%TD*%
%TA.AperFunction,ComponentPad*%
%ADD16C,1.700000*%
%TD*%
%TA.AperFunction,ViaPad*%
%ADD17C,0.500000*%
%TD*%
%TA.AperFunction,Conductor*%
%ADD18C,0.400000*%
%TD*%
%TA.AperFunction,Conductor*%
%ADD19C,0.250000*%
%TD*%
G04 APERTURE END LIST*
D10*
%TO.P,RV6,1*%
%TO.N,3V3*%
X101500000Y-57000000D03*
%TO.P,RV6,2*%
%TO.N,/POT6_W*%
X104000000Y-57000000D03*
D11*
%TO.P,RV6,3*%
%TO.N,GND*%
X99600000Y-50000000D03*
D10*
X106500000Y-57000000D03*
D11*
X108400000Y-50000000D03*
%TD*%
D10*
%TO.P,RV2,1*%
%TO.N,3V3*%
X66500000Y-29000000D03*
%TO.P,RV2,2*%
%TO.N,/POT2_W*%
X69000000Y-29000000D03*
D11*
%TO.P,RV2,3*%
%TO.N,GND*%
X64600000Y-22000000D03*
D10*
X71500000Y-29000000D03*
D11*
X73400000Y-22000000D03*
%TD*%
D10*
%TO.P,RV5,1*%
%TO.N,3V3*%
X66500000Y-57000000D03*
%TO.P,RV5,2*%
%TO.N,/POT5_W*%
X69000000Y-57000000D03*
D11*
%TO.P,RV5,3*%
%TO.N,GND*%
X64600000Y-50000000D03*
D10*
X71500000Y-57000000D03*
D11*
X73400000Y-50000000D03*
%TD*%
D12*
%TO.P,LED5,1*%
%TO.N,+5V*%
X112270000Y-74350000D03*
%TO.P,LED5,2*%
%TO.N,/WSD5*%
X112270000Y-77650000D03*
%TO.P,LED5,3*%
%TO.N,GND*%
X117170000Y-77650000D03*
%TO.P,LED5,4*%
%TO.N,/WSD4*%
X117170000Y-74350000D03*
%TD*%
D13*
%TO.P,C7,1*%
%TO.N,+5V*%
X120800000Y-76000000D03*
%TO.P,C7,2*%
%TO.N,GND*%
X126200000Y-76000000D03*
%TD*%
D14*
%TO.P,C3,1*%
%TO.N,+5V*%
X62851839Y-61577702D03*
%TO.P,C3,2*%
%TO.N,GND*%
X64401839Y-61577702D03*
%TD*%
D10*
%TO.P,SW2,1*%
%TO.N,GND*%
X112220000Y-96000000D03*
%TO.P,SW2,2*%
%TO.N,/STOMP2*%
X114720000Y-96000000D03*
%TO.P,SW2,3*%
%TO.N,unconnected-(SW2-Pin3_N.C.-Pad3)*%
X117220000Y-96000000D03*
%TD*%
D12*
%TO.P,LED6,1*%
%TO.N,+5V*%
X66550000Y-74350000D03*
%TO.P,LED6,2*%
%TO.N,unconnected-(LED6-DOUT-Pad2)*%
X66550000Y-77650000D03*
%TO.P,LED6,3*%
%TO.N,GND*%
X71450000Y-77650000D03*
%TO.P,LED6,4*%
%TO.N,/WSD5*%
X71450000Y-74350000D03*
%TD*%
%TO.P,LED3,1*%
%TO.N,+5V*%
X101550000Y-34350000D03*
%TO.P,LED3,2*%
%TO.N,/WSD3*%
X101550000Y-37650000D03*
%TO.P,LED3,3*%
%TO.N,GND*%
X106450000Y-37650000D03*
%TO.P,LED3,4*%
%TO.N,/WSD2*%
X106450000Y-34350000D03*
%TD*%
D14*
%TO.P,C5,1*%
%TO.N,+5V*%
X64145486Y-64931284D03*
%TO.P,C5,2*%
%TO.N,GND*%
X65695486Y-64931284D03*
%TD*%
D10*
%TO.P,SW1,1*%
%TO.N,GND*%
X20780000Y-96000000D03*
%TO.P,SW1,2*%
%TO.N,/STOMP1*%
X23280000Y-96000000D03*
%TO.P,SW1,3*%
%TO.N,unconnected-(SW1-Pin3_N.C.-Pad3)*%
X25780000Y-96000000D03*
%TD*%
D14*
%TO.P,C2,1*%
%TO.N,+5V*%
X69403330Y-64653121D03*
%TO.P,C2,2*%
%TO.N,GND*%
X70953330Y-64653121D03*
%TD*%
%TO.P,C1,1*%
%TO.N,+5V*%
X68225000Y-60800000D03*
%TO.P,C1,2*%
%TO.N,GND*%
X69775000Y-60800000D03*
%TD*%
D10*
%TO.P,RV4,1*%
%TO.N,3V3*%
X31500000Y-57000000D03*
%TO.P,RV4,2*%
%TO.N,/POT4_W*%
X34000000Y-57000000D03*
D11*
%TO.P,RV4,3*%
%TO.N,GND*%
X29600000Y-50000000D03*
D10*
X36500000Y-57000000D03*
D11*
X38400000Y-50000000D03*
%TD*%
D12*
%TO.P,LED1,1*%
%TO.N,+5V*%
X31550000Y-34350000D03*
%TO.P,LED1,2*%
%TO.N,/WSD1*%
X31550000Y-37650000D03*
%TO.P,LED1,3*%
%TO.N,GND*%
X36450000Y-37650000D03*
%TO.P,LED1,4*%
%TO.N,/WS_IN*%
X36450000Y-34350000D03*
%TD*%
D10*
%TO.P,SW3,1*%
%TO.N,GND*%
X66500000Y-96000000D03*
%TO.P,SW3,2*%
%TO.N,/STOMP3*%
X69000000Y-96000000D03*
%TO.P,SW3,3*%
%TO.N,unconnected-(SW3-Pin3_N.C.-Pad3)*%
X71500000Y-96000000D03*
%TD*%
D14*
%TO.P,C4,1*%
%TO.N,+5V*%
X74423932Y-61591615D03*
%TO.P,C4,2*%
%TO.N,GND*%
X75973932Y-61591615D03*
%TD*%
D10*
%TO.P,RV1,1*%
%TO.N,3V3*%
X31500000Y-29000000D03*
%TO.P,RV1,2*%
%TO.N,/POT1_W*%
X34000000Y-29000000D03*
D11*
%TO.P,RV1,3*%
%TO.N,GND*%
X29600000Y-22000000D03*
D10*
X36500000Y-29000000D03*
D11*
X38400000Y-22000000D03*
%TD*%
D12*
%TO.P,LED4,1*%
%TO.N,+5V*%
X20830000Y-74350000D03*
%TO.P,LED4,2*%
%TO.N,/WSD4*%
X20830000Y-77650000D03*
%TO.P,LED4,3*%
%TO.N,GND*%
X25730000Y-77650000D03*
%TO.P,LED4,4*%
%TO.N,/WSD3*%
X25730000Y-74350000D03*
%TD*%
%TO.P,LED2,1*%
%TO.N,+5V*%
X66550000Y-34350000D03*
%TO.P,LED2,2*%
%TO.N,/WSD2*%
X66550000Y-37650000D03*
%TO.P,LED2,3*%
%TO.N,GND*%
X71450000Y-37650000D03*
%TO.P,LED2,4*%
%TO.N,/WSD1*%
X71450000Y-34350000D03*
%TD*%
D10*
%TO.P,RV3,1*%
%TO.N,3V3*%
X101500000Y-29000000D03*
%TO.P,RV3,2*%
%TO.N,/POT3_W*%
X104000000Y-29000000D03*
D11*
%TO.P,RV3,3*%
%TO.N,GND*%
X99600000Y-22000000D03*
D10*
X106500000Y-29000000D03*
D11*
X108400000Y-22000000D03*
%TD*%
D14*
%TO.P,C6,1*%
%TO.N,+5V*%
X74852028Y-65789860D03*
%TO.P,C6,2*%
%TO.N,GND*%
X76402028Y-65789860D03*
%TD*%
D15*
%TO.P,J1,1*%
%TO.N,GND*%
X96000000Y-104000000D03*
D16*
%TO.P,J1,2*%
%TO.N,+5V*%
X96000000Y-101460000D03*
%TO.P,J1,3*%
%TO.N,3V3*%
X98540000Y-104000000D03*
%TO.P,J1,4*%
%TO.N,GND*%
X98540000Y-101460000D03*
%TO.P,J1,5*%
%TO.N,/POT1_W*%
X101080000Y-104000000D03*
%TO.P,J1,6*%
%TO.N,/POT2_W*%
X101080000Y-101460000D03*
%TO.P,J1,7*%
%TO.N,/POT3_W*%
X103620000Y-104000000D03*
%TO.P,J1,8*%
%TO.N,/POT4_W*%
X103620000Y-101460000D03*
%TO.P,J1,9*%
%TO.N,/POT5_W*%
X106160000Y-104000000D03*
%TO.P,J1,10*%
%TO.N,/POT6_W*%
X106160000Y-101460000D03*
%TO.P,J1,11*%
%TO.N,/STOMP1*%
X108700000Y-104000000D03*
%TO.P,J1,12*%
%TO.N,/STOMP2*%
X108700000Y-101460000D03*
%TO.P,J1,13*%
%TO.N,/WS_IN*%
X111240000Y-104000000D03*
%TO.P,J1,14*%
%TO.N,GND*%
X111240000Y-101460000D03*
%TO.P,J1,15*%
%TO.N,/STOMP3*%
X113780000Y-104000000D03*
%TO.P,J1,16*%
%TO.N,GND*%
X113780000Y-101460000D03*
%TD*%
D17*
%TO.N,GND*%
X132000000Y-96000000D03*
X15000000Y-87000000D03*
X123000000Y-6000000D03*
X6000000Y-78000000D03*
X51000000Y-60000000D03*
X24000000Y-51000000D03*
X42000000Y-96000000D03*
X69000000Y-87000000D03*
X78000000Y-6000000D03*
X96000000Y-24000000D03*
X132000000Y-78000000D03*
X15000000Y-51000000D03*
X15000000Y-33000000D03*
X132000000Y-60000000D03*
X60000000Y-15000000D03*
X24000000Y-87000000D03*
X114000000Y-33000000D03*
X132000000Y-24000000D03*
X51000000Y-87000000D03*
X132000000Y-51000000D03*
X24000000Y-69000000D03*
X24000000Y-33000000D03*
X123000000Y-96000000D03*
X42000000Y-51000000D03*
X42000000Y-60000000D03*
X24000000Y-78000000D03*
X42000000Y-87000000D03*
X42000000Y-69000000D03*
X114000000Y-24000000D03*
X60000000Y-69000000D03*
X96000000Y-6000000D03*
X123000000Y-105000000D03*
X96000000Y-60000000D03*
X42000000Y-33000000D03*
X123000000Y-51000000D03*
X33000000Y-6000000D03*
X114000000Y-51000000D03*
X15000000Y-6000000D03*
X51000000Y-24000000D03*
X123000000Y-69000000D03*
X78000000Y-42000000D03*
X87000000Y-60000000D03*
X60000000Y-6000000D03*
X123000000Y-24000000D03*
X123000000Y-42000000D03*
X51000000Y-42000000D03*
X51000000Y-33000000D03*
X69000000Y-24000000D03*
X78000000Y-87000000D03*
X114000000Y-15000000D03*
X24000000Y-105000000D03*
X132000000Y-33000000D03*
X24000000Y-6000000D03*
X114000000Y-78000000D03*
X60000000Y-24000000D03*
X6000000Y-42000000D03*
X96000000Y-15000000D03*
X60000000Y-51000000D03*
X6000000Y-33000000D03*
X6000000Y-60000000D03*
X60000000Y-33000000D03*
X87000000Y-6000000D03*
X33000000Y-15000000D03*
X78000000Y-15000000D03*
X15000000Y-60000000D03*
X33000000Y-60000000D03*
X6000000Y-15000000D03*
X6000000Y-69000000D03*
X51000000Y-96000000D03*
X114000000Y-60000000D03*
X132000000Y-15000000D03*
X60000000Y-96000000D03*
X15000000Y-24000000D03*
X51000000Y-6000000D03*
X15000000Y-105000000D03*
X33000000Y-42000000D03*
X105000000Y-42000000D03*
X6000000Y-96000000D03*
X87000000Y-15000000D03*
X105000000Y-24000000D03*
X132000000Y-87000000D03*
X105000000Y-15000000D03*
X69000000Y-51000000D03*
X114000000Y-6000000D03*
X60000000Y-87000000D03*
X33000000Y-24000000D03*
X123000000Y-33000000D03*
X42000000Y-24000000D03*
X24000000Y-15000000D03*
X87000000Y-24000000D03*
X87000000Y-42000000D03*
X24000000Y-60000000D03*
X69000000Y-42000000D03*
X6000000Y-51000000D03*
X51000000Y-69000000D03*
X105000000Y-51000000D03*
X114000000Y-87000000D03*
X33000000Y-105000000D03*
X123000000Y-15000000D03*
X6000000Y-24000000D03*
X123000000Y-87000000D03*
X78000000Y-24000000D03*
X15000000Y-15000000D03*
X60000000Y-42000000D03*
X24000000Y-42000000D03*
X105000000Y-6000000D03*
X24000000Y-24000000D03*
X42000000Y-15000000D03*
X69000000Y-15000000D03*
X132000000Y-69000000D03*
X6000000Y-87000000D03*
X123000000Y-60000000D03*
X114000000Y-69000000D03*
X96000000Y-51000000D03*
X15000000Y-78000000D03*
X51000000Y-15000000D03*
X33000000Y-69000000D03*
X15000000Y-42000000D03*
X132000000Y-42000000D03*
X114000000Y-42000000D03*
X15000000Y-69000000D03*
X69000000Y-6000000D03*
X42000000Y-6000000D03*
X15000000Y-96000000D03*
X33000000Y-87000000D03*
%TO.N,/WSD5*%
X101750000Y-77550000D03*
X112270000Y-76500000D03*
%TO.N,/WSD4*%
X103400000Y-74250000D03*
X99550000Y-78100000D03*
%TO.N,/WSD3*%
X71250000Y-68000000D03*
X68250000Y-71000000D03*
X36500000Y-74250000D03*
X75500000Y-63750000D03*
%TO.N,/POT4_W*%
X97000000Y-95000000D03*
X77250000Y-58250000D03*
X61250000Y-58250000D03*
%TO.N,/WSD1*%
X49750000Y-37000000D03*
X71500000Y-34250000D03*
%TO.N,/WS_IN*%
X36300000Y-34100000D03*
X93500000Y-106700000D03*
%TO.N,/STOMP3*%
X69000000Y-107900000D03*
%TO.N,/POT1_W*%
X97000000Y-98250000D03*
%TD*%
%TO.N,3V3*%
D18*
X86900000Y-29150000D02*
X101750000Y-29150000D01*
X66550000Y-29150000D02*
X66550000Y-29700000D01*
X33000000Y-30800000D02*
X48950000Y-30800000D01*
X48950000Y-30800000D02*
X50050000Y-29700000D01*
X66550000Y-29700000D02*
X67650000Y-30800000D01*
X85250000Y-30800000D02*
X86900000Y-29150000D01*
X31350000Y-29150000D02*
X33000000Y-30800000D01*
X67650000Y-30800000D02*
X85250000Y-30800000D01*
X50050000Y-29700000D02*
X66550000Y-29700000D01*
%TO.N,+5V*%
X103400000Y-75350000D02*
X102850000Y-75350000D01*
X102850000Y-75350000D02*
X101750000Y-74250000D01*
X62150000Y-52800000D02*
X62700000Y-53350000D01*
X74800000Y-66000000D02*
X77000000Y-68200000D01*
X101200000Y-82500000D02*
X101200000Y-81400000D01*
X68200000Y-61050000D02*
X68200000Y-63800000D01*
X101750000Y-34100000D02*
X100650000Y-33000000D01*
X62700000Y-62150000D02*
X63800000Y-63250000D01*
X50050000Y-73700000D02*
X66550000Y-73700000D01*
X68750000Y-34100000D02*
X66550000Y-34100000D01*
X64350000Y-64900000D02*
X64350000Y-64350000D01*
X33550000Y-36300000D02*
X64900000Y-36300000D01*
X96250000Y-87450000D02*
X101200000Y-82500000D01*
X33000000Y-72600000D02*
X48950000Y-72600000D01*
X22580000Y-72600000D02*
X33000000Y-72600000D01*
X64900000Y-63800000D02*
X64900000Y-63250000D01*
X68750000Y-68750000D02*
X68750000Y-67650000D01*
X119350000Y-75900000D02*
X103950000Y-75900000D01*
X96250000Y-101200000D02*
X96250000Y-87450000D01*
X31350000Y-34100000D02*
X33550000Y-36300000D01*
X103400000Y-76450000D02*
X103950000Y-75900000D01*
X62150000Y-47300000D02*
X62150000Y-52800000D01*
X64900000Y-44550000D02*
X62150000Y-47300000D01*
X74250000Y-61600000D02*
X74250000Y-66000000D01*
X68200000Y-63800000D02*
X69300000Y-64900000D01*
X67650000Y-72600000D02*
X67650000Y-69850000D01*
X66550000Y-34100000D02*
X66550000Y-34650000D01*
X112270000Y-74350000D02*
X113820000Y-75900000D01*
X77000000Y-68200000D02*
X86900000Y-68200000D01*
X69300000Y-64900000D02*
X70400000Y-66000000D01*
X69850000Y-33000000D02*
X68750000Y-34100000D01*
X67650000Y-69850000D02*
X68750000Y-68750000D01*
X103950000Y-75900000D02*
X103400000Y-75350000D01*
X86900000Y-68200000D02*
X92950000Y-74250000D01*
X63800000Y-63250000D02*
X64900000Y-63250000D01*
X66550000Y-74250000D02*
X66550000Y-73700000D01*
X48950000Y-72600000D02*
X50050000Y-73700000D01*
X70400000Y-66000000D02*
X74800000Y-66000000D01*
X62700000Y-53350000D02*
X62700000Y-61600000D01*
X64350000Y-64350000D02*
X64900000Y-63800000D01*
X20830000Y-74350000D02*
X22580000Y-72600000D01*
X101200000Y-81400000D02*
X103400000Y-79200000D01*
X103400000Y-79200000D02*
X103400000Y-76450000D01*
X68750000Y-67650000D02*
X70400000Y-66000000D01*
X64900000Y-36300000D02*
X64900000Y-44550000D01*
X66550000Y-34650000D02*
X64900000Y-36300000D01*
X62700000Y-61600000D02*
X62700000Y-62150000D01*
X64900000Y-63250000D02*
X68200000Y-63250000D01*
X66550000Y-73700000D02*
X67650000Y-72600000D01*
X100650000Y-33000000D02*
X69850000Y-33000000D01*
X92950000Y-74250000D02*
X101750000Y-74250000D01*
%TO.N,/WSD5*%
D19*
X85250000Y-74250000D02*
X88550000Y-77550000D01*
X88550000Y-77550000D02*
X101750000Y-77550000D01*
X112270000Y-76500000D02*
X112270000Y-77650000D01*
X71500000Y-74250000D02*
X85250000Y-74250000D01*
%TO.N,/WSD4*%
X73150000Y-79200000D02*
X74250000Y-78100000D01*
X22380000Y-79200000D02*
X33000000Y-79200000D01*
X33000000Y-79200000D02*
X73150000Y-79200000D01*
X20830000Y-77650000D02*
X22380000Y-79200000D01*
X103400000Y-74250000D02*
X104750000Y-72900000D01*
X74250000Y-78100000D02*
X99550000Y-78100000D01*
X115720000Y-72900000D02*
X117170000Y-74350000D01*
X104750000Y-72900000D02*
X115720000Y-72900000D01*
%TO.N,/STOMP2*%
X108700000Y-99500000D02*
X111220000Y-99500000D01*
X108700000Y-101460000D02*
X108700000Y-99500000D01*
X111220000Y-99500000D02*
X114720000Y-96000000D01*
%TO.N,/WSD3*%
X25730000Y-74250000D02*
X25730000Y-74350000D01*
X36500000Y-74250000D02*
X25730000Y-74250000D01*
X71250000Y-68000000D02*
X68250000Y-71000000D01*
X101550000Y-37650000D02*
X101500000Y-37750000D01*
X101500000Y-37750000D02*
X75500000Y-63750000D01*
%TO.N,/WSD2*%
X105600000Y-35200000D02*
X106700000Y-34100000D01*
X105050000Y-35200000D02*
X105600000Y-35200000D01*
X67100000Y-36850000D02*
X69300000Y-36850000D01*
X66550000Y-37400000D02*
X67100000Y-36850000D01*
X104500000Y-35750000D02*
X105050000Y-35200000D01*
X69300000Y-36850000D02*
X70400000Y-35750000D01*
X70400000Y-35750000D02*
X104500000Y-35750000D01*
%TO.N,/STOMP1*%
X26280000Y-93000000D02*
X23280000Y-96000000D01*
X107800000Y-105050000D02*
X108900000Y-103950000D01*
X107800000Y-106150000D02*
X107800000Y-105050000D01*
X40700000Y-93000000D02*
X26280000Y-93000000D01*
X40700000Y-106150000D02*
X40700000Y-93000000D01*
X40700000Y-106150000D02*
X107800000Y-106150000D01*
%TO.N,/POT4_W*%
X61250000Y-58250000D02*
X36000000Y-58250000D01*
X34750000Y-57000000D02*
X34000000Y-57000000D01*
X103620000Y-101460000D02*
X103500000Y-101500000D01*
X103500000Y-101500000D02*
X97000000Y-95000000D01*
X36000000Y-58250000D02*
X34750000Y-57000000D01*
%TO.N,/WSD1*%
X71500000Y-34250000D02*
X71450000Y-34350000D01*
X38750000Y-37000000D02*
X49750000Y-37000000D01*
X37250000Y-38500000D02*
X38750000Y-37000000D01*
X34750000Y-37750000D02*
X35500000Y-38500000D01*
X31550000Y-37650000D02*
X31500000Y-37750000D01*
X31500000Y-37750000D02*
X34750000Y-37750000D01*
X35500000Y-38500000D02*
X37250000Y-38500000D01*
%TO.N,/WS_IN*%
X110550000Y-106150000D02*
X110550000Y-104500000D01*
X107800000Y-106700000D02*
X108350000Y-106150000D01*
X108350000Y-106150000D02*
X110550000Y-106150000D01*
X93500000Y-106700000D02*
X107800000Y-106700000D01*
X110550000Y-104500000D02*
X111100000Y-103950000D01*
%TO.N,/STOMP3*%
X113780000Y-104000000D02*
X113780000Y-105160000D01*
X111040000Y-107900000D02*
X69000000Y-107900000D01*
X113780000Y-105160000D02*
X111040000Y-107900000D01*
%TO.N,/POT1_W*%
X101000000Y-104000000D02*
X99750000Y-102750000D01*
X99750000Y-101000000D02*
X97000000Y-98250000D01*
X101080000Y-104000000D02*
X101000000Y-104000000D01*
X99750000Y-102750000D02*
X99750000Y-101000000D01*
%TD*%
%TA.AperFunction,Conductor*%
%TO.N,GND*%
G36*
X126542539Y-1319685D02*
G01*
X126588294Y-1372489D01*
X126599500Y-1424000D01*
X126599500Y-10947273D01*
X126599500Y-11052727D01*
X126626793Y-11154587D01*
X126679520Y-11245913D01*
X126754087Y-11320480D01*
X126845413Y-11373207D01*
X126947273Y-11400500D01*
X126947275Y-11400500D01*
X136576000Y-11400500D01*
X136643039Y-11420185D01*
X136688794Y-11472989D01*
X136700000Y-11524500D01*
X136700000Y-102475500D01*
X136680315Y-102542539D01*
X136627511Y-102588294D01*
X136576000Y-102599500D01*
X126947273Y-102599500D01*
X126845413Y-102626793D01*
X126845410Y-102626794D01*
X126754085Y-102679521D01*
X126679521Y-102754085D01*
X126626794Y-102845410D01*
X126626793Y-102845413D01*
X126599500Y-102947273D01*
X126599500Y-112576000D01*
X126579815Y-112643039D01*
X126527011Y-112688794D01*
X126475500Y-112700000D01*
X11524500Y-112700000D01*
X11457461Y-112680315D01*
X11411706Y-112627511D01*
X11400500Y-112576000D01*
X11400500Y-108381995D01*
X15199500Y-108381995D01*
X15199500Y-108618004D01*
X15199501Y-108618020D01*
X15230306Y-108852010D01*
X15291394Y-109079993D01*
X15381714Y-109298045D01*
X15381719Y-109298056D01*
X15452677Y-109420957D01*
X15499727Y-109502450D01*
X15499729Y-109502453D01*
X15499730Y-109502454D01*
X15643406Y-109689697D01*
X15643412Y-109689704D01*
X15810295Y-109856587D01*
X15810301Y-109856592D01*
X15997550Y-110000273D01*
X16128918Y-110076118D01*
X16201943Y-110118280D01*
X16201948Y-110118282D01*
X16201951Y-110118284D01*
X16420007Y-110208606D01*
X16647986Y-110269693D01*
X16881989Y-110300500D01*
X16881996Y-110300500D01*
X17118004Y-110300500D01*
X17118011Y-110300500D01*
X17352014Y-110269693D01*
X17579993Y-110208606D01*
X17798049Y-110118284D01*
X18002450Y-110000273D01*
X18189699Y-109856592D01*
X18356592Y-109689699D01*
X18500273Y-109502450D01*
X18618284Y-109298049D01*
X18708606Y-109079993D01*
X18769693Y-108852014D01*
X18800500Y-108618011D01*
X18800500Y-108381989D01*
X18769693Y-108147986D01*
X18708606Y-107920007D01*
X18618284Y-107701951D01*
X18618282Y-107701948D01*
X18618280Y-107701943D01*
X18537476Y-107561988D01*
X18500273Y-107497550D01*
X18415457Y-107387016D01*
X18356593Y-107310302D01*
X18356587Y-107310295D01*
X18189704Y-107143412D01*
X18189697Y-107143406D01*
X18002454Y-106999730D01*
X18002453Y-106999729D01*
X18002450Y-106999727D01*
X17920957Y-106952677D01*
X17798056Y-106881719D01*
X17798045Y-106881714D01*
X17579993Y-106791394D01*
X17352014Y-106730307D01*
X17352013Y-106730306D01*
X17352010Y-106730306D01*
X17118020Y-106699501D01*
X17118017Y-106699500D01*
X17118011Y-106699500D01*
X16881989Y-106699500D01*
X16881983Y-106699500D01*
X16881979Y-106699501D01*
X16647989Y-106730306D01*
X16420006Y-106791394D01*
X16201954Y-106881714D01*
X16201943Y-106881719D01*
X15997545Y-106999730D01*
X15810302Y-107143406D01*
X15810295Y-107143412D01*
X15643412Y-107310295D01*
X15643406Y-107310302D01*
X15499730Y-107497545D01*
X15381719Y-107701943D01*
X15381714Y-107701954D01*
X15291394Y-107920006D01*
X15230306Y-108147989D01*
X15199501Y-108381979D01*
X15199500Y-108381995D01*
X11400500Y-108381995D01*
X11400500Y-102947275D01*
X11400500Y-102947273D01*
X11373207Y-102845413D01*
X11320480Y-102754087D01*
X11245913Y-102679520D01*
X11154587Y-102626793D01*
X11052727Y-102599500D01*
X1424000Y-102599500D01*
X1356961Y-102579815D01*
X1311206Y-102527011D01*
X1300000Y-102475500D01*
X1300000Y-77155131D01*
X19779500Y-77155131D01*
X19779500Y-78144856D01*
X19779502Y-78144882D01*
X19782413Y-78169987D01*
X19782415Y-78169991D01*
X19827793Y-78272764D01*
X19827794Y-78272765D01*
X19907235Y-78352206D01*
X20010009Y-78397585D01*
X20035135Y-78400500D01*
X20927389Y-78400499D01*
X20994428Y-78420183D01*
X21015070Y-78436818D01*
X22118737Y-79540485D01*
X22215763Y-79596503D01*
X22323982Y-79625500D01*
X22323984Y-79625500D01*
X73206016Y-79625500D01*
X73206018Y-79625500D01*
X73314237Y-79596503D01*
X73411263Y-79540485D01*
X74389929Y-78561819D01*
X74451252Y-78528334D01*
X74477610Y-78525500D01*
X99152763Y-78525500D01*
X99214763Y-78542113D01*
X99337511Y-78612982D01*
X99337512Y-78612982D01*
X99337515Y-78612984D01*
X99477525Y-78650500D01*
X99477528Y-78650500D01*
X99622472Y-78650500D01*
X99622475Y-78650500D01*
X99762485Y-78612984D01*
X99888015Y-78540509D01*
X99990509Y-78438015D01*
X100062984Y-78312485D01*
X100100500Y-78172475D01*
X100100500Y-78099500D01*
X100120185Y-78032461D01*
X100172989Y-77986706D01*
X100224500Y-77975500D01*
X101352763Y-77975500D01*
X101414763Y-77992113D01*
X101537511Y-78062982D01*
X101537512Y-78062982D01*
X101537515Y-78062984D01*
X101677525Y-78100500D01*
X101677528Y-78100500D01*
X101822472Y-78100500D01*
X101822475Y-78100500D01*
X101962485Y-78062984D01*
X102088015Y-77990509D01*
X102190509Y-77888015D01*
X102262984Y-77762485D01*
X102300500Y-77622475D01*
X102300500Y-77477525D01*
X102262984Y-77337515D01*
X102190509Y-77211985D01*
X102088015Y-77109491D01*
X102088013Y-77109490D01*
X102088011Y-77109488D01*
X101962488Y-77037017D01*
X101962489Y-77037017D01*
X101925982Y-77027235D01*
X101822475Y-76999500D01*
X101677525Y-76999500D01*
X101574018Y-77027235D01*
X101537511Y-77037017D01*
X101414763Y-77107887D01*
X101352763Y-77124500D01*
X88777610Y-77124500D01*
X88710571Y-77104815D01*
X88689929Y-77088181D01*
X85511265Y-73909517D01*
X85511263Y-73909515D01*
X85414237Y-73853497D01*
X85306018Y-73824500D01*
X85306017Y-73824500D01*
X72575951Y-73824500D01*
X72508912Y-73804815D01*
X72463157Y-73752011D01*
X72462517Y-73750586D01*
X72452209Y-73727240D01*
X72452207Y-73727237D01*
X72452206Y-73727235D01*
X72372765Y-73647794D01*
X72372763Y-73647793D01*
X72269992Y-73602415D01*
X72244865Y-73599500D01*
X70655143Y-73599500D01*
X70655117Y-73599502D01*
X70630012Y-73602413D01*
X70630008Y-73602415D01*
X70527235Y-73647793D01*
X70447794Y-73727234D01*
X70402415Y-73830006D01*
X70402415Y-73830008D01*
X70399500Y-73855131D01*
X70399500Y-74844856D01*
X70399502Y-74844882D01*
X70402413Y-74869987D01*
X70402415Y-74869991D01*
X70447793Y-74972764D01*
X70447794Y-74972765D01*
X70527235Y-75052206D01*
X70630009Y-75097585D01*
X70655135Y-75100500D01*
X72244864Y-75100499D01*
X72244879Y-75100497D01*
X72244882Y-75100497D01*
X72269987Y-75097586D01*
X72269988Y-75097585D01*
X72269991Y-75097585D01*
X72372765Y-75052206D01*
X72452206Y-74972765D01*
X72497585Y-74869991D01*
X72500500Y-74844865D01*
X72500500Y-74799500D01*
X72520185Y-74732461D01*
X72572989Y-74686706D01*
X72624500Y-74675500D01*
X85022390Y-74675500D01*
X85089429Y-74695185D01*
X85110071Y-74711819D01*
X87861071Y-77462819D01*
X87894556Y-77524142D01*
X87889572Y-77593834D01*
X87847700Y-77649767D01*
X87782236Y-77674184D01*
X87773390Y-77674500D01*
X74193982Y-77674500D01*
X74085763Y-77703497D01*
X74085760Y-77703498D01*
X73988740Y-77759513D01*
X73988734Y-77759517D01*
X73010071Y-78738181D01*
X72948748Y-78771666D01*
X72922390Y-78774500D01*
X22607610Y-78774500D01*
X22540571Y-78754815D01*
X22519929Y-78738181D01*
X21916818Y-78135070D01*
X21883333Y-78073747D01*
X21880499Y-78047389D01*
X21880499Y-77155131D01*
X65499500Y-77155131D01*
X65499500Y-78144856D01*
X65499502Y-78144882D01*
X65502413Y-78169987D01*
X65502415Y-78169991D01*
X65547793Y-78272764D01*
X65547794Y-78272765D01*
X65627235Y-78352206D01*
X65730009Y-78397585D01*
X65755135Y-78400500D01*
X67344864Y-78400499D01*
X67344879Y-78400497D01*
X67344882Y-78400497D01*
X67369987Y-78397586D01*
X67369988Y-78397585D01*
X67369991Y-78397585D01*
X67472765Y-78352206D01*
X67552206Y-78272765D01*
X67597585Y-78169991D01*
X67600500Y-78144865D01*
X67600499Y-77155136D01*
X67600497Y-77155117D01*
X67597586Y-77130012D01*
X67597585Y-77130010D01*
X67597585Y-77130009D01*
X67552206Y-77027235D01*
X67472765Y-76947794D01*
X67461731Y-76942922D01*
X67369992Y-76902415D01*
X67344865Y-76899500D01*
X65755143Y-76899500D01*
X65755117Y-76899502D01*
X65730012Y-76902413D01*
X65730008Y-76902415D01*
X65627235Y-76947793D01*
X65547794Y-77027234D01*
X65502415Y-77130006D01*
X65502415Y-77130008D01*
X65499500Y-77155131D01*
X21880499Y-77155131D01*
X21880499Y-77155130D01*
X21877586Y-77130012D01*
X21877585Y-77130010D01*
X21877585Y-77130009D01*
X21832206Y-77027235D01*
X21752765Y-76947794D01*
X21741731Y-76942922D01*
X21649992Y-76902415D01*
X21624865Y-76899500D01*
X20035143Y-76899500D01*
X20035117Y-76899502D01*
X20010012Y-76902413D01*
X20010008Y-76902415D01*
X19907235Y-76947793D01*
X19827794Y-77027234D01*
X19782415Y-77130006D01*
X19782415Y-77130008D01*
X19779500Y-77155131D01*
X1300000Y-77155131D01*
X1300000Y-73855131D01*
X19779500Y-73855131D01*
X19779500Y-74844856D01*
X19779502Y-74844882D01*
X19782413Y-74869987D01*
X19782415Y-74869991D01*
X19827793Y-74972764D01*
X19827794Y-74972765D01*
X19907235Y-75052206D01*
X20010009Y-75097585D01*
X20035135Y-75100500D01*
X21624864Y-75100499D01*
X21624879Y-75100497D01*
X21624882Y-75100497D01*
X21649987Y-75097586D01*
X21649988Y-75097585D01*
X21649991Y-75097585D01*
X21752765Y-75052206D01*
X21832206Y-74972765D01*
X21877585Y-74869991D01*
X21880500Y-74844865D01*
X21880499Y-74058674D01*
X21900183Y-73991636D01*
X21916813Y-73970999D01*
X22032681Y-73855131D01*
X24679500Y-73855131D01*
X24679500Y-74844856D01*
X24679502Y-74844882D01*
X24682413Y-74869987D01*
X24682415Y-74869991D01*
X24727793Y-74972764D01*
X24727794Y-74972765D01*
X24807235Y-75052206D01*
X24910009Y-75097585D01*
X24935135Y-75100500D01*
X26524864Y-75100499D01*
X26524879Y-75100497D01*
X26524882Y-75100497D01*
X26549987Y-75097586D01*
X26549988Y-75097585D01*
X26549991Y-75097585D01*
X26652765Y-75052206D01*
X26732206Y-74972765D01*
X26777585Y-74869991D01*
X26780500Y-74844865D01*
X26780500Y-74799500D01*
X26800185Y-74732461D01*
X26852989Y-74686706D01*
X26904500Y-74675500D01*
X36102763Y-74675500D01*
X36164763Y-74692113D01*
X36287511Y-74762982D01*
X36287512Y-74762982D01*
X36287515Y-74762984D01*
X36427525Y-74800500D01*
X36427528Y-74800500D01*
X36572472Y-74800500D01*
X36572475Y-74800500D01*
X36712485Y-74762984D01*
X36838015Y-74690509D01*
X36940509Y-74588015D01*
X37012984Y-74462485D01*
X37050500Y-74322475D01*
X37050500Y-74177525D01*
X37012984Y-74037515D01*
X36995547Y-74007314D01*
X36940511Y-73911988D01*
X36940506Y-73911982D01*
X36838017Y-73809493D01*
X36838011Y-73809488D01*
X36712488Y-73737017D01*
X36712489Y-73737017D01*
X36701006Y-73733940D01*
X36572475Y-73699500D01*
X36427525Y-73699500D01*
X36298993Y-73733940D01*
X36287511Y-73737017D01*
X36164763Y-73807887D01*
X36102763Y-73824500D01*
X26855951Y-73824500D01*
X26788912Y-73804815D01*
X26743157Y-73752011D01*
X26742517Y-73750586D01*
X26732209Y-73727240D01*
X26732207Y-73727237D01*
X26732206Y-73727235D01*
X26652765Y-73647794D01*
X26652763Y-73647793D01*
X26549992Y-73602415D01*
X26524865Y-73599500D01*
X24935143Y-73599500D01*
X24935117Y-73599502D01*
X24910012Y-73602413D01*
X24910008Y-73602415D01*
X24807235Y-73647793D01*
X24727794Y-73727234D01*
X24682415Y-73830006D01*
X24682415Y-73830008D01*
X24679500Y-73855131D01*
X22032681Y-73855131D01*
X22750995Y-73136819D01*
X22812318Y-73103334D01*
X22838676Y-73100500D01*
X32934108Y-73100500D01*
X48691324Y-73100500D01*
X48758363Y-73120185D01*
X48779005Y-73136819D01*
X49742686Y-74100500D01*
X49856814Y-74166392D01*
X49984108Y-74200500D01*
X50115893Y-74200500D01*
X65375500Y-74200500D01*
X65442539Y-74220185D01*
X65488294Y-74272989D01*
X65499500Y-74324500D01*
X65499500Y-74844856D01*
X65499502Y-74844882D01*
X65502413Y-74869987D01*
X65502415Y-74869991D01*
X65547793Y-74972764D01*
X65547794Y-74972765D01*
X65627235Y-75052206D01*
X65730009Y-75097585D01*
X65755135Y-75100500D01*
X67344864Y-75100499D01*
X67344879Y-75100497D01*
X67344882Y-75100497D01*
X67369987Y-75097586D01*
X67369988Y-75097585D01*
X67369991Y-75097585D01*
X67472765Y-75052206D01*
X67552206Y-74972765D01*
X67597585Y-74869991D01*
X67600500Y-74844865D01*
X67600499Y-73855136D01*
X67599846Y-73849502D01*
X67597586Y-73830012D01*
X67597585Y-73830010D01*
X67597585Y-73830009D01*
X67552206Y-73727235D01*
X67479073Y-73654102D01*
X67445588Y-73592779D01*
X67450572Y-73523087D01*
X67479073Y-73478740D01*
X67632313Y-73325500D01*
X68050500Y-72907314D01*
X68116392Y-72793186D01*
X68150500Y-72665892D01*
X68150500Y-72534107D01*
X68150500Y-71674500D01*
X68170185Y-71607461D01*
X68222989Y-71561706D01*
X68274500Y-71550500D01*
X68322472Y-71550500D01*
X68322475Y-71550500D01*
X68462485Y-71512984D01*
X68588015Y-71440509D01*
X68690509Y-71338015D01*
X68762984Y-71212485D01*
X68799671Y-71075568D01*
X68831761Y-71019986D01*
X71269986Y-68581761D01*
X71325568Y-68549671D01*
X71462485Y-68512984D01*
X71588015Y-68440509D01*
X71690509Y-68338015D01*
X71762984Y-68212485D01*
X71800500Y-68072475D01*
X71800500Y-67927525D01*
X71762984Y-67787515D01*
X71712168Y-67699500D01*
X71690511Y-67661988D01*
X71690506Y-67661982D01*
X71588017Y-67559493D01*
X71588011Y-67559488D01*
X71462488Y-67487017D01*
X71462489Y-67487017D01*
X71451006Y-67483940D01*
X71322475Y-67449500D01*
X71177525Y-67449500D01*
X71048993Y-67483940D01*
X71037511Y-67487017D01*
X70911988Y-67559488D01*
X70911982Y-67559493D01*
X70809493Y-67661982D01*
X70809488Y-67661988D01*
X70737017Y-67787511D01*
X70700330Y-67924428D01*
X70668236Y-67980015D01*
X68362181Y-70286071D01*
X68342744Y-70296683D01*
X68326011Y-70311184D01*
X68312679Y-70313100D01*
X68300858Y-70319556D01*
X68278771Y-70317976D01*
X68256853Y-70321128D01*
X68244601Y-70315532D01*
X68231166Y-70314572D01*
X68213439Y-70301301D01*
X68193297Y-70292103D01*
X68186014Y-70280771D01*
X68175233Y-70272700D01*
X68167495Y-70251954D01*
X68155523Y-70233325D01*
X68152371Y-70211406D01*
X68150816Y-70207236D01*
X68150500Y-70198390D01*
X68150500Y-70108676D01*
X68170185Y-70041637D01*
X68186819Y-70020995D01*
X68665131Y-69542683D01*
X69150500Y-69057314D01*
X69216392Y-68943186D01*
X69250500Y-68815892D01*
X69250500Y-68684107D01*
X69250500Y-67908676D01*
X69270185Y-67841637D01*
X69286819Y-67820995D01*
X70570995Y-66536819D01*
X70632318Y-66503334D01*
X70658676Y-66500500D01*
X74184108Y-66500500D01*
X74315892Y-66500500D01*
X74339114Y-66500500D01*
X74384602Y-66509144D01*
X74501438Y-66555219D01*
X74585884Y-66565360D01*
X74606184Y-66565360D01*
X74673223Y-66585045D01*
X74693865Y-66601679D01*
X76599500Y-68507314D01*
X76692686Y-68600500D01*
X76806814Y-68666392D01*
X76934108Y-68700500D01*
X86641324Y-68700500D01*
X86708363Y-68720185D01*
X86729005Y-68736819D01*
X92549500Y-74557314D01*
X92642686Y-74650500D01*
X92756814Y-74716392D01*
X92884108Y-74750500D01*
X101491324Y-74750500D01*
X101558363Y-74770185D01*
X101579005Y-74786819D01*
X102542686Y-75750500D01*
X102656814Y-75816392D01*
X102784108Y-75850500D01*
X102915893Y-75850500D01*
X102992324Y-75850500D01*
X103059363Y-75870185D01*
X103105118Y-75922989D01*
X103115062Y-75992147D01*
X103086037Y-76055703D01*
X103080005Y-76062181D01*
X102999502Y-76142683D01*
X102999500Y-76142686D01*
X102933608Y-76256812D01*
X102899500Y-76384108D01*
X102899500Y-78941324D01*
X102879815Y-79008363D01*
X102863181Y-79029005D01*
X100799502Y-81092683D01*
X100799500Y-81092686D01*
X100733608Y-81206812D01*
X100699500Y-81334108D01*
X100699500Y-82241324D01*
X100679815Y-82308363D01*
X100663181Y-82329005D01*
X95849502Y-87142683D01*
X95849500Y-87142686D01*
X95783608Y-87256812D01*
X95749500Y-87384108D01*
X95749500Y-100241593D01*
X95729815Y-100308632D01*
X95677011Y-100354387D01*
X95663818Y-100359524D01*
X95558363Y-100393787D01*
X95558360Y-100393788D01*
X95397002Y-100476006D01*
X95250505Y-100582441D01*
X95250500Y-100582445D01*
X95122445Y-100710500D01*
X95122441Y-100710505D01*
X95016006Y-100857002D01*
X94933788Y-101018360D01*
X94933787Y-101018363D01*
X94877829Y-101190589D01*
X94849500Y-101369448D01*
X94849500Y-101550551D01*
X94877829Y-101729410D01*
X94933787Y-101901636D01*
X94933788Y-101901639D01*
X95016006Y-102062997D01*
X95122441Y-102209494D01*
X95122445Y-102209499D01*
X95250500Y-102337554D01*
X95250505Y-102337558D01*
X95275213Y-102355509D01*
X95397006Y-102443996D01*
X95458836Y-102475500D01*
X95558360Y-102526211D01*
X95558363Y-102526212D01*
X95644476Y-102554191D01*
X95730591Y-102582171D01*
X95813429Y-102595291D01*
X95909449Y-102610500D01*
X95909454Y-102610500D01*
X96090551Y-102610500D01*
X96177259Y-102596765D01*
X96269409Y-102582171D01*
X96441639Y-102526211D01*
X96602994Y-102443996D01*
X96749501Y-102337553D01*
X96877553Y-102209501D01*
X96983996Y-102062994D01*
X97066211Y-101901639D01*
X97122171Y-101729409D01*
X97136765Y-101637259D01*
X97150500Y-101550551D01*
X97150500Y-101369448D01*
X97123859Y-101201251D01*
X97122171Y-101190591D01*
X97066211Y-101018361D01*
X97066211Y-101018360D01*
X97034687Y-100956492D01*
X96983996Y-100857006D01*
X96890937Y-100728920D01*
X96877558Y-100710505D01*
X96877554Y-100710500D01*
X96786819Y-100619765D01*
X96753334Y-100558442D01*
X96750500Y-100532084D01*
X96750500Y-98914665D01*
X96757543Y-98890676D01*
X96760513Y-98865850D01*
X96767218Y-98857729D01*
X96770185Y-98847626D01*
X96789077Y-98831255D01*
X96804999Y-98811973D01*
X96815031Y-98808766D01*
X96822989Y-98801871D01*
X96847735Y-98798312D01*
X96871552Y-98790700D01*
X96887454Y-98792601D01*
X96892147Y-98791927D01*
X96906579Y-98794887D01*
X96924432Y-98799671D01*
X96980015Y-98831763D01*
X99288181Y-101139928D01*
X99321666Y-101201251D01*
X99324500Y-101227609D01*
X99324500Y-102693982D01*
X99324500Y-102806018D01*
X99337330Y-102853901D01*
X99347614Y-102892282D01*
X99345951Y-102962132D01*
X99306788Y-103019994D01*
X99242559Y-103047498D01*
X99173657Y-103035911D01*
X99154953Y-103024692D01*
X99142998Y-103016006D01*
X98981639Y-102933788D01*
X98981636Y-102933787D01*
X98809410Y-102877829D01*
X98630551Y-102849500D01*
X98630546Y-102849500D01*
X98449454Y-102849500D01*
X98449449Y-102849500D01*
X98270589Y-102877829D01*
X98098363Y-102933787D01*
X98098360Y-102933788D01*
X97937002Y-103016006D01*
X97790505Y-103122441D01*
X97790500Y-103122445D01*
X97662445Y-103250500D01*
X97662441Y-103250505D01*
X97556006Y-103397002D01*
X97473788Y-103558360D01*
X97473787Y-103558363D01*
X97417829Y-103730589D01*
X97389500Y-103909448D01*
X97389500Y-104090551D01*
X97417829Y-104269410D01*
X97473787Y-104441636D01*
X97473788Y-104441639D01*
X97556006Y-104602997D01*
X97662441Y-104749494D01*
X97662445Y-104749499D01*
X97790500Y-104877554D01*
X97790505Y-104877558D01*
X97918287Y-104970396D01*
X97937006Y-104983996D01*
X98024497Y-105028575D01*
X98098360Y-105066211D01*
X98098363Y-105066212D01*
X98184476Y-105094191D01*
X98270591Y-105122171D01*
X98353429Y-105135291D01*
X98449449Y-105150500D01*
X98449454Y-105150500D01*
X98630551Y-105150500D01*
X98717259Y-105136765D01*
X98809409Y-105122171D01*
X98981639Y-105066211D01*
X99142994Y-104983996D01*
X99289501Y-104877553D01*
X99417553Y-104749501D01*
X99523996Y-104602994D01*
X99606211Y-104441639D01*
X99662171Y-104269409D01*
X99676422Y-104179425D01*
X99687527Y-104109321D01*
X99717456Y-104046186D01*
X99776768Y-104009255D01*
X99846630Y-104010253D01*
X99904863Y-104048863D01*
X99932473Y-104109321D01*
X99957829Y-104269410D01*
X100013787Y-104441636D01*
X100013788Y-104441639D01*
X100096006Y-104602997D01*
X100202441Y-104749494D01*
X100202445Y-104749499D01*
X100330500Y-104877554D01*
X100330505Y-104877558D01*
X100458287Y-104970396D01*
X100477006Y-104983996D01*
X100564497Y-105028575D01*
X100638360Y-105066211D01*
X100638363Y-105066212D01*
X100724476Y-105094191D01*
X100810591Y-105122171D01*
X100893429Y-105135291D01*
X100989449Y-105150500D01*
X100989454Y-105150500D01*
X101170551Y-105150500D01*
X101257259Y-105136765D01*
X101349409Y-105122171D01*
X101521639Y-105066211D01*
X101682994Y-104983996D01*
X101829501Y-104877553D01*
X101957553Y-104749501D01*
X102063996Y-104602994D01*
X102146211Y-104441639D01*
X102202171Y-104269409D01*
X102216422Y-104179425D01*
X102227527Y-104109321D01*
X102257456Y-104046186D01*
X102316768Y-104009255D01*
X102386630Y-104010253D01*
X102444863Y-104048863D01*
X102472473Y-104109321D01*
X102497829Y-104269410D01*
X102553787Y-104441636D01*
X102553788Y-104441639D01*
X102636006Y-104602997D01*
X102742441Y-104749494D01*
X102742445Y-104749499D01*
X102870500Y-104877554D01*
X102870505Y-104877558D01*
X102998287Y-104970396D01*
X103017006Y-104983996D01*
X103104497Y-105028575D01*
X103178360Y-105066211D01*
X103178363Y-105066212D01*
X103264476Y-105094191D01*
X103350591Y-105122171D01*
X103433429Y-105135291D01*
X103529449Y-105150500D01*
X103529454Y-105150500D01*
X103710551Y-105150500D01*
X103797259Y-105136765D01*
X103889409Y-105122171D01*
X104061639Y-105066211D01*
X104222994Y-104983996D01*
X104369501Y-104877553D01*
X104497553Y-104749501D01*
X104603996Y-104602994D01*
X104686211Y-104441639D01*
X104742171Y-104269409D01*
X104756422Y-104179425D01*
X104767527Y-104109321D01*
X104797456Y-104046186D01*
X104856768Y-104009255D01*
X104926630Y-104010253D01*
X104984863Y-104048863D01*
X105012473Y-104109321D01*
X105037829Y-104269410D01*
X105093787Y-104441636D01*
X105093788Y-104441639D01*
X105176006Y-104602997D01*
X105282441Y-104749494D01*
X105282445Y-104749499D01*
X105410500Y-104877554D01*
X105410505Y-104877558D01*
X105538287Y-104970396D01*
X105557006Y-104983996D01*
X105644497Y-105028575D01*
X105718360Y-105066211D01*
X105718363Y-105066212D01*
X105804476Y-105094191D01*
X105890591Y-105122171D01*
X105973429Y-105135291D01*
X106069449Y-105150500D01*
X106069454Y-105150500D01*
X106250551Y-105150500D01*
X106337259Y-105136765D01*
X106429409Y-105122171D01*
X106601639Y-105066211D01*
X106762994Y-104983996D01*
X106909501Y-104877553D01*
X107037553Y-104749501D01*
X107143996Y-104602994D01*
X107226211Y-104441639D01*
X107282171Y-104269409D01*
X107296422Y-104179425D01*
X107307527Y-104109321D01*
X107337456Y-104046186D01*
X107396768Y-104009255D01*
X107466630Y-104010253D01*
X107524863Y-104048863D01*
X107552473Y-104109321D01*
X107577829Y-104269410D01*
X107633787Y-104441636D01*
X107633788Y-104441639D01*
X107651223Y-104475855D01*
X107664119Y-104544524D01*
X107637843Y-104609264D01*
X107628420Y-104619831D01*
X107538737Y-104709515D01*
X107459514Y-104788738D01*
X107459513Y-104788740D01*
X107403498Y-104885760D01*
X107403497Y-104885763D01*
X107374500Y-104993982D01*
X107374500Y-105600500D01*
X107354815Y-105667539D01*
X107302011Y-105713294D01*
X107250500Y-105724500D01*
X41249500Y-105724500D01*
X41182461Y-105704815D01*
X41136706Y-105652011D01*
X41125500Y-105600500D01*
X41125500Y-95905513D01*
X67799500Y-95905513D01*
X67799500Y-96094486D01*
X67829059Y-96281118D01*
X67887454Y-96460836D01*
X67973240Y-96629199D01*
X68084310Y-96782073D01*
X68217927Y-96915690D01*
X68370801Y-97026760D01*
X68450347Y-97067290D01*
X68539163Y-97112545D01*
X68539165Y-97112545D01*
X68539168Y-97112547D01*
X68635497Y-97143846D01*
X68718881Y-97170940D01*
X68905514Y-97200500D01*
X68905519Y-97200500D01*
X69094486Y-97200500D01*
X69281118Y-97170940D01*
X69460832Y-97112547D01*
X69629199Y-97026760D01*
X69782073Y-96915690D01*
X69915690Y-96782073D01*
X70026760Y-96629199D01*
X70112547Y-96460832D01*
X70132069Y-96400748D01*
X70171507Y-96343073D01*
X70235865Y-96315875D01*
X70304712Y-96327790D01*
X70356187Y-96375034D01*
X70367930Y-96400746D01*
X70387453Y-96460832D01*
X70473240Y-96629199D01*
X70584310Y-96782073D01*
X70717927Y-96915690D01*
X70870801Y-97026760D01*
X70950347Y-97067290D01*
X71039163Y-97112545D01*
X71039165Y-97112545D01*
X71039168Y-97112547D01*
X71135497Y-97143846D01*
X71218881Y-97170940D01*
X71405514Y-97200500D01*
X71405519Y-97200500D01*
X71594486Y-97200500D01*
X71781118Y-97170940D01*
X71960832Y-97112547D01*
X72129199Y-97026760D01*
X72282073Y-96915690D01*
X72415690Y-96782073D01*
X72526760Y-96629199D01*
X72612547Y-96460832D01*
X72670940Y-96281118D01*
X72700500Y-96094486D01*
X72700500Y-95905513D01*
X72670940Y-95718881D01*
X72615959Y-95549670D01*
X72612547Y-95539168D01*
X72612545Y-95539165D01*
X72612545Y-95539163D01*
X72526759Y-95370800D01*
X72415690Y-95217927D01*
X72282073Y-95084310D01*
X72129199Y-94973240D01*
X71960836Y-94887454D01*
X71781118Y-94829059D01*
X71594486Y-94799500D01*
X71594481Y-94799500D01*
X71405519Y-94799500D01*
X71405514Y-94799500D01*
X71218881Y-94829059D01*
X71039163Y-94887454D01*
X70870800Y-94973240D01*
X70783579Y-95036610D01*
X70717927Y-95084310D01*
X70717925Y-95084312D01*
X70717924Y-95084312D01*
X70584312Y-95217924D01*
X70584312Y-95217925D01*
X70584310Y-95217927D01*
X70536610Y-95283579D01*
X70473240Y-95370800D01*
X70387454Y-95539163D01*
X70367931Y-95599251D01*
X70328493Y-95656926D01*
X70264134Y-95684124D01*
X70195288Y-95672209D01*
X70143812Y-95624965D01*
X70132069Y-95599251D01*
X70115959Y-95549670D01*
X70112547Y-95539168D01*
X70112545Y-95539165D01*
X70112545Y-95539163D01*
X70026759Y-95370800D01*
X69915690Y-95217927D01*
X69782073Y-95084310D01*
X69629199Y-94973240D01*
X69460836Y-94887454D01*
X69281118Y-94829059D01*
X69094486Y-94799500D01*
X69094481Y-94799500D01*
X68905519Y-94799500D01*
X68905514Y-94799500D01*
X68718881Y-94829059D01*
X68539163Y-94887454D01*
X68370800Y-94973240D01*
X68283579Y-95036610D01*
X68217927Y-95084310D01*
X68217925Y-95084312D01*
X68217924Y-95084312D01*
X68084312Y-95217924D01*
X68084312Y-95217925D01*
X68084310Y-95217927D01*
X68036610Y-95283579D01*
X67973240Y-95370800D01*
X67887454Y-95539163D01*
X67829059Y-95718881D01*
X67799500Y-95905513D01*
X41125500Y-95905513D01*
X41125500Y-92943984D01*
X41125500Y-92943982D01*
X41096503Y-92835763D01*
X41040485Y-92738737D01*
X40961263Y-92659515D01*
X40864237Y-92603497D01*
X40756018Y-92574500D01*
X26336019Y-92574500D01*
X26223982Y-92574500D01*
X26115763Y-92603497D01*
X26115760Y-92603498D01*
X26018740Y-92659513D01*
X26018734Y-92659517D01*
X23832276Y-94845974D01*
X23770953Y-94879459D01*
X23706277Y-94876224D01*
X23561121Y-94829060D01*
X23374486Y-94799500D01*
X23374481Y-94799500D01*
X23185519Y-94799500D01*
X23185514Y-94799500D01*
X22998881Y-94829059D01*
X22819163Y-94887454D01*
X22650800Y-94973240D01*
X22563579Y-95036610D01*
X22497927Y-95084310D01*
X22497925Y-95084312D01*
X22497924Y-95084312D01*
X22364312Y-95217924D01*
X22364312Y-95217925D01*
X22364310Y-95217927D01*
X22316610Y-95283579D01*
X22253240Y-95370800D01*
X22167454Y-95539163D01*
X22109059Y-95718881D01*
X22079500Y-95905513D01*
X22079500Y-96094486D01*
X22109059Y-96281118D01*
X22167454Y-96460836D01*
X22253240Y-96629199D01*
X22364310Y-96782073D01*
X22497927Y-96915690D01*
X22650801Y-97026760D01*
X22730347Y-97067290D01*
X22819163Y-97112545D01*
X22819165Y-97112545D01*
X22819168Y-97112547D01*
X22915497Y-97143846D01*
X22998881Y-97170940D01*
X23185514Y-97200500D01*
X23185519Y-97200500D01*
X23374486Y-97200500D01*
X23561118Y-97170940D01*
X23740832Y-97112547D01*
X23909199Y-97026760D01*
X24062073Y-96915690D01*
X24195690Y-96782073D01*
X24306760Y-96629199D01*
X24392547Y-96460832D01*
X24412069Y-96400748D01*
X24451507Y-96343073D01*
X24515865Y-96315875D01*
X24584712Y-96327790D01*
X24636187Y-96375034D01*
X24647930Y-96400746D01*
X24667453Y-96460832D01*
X24753240Y-96629199D01*
X24864310Y-96782073D01*
X24997927Y-96915690D01*
X25150801Y-97026760D01*
X25230347Y-97067290D01*
X25319163Y-97112545D01*
X25319165Y-97112545D01*
X25319168Y-97112547D01*
X25415497Y-97143846D01*
X25498881Y-97170940D01*
X25685514Y-97200500D01*
X25685519Y-97200500D01*
X25874486Y-97200500D01*
X26061118Y-97170940D01*
X26240832Y-97112547D01*
X26409199Y-97026760D01*
X26562073Y-96915690D01*
X26695690Y-96782073D01*
X26806760Y-96629199D01*
X26892547Y-96460832D01*
X26950940Y-96281118D01*
X26980500Y-96094486D01*
X26980500Y-95905513D01*
X26950940Y-95718881D01*
X26895959Y-95549670D01*
X26892547Y-95539168D01*
X26892545Y-95539165D01*
X26892545Y-95539163D01*
X26806759Y-95370800D01*
X26695690Y-95217927D01*
X26562073Y-95084310D01*
X26409199Y-94973240D01*
X26240836Y-94887454D01*
X26061118Y-94829059D01*
X25874486Y-94799500D01*
X25874481Y-94799500D01*
X25685519Y-94799500D01*
X25685514Y-94799500D01*
X25498880Y-94829060D01*
X25498877Y-94829060D01*
X25329147Y-94884210D01*
X25259306Y-94886205D01*
X25199473Y-94850125D01*
X25168645Y-94787424D01*
X25176610Y-94718010D01*
X25203145Y-94678602D01*
X26419929Y-93461819D01*
X26481252Y-93428334D01*
X26507610Y-93425500D01*
X40150500Y-93425500D01*
X40217539Y-93445185D01*
X40263294Y-93497989D01*
X40274500Y-93549500D01*
X40274500Y-106093982D01*
X40274500Y-106206018D01*
X40303497Y-106314237D01*
X40359515Y-106411263D01*
X40438737Y-106490485D01*
X40535763Y-106546503D01*
X40643982Y-106575500D01*
X92825500Y-106575500D01*
X92892539Y-106595185D01*
X92938294Y-106647989D01*
X92949500Y-106699500D01*
X92949500Y-106772475D01*
X92987016Y-106912485D01*
X92987017Y-106912488D01*
X93059488Y-107038011D01*
X93059490Y-107038013D01*
X93059491Y-107038015D01*
X93161985Y-107140509D01*
X93161986Y-107140510D01*
X93161988Y-107140511D01*
X93287511Y-107212982D01*
X93287512Y-107212982D01*
X93287515Y-107212984D01*
X93353728Y-107230726D01*
X93413387Y-107267090D01*
X93443916Y-107329937D01*
X93435621Y-107399313D01*
X93391136Y-107453191D01*
X93324584Y-107474465D01*
X93321633Y-107474500D01*
X69397237Y-107474500D01*
X69335237Y-107457887D01*
X69212488Y-107387017D01*
X69212489Y-107387017D01*
X69201006Y-107383940D01*
X69072475Y-107349500D01*
X68927525Y-107349500D01*
X68798993Y-107383940D01*
X68787511Y-107387017D01*
X68661988Y-107459488D01*
X68661982Y-107459493D01*
X68559493Y-107561982D01*
X68559488Y-107561988D01*
X68487017Y-107687511D01*
X68487016Y-107687515D01*
X68449500Y-107827525D01*
X68449500Y-107972475D01*
X68487016Y-108112485D01*
X68487017Y-108112488D01*
X68559488Y-108238011D01*
X68559490Y-108238013D01*
X68559491Y-108238015D01*
X68661985Y-108340509D01*
X68661986Y-108340510D01*
X68661988Y-108340511D01*
X68787511Y-108412982D01*
X68787512Y-108412982D01*
X68787515Y-108412984D01*
X68927525Y-108450500D01*
X68927528Y-108450500D01*
X69072472Y-108450500D01*
X69072475Y-108450500D01*
X69212485Y-108412984D01*
X69266159Y-108381995D01*
X119199500Y-108381995D01*
X119199500Y-108618004D01*
X119199501Y-108618020D01*
X119230306Y-108852010D01*
X119291394Y-109079993D01*
X119381714Y-109298045D01*
X119381719Y-109298056D01*
X119452677Y-109420957D01*
X119499727Y-109502450D01*
X119499729Y-109502453D01*
X119499730Y-109502454D01*
X119643406Y-109689697D01*
X119643412Y-109689704D01*
X119810295Y-109856587D01*
X119810301Y-109856592D01*
X119997550Y-110000273D01*
X120128918Y-110076118D01*
X120201943Y-110118280D01*
X120201948Y-110118282D01*
X120201951Y-110118284D01*
X120420007Y-110208606D01*
X120647986Y-110269693D01*
X120881989Y-110300500D01*
X120881996Y-110300500D01*
X121118004Y-110300500D01*
X121118011Y-110300500D01*
X121352014Y-110269693D01*
X121579993Y-110208606D01*
X121798049Y-110118284D01*
X122002450Y-110000273D01*
X122189699Y-109856592D01*
X122356592Y-109689699D01*
X122500273Y-109502450D01*
X122618284Y-109298049D01*
X122708606Y-109079993D01*
X122769693Y-108852014D01*
X122800500Y-108618011D01*
X122800500Y-108381989D01*
X122769693Y-108147986D01*
X122708606Y-107920007D01*
X122618284Y-107701951D01*
X122618282Y-107701948D01*
X122618280Y-107701943D01*
X122537476Y-107561988D01*
X122500273Y-107497550D01*
X122415457Y-107387016D01*
X122356593Y-107310302D01*
X122356587Y-107310295D01*
X122189704Y-107143412D01*
X122189697Y-107143406D01*
X122002454Y-106999730D01*
X122002453Y-106999729D01*
X122002450Y-106999727D01*
X121920957Y-106952677D01*
X121798056Y-106881719D01*
X121798045Y-106881714D01*
X121579993Y-106791394D01*
X121352014Y-106730307D01*
X121352013Y-106730306D01*
X121352010Y-106730306D01*
X121118020Y-106699501D01*
X121118017Y-106699500D01*
X121118011Y-106699500D01*
X120881989Y-106699500D01*
X120881983Y-106699500D01*
X120881979Y-106699501D01*
X120647989Y-106730306D01*
X120420006Y-106791394D01*
X120201954Y-106881714D01*
X120201943Y-106881719D01*
X119997545Y-106999730D01*
X119810302Y-107143406D01*
X119810295Y-107143412D01*
X119643412Y-107310295D01*
X119643406Y-107310302D01*
X119499730Y-107497545D01*
X119381719Y-107701943D01*
X119381714Y-107701954D01*
X119291394Y-107920006D01*
X119230306Y-108147989D01*
X119199501Y-108381979D01*
X119199500Y-108381995D01*
X69266159Y-108381995D01*
X69335237Y-108342113D01*
X69397237Y-108325500D01*
X111096016Y-108325500D01*
X111096018Y-108325500D01*
X111204237Y-108296503D01*
X111301263Y-108240485D01*
X114120485Y-105421263D01*
X114176503Y-105324237D01*
X114205500Y-105216019D01*
X114205500Y-105150421D01*
X114225185Y-105083382D01*
X114273203Y-105039937D01*
X114382994Y-104983996D01*
X114529501Y-104877553D01*
X114657553Y-104749501D01*
X114763996Y-104602994D01*
X114846211Y-104441639D01*
X114902171Y-104269409D01*
X114916765Y-104177259D01*
X114930500Y-104090551D01*
X114930500Y-103909448D01*
X114914019Y-103805397D01*
X114902171Y-103730591D01*
X114862699Y-103609107D01*
X114846212Y-103558363D01*
X114846211Y-103558360D01*
X114817740Y-103502484D01*
X114763996Y-103397006D01*
X114708397Y-103320480D01*
X114657558Y-103250505D01*
X114657554Y-103250500D01*
X114529499Y-103122445D01*
X114529494Y-103122441D01*
X114382997Y-103016006D01*
X114382996Y-103016005D01*
X114382994Y-103016004D01*
X114331300Y-102989664D01*
X114221639Y-102933788D01*
X114221636Y-102933787D01*
X114049410Y-102877829D01*
X113870551Y-102849500D01*
X113870546Y-102849500D01*
X113689454Y-102849500D01*
X113689449Y-102849500D01*
X113510589Y-102877829D01*
X113338363Y-102933787D01*
X113338360Y-102933788D01*
X113177002Y-103016006D01*
X113030505Y-103122441D01*
X113030500Y-103122445D01*
X112902445Y-103250500D01*
X112902441Y-103250505D01*
X112796006Y-103397002D01*
X112713788Y-103558360D01*
X112713787Y-103558363D01*
X112657829Y-103730589D01*
X112632473Y-103890678D01*
X112602544Y-103953813D01*
X112543232Y-103990744D01*
X112473369Y-103989746D01*
X112415137Y-103951136D01*
X112387527Y-103890678D01*
X112373740Y-103803639D01*
X112362171Y-103730591D01*
X112322699Y-103609107D01*
X112306212Y-103558363D01*
X112306211Y-103558360D01*
X112277740Y-103502484D01*
X112223996Y-103397006D01*
X112168397Y-103320480D01*
X112117558Y-103250505D01*
X112117554Y-103250500D01*
X111989499Y-103122445D01*
X111989494Y-103122441D01*
X111842997Y-103016006D01*
X111842996Y-103016005D01*
X111842994Y-103016004D01*
X111791300Y-102989664D01*
X111681639Y-102933788D01*
X111681636Y-102933787D01*
X111509410Y-102877829D01*
X111330551Y-102849500D01*
X111330546Y-102849500D01*
X111149454Y-102849500D01*
X111149449Y-102849500D01*
X110970589Y-102877829D01*
X110798363Y-102933787D01*
X110798360Y-102933788D01*
X110637002Y-103016006D01*
X110490505Y-103122441D01*
X110490500Y-103122445D01*
X110362445Y-103250500D01*
X110362441Y-103250505D01*
X110256006Y-103397002D01*
X110173788Y-103558360D01*
X110173787Y-103558363D01*
X110117829Y-103730589D01*
X110092473Y-103890678D01*
X110062544Y-103953813D01*
X110003232Y-103990744D01*
X109933369Y-103989746D01*
X109875137Y-103951136D01*
X109847527Y-103890678D01*
X109833740Y-103803639D01*
X109822171Y-103730591D01*
X109782699Y-103609107D01*
X109766212Y-103558363D01*
X109766211Y-103558360D01*
X109737740Y-103502484D01*
X109683996Y-103397006D01*
X109628397Y-103320480D01*
X109577558Y-103250505D01*
X109577554Y-103250500D01*
X109449499Y-103122445D01*
X109449494Y-103122441D01*
X109302997Y-103016006D01*
X109302996Y-103016005D01*
X109302994Y-103016004D01*
X109251300Y-102989664D01*
X109141639Y-102933788D01*
X109141636Y-102933787D01*
X108969410Y-102877829D01*
X108809321Y-102852473D01*
X108746186Y-102822544D01*
X108709255Y-102763232D01*
X108710253Y-102693370D01*
X108748863Y-102635137D01*
X108809321Y-102607527D01*
X108879425Y-102596422D01*
X108969409Y-102582171D01*
X109141639Y-102526211D01*
X109302994Y-102443996D01*
X109449501Y-102337553D01*
X109577553Y-102209501D01*
X109683996Y-102062994D01*
X109766211Y-101901639D01*
X109822171Y-101729409D01*
X109836765Y-101637259D01*
X109850500Y-101550551D01*
X109850500Y-101369448D01*
X109823859Y-101201251D01*
X109822171Y-101190591D01*
X109766211Y-101018361D01*
X109766211Y-101018360D01*
X109734687Y-100956492D01*
X109683996Y-100857006D01*
X109590937Y-100728920D01*
X109577558Y-100710505D01*
X109577554Y-100710500D01*
X109449499Y-100582445D01*
X109449494Y-100582441D01*
X109302993Y-100476003D01*
X109302992Y-100476002D01*
X109193205Y-100420062D01*
X109142409Y-100372088D01*
X109125500Y-100309578D01*
X109125500Y-100049500D01*
X109145185Y-99982461D01*
X109197989Y-99936706D01*
X109249500Y-99925500D01*
X111276016Y-99925500D01*
X111276018Y-99925500D01*
X111384237Y-99896503D01*
X111481263Y-99840485D01*
X114167724Y-97154022D01*
X114229045Y-97120539D01*
X114293720Y-97123773D01*
X114368850Y-97148185D01*
X114438881Y-97170940D01*
X114625514Y-97200500D01*
X114625519Y-97200500D01*
X114814486Y-97200500D01*
X115001118Y-97170940D01*
X115180832Y-97112547D01*
X115349199Y-97026760D01*
X115502073Y-96915690D01*
X115635690Y-96782073D01*
X115746760Y-96629199D01*
X115832547Y-96460832D01*
X115852069Y-96400748D01*
X115891507Y-96343073D01*
X115955865Y-96315875D01*
X116024712Y-96327790D01*
X116076187Y-96375034D01*
X116087930Y-96400746D01*
X116107453Y-96460832D01*
X116193240Y-96629199D01*
X116304310Y-96782073D01*
X116437927Y-96915690D01*
X116590801Y-97026760D01*
X116670347Y-97067290D01*
X116759163Y-97112545D01*
X116759165Y-97112545D01*
X116759168Y-97112547D01*
X116855497Y-97143846D01*
X116938881Y-97170940D01*
X117125514Y-97200500D01*
X117125519Y-97200500D01*
X117314486Y-97200500D01*
X117501118Y-97170940D01*
X117680832Y-97112547D01*
X117849199Y-97026760D01*
X118002073Y-96915690D01*
X118135690Y-96782073D01*
X118246760Y-96629199D01*
X118332547Y-96460832D01*
X118390940Y-96281118D01*
X118420500Y-96094486D01*
X118420500Y-95905513D01*
X118390940Y-95718881D01*
X118335959Y-95549670D01*
X118332547Y-95539168D01*
X118332545Y-95539165D01*
X118332545Y-95539163D01*
X118246759Y-95370800D01*
X118135690Y-95217927D01*
X118002073Y-95084310D01*
X117849199Y-94973240D01*
X117680836Y-94887454D01*
X117501118Y-94829059D01*
X117314486Y-94799500D01*
X117314481Y-94799500D01*
X117125519Y-94799500D01*
X117125514Y-94799500D01*
X116938881Y-94829059D01*
X116759163Y-94887454D01*
X116590800Y-94973240D01*
X116503579Y-95036610D01*
X116437927Y-95084310D01*
X116437925Y-95084312D01*
X116437924Y-95084312D01*
X116304312Y-95217924D01*
X116304312Y-95217925D01*
X116304310Y-95217927D01*
X116256610Y-95283579D01*
X116193240Y-95370800D01*
X116107454Y-95539163D01*
X116087931Y-95599251D01*
X116048493Y-95656926D01*
X115984134Y-95684124D01*
X115915288Y-95672209D01*
X115863812Y-95624965D01*
X115852069Y-95599251D01*
X115835959Y-95549670D01*
X115832547Y-95539168D01*
X115832545Y-95539165D01*
X115832545Y-95539163D01*
X115746759Y-95370800D01*
X115635690Y-95217927D01*
X115502073Y-95084310D01*
X115349199Y-94973240D01*
X115180836Y-94887454D01*
X115001118Y-94829059D01*
X114814486Y-94799500D01*
X114814481Y-94799500D01*
X114625519Y-94799500D01*
X114625514Y-94799500D01*
X114438881Y-94829059D01*
X114259163Y-94887454D01*
X114090800Y-94973240D01*
X114003579Y-95036610D01*
X113937927Y-95084310D01*
X113937925Y-95084312D01*
X113937924Y-95084312D01*
X113804312Y-95217924D01*
X113804312Y-95217925D01*
X113804310Y-95217927D01*
X113756610Y-95283579D01*
X113693240Y-95370800D01*
X113607454Y-95539163D01*
X113549059Y-95718881D01*
X113519500Y-95905513D01*
X113519500Y-96094486D01*
X113549060Y-96281119D01*
X113549060Y-96281122D01*
X113596224Y-96426277D01*
X113598219Y-96496118D01*
X113565974Y-96552276D01*
X111080071Y-99038181D01*
X111018748Y-99071666D01*
X110992390Y-99074500D01*
X108643982Y-99074500D01*
X108535763Y-99103497D01*
X108535760Y-99103498D01*
X108438740Y-99159513D01*
X108438734Y-99159517D01*
X108359517Y-99238734D01*
X108359513Y-99238740D01*
X108303498Y-99335760D01*
X108303497Y-99335763D01*
X108274500Y-99443982D01*
X108274500Y-100309578D01*
X108254815Y-100376617D01*
X108206795Y-100420062D01*
X108097007Y-100476002D01*
X108097006Y-100476003D01*
X107950505Y-100582441D01*
X107950500Y-100582445D01*
X107822445Y-100710500D01*
X107822441Y-100710505D01*
X107716006Y-100857002D01*
X107633788Y-101018360D01*
X107633787Y-101018363D01*
X107577829Y-101190589D01*
X107552473Y-101350678D01*
X107522544Y-101413813D01*
X107463232Y-101450744D01*
X107393369Y-101449746D01*
X107335137Y-101411136D01*
X107307527Y-101350678D01*
X107283859Y-101201251D01*
X107282171Y-101190591D01*
X107226211Y-101018361D01*
X107226211Y-101018360D01*
X107194687Y-100956492D01*
X107143996Y-100857006D01*
X107050937Y-100728920D01*
X107037558Y-100710505D01*
X107037554Y-100710500D01*
X106909499Y-100582445D01*
X106909494Y-100582441D01*
X106762997Y-100476006D01*
X106762996Y-100476005D01*
X106762994Y-100476004D01*
X106711300Y-100449664D01*
X106601639Y-100393788D01*
X106601636Y-100393787D01*
X106429410Y-100337829D01*
X106250551Y-100309500D01*
X106250546Y-100309500D01*
X106069454Y-100309500D01*
X106069449Y-100309500D01*
X105890589Y-100337829D01*
X105718363Y-100393787D01*
X105718360Y-100393788D01*
X105557002Y-100476006D01*
X105410505Y-100582441D01*
X105410500Y-100582445D01*
X105282445Y-100710500D01*
X105282441Y-100710505D01*
X105176006Y-100857002D01*
X105093788Y-101018360D01*
X105093787Y-101018363D01*
X105037829Y-101190589D01*
X105012473Y-101350678D01*
X104982544Y-101413813D01*
X104923232Y-101450744D01*
X104853369Y-101449746D01*
X104795137Y-101411136D01*
X104767527Y-101350678D01*
X104743859Y-101201251D01*
X104742171Y-101190591D01*
X104686211Y-101018361D01*
X104686211Y-101018360D01*
X104654687Y-100956492D01*
X104603996Y-100857006D01*
X104510937Y-100728920D01*
X104497558Y-100710505D01*
X104497554Y-100710500D01*
X104369499Y-100582445D01*
X104369494Y-100582441D01*
X104222997Y-100476006D01*
X104222996Y-100476005D01*
X104222994Y-100476004D01*
X104171300Y-100449664D01*
X104061639Y-100393788D01*
X104061636Y-100393787D01*
X103889410Y-100337829D01*
X103710551Y-100309500D01*
X103710546Y-100309500D01*
X103529454Y-100309500D01*
X103529449Y-100309500D01*
X103350589Y-100337829D01*
X103178361Y-100393788D01*
X103137518Y-100414599D01*
X103068849Y-100427495D01*
X103004109Y-100401218D01*
X102993543Y-100391795D01*
X97581763Y-94980015D01*
X97549670Y-94924429D01*
X97512984Y-94787515D01*
X97512931Y-94787424D01*
X97440511Y-94661988D01*
X97440506Y-94661982D01*
X97338017Y-94559493D01*
X97338011Y-94559488D01*
X97212488Y-94487017D01*
X97212489Y-94487017D01*
X97201006Y-94483940D01*
X97072475Y-94449500D01*
X96927525Y-94449500D01*
X96906592Y-94455108D01*
X96836743Y-94453446D01*
X96778881Y-94414283D01*
X96751377Y-94350055D01*
X96750500Y-94335334D01*
X96750500Y-87708676D01*
X96770185Y-87641637D01*
X96786819Y-87620995D01*
X97358314Y-87049500D01*
X101600500Y-82807314D01*
X101666392Y-82693186D01*
X101700500Y-82565893D01*
X101700500Y-82434108D01*
X101700500Y-81658676D01*
X101720185Y-81591637D01*
X101736819Y-81570995D01*
X102308314Y-80999500D01*
X103800500Y-79507314D01*
X103866392Y-79393186D01*
X103900500Y-79265892D01*
X103900500Y-79134107D01*
X103900500Y-76708676D01*
X103920185Y-76641637D01*
X103936819Y-76620995D01*
X104120995Y-76436819D01*
X104182318Y-76403334D01*
X104208676Y-76400500D01*
X111595500Y-76400500D01*
X111662539Y-76420185D01*
X111708294Y-76472989D01*
X111719500Y-76524500D01*
X111719500Y-76572475D01*
X111738032Y-76641637D01*
X111757017Y-76712489D01*
X111757018Y-76712492D01*
X111757603Y-76713504D01*
X111757836Y-76714465D01*
X111760128Y-76719999D01*
X111759265Y-76720356D01*
X111774073Y-76781405D01*
X111751219Y-76847431D01*
X111696296Y-76890619D01*
X111650215Y-76899500D01*
X111475144Y-76899500D01*
X111475117Y-76899502D01*
X111450012Y-76902413D01*
X111450008Y-76902415D01*
X111347235Y-76947793D01*
X111267794Y-77027234D01*
X111222415Y-77130006D01*
X111222415Y-77130008D01*
X111219500Y-77155131D01*
X111219500Y-78144856D01*
X111219502Y-78144882D01*
X111222413Y-78169987D01*
X111222415Y-78169991D01*
X111267793Y-78272764D01*
X111267794Y-78272765D01*
X111347235Y-78352206D01*
X111450009Y-78397585D01*
X111475135Y-78400500D01*
X113064864Y-78400499D01*
X113064879Y-78400497D01*
X113064882Y-78400497D01*
X113089987Y-78397586D01*
X113089988Y-78397585D01*
X113089991Y-78397585D01*
X113192765Y-78352206D01*
X113272206Y-78272765D01*
X113317585Y-78169991D01*
X113320500Y-78144865D01*
X113320499Y-77155136D01*
X113320497Y-77155117D01*
X113317586Y-77130012D01*
X113317585Y-77130010D01*
X113317585Y-77130009D01*
X113272206Y-77027235D01*
X113192765Y-76947794D01*
X113181731Y-76942922D01*
X113089992Y-76902415D01*
X113064868Y-76899500D01*
X113064865Y-76899500D01*
X112889786Y-76899500D01*
X112822747Y-76879815D01*
X112776992Y-76827011D01*
X112767048Y-76757853D01*
X112780114Y-76720099D01*
X112779872Y-76719999D01*
X112781557Y-76715928D01*
X112782397Y-76713504D01*
X112782981Y-76712492D01*
X112782982Y-76712489D01*
X112782982Y-76712487D01*
X112782984Y-76712485D01*
X112820500Y-76572475D01*
X112820500Y-76524500D01*
X112840185Y-76457461D01*
X112892989Y-76411706D01*
X112944500Y-76400500D01*
X113754108Y-76400500D01*
X113885892Y-76400500D01*
X118625500Y-76400500D01*
X118692539Y-76420185D01*
X118738294Y-76472989D01*
X118749500Y-76524500D01*
X118749500Y-76593102D01*
X118752850Y-76620995D01*
X118760122Y-76681561D01*
X118760122Y-76681563D01*
X118760123Y-76681564D01*
X118775280Y-76719999D01*
X118815639Y-76822343D01*
X118907077Y-76942922D01*
X119027656Y-77034360D01*
X119027657Y-77034360D01*
X119027658Y-77034361D01*
X119168436Y-77089877D01*
X119256898Y-77100500D01*
X119256903Y-77100500D01*
X122343097Y-77100500D01*
X122343102Y-77100500D01*
X122431564Y-77089877D01*
X122572342Y-77034361D01*
X122692922Y-76942922D01*
X122784361Y-76822342D01*
X122839877Y-76681564D01*
X122850500Y-76593102D01*
X122850500Y-75406898D01*
X122839877Y-75318436D01*
X122784361Y-75177658D01*
X122784360Y-75177657D01*
X122784360Y-75177656D01*
X122692922Y-75057077D01*
X122572343Y-74965639D01*
X122431561Y-74910122D01*
X122385926Y-74904642D01*
X122343102Y-74899500D01*
X119256898Y-74899500D01*
X119217853Y-74904188D01*
X119168438Y-74910122D01*
X119027656Y-74965639D01*
X118907077Y-75057077D01*
X118815638Y-75177658D01*
X118815637Y-75177660D01*
X118759115Y-75320990D01*
X118716209Y-75376134D01*
X118650302Y-75399327D01*
X118643761Y-75399500D01*
X114078676Y-75399500D01*
X114011637Y-75379815D01*
X113990995Y-75363181D01*
X113356818Y-74729004D01*
X113323333Y-74667681D01*
X113320499Y-74641323D01*
X113320499Y-73855143D01*
X113320499Y-73855136D01*
X113319846Y-73849502D01*
X113317586Y-73830012D01*
X113317585Y-73830010D01*
X113317585Y-73830009D01*
X113272206Y-73727235D01*
X113192765Y-73647794D01*
X113192763Y-73647793D01*
X113089992Y-73602415D01*
X113064865Y-73599500D01*
X111475143Y-73599500D01*
X111475117Y-73599502D01*
X111450012Y-73602413D01*
X111450008Y-73602415D01*
X111347235Y-73647793D01*
X111267794Y-73727234D01*
X111222415Y-73830006D01*
X111222415Y-73830008D01*
X111219500Y-73855131D01*
X111219500Y-74844856D01*
X111219502Y-74844882D01*
X111222413Y-74869987D01*
X111222415Y-74869991D01*
X111267793Y-74972764D01*
X111267794Y-74972765D01*
X111347235Y-75052206D01*
X111450009Y-75097585D01*
X111475135Y-75100500D01*
X112261323Y-75100499D01*
X112290769Y-75109145D01*
X112320750Y-75115667D01*
X112325763Y-75119419D01*
X112328362Y-75120183D01*
X112349004Y-75136818D01*
X112400005Y-75187819D01*
X112433490Y-75249142D01*
X112428506Y-75318834D01*
X112386634Y-75374767D01*
X112321170Y-75399184D01*
X112312324Y-75399500D01*
X104208676Y-75399500D01*
X104141637Y-75379815D01*
X104120995Y-75363181D01*
X103707316Y-74949502D01*
X103707314Y-74949500D01*
X103684370Y-74936253D01*
X103636156Y-74885687D01*
X103622932Y-74817080D01*
X103648900Y-74752216D01*
X103684369Y-74721481D01*
X103738015Y-74690509D01*
X103840509Y-74588015D01*
X103912984Y-74462485D01*
X103949671Y-74325565D01*
X103981762Y-74269984D01*
X104889928Y-73361819D01*
X104951251Y-73328334D01*
X104977609Y-73325500D01*
X115492390Y-73325500D01*
X115559429Y-73345185D01*
X115580071Y-73361819D01*
X116083181Y-73864929D01*
X116116666Y-73926252D01*
X116119500Y-73952610D01*
X116119500Y-74844856D01*
X116119502Y-74844882D01*
X116122413Y-74869987D01*
X116122415Y-74869991D01*
X116167793Y-74972764D01*
X116167794Y-74972765D01*
X116247235Y-75052206D01*
X116350009Y-75097585D01*
X116375135Y-75100500D01*
X117964864Y-75100499D01*
X117964879Y-75100497D01*
X117964882Y-75100497D01*
X117989987Y-75097586D01*
X117989988Y-75097585D01*
X117989991Y-75097585D01*
X118092765Y-75052206D01*
X118172206Y-74972765D01*
X118217585Y-74869991D01*
X118220500Y-74844865D01*
X118220499Y-73855136D01*
X118219846Y-73849502D01*
X118217586Y-73830012D01*
X118217585Y-73830010D01*
X118217585Y-73830009D01*
X118172206Y-73727235D01*
X118092765Y-73647794D01*
X118092763Y-73647793D01*
X117989992Y-73602415D01*
X117964868Y-73599500D01*
X117964865Y-73599500D01*
X117072610Y-73599500D01*
X117005571Y-73579815D01*
X116984929Y-73563181D01*
X115981265Y-72559517D01*
X115981263Y-72559515D01*
X115884237Y-72503497D01*
X115776018Y-72474500D01*
X104806018Y-72474500D01*
X104693981Y-72474500D01*
X104585763Y-72503497D01*
X104585761Y-72503498D01*
X104585760Y-72503498D01*
X104488740Y-72559513D01*
X104488734Y-72559517D01*
X104409513Y-72638739D01*
X103380015Y-73668236D01*
X103324428Y-73700329D01*
X103231487Y-73725233D01*
X103187511Y-73737017D01*
X103061988Y-73809488D01*
X103061982Y-73809493D01*
X102959493Y-73911982D01*
X102959488Y-73911988D01*
X102887017Y-74037511D01*
X102887016Y-74037515D01*
X102849500Y-74177525D01*
X102849500Y-74177527D01*
X102849500Y-74322477D01*
X102850216Y-74327917D01*
X102839450Y-74396952D01*
X102793069Y-74449208D01*
X102725800Y-74468092D01*
X102659000Y-74447610D01*
X102639596Y-74431782D01*
X102057316Y-73849502D01*
X102057314Y-73849500D01*
X101988017Y-73809491D01*
X101943187Y-73783608D01*
X101869533Y-73763873D01*
X101815892Y-73749500D01*
X101815891Y-73749500D01*
X93208676Y-73749500D01*
X93141637Y-73729815D01*
X93120995Y-73713181D01*
X87207316Y-67799502D01*
X87207314Y-67799500D01*
X87150250Y-67766554D01*
X87093187Y-67733608D01*
X87029539Y-67716554D01*
X86965892Y-67699500D01*
X86965891Y-67699500D01*
X77258676Y-67699500D01*
X77191637Y-67679815D01*
X77170995Y-67663181D01*
X75638847Y-66131033D01*
X75605362Y-66069710D01*
X75602528Y-66043352D01*
X75602528Y-65498722D01*
X75602528Y-65498716D01*
X75592387Y-65414270D01*
X75539392Y-65279885D01*
X75539391Y-65279884D01*
X75539391Y-65279883D01*
X75452106Y-65164781D01*
X75337004Y-65077496D01*
X75202616Y-65024500D01*
X75159270Y-65019295D01*
X75118172Y-65014360D01*
X75118166Y-65014360D01*
X74874500Y-65014360D01*
X74807461Y-64994675D01*
X74761706Y-64941871D01*
X74750500Y-64890360D01*
X74750500Y-64014875D01*
X74770185Y-63947836D01*
X74822989Y-63902081D01*
X74892147Y-63892137D01*
X74955703Y-63921162D01*
X74981166Y-63956478D01*
X74982952Y-63955447D01*
X75059488Y-64088011D01*
X75059490Y-64088013D01*
X75059491Y-64088015D01*
X75161985Y-64190509D01*
X75161986Y-64190510D01*
X75161988Y-64190511D01*
X75287511Y-64262982D01*
X75287512Y-64262982D01*
X75287515Y-64262984D01*
X75427525Y-64300500D01*
X75427528Y-64300500D01*
X75572472Y-64300500D01*
X75572475Y-64300500D01*
X75712485Y-64262984D01*
X75838015Y-64190509D01*
X75940509Y-64088015D01*
X76012984Y-63962485D01*
X76049671Y-63825568D01*
X76081761Y-63769986D01*
X82946234Y-56905513D01*
X100299500Y-56905513D01*
X100299500Y-57094486D01*
X100329059Y-57281118D01*
X100387454Y-57460836D01*
X100473240Y-57629199D01*
X100584310Y-57782073D01*
X100717927Y-57915690D01*
X100870801Y-58026760D01*
X100933905Y-58058913D01*
X101039163Y-58112545D01*
X101039165Y-58112545D01*
X101039168Y-58112547D01*
X101135497Y-58143846D01*
X101218881Y-58170940D01*
X101405514Y-58200500D01*
X101405519Y-58200500D01*
X101594486Y-58200500D01*
X101781118Y-58170940D01*
X101960832Y-58112547D01*
X102129199Y-58026760D01*
X102282073Y-57915690D01*
X102415690Y-57782073D01*
X102526760Y-57629199D01*
X102612547Y-57460832D01*
X102632069Y-57400748D01*
X102671507Y-57343073D01*
X102735865Y-57315875D01*
X102804712Y-57327790D01*
X102856187Y-57375034D01*
X102867930Y-57400746D01*
X102887453Y-57460832D01*
X102973240Y-57629199D01*
X103084310Y-57782073D01*
X103217927Y-57915690D01*
X103370801Y-58026760D01*
X103433905Y-58058913D01*
X103539163Y-58112545D01*
X103539165Y-58112545D01*
X103539168Y-58112547D01*
X103635497Y-58143846D01*
X103718881Y-58170940D01*
X103905514Y-58200500D01*
X103905519Y-58200500D01*
X104094486Y-58200500D01*
X104281118Y-58170940D01*
X104460832Y-58112547D01*
X104629199Y-58026760D01*
X104782073Y-57915690D01*
X104915690Y-57782073D01*
X105026760Y-57629199D01*
X105112547Y-57460832D01*
X105170940Y-57281118D01*
X105200500Y-57094486D01*
X105200500Y-56905513D01*
X105170940Y-56718881D01*
X105112545Y-56539163D01*
X105026759Y-56370800D01*
X104915690Y-56217927D01*
X104782073Y-56084310D01*
X104629199Y-55973240D01*
X104460836Y-55887454D01*
X104281118Y-55829059D01*
X104094486Y-55799500D01*
X104094481Y-55799500D01*
X103905519Y-55799500D01*
X103905514Y-55799500D01*
X103718881Y-55829059D01*
X103539163Y-55887454D01*
X103370800Y-55973240D01*
X103283579Y-56036610D01*
X103217927Y-56084310D01*
X103217925Y-56084312D01*
X103217924Y-56084312D01*
X103084312Y-56217924D01*
X103084312Y-56217925D01*
X103084310Y-56217927D01*
X103036610Y-56283579D01*
X102973240Y-56370800D01*
X102887454Y-56539163D01*
X102867931Y-56599251D01*
X102828493Y-56656926D01*
X102764134Y-56684124D01*
X102695288Y-56672209D01*
X102643812Y-56624965D01*
X102632069Y-56599251D01*
X102612545Y-56539163D01*
X102526759Y-56370800D01*
X102415690Y-56217927D01*
X102282073Y-56084310D01*
X102129199Y-55973240D01*
X101960836Y-55887454D01*
X101781118Y-55829059D01*
X101594486Y-55799500D01*
X101594481Y-55799500D01*
X101405519Y-55799500D01*
X101405514Y-55799500D01*
X101218881Y-55829059D01*
X101039163Y-55887454D01*
X100870800Y-55973240D01*
X100783579Y-56036610D01*
X100717927Y-56084310D01*
X100717925Y-56084312D01*
X100717924Y-56084312D01*
X100584312Y-56217924D01*
X100584312Y-56217925D01*
X100584310Y-56217927D01*
X100536610Y-56283579D01*
X100473240Y-56370800D01*
X100387454Y-56539163D01*
X100329059Y-56718881D01*
X100299500Y-56905513D01*
X82946234Y-56905513D01*
X101414929Y-38436817D01*
X101476252Y-38403333D01*
X101502610Y-38400499D01*
X102344856Y-38400499D01*
X102344864Y-38400499D01*
X102344879Y-38400497D01*
X102344882Y-38400497D01*
X102369987Y-38397586D01*
X102369988Y-38397585D01*
X102369991Y-38397585D01*
X102472765Y-38352206D01*
X102552206Y-38272765D01*
X102597585Y-38169991D01*
X102600500Y-38144865D01*
X102600499Y-37155136D01*
X102600497Y-37155117D01*
X102597586Y-37130012D01*
X102597585Y-37130010D01*
X102597585Y-37130009D01*
X102552206Y-37027235D01*
X102472765Y-36947794D01*
X102420009Y-36924500D01*
X102369992Y-36902415D01*
X102344865Y-36899500D01*
X100755143Y-36899500D01*
X100755117Y-36899502D01*
X100730012Y-36902413D01*
X100730008Y-36902415D01*
X100627235Y-36947793D01*
X100547794Y-37027234D01*
X100502415Y-37130006D01*
X100502415Y-37130008D01*
X100499500Y-37155131D01*
X100499500Y-38097388D01*
X100479815Y-38164427D01*
X100463181Y-38185069D01*
X75480015Y-63168236D01*
X75424428Y-63200329D01*
X75331487Y-63225233D01*
X75287511Y-63237017D01*
X75161988Y-63309488D01*
X75161982Y-63309493D01*
X75059493Y-63411982D01*
X75059488Y-63411988D01*
X74982952Y-63544553D01*
X74980535Y-63543157D01*
X74945218Y-63586982D01*
X74878924Y-63609045D01*
X74811225Y-63591765D01*
X74763615Y-63540626D01*
X74750500Y-63485124D01*
X74750500Y-62450840D01*
X74770185Y-62383801D01*
X74822989Y-62338046D01*
X74828973Y-62335500D01*
X74908907Y-62303979D01*
X75024010Y-62216693D01*
X75111296Y-62101590D01*
X75164291Y-61967205D01*
X75174432Y-61882759D01*
X75174432Y-61300471D01*
X75164291Y-61216025D01*
X75111296Y-61081640D01*
X75111295Y-61081639D01*
X75111295Y-61081638D01*
X75024010Y-60966536D01*
X74908908Y-60879251D01*
X74774520Y-60826255D01*
X74731174Y-60821050D01*
X74690076Y-60816115D01*
X74157788Y-60816115D01*
X74119773Y-60820680D01*
X74073343Y-60826255D01*
X73938955Y-60879251D01*
X73823853Y-60966536D01*
X73736568Y-61081638D01*
X73683572Y-61216026D01*
X73677997Y-61262456D01*
X73673432Y-61300471D01*
X73673432Y-61882759D01*
X73678757Y-61927109D01*
X73683572Y-61967203D01*
X73739680Y-62109481D01*
X73737284Y-62110425D01*
X73749500Y-62157060D01*
X73749500Y-65375500D01*
X73729815Y-65442539D01*
X73677011Y-65488294D01*
X73625500Y-65499500D01*
X70658676Y-65499500D01*
X70591637Y-65479815D01*
X70570995Y-65463181D01*
X70185541Y-65077727D01*
X70152056Y-65016404D01*
X70150107Y-64975264D01*
X70153830Y-64944265D01*
X70153830Y-64361977D01*
X70143689Y-64277531D01*
X70090694Y-64143146D01*
X70090693Y-64143145D01*
X70090693Y-64143144D01*
X70003408Y-64028042D01*
X69888306Y-63940757D01*
X69753918Y-63887761D01*
X69710572Y-63882556D01*
X69669474Y-63877621D01*
X69137186Y-63877621D01*
X69090860Y-63883184D01*
X69061547Y-63886704D01*
X68992639Y-63875152D01*
X68959083Y-63851269D01*
X68736819Y-63629005D01*
X68703334Y-63567682D01*
X68700500Y-63541324D01*
X68700500Y-61581137D01*
X68720185Y-61514098D01*
X68749571Y-61482336D01*
X68825078Y-61425078D01*
X68912364Y-61309975D01*
X68965359Y-61175590D01*
X68975500Y-61091144D01*
X68975500Y-60508856D01*
X68965359Y-60424410D01*
X68912364Y-60290025D01*
X68912363Y-60290024D01*
X68912363Y-60290023D01*
X68825078Y-60174921D01*
X68709976Y-60087636D01*
X68575588Y-60034640D01*
X68532242Y-60029435D01*
X68491144Y-60024500D01*
X67958856Y-60024500D01*
X67920841Y-60029065D01*
X67874411Y-60034640D01*
X67740023Y-60087636D01*
X67624921Y-60174921D01*
X67537636Y-60290023D01*
X67484640Y-60424411D01*
X67479065Y-60470841D01*
X67474500Y-60508856D01*
X67474500Y-61091144D01*
X67479825Y-61135494D01*
X67484640Y-61175588D01*
X67537636Y-61309976D01*
X67624918Y-61425073D01*
X67624922Y-61425078D01*
X67650425Y-61444417D01*
X67691948Y-61500609D01*
X67699500Y-61543221D01*
X67699500Y-62625500D01*
X67679815Y-62692539D01*
X67627011Y-62738294D01*
X67575500Y-62749500D01*
X64058676Y-62749500D01*
X63991637Y-62729815D01*
X63970995Y-62713181D01*
X63532113Y-62274299D01*
X63498628Y-62212976D01*
X63503612Y-62143284D01*
X63520988Y-62111695D01*
X63539203Y-62087677D01*
X63592198Y-61953292D01*
X63602339Y-61868846D01*
X63602339Y-61286558D01*
X63592198Y-61202112D01*
X63539203Y-61067727D01*
X63539202Y-61067726D01*
X63539202Y-61067725D01*
X63451917Y-60952623D01*
X63336812Y-60865336D01*
X63279010Y-60842542D01*
X63223866Y-60799636D01*
X63200673Y-60733728D01*
X63200500Y-60727188D01*
X63200500Y-56905513D01*
X65299500Y-56905513D01*
X65299500Y-57094486D01*
X65329059Y-57281118D01*
X65387454Y-57460836D01*
X65473240Y-57629199D01*
X65584310Y-57782073D01*
X65717927Y-57915690D01*
X65870801Y-58026760D01*
X65933905Y-58058913D01*
X66039163Y-58112545D01*
X66039165Y-58112545D01*
X66039168Y-58112547D01*
X66135497Y-58143846D01*
X66218881Y-58170940D01*
X66405514Y-58200500D01*
X66405519Y-58200500D01*
X66594486Y-58200500D01*
X66781118Y-58170940D01*
X66960832Y-58112547D01*
X67129199Y-58026760D01*
X67282073Y-57915690D01*
X67415690Y-57782073D01*
X67526760Y-57629199D01*
X67612547Y-57460832D01*
X67632069Y-57400748D01*
X67671507Y-57343073D01*
X67735865Y-57315875D01*
X67804712Y-57327790D01*
X67856187Y-57375034D01*
X67867930Y-57400746D01*
X67887453Y-57460832D01*
X67973240Y-57629199D01*
X68084310Y-57782073D01*
X68217927Y-57915690D01*
X68370801Y-58026760D01*
X68433905Y-58058913D01*
X68539163Y-58112545D01*
X68539165Y-58112545D01*
X68539168Y-58112547D01*
X68635497Y-58143846D01*
X68718881Y-58170940D01*
X68905514Y-58200500D01*
X68905519Y-58200500D01*
X69094486Y-58200500D01*
X69239543Y-58177525D01*
X76699500Y-58177525D01*
X76699500Y-58322475D01*
X76737016Y-58462485D01*
X76737017Y-58462488D01*
X76809488Y-58588011D01*
X76809490Y-58588013D01*
X76809491Y-58588015D01*
X76911985Y-58690509D01*
X76911986Y-58690510D01*
X76911988Y-58690511D01*
X77037511Y-58762982D01*
X77037512Y-58762982D01*
X77037515Y-58762984D01*
X77177525Y-58800500D01*
X77177528Y-58800500D01*
X77322472Y-58800500D01*
X77322475Y-58800500D01*
X77462485Y-58762984D01*
X77588015Y-58690509D01*
X77690509Y-58588015D01*
X77762984Y-58462485D01*
X77800500Y-58322475D01*
X77800500Y-58177525D01*
X77762984Y-58037515D01*
X77692646Y-57915687D01*
X77690511Y-57911988D01*
X77690506Y-57911982D01*
X77588017Y-57809493D01*
X77588011Y-57809488D01*
X77462488Y-57737017D01*
X77462489Y-57737017D01*
X77451006Y-57733940D01*
X77322475Y-57699500D01*
X77177525Y-57699500D01*
X77048993Y-57733940D01*
X77037511Y-57737017D01*
X76911988Y-57809488D01*
X76911982Y-57809493D01*
X76809493Y-57911982D01*
X76809488Y-57911988D01*
X76737017Y-58037511D01*
X76737016Y-58037515D01*
X76699500Y-58177525D01*
X69239543Y-58177525D01*
X69281118Y-58170940D01*
X69460832Y-58112547D01*
X69629199Y-58026760D01*
X69782073Y-57915690D01*
X69915690Y-57782073D01*
X70026760Y-57629199D01*
X70112547Y-57460832D01*
X70170940Y-57281118D01*
X70200500Y-57094486D01*
X70200500Y-56905513D01*
X70170940Y-56718881D01*
X70112545Y-56539163D01*
X70026759Y-56370800D01*
X69915690Y-56217927D01*
X69782073Y-56084310D01*
X69629199Y-55973240D01*
X69460836Y-55887454D01*
X69281118Y-55829059D01*
X69094486Y-55799500D01*
X69094481Y-55799500D01*
X68905519Y-55799500D01*
X68905514Y-55799500D01*
X68718881Y-55829059D01*
X68539163Y-55887454D01*
X68370800Y-55973240D01*
X68283579Y-56036610D01*
X68217927Y-56084310D01*
X68217925Y-56084312D01*
X68217924Y-56084312D01*
X68084312Y-56217924D01*
X68084312Y-56217925D01*
X68084310Y-56217927D01*
X68036610Y-56283579D01*
X67973240Y-56370800D01*
X67887454Y-56539163D01*
X67867931Y-56599251D01*
X67828493Y-56656926D01*
X67764134Y-56684124D01*
X67695288Y-56672209D01*
X67643812Y-56624965D01*
X67632069Y-56599251D01*
X67612545Y-56539163D01*
X67526759Y-56370800D01*
X67415690Y-56217927D01*
X67282073Y-56084310D01*
X67129199Y-55973240D01*
X66960836Y-55887454D01*
X66781118Y-55829059D01*
X66594486Y-55799500D01*
X66594481Y-55799500D01*
X66405519Y-55799500D01*
X66405514Y-55799500D01*
X66218881Y-55829059D01*
X66039163Y-55887454D01*
X65870800Y-55973240D01*
X65783579Y-56036610D01*
X65717927Y-56084310D01*
X65717925Y-56084312D01*
X65717924Y-56084312D01*
X65584312Y-56217924D01*
X65584312Y-56217925D01*
X65584310Y-56217927D01*
X65536610Y-56283579D01*
X65473240Y-56370800D01*
X65387454Y-56539163D01*
X65329059Y-56718881D01*
X65299500Y-56905513D01*
X63200500Y-56905513D01*
X63200500Y-53284110D01*
X63200500Y-53284108D01*
X63166392Y-53156814D01*
X63100500Y-53042686D01*
X63007314Y-52949500D01*
X62686819Y-52629005D01*
X62653334Y-52567682D01*
X62650500Y-52541324D01*
X62650500Y-47558674D01*
X62670185Y-47491635D01*
X62686814Y-47470998D01*
X65197104Y-44960707D01*
X65197109Y-44960704D01*
X65207312Y-44950500D01*
X65207314Y-44950500D01*
X65300500Y-44857314D01*
X65366392Y-44743186D01*
X65400500Y-44615892D01*
X65400500Y-38424833D01*
X65420185Y-38357794D01*
X65472989Y-38312039D01*
X65542147Y-38302095D01*
X65605703Y-38331120D01*
X65612181Y-38337152D01*
X65627235Y-38352206D01*
X65730009Y-38397585D01*
X65755135Y-38400500D01*
X67344864Y-38400499D01*
X67344879Y-38400497D01*
X67344882Y-38400497D01*
X67369987Y-38397586D01*
X67369988Y-38397585D01*
X67369991Y-38397585D01*
X67472765Y-38352206D01*
X67552206Y-38272765D01*
X67597585Y-38169991D01*
X67600500Y-38144865D01*
X67600499Y-37399499D01*
X67620183Y-37332461D01*
X67672987Y-37286706D01*
X67724499Y-37275500D01*
X69356016Y-37275500D01*
X69356018Y-37275500D01*
X69464237Y-37246503D01*
X69561263Y-37190485D01*
X70539929Y-36211819D01*
X70601252Y-36178334D01*
X70627610Y-36175500D01*
X104556016Y-36175500D01*
X104556018Y-36175500D01*
X104664237Y-36146503D01*
X104761263Y-36090485D01*
X105189929Y-35661819D01*
X105251252Y-35628334D01*
X105277610Y-35625500D01*
X105656016Y-35625500D01*
X105656018Y-35625500D01*
X105764237Y-35596503D01*
X105861263Y-35540485D01*
X106264929Y-35136817D01*
X106326252Y-35103333D01*
X106352610Y-35100499D01*
X107244856Y-35100499D01*
X107244864Y-35100499D01*
X107244879Y-35100497D01*
X107244882Y-35100497D01*
X107269987Y-35097586D01*
X107269988Y-35097585D01*
X107269991Y-35097585D01*
X107372765Y-35052206D01*
X107452206Y-34972765D01*
X107497585Y-34869991D01*
X107500500Y-34844865D01*
X107500499Y-33855136D01*
X107500497Y-33855117D01*
X107497586Y-33830012D01*
X107497585Y-33830010D01*
X107497585Y-33830009D01*
X107452206Y-33727235D01*
X107372765Y-33647794D01*
X107359976Y-33642147D01*
X107269992Y-33602415D01*
X107244865Y-33599500D01*
X105655143Y-33599500D01*
X105655117Y-33599502D01*
X105630012Y-33602413D01*
X105630008Y-33602415D01*
X105527235Y-33647793D01*
X105447794Y-33727234D01*
X105402415Y-33830006D01*
X105402415Y-33830008D01*
X105399500Y-33855131D01*
X105399500Y-33855137D01*
X105399501Y-34650500D01*
X105379817Y-34717539D01*
X105327013Y-34763294D01*
X105275501Y-34774500D01*
X105106018Y-34774500D01*
X104993981Y-34774500D01*
X104980576Y-34778092D01*
X104948971Y-34786560D01*
X104885761Y-34803497D01*
X104885760Y-34803498D01*
X104788740Y-34859513D01*
X104788734Y-34859517D01*
X104360071Y-35288181D01*
X104298748Y-35321666D01*
X104272390Y-35324500D01*
X102443901Y-35324500D01*
X102376862Y-35304815D01*
X102331107Y-35252011D01*
X102321163Y-35182853D01*
X102350188Y-35119297D01*
X102393815Y-35087066D01*
X102424975Y-35073306D01*
X102472765Y-35052206D01*
X102552206Y-34972765D01*
X102597585Y-34869991D01*
X102600500Y-34844865D01*
X102600499Y-33855136D01*
X102600497Y-33855117D01*
X102597586Y-33830012D01*
X102597585Y-33830010D01*
X102597585Y-33830009D01*
X102552206Y-33727235D01*
X102472765Y-33647794D01*
X102459976Y-33642147D01*
X102369992Y-33602415D01*
X102344868Y-33599500D01*
X102344865Y-33599500D01*
X102008676Y-33599500D01*
X101941637Y-33579815D01*
X101920995Y-33563181D01*
X100957316Y-32599502D01*
X100957314Y-32599500D01*
X100900250Y-32566554D01*
X100843187Y-32533608D01*
X100779539Y-32516554D01*
X100715892Y-32499500D01*
X69915893Y-32499500D01*
X69784108Y-32499500D01*
X69656812Y-32533608D01*
X69542686Y-32599500D01*
X69542683Y-32599502D01*
X68579005Y-33563181D01*
X68517682Y-33596666D01*
X68491324Y-33599500D01*
X65755143Y-33599500D01*
X65755117Y-33599502D01*
X65730012Y-33602413D01*
X65730008Y-33602415D01*
X65627235Y-33647793D01*
X65547794Y-33727234D01*
X65502415Y-33830006D01*
X65502415Y-33830008D01*
X65499500Y-33855131D01*
X65499500Y-34844856D01*
X65499502Y-34844882D01*
X65502413Y-34869987D01*
X65502414Y-34869988D01*
X65504793Y-34875376D01*
X65513865Y-34944654D01*
X65484042Y-35007839D01*
X65479040Y-35013144D01*
X64729005Y-35763181D01*
X64667682Y-35796666D01*
X64641324Y-35799500D01*
X33808676Y-35799500D01*
X33741637Y-35779815D01*
X33720995Y-35763181D01*
X32636818Y-34679004D01*
X32603333Y-34617681D01*
X32600499Y-34591323D01*
X32600499Y-33855131D01*
X35399500Y-33855131D01*
X35399500Y-34844856D01*
X35399502Y-34844882D01*
X35402413Y-34869987D01*
X35402415Y-34869991D01*
X35447793Y-34972764D01*
X35447794Y-34972765D01*
X35527235Y-35052206D01*
X35630009Y-35097585D01*
X35655135Y-35100500D01*
X37244864Y-35100499D01*
X37244879Y-35100497D01*
X37244882Y-35100497D01*
X37269987Y-35097586D01*
X37269988Y-35097585D01*
X37269991Y-35097585D01*
X37372765Y-35052206D01*
X37452206Y-34972765D01*
X37497585Y-34869991D01*
X37500500Y-34844865D01*
X37500499Y-33855136D01*
X37500497Y-33855117D01*
X37497586Y-33830012D01*
X37497585Y-33830010D01*
X37497585Y-33830009D01*
X37452206Y-33727235D01*
X37372765Y-33647794D01*
X37359976Y-33642147D01*
X37269992Y-33602415D01*
X37244868Y-33599500D01*
X37244865Y-33599500D01*
X36567289Y-33599500D01*
X36519838Y-33590062D01*
X36512486Y-33587016D01*
X36460136Y-33572989D01*
X36372475Y-33549500D01*
X36227525Y-33549500D01*
X36087515Y-33587015D01*
X36080166Y-33590060D01*
X36032711Y-33599500D01*
X35655143Y-33599500D01*
X35655117Y-33599502D01*
X35630012Y-33602413D01*
X35630008Y-33602415D01*
X35527235Y-33647793D01*
X35447794Y-33727234D01*
X35402415Y-33830006D01*
X35402415Y-33830008D01*
X35399500Y-33855131D01*
X32600499Y-33855131D01*
X32600499Y-33855130D01*
X32597586Y-33830012D01*
X32597585Y-33830010D01*
X32597585Y-33830009D01*
X32552206Y-33727235D01*
X32472765Y-33647794D01*
X32459976Y-33642147D01*
X32369992Y-33602415D01*
X32344868Y-33599500D01*
X32344865Y-33599500D01*
X31415894Y-33599500D01*
X31415892Y-33599500D01*
X31284108Y-33599500D01*
X31284105Y-33599500D01*
X30755143Y-33599500D01*
X30755117Y-33599502D01*
X30730012Y-33602413D01*
X30730008Y-33602415D01*
X30627235Y-33647793D01*
X30547794Y-33727234D01*
X30502415Y-33830006D01*
X30502415Y-33830008D01*
X30499500Y-33855131D01*
X30499500Y-34844856D01*
X30499502Y-34844882D01*
X30502413Y-34869987D01*
X30502415Y-34869991D01*
X30547793Y-34972764D01*
X30547794Y-34972765D01*
X30627235Y-35052206D01*
X30730009Y-35097585D01*
X30755135Y-35100500D01*
X31591323Y-35100499D01*
X31658362Y-35120183D01*
X31679004Y-35136818D01*
X33242686Y-36700500D01*
X33356814Y-36766392D01*
X33484108Y-36800500D01*
X33615893Y-36800500D01*
X38048391Y-36800500D01*
X38115430Y-36820185D01*
X38161185Y-36872989D01*
X38171129Y-36942147D01*
X38142104Y-37005703D01*
X38136074Y-37012178D01*
X37597752Y-37550500D01*
X37110071Y-38038181D01*
X37048748Y-38071666D01*
X37022390Y-38074500D01*
X35727610Y-38074500D01*
X35660571Y-38054815D01*
X35639929Y-38038181D01*
X35011265Y-37409517D01*
X35011263Y-37409515D01*
X34914237Y-37353497D01*
X34806018Y-37324500D01*
X34806017Y-37324500D01*
X32724499Y-37324500D01*
X32657460Y-37304815D01*
X32611705Y-37252011D01*
X32600499Y-37200500D01*
X32600499Y-37155143D01*
X32600499Y-37155136D01*
X32600497Y-37155117D01*
X32597586Y-37130012D01*
X32597585Y-37130010D01*
X32597585Y-37130009D01*
X32552206Y-37027235D01*
X32472765Y-36947794D01*
X32420009Y-36924500D01*
X32369992Y-36902415D01*
X32344865Y-36899500D01*
X30755143Y-36899500D01*
X30755117Y-36899502D01*
X30730012Y-36902413D01*
X30730008Y-36902415D01*
X30627235Y-36947793D01*
X30547794Y-37027234D01*
X30502415Y-37130006D01*
X30502415Y-37130008D01*
X30499500Y-37155131D01*
X30499500Y-38144856D01*
X30499502Y-38144882D01*
X30502413Y-38169987D01*
X30502415Y-38169991D01*
X30547793Y-38272764D01*
X30547794Y-38272765D01*
X30627235Y-38352206D01*
X30730009Y-38397585D01*
X30755135Y-38400500D01*
X32344864Y-38400499D01*
X32344879Y-38400497D01*
X32344882Y-38400497D01*
X32369987Y-38397586D01*
X32369988Y-38397585D01*
X32369991Y-38397585D01*
X32472765Y-38352206D01*
X32552206Y-38272765D01*
X32562517Y-38249414D01*
X32607603Y-38196037D01*
X32674389Y-38175510D01*
X32675951Y-38175500D01*
X34522390Y-38175500D01*
X34589429Y-38195185D01*
X34610071Y-38211819D01*
X35238737Y-38840485D01*
X35335763Y-38896503D01*
X35443981Y-38925500D01*
X35443982Y-38925500D01*
X35443983Y-38925500D01*
X37306016Y-38925500D01*
X37306018Y-38925500D01*
X37414237Y-38896503D01*
X37511263Y-38840485D01*
X38889928Y-37461818D01*
X38951251Y-37428334D01*
X38977609Y-37425500D01*
X49352763Y-37425500D01*
X49414763Y-37442113D01*
X49537511Y-37512982D01*
X49537512Y-37512982D01*
X49537515Y-37512984D01*
X49677525Y-37550500D01*
X49677528Y-37550500D01*
X49822472Y-37550500D01*
X49822475Y-37550500D01*
X49962485Y-37512984D01*
X50088015Y-37440509D01*
X50190509Y-37338015D01*
X50262984Y-37212485D01*
X50300500Y-37072475D01*
X50300500Y-36927525D01*
X50300500Y-36924500D01*
X50320185Y-36857461D01*
X50372989Y-36811706D01*
X50424500Y-36800500D01*
X64275500Y-36800500D01*
X64342539Y-36820185D01*
X64388294Y-36872989D01*
X64399500Y-36924500D01*
X64399500Y-44291323D01*
X64379815Y-44358362D01*
X64363181Y-44379004D01*
X61825244Y-46916940D01*
X61825245Y-46916941D01*
X61749500Y-46992686D01*
X61683608Y-47106812D01*
X61649500Y-47234108D01*
X61649500Y-52865891D01*
X61683608Y-52993187D01*
X61712185Y-53042683D01*
X61749500Y-53107314D01*
X61749502Y-53107316D01*
X62163181Y-53520995D01*
X62196666Y-53582318D01*
X62199500Y-53608676D01*
X62199500Y-60979840D01*
X62179815Y-61046879D01*
X62174304Y-61054765D01*
X62164476Y-61067724D01*
X62164473Y-61067730D01*
X62111480Y-61202110D01*
X62111480Y-61202112D01*
X62101339Y-61286558D01*
X62101339Y-61868846D01*
X62103010Y-61882759D01*
X62111479Y-61953290D01*
X62164475Y-62087678D01*
X62174302Y-62100636D01*
X62199127Y-62165947D01*
X62199500Y-62175563D01*
X62199500Y-62215891D01*
X62233608Y-62343187D01*
X62257057Y-62383801D01*
X62299500Y-62457314D01*
X63399500Y-63557314D01*
X63492686Y-63650500D01*
X63606814Y-63716392D01*
X63734108Y-63750500D01*
X63942324Y-63750500D01*
X63957606Y-63754987D01*
X63973525Y-63754490D01*
X63990440Y-63764628D01*
X64009363Y-63770185D01*
X64019792Y-63782221D01*
X64033455Y-63790410D01*
X64042204Y-63808086D01*
X64055118Y-63822989D01*
X64057384Y-63838752D01*
X64064451Y-63853028D01*
X64062255Y-63872626D01*
X64065062Y-63892147D01*
X64058351Y-63907469D01*
X64056672Y-63922463D01*
X64042619Y-63943392D01*
X64038528Y-63952736D01*
X64034513Y-63957672D01*
X63949500Y-64042686D01*
X63910637Y-64109998D01*
X63904396Y-64117673D01*
X63883427Y-64132093D01*
X63865011Y-64149653D01*
X63852160Y-64153596D01*
X63846826Y-64157265D01*
X63839455Y-64157495D01*
X63822977Y-64162552D01*
X63794901Y-64165923D01*
X63660509Y-64218920D01*
X63545407Y-64306205D01*
X63458122Y-64421307D01*
X63405126Y-64555695D01*
X63401556Y-64585431D01*
X63394986Y-64640140D01*
X63394986Y-65222428D01*
X63400311Y-65266778D01*
X63405126Y-65306872D01*
X63458122Y-65441260D01*
X63545407Y-65556362D01*
X63660509Y-65643647D01*
X63660510Y-65643647D01*
X63660511Y-65643648D01*
X63794896Y-65696643D01*
X63879342Y-65706784D01*
X63879348Y-65706784D01*
X64411624Y-65706784D01*
X64411630Y-65706784D01*
X64496076Y-65696643D01*
X64630461Y-65643648D01*
X64745564Y-65556362D01*
X64832850Y-65441259D01*
X64885845Y-65306874D01*
X64895986Y-65222428D01*
X64895986Y-64640140D01*
X64889415Y-64585427D01*
X64900965Y-64516522D01*
X64924846Y-64482966D01*
X65300499Y-64107315D01*
X65366392Y-63993186D01*
X65400500Y-63865893D01*
X65400500Y-63865885D01*
X65401498Y-63858311D01*
X65429767Y-63794415D01*
X65488092Y-63755946D01*
X65524437Y-63750500D01*
X67575563Y-63750500D01*
X67642602Y-63770185D01*
X67688357Y-63822989D01*
X67698502Y-63858310D01*
X67699500Y-63865892D01*
X67733608Y-63993187D01*
X67746130Y-64014875D01*
X67799500Y-64107314D01*
X67799501Y-64107315D01*
X67799502Y-64107316D01*
X68624743Y-64932557D01*
X68658228Y-64993880D01*
X68660177Y-65005449D01*
X68661493Y-65016404D01*
X68662971Y-65028711D01*
X68682301Y-65077727D01*
X68715966Y-65163097D01*
X68803251Y-65278199D01*
X68918353Y-65365484D01*
X68918354Y-65365484D01*
X68918355Y-65365485D01*
X69052740Y-65418480D01*
X69075995Y-65421272D01*
X69140209Y-65448808D01*
X69148893Y-65456707D01*
X69604505Y-65912319D01*
X69637990Y-65973642D01*
X69633006Y-66043334D01*
X69604505Y-66087681D01*
X68349502Y-67342683D01*
X68349500Y-67342686D01*
X68283608Y-67456812D01*
X68249500Y-67584108D01*
X68249500Y-68491324D01*
X68229815Y-68558363D01*
X68213181Y-68579005D01*
X67249502Y-69542683D01*
X67249500Y-69542686D01*
X67183608Y-69656812D01*
X67149500Y-69784108D01*
X67149500Y-72341324D01*
X67129815Y-72408363D01*
X67113181Y-72429005D01*
X66379005Y-73163181D01*
X66317682Y-73196666D01*
X66291324Y-73199500D01*
X50308676Y-73199500D01*
X50241637Y-73179815D01*
X50220995Y-73163181D01*
X49257316Y-72199502D01*
X49257314Y-72199500D01*
X49200250Y-72166554D01*
X49143187Y-72133608D01*
X49079539Y-72116554D01*
X49015892Y-72099500D01*
X33065892Y-72099500D01*
X22645893Y-72099500D01*
X22514108Y-72099500D01*
X22386812Y-72133608D01*
X22272686Y-72199500D01*
X22272683Y-72199502D01*
X20909003Y-73563181D01*
X20847680Y-73596666D01*
X20821322Y-73599500D01*
X20035143Y-73599500D01*
X20035117Y-73599502D01*
X20010012Y-73602413D01*
X20010008Y-73602415D01*
X19907235Y-73647793D01*
X19827794Y-73727234D01*
X19782415Y-73830006D01*
X19782415Y-73830008D01*
X19779500Y-73855131D01*
X1300000Y-73855131D01*
X1300000Y-56905513D01*
X30299500Y-56905513D01*
X30299500Y-57094486D01*
X30329059Y-57281118D01*
X30387454Y-57460836D01*
X30473240Y-57629199D01*
X30584310Y-57782073D01*
X30717927Y-57915690D01*
X30870801Y-58026760D01*
X30933905Y-58058913D01*
X31039163Y-58112545D01*
X31039165Y-58112545D01*
X31039168Y-58112547D01*
X31135497Y-58143846D01*
X31218881Y-58170940D01*
X31405514Y-58200500D01*
X31405519Y-58200500D01*
X31594486Y-58200500D01*
X31781118Y-58170940D01*
X31960832Y-58112547D01*
X32129199Y-58026760D01*
X32282073Y-57915690D01*
X32415690Y-57782073D01*
X32526760Y-57629199D01*
X32612547Y-57460832D01*
X32632069Y-57400748D01*
X32671507Y-57343073D01*
X32735865Y-57315875D01*
X32804712Y-57327790D01*
X32856187Y-57375034D01*
X32867930Y-57400746D01*
X32887453Y-57460832D01*
X32973240Y-57629199D01*
X33084310Y-57782073D01*
X33217927Y-57915690D01*
X33370801Y-58026760D01*
X33433905Y-58058913D01*
X33539163Y-58112545D01*
X33539165Y-58112545D01*
X33539168Y-58112547D01*
X33635497Y-58143846D01*
X33718881Y-58170940D01*
X33905514Y-58200500D01*
X33905519Y-58200500D01*
X34094486Y-58200500D01*
X34281118Y-58170940D01*
X34460832Y-58112547D01*
X34629199Y-58026760D01*
X34782073Y-57915690D01*
X34835327Y-57862435D01*
X34896648Y-57828951D01*
X34966340Y-57833935D01*
X35010688Y-57862436D01*
X35738737Y-58590485D01*
X35835763Y-58646503D01*
X35943982Y-58675500D01*
X36056018Y-58675500D01*
X60852763Y-58675500D01*
X60914763Y-58692113D01*
X61037511Y-58762982D01*
X61037512Y-58762982D01*
X61037515Y-58762984D01*
X61177525Y-58800500D01*
X61177528Y-58800500D01*
X61322472Y-58800500D01*
X61322475Y-58800500D01*
X61462485Y-58762984D01*
X61588015Y-58690509D01*
X61690509Y-58588015D01*
X61762984Y-58462485D01*
X61800500Y-58322475D01*
X61800500Y-58177525D01*
X61762984Y-58037515D01*
X61692646Y-57915687D01*
X61690511Y-57911988D01*
X61690506Y-57911982D01*
X61588017Y-57809493D01*
X61588011Y-57809488D01*
X61462488Y-57737017D01*
X61462489Y-57737017D01*
X61451006Y-57733940D01*
X61322475Y-57699500D01*
X61177525Y-57699500D01*
X61048993Y-57733940D01*
X61037511Y-57737017D01*
X60914763Y-57807887D01*
X60852763Y-57824500D01*
X36227610Y-57824500D01*
X36160571Y-57804815D01*
X36139929Y-57788181D01*
X35218306Y-56866558D01*
X35184821Y-56805235D01*
X35183520Y-56798315D01*
X35170940Y-56718882D01*
X35159646Y-56684124D01*
X35112545Y-56539163D01*
X35026759Y-56370800D01*
X34915690Y-56217927D01*
X34782073Y-56084310D01*
X34629199Y-55973240D01*
X34460836Y-55887454D01*
X34281118Y-55829059D01*
X34094486Y-55799500D01*
X34094481Y-55799500D01*
X33905519Y-55799500D01*
X33905514Y-55799500D01*
X33718881Y-55829059D01*
X33539163Y-55887454D01*
X33370800Y-55973240D01*
X33283579Y-56036610D01*
X33217927Y-56084310D01*
X33217925Y-56084312D01*
X33217924Y-56084312D01*
X33084312Y-56217924D01*
X33084312Y-56217925D01*
X33084310Y-56217927D01*
X33036610Y-56283579D01*
X32973240Y-56370800D01*
X32887454Y-56539163D01*
X32867931Y-56599251D01*
X32828493Y-56656926D01*
X32764134Y-56684124D01*
X32695288Y-56672209D01*
X32643812Y-56624965D01*
X32632069Y-56599251D01*
X32612545Y-56539163D01*
X32526759Y-56370800D01*
X32415690Y-56217927D01*
X32282073Y-56084310D01*
X32129199Y-55973240D01*
X31960836Y-55887454D01*
X31781118Y-55829059D01*
X31594486Y-55799500D01*
X31594481Y-55799500D01*
X31405519Y-55799500D01*
X31405514Y-55799500D01*
X31218881Y-55829059D01*
X31039163Y-55887454D01*
X30870800Y-55973240D01*
X30783579Y-56036610D01*
X30717927Y-56084310D01*
X30717925Y-56084312D01*
X30717924Y-56084312D01*
X30584312Y-56217924D01*
X30584312Y-56217925D01*
X30584310Y-56217927D01*
X30536610Y-56283579D01*
X30473240Y-56370800D01*
X30387454Y-56539163D01*
X30329059Y-56718881D01*
X30299500Y-56905513D01*
X1300000Y-56905513D01*
X1300000Y-28905513D01*
X30299500Y-28905513D01*
X30299500Y-29094486D01*
X30329059Y-29281118D01*
X30387454Y-29460836D01*
X30435482Y-29555095D01*
X30473240Y-29629199D01*
X30584310Y-29782073D01*
X30717927Y-29915690D01*
X30870801Y-30026760D01*
X30945881Y-30065015D01*
X31039163Y-30112545D01*
X31039165Y-30112545D01*
X31039168Y-30112547D01*
X31135497Y-30143846D01*
X31218881Y-30170940D01*
X31405514Y-30200500D01*
X31405519Y-30200500D01*
X31594480Y-30200500D01*
X31594481Y-30200500D01*
X31616855Y-30196956D01*
X31686147Y-30205910D01*
X31723934Y-30231748D01*
X32599500Y-31107314D01*
X32692686Y-31200500D01*
X32806814Y-31266392D01*
X32934107Y-31300500D01*
X32934108Y-31300500D01*
X32934109Y-31300500D01*
X49015890Y-31300500D01*
X49015892Y-31300500D01*
X49143186Y-31266392D01*
X49257314Y-31200500D01*
X50220995Y-30236819D01*
X50282318Y-30203334D01*
X50308676Y-30200500D01*
X66291324Y-30200500D01*
X66358363Y-30220185D01*
X66379005Y-30236819D01*
X67249500Y-31107314D01*
X67342686Y-31200500D01*
X67456814Y-31266392D01*
X67584108Y-31300500D01*
X67584110Y-31300500D01*
X85315890Y-31300500D01*
X85315892Y-31300500D01*
X85443186Y-31266392D01*
X85557314Y-31200500D01*
X87070995Y-29686819D01*
X87132318Y-29653334D01*
X87158676Y-29650500D01*
X100425535Y-29650500D01*
X100492574Y-29670185D01*
X100525852Y-29701613D01*
X100584310Y-29782073D01*
X100717927Y-29915690D01*
X100870801Y-30026760D01*
X100945881Y-30065015D01*
X101039163Y-30112545D01*
X101039165Y-30112545D01*
X101039168Y-30112547D01*
X101135497Y-30143846D01*
X101218881Y-30170940D01*
X101405514Y-30200500D01*
X101405519Y-30200500D01*
X101594486Y-30200500D01*
X101781118Y-30170940D01*
X101821395Y-30157853D01*
X101960832Y-30112547D01*
X102129199Y-30026760D01*
X102282073Y-29915690D01*
X102415690Y-29782073D01*
X102526760Y-29629199D01*
X102612547Y-29460832D01*
X102632069Y-29400748D01*
X102671507Y-29343073D01*
X102735865Y-29315875D01*
X102804712Y-29327790D01*
X102856187Y-29375034D01*
X102867930Y-29400746D01*
X102887453Y-29460832D01*
X102973240Y-29629199D01*
X103084310Y-29782073D01*
X103217927Y-29915690D01*
X103370801Y-30026760D01*
X103445881Y-30065015D01*
X103539163Y-30112545D01*
X103539165Y-30112545D01*
X103539168Y-30112547D01*
X103635497Y-30143846D01*
X103718881Y-30170940D01*
X103905514Y-30200500D01*
X103905519Y-30200500D01*
X104094486Y-30200500D01*
X104281118Y-30170940D01*
X104321395Y-30157853D01*
X104460832Y-30112547D01*
X104629199Y-30026760D01*
X104782073Y-29915690D01*
X104915690Y-29782073D01*
X105026760Y-29629199D01*
X105112547Y-29460832D01*
X105170940Y-29281118D01*
X105185642Y-29188294D01*
X105200500Y-29094486D01*
X105200500Y-28905513D01*
X105170940Y-28718881D01*
X105140424Y-28624965D01*
X105112547Y-28539168D01*
X105112545Y-28539165D01*
X105112545Y-28539163D01*
X105026759Y-28370800D01*
X104915690Y-28217927D01*
X104782073Y-28084310D01*
X104629199Y-27973240D01*
X104460836Y-27887454D01*
X104281118Y-27829059D01*
X104094486Y-27799500D01*
X104094481Y-27799500D01*
X103905519Y-27799500D01*
X103905514Y-27799500D01*
X103718881Y-27829059D01*
X103539163Y-27887454D01*
X103370800Y-27973240D01*
X103283579Y-28036610D01*
X103217927Y-28084310D01*
X103217925Y-28084312D01*
X103217924Y-28084312D01*
X103084312Y-28217924D01*
X103084312Y-28217925D01*
X103084310Y-28217927D01*
X103036610Y-28283579D01*
X102973240Y-28370800D01*
X102887454Y-28539163D01*
X102867931Y-28599251D01*
X102828493Y-28656926D01*
X102764134Y-28684124D01*
X102695288Y-28672209D01*
X102643812Y-28624965D01*
X102632069Y-28599251D01*
X102620556Y-28563818D01*
X102612547Y-28539168D01*
X102612545Y-28539165D01*
X102612545Y-28539163D01*
X102526759Y-28370800D01*
X102415690Y-28217927D01*
X102282073Y-28084310D01*
X102129199Y-27973240D01*
X101960836Y-27887454D01*
X101781118Y-27829059D01*
X101594486Y-27799500D01*
X101594481Y-27799500D01*
X101405519Y-27799500D01*
X101405514Y-27799500D01*
X101218881Y-27829059D01*
X101039163Y-27887454D01*
X100870800Y-27973240D01*
X100783579Y-28036610D01*
X100717927Y-28084310D01*
X100717925Y-28084312D01*
X100717924Y-28084312D01*
X100584312Y-28217924D01*
X100584312Y-28217925D01*
X100584310Y-28217927D01*
X100536610Y-28283579D01*
X100473240Y-28370800D01*
X100387451Y-28539170D01*
X100379443Y-28563818D01*
X100340005Y-28621494D01*
X100275647Y-28648692D01*
X100261512Y-28649500D01*
X86834107Y-28649500D01*
X86706812Y-28683608D01*
X86592686Y-28749500D01*
X86592683Y-28749502D01*
X85079005Y-30263181D01*
X85017682Y-30296666D01*
X84991324Y-30299500D01*
X69610414Y-30299500D01*
X69543375Y-30279815D01*
X69497620Y-30227011D01*
X69487676Y-30157853D01*
X69516701Y-30094297D01*
X69554119Y-30065015D01*
X69629199Y-30026760D01*
X69782073Y-29915690D01*
X69915690Y-29782073D01*
X70026760Y-29629199D01*
X70112547Y-29460832D01*
X70170940Y-29281118D01*
X70185642Y-29188294D01*
X70200500Y-29094486D01*
X70200500Y-28905513D01*
X70170940Y-28718881D01*
X70140424Y-28624965D01*
X70112547Y-28539168D01*
X70112545Y-28539165D01*
X70112545Y-28539163D01*
X70026759Y-28370800D01*
X69915690Y-28217927D01*
X69782073Y-28084310D01*
X69629199Y-27973240D01*
X69460836Y-27887454D01*
X69281118Y-27829059D01*
X69094486Y-27799500D01*
X69094481Y-27799500D01*
X68905519Y-27799500D01*
X68905514Y-27799500D01*
X68718881Y-27829059D01*
X68539163Y-27887454D01*
X68370800Y-27973240D01*
X68283579Y-28036610D01*
X68217927Y-28084310D01*
X68217925Y-28084312D01*
X68217924Y-28084312D01*
X68084312Y-28217924D01*
X68084312Y-28217925D01*
X68084310Y-28217927D01*
X68036610Y-28283579D01*
X67973240Y-28370800D01*
X67887454Y-28539163D01*
X67867931Y-28599251D01*
X67828493Y-28656926D01*
X67764134Y-28684124D01*
X67695288Y-28672209D01*
X67643812Y-28624965D01*
X67632069Y-28599251D01*
X67620556Y-28563818D01*
X67612547Y-28539168D01*
X67612545Y-28539165D01*
X67612545Y-28539163D01*
X67526759Y-28370800D01*
X67415690Y-28217927D01*
X67282073Y-28084310D01*
X67129199Y-27973240D01*
X66960836Y-27887454D01*
X66781118Y-27829059D01*
X66594486Y-27799500D01*
X66594481Y-27799500D01*
X66405519Y-27799500D01*
X66405514Y-27799500D01*
X66218881Y-27829059D01*
X66039163Y-27887454D01*
X65870800Y-27973240D01*
X65783579Y-28036610D01*
X65717927Y-28084310D01*
X65717925Y-28084312D01*
X65717924Y-28084312D01*
X65584312Y-28217924D01*
X65584312Y-28217925D01*
X65584310Y-28217927D01*
X65536610Y-28283579D01*
X65473240Y-28370800D01*
X65387454Y-28539163D01*
X65329059Y-28718881D01*
X65299500Y-28905513D01*
X65299500Y-29075500D01*
X65279815Y-29142539D01*
X65227011Y-29188294D01*
X65175500Y-29199500D01*
X49984108Y-29199500D01*
X49856812Y-29233608D01*
X49742686Y-29299500D01*
X49742683Y-29299502D01*
X48779005Y-30263181D01*
X48717682Y-30296666D01*
X48691324Y-30299500D01*
X34610414Y-30299500D01*
X34543375Y-30279815D01*
X34497620Y-30227011D01*
X34487676Y-30157853D01*
X34516701Y-30094297D01*
X34554119Y-30065015D01*
X34629199Y-30026760D01*
X34782073Y-29915690D01*
X34915690Y-29782073D01*
X35026760Y-29629199D01*
X35112547Y-29460832D01*
X35170940Y-29281118D01*
X35185642Y-29188294D01*
X35200500Y-29094486D01*
X35200500Y-28905513D01*
X35170940Y-28718881D01*
X35140424Y-28624965D01*
X35112547Y-28539168D01*
X35112545Y-28539165D01*
X35112545Y-28539163D01*
X35026759Y-28370800D01*
X34915690Y-28217927D01*
X34782073Y-28084310D01*
X34629199Y-27973240D01*
X34460836Y-27887454D01*
X34281118Y-27829059D01*
X34094486Y-27799500D01*
X34094481Y-27799500D01*
X33905519Y-27799500D01*
X33905514Y-27799500D01*
X33718881Y-27829059D01*
X33539163Y-27887454D01*
X33370800Y-27973240D01*
X33283579Y-28036610D01*
X33217927Y-28084310D01*
X33217925Y-28084312D01*
X33217924Y-28084312D01*
X33084312Y-28217924D01*
X33084312Y-28217925D01*
X33084310Y-28217927D01*
X33036610Y-28283579D01*
X32973240Y-28370800D01*
X32887454Y-28539163D01*
X32867931Y-28599251D01*
X32828493Y-28656926D01*
X32764134Y-28684124D01*
X32695288Y-28672209D01*
X32643812Y-28624965D01*
X32632069Y-28599251D01*
X32620556Y-28563818D01*
X32612547Y-28539168D01*
X32612545Y-28539165D01*
X32612545Y-28539163D01*
X32526759Y-28370800D01*
X32415690Y-28217927D01*
X32282073Y-28084310D01*
X32129199Y-27973240D01*
X31960836Y-27887454D01*
X31781118Y-27829059D01*
X31594486Y-27799500D01*
X31594481Y-27799500D01*
X31405519Y-27799500D01*
X31405514Y-27799500D01*
X31218881Y-27829059D01*
X31039163Y-27887454D01*
X30870800Y-27973240D01*
X30783579Y-28036610D01*
X30717927Y-28084310D01*
X30717925Y-28084312D01*
X30717924Y-28084312D01*
X30584312Y-28217924D01*
X30584312Y-28217925D01*
X30584310Y-28217927D01*
X30536610Y-28283579D01*
X30473240Y-28370800D01*
X30387454Y-28539163D01*
X30329059Y-28718881D01*
X30299500Y-28905513D01*
X1300000Y-28905513D01*
X1300000Y-11524500D01*
X1319685Y-11457461D01*
X1372489Y-11411706D01*
X1424000Y-11400500D01*
X11052725Y-11400500D01*
X11052727Y-11400500D01*
X11154587Y-11373207D01*
X11245913Y-11320480D01*
X11320480Y-11245913D01*
X11373207Y-11154587D01*
X11400500Y-11052727D01*
X11400500Y-9381995D01*
X15199500Y-9381995D01*
X15199500Y-9618004D01*
X15199501Y-9618020D01*
X15230306Y-9852010D01*
X15291394Y-10079993D01*
X15381714Y-10298045D01*
X15381719Y-10298056D01*
X15452677Y-10420957D01*
X15499727Y-10502450D01*
X15499729Y-10502453D01*
X15499730Y-10502454D01*
X15643406Y-10689697D01*
X15643412Y-10689704D01*
X15810295Y-10856587D01*
X15810301Y-10856592D01*
X15997550Y-11000273D01*
X16128918Y-11076118D01*
X16201943Y-11118280D01*
X16201948Y-11118282D01*
X16201951Y-11118284D01*
X16420007Y-11208606D01*
X16647986Y-11269693D01*
X16881989Y-11300500D01*
X16881996Y-11300500D01*
X17118004Y-11300500D01*
X17118011Y-11300500D01*
X17352014Y-11269693D01*
X17579993Y-11208606D01*
X17798049Y-11118284D01*
X18002450Y-11000273D01*
X18189699Y-10856592D01*
X18356592Y-10689699D01*
X18500273Y-10502450D01*
X18618284Y-10298049D01*
X18708606Y-10079993D01*
X18769693Y-9852014D01*
X18800500Y-9618011D01*
X18800500Y-9381995D01*
X119199500Y-9381995D01*
X119199500Y-9618004D01*
X119199501Y-9618020D01*
X119230306Y-9852010D01*
X119291394Y-10079993D01*
X119381714Y-10298045D01*
X119381719Y-10298056D01*
X119452677Y-10420957D01*
X119499727Y-10502450D01*
X119499729Y-10502453D01*
X119499730Y-10502454D01*
X119643406Y-10689697D01*
X119643412Y-10689704D01*
X119810295Y-10856587D01*
X119810301Y-10856592D01*
X119997550Y-11000273D01*
X120128918Y-11076118D01*
X120201943Y-11118280D01*
X120201948Y-11118282D01*
X120201951Y-11118284D01*
X120420007Y-11208606D01*
X120647986Y-11269693D01*
X120881989Y-11300500D01*
X120881996Y-11300500D01*
X121118004Y-11300500D01*
X121118011Y-11300500D01*
X121352014Y-11269693D01*
X121579993Y-11208606D01*
X121798049Y-11118284D01*
X122002450Y-11000273D01*
X122189699Y-10856592D01*
X122356592Y-10689699D01*
X122500273Y-10502450D01*
X122618284Y-10298049D01*
X122708606Y-10079993D01*
X122769693Y-9852014D01*
X122800500Y-9618011D01*
X122800500Y-9381989D01*
X122769693Y-9147986D01*
X122708606Y-8920007D01*
X122618284Y-8701951D01*
X122618282Y-8701948D01*
X122618280Y-8701943D01*
X122576118Y-8628918D01*
X122500273Y-8497550D01*
X122356592Y-8310301D01*
X122356587Y-8310295D01*
X122189704Y-8143412D01*
X122189697Y-8143406D01*
X122002454Y-7999730D01*
X122002453Y-7999729D01*
X122002450Y-7999727D01*
X121920957Y-7952677D01*
X121798056Y-7881719D01*
X121798045Y-7881714D01*
X121579993Y-7791394D01*
X121352010Y-7730306D01*
X121118020Y-7699501D01*
X121118017Y-7699500D01*
X121118011Y-7699500D01*
X120881989Y-7699500D01*
X120881983Y-7699500D01*
X120881979Y-7699501D01*
X120647989Y-7730306D01*
X120420006Y-7791394D01*
X120201954Y-7881714D01*
X120201943Y-7881719D01*
X119997545Y-7999730D01*
X119810302Y-8143406D01*
X119810295Y-8143412D01*
X119643412Y-8310295D01*
X119643406Y-8310302D01*
X119499730Y-8497545D01*
X119381719Y-8701943D01*
X119381714Y-8701954D01*
X119291394Y-8920006D01*
X119230306Y-9147989D01*
X119199501Y-9381979D01*
X119199500Y-9381995D01*
X18800500Y-9381995D01*
X18800500Y-9381989D01*
X18769693Y-9147986D01*
X18708606Y-8920007D01*
X18618284Y-8701951D01*
X18618282Y-8701948D01*
X18618280Y-8701943D01*
X18576118Y-8628918D01*
X18500273Y-8497550D01*
X18356592Y-8310301D01*
X18356587Y-8310295D01*
X18189704Y-8143412D01*
X18189697Y-8143406D01*
X18002454Y-7999730D01*
X18002453Y-7999729D01*
X18002450Y-7999727D01*
X17920957Y-7952677D01*
X17798056Y-7881719D01*
X17798045Y-7881714D01*
X17579993Y-7791394D01*
X17352010Y-7730306D01*
X17118020Y-7699501D01*
X17118017Y-7699500D01*
X17118011Y-7699500D01*
X16881989Y-7699500D01*
X16881983Y-7699500D01*
X16881979Y-7699501D01*
X16647989Y-7730306D01*
X16420006Y-7791394D01*
X16201954Y-7881714D01*
X16201943Y-7881719D01*
X15997545Y-7999730D01*
X15810302Y-8143406D01*
X15810295Y-8143412D01*
X15643412Y-8310295D01*
X15643406Y-8310302D01*
X15499730Y-8497545D01*
X15381719Y-8701943D01*
X15381714Y-8701954D01*
X15291394Y-8920006D01*
X15230306Y-9147989D01*
X15199501Y-9381979D01*
X15199500Y-9381995D01*
X11400500Y-9381995D01*
X11400500Y-1424000D01*
X11420185Y-1356961D01*
X11472989Y-1311206D01*
X11524500Y-1300000D01*
X126475500Y-1300000D01*
X126542539Y-1319685D01*
G37*
%TD.AperFunction*%
%TD*%
M02*
