%TF.GenerationSoftware,KiCad,Pcbnew,10.0.4*%
%TF.CreationDate,2026-08-02T04:08:03-05:00*%
%TF.ProjectId,glitchwave567_ctrl,676c6974-6368-4776-9176-653536375f63,rev?*%
%TF.SameCoordinates,Original*%
%TF.FileFunction,Soldermask,Top*%
%TF.FilePolarity,Negative*%
%FSLAX46Y46*%
G04 Gerber Fmt 4.6, Leading zero omitted, Abs format (unit mm)*
G04 Created by KiCad (PCBNEW 10.0.4) date 2026-08-02 04:08:03*
%MOMM*%
%LPD*%
G01*
G04 APERTURE LIST*
G04 Aperture macros list*
%AMRoundRect*
0 Rectangle with rounded corners*
0 $1 Rounding radius*
0 $2 $3 $4 $5 $6 $7 $8 $9 X,Y pos of 4 corners*
0 Add a 4 corners polygon primitive as box body*
4,1,4,$2,$3,$4,$5,$6,$7,$8,$9,$2,$3,0*
0 Add four circle primitives for the rounded corners*
1,1,$1+$1,$2,$3*
1,1,$1+$1,$4,$5*
1,1,$1+$1,$6,$7*
1,1,$1+$1,$8,$9*
0 Add four rect primitives between the rounded corners*
20,1,$1+$1,$2,$3,$4,$5,0*
20,1,$1+$1,$4,$5,$6,$7,0*
20,1,$1+$1,$6,$7,$8,$9,0*
20,1,$1+$1,$8,$9,$2,$3,0*%
G04 Aperture macros list end*
%ADD10C,1.800000*%
%ADD11O,2.900000X3.200000*%
%ADD12C,3.200000*%
%ADD13R,1.500000X0.900000*%
%ADD14RoundRect,0.250000X-1.500000X-0.550000X1.500000X-0.550000X1.500000X0.550000X-1.500000X0.550000X0*%
%ADD15RoundRect,0.225000X-0.225000X-0.250000X0.225000X-0.250000X0.225000X0.250000X-0.225000X0.250000X0*%
%ADD16O,2.300000X4.000000*%
%ADD17R,1.700000X1.700000*%
%ADD18C,1.700000*%
G04 APERTURE END LIST*
D10*
%TO.C,RV6*%
X101500000Y-57000000D03*
X104000000Y-57000000D03*
D11*
X99600000Y-50000000D03*
D10*
X106500000Y-57000000D03*
D11*
X108400000Y-50000000D03*
%TD*%
D12*
%TO.C,H3*%
X17000000Y-108500000D03*
%TD*%
D10*
%TO.C,RV2*%
X66500000Y-29000000D03*
X69000000Y-29000000D03*
D11*
X64600000Y-22000000D03*
D10*
X71500000Y-29000000D03*
D11*
X73400000Y-22000000D03*
%TD*%
D10*
%TO.C,RV5*%
X66500000Y-57000000D03*
X69000000Y-57000000D03*
D11*
X64600000Y-50000000D03*
D10*
X71500000Y-57000000D03*
D11*
X73400000Y-50000000D03*
%TD*%
D13*
%TO.C,LED5*%
X101550000Y-74350000D03*
X101550000Y-77650000D03*
X106450000Y-77650000D03*
X106450000Y-74350000D03*
%TD*%
D12*
%TO.C,H4*%
X121000000Y-108500000D03*
%TD*%
D14*
%TO.C,C7*%
X119300000Y-76000000D03*
X124700000Y-76000000D03*
%TD*%
D15*
%TO.C,C3*%
X62851839Y-61577702D03*
X64401839Y-61577702D03*
%TD*%
D12*
%TO.C,H1*%
X17000000Y-9500000D03*
%TD*%
D16*
%TO.C,SW2*%
X101000000Y-96000000D03*
X107000000Y-96000000D03*
%TD*%
D13*
%TO.C,LED6*%
X66550000Y-74350000D03*
X66550000Y-77650000D03*
X71450000Y-77650000D03*
X71450000Y-74350000D03*
%TD*%
%TO.C,LED3*%
X101550000Y-34350000D03*
X101550000Y-37650000D03*
X106450000Y-37650000D03*
X106450000Y-34350000D03*
%TD*%
D15*
%TO.C,C5*%
X64145486Y-64931284D03*
X65695486Y-64931284D03*
%TD*%
D16*
%TO.C,SW1*%
X31000000Y-96000000D03*
X37000000Y-96000000D03*
%TD*%
D15*
%TO.C,C2*%
X69403330Y-64653121D03*
X70953330Y-64653121D03*
%TD*%
%TO.C,C1*%
X68225000Y-60800000D03*
X69775000Y-60800000D03*
%TD*%
D10*
%TO.C,RV4*%
X31500000Y-57000000D03*
X34000000Y-57000000D03*
D11*
X29600000Y-50000000D03*
D10*
X36500000Y-57000000D03*
D11*
X38400000Y-50000000D03*
%TD*%
D13*
%TO.C,LED1*%
X31550000Y-34350000D03*
X31550000Y-37650000D03*
X36450000Y-37650000D03*
X36450000Y-34350000D03*
%TD*%
D15*
%TO.C,C4*%
X74423932Y-61591615D03*
X75973932Y-61591615D03*
%TD*%
D10*
%TO.C,RV1*%
X31500000Y-29000000D03*
X34000000Y-29000000D03*
D11*
X29600000Y-22000000D03*
D10*
X36500000Y-29000000D03*
D11*
X38400000Y-22000000D03*
%TD*%
D13*
%TO.C,LED4*%
X31550000Y-74350000D03*
X31550000Y-77650000D03*
X36450000Y-77650000D03*
X36450000Y-74350000D03*
%TD*%
D12*
%TO.C,H2*%
X121000000Y-9500000D03*
%TD*%
D13*
%TO.C,LED2*%
X66550000Y-34350000D03*
X66550000Y-37650000D03*
X71450000Y-37650000D03*
X71450000Y-34350000D03*
%TD*%
D10*
%TO.C,RV3*%
X101500000Y-29000000D03*
X104000000Y-29000000D03*
D11*
X99600000Y-22000000D03*
D10*
X106500000Y-29000000D03*
D11*
X108400000Y-22000000D03*
%TD*%
D15*
%TO.C,C6*%
X74852028Y-65789860D03*
X76402028Y-65789860D03*
%TD*%
D17*
%TO.C,J1*%
X96000000Y-104000000D03*
D18*
X96000000Y-101460000D03*
X98540000Y-104000000D03*
X98540000Y-101460000D03*
X101080000Y-104000000D03*
X101080000Y-101460000D03*
X103620000Y-104000000D03*
X103620000Y-101460000D03*
X106160000Y-104000000D03*
X106160000Y-101460000D03*
X108700000Y-104000000D03*
X108700000Y-101460000D03*
X111240000Y-104000000D03*
X111240000Y-101460000D03*
X113780000Y-104000000D03*
X113780000Y-101460000D03*
%TD*%
M02*
