%TF.GenerationSoftware,KiCad,Pcbnew,10.0.4*%
%TF.CreationDate,2026-08-02T04:08:03-05:00*%
%TF.ProjectId,glitchwave567_ctrl,676c6974-6368-4776-9176-653536375f63,rev?*%
%TF.SameCoordinates,Original*%
%TF.FileFunction,Legend,Top*%
%TF.FilePolarity,Positive*%
%FSLAX46Y46*%
G04 Gerber Fmt 4.6, Leading zero omitted, Abs format (unit mm)*
G04 Created by KiCad (PCBNEW 10.0.4) date 2026-08-02 04:08:03*
%MOMM*%
%LPD*%
G01*
G04 APERTURE LIST*
G04 Aperture macros list*
%AMRoundRect*
0 Rectangle with rounded corners*
0 $1 Rounding radius*
0 $2 $3 $4 $5 $6 $7 $8 $9 X,Y pos of 4 corners*
0 Add a 4 corners polygon primitive as box body*
4,1,4,$2,$3,$4,$5,$6,$7,$8,$9,$2,$3,0*
0 Add four circle primitives for the rounded corners*
1,1,$1+$1,$2,$3*
1,1,$1+$1,$4,$5*
1,1,$1+$1,$6,$7*
1,1,$1+$1,$8,$9*
0 Add four rect primitives between the rounded corners*
20,1,$1+$1,$2,$3,$4,$5,0*
20,1,$1+$1,$4,$5,$6,$7,0*
20,1,$1+$1,$6,$7,$8,$9,0*
20,1,$1+$1,$8,$9,$2,$3,0*%
G04 Aperture macros list end*
%ADD10C,0.150000*%
%ADD11C,0.187500*%
%ADD12C,0.120000*%
%ADD13C,1.800000*%
%ADD14O,2.900000X3.200000*%
%ADD15C,3.200000*%
%ADD16R,1.500000X0.900000*%
%ADD17RoundRect,0.250000X-1.500000X-0.550000X1.500000X-0.550000X1.500000X0.550000X-1.500000X0.550000X0*%
%ADD18RoundRect,0.225000X-0.225000X-0.250000X0.225000X-0.250000X0.225000X0.250000X-0.225000X0.250000X0*%
%ADD19O,2.300000X4.000000*%
%ADD20R,1.700000X1.700000*%
%ADD21C,1.700000*%
G04 APERTURE END LIST*
D10*
X44457142Y-110404485D02*
X44342857Y-110347342D01*
X44342857Y-110347342D02*
X44171428Y-110347342D01*
X44171428Y-110347342D02*
X43999999Y-110404485D01*
X43999999Y-110404485D02*
X43885714Y-110518771D01*
X43885714Y-110518771D02*
X43828571Y-110633057D01*
X43828571Y-110633057D02*
X43771428Y-110861628D01*
X43771428Y-110861628D02*
X43771428Y-111033057D01*
X43771428Y-111033057D02*
X43828571Y-111261628D01*
X43828571Y-111261628D02*
X43885714Y-111375914D01*
X43885714Y-111375914D02*
X43999999Y-111490200D01*
X43999999Y-111490200D02*
X44171428Y-111547342D01*
X44171428Y-111547342D02*
X44285714Y-111547342D01*
X44285714Y-111547342D02*
X44457142Y-111490200D01*
X44457142Y-111490200D02*
X44514285Y-111433057D01*
X44514285Y-111433057D02*
X44514285Y-111033057D01*
X44514285Y-111033057D02*
X44285714Y-111033057D01*
X45599999Y-111547342D02*
X45028571Y-111547342D01*
X45028571Y-111547342D02*
X45028571Y-110347342D01*
X46000000Y-111547342D02*
X46000000Y-110347342D01*
X46400000Y-110347342D02*
X47085715Y-110347342D01*
X46742857Y-111547342D02*
X46742857Y-110347342D01*
X48171429Y-111433057D02*
X48114286Y-111490200D01*
X48114286Y-111490200D02*
X47942858Y-111547342D01*
X47942858Y-111547342D02*
X47828572Y-111547342D01*
X47828572Y-111547342D02*
X47657143Y-111490200D01*
X47657143Y-111490200D02*
X47542858Y-111375914D01*
X47542858Y-111375914D02*
X47485715Y-111261628D01*
X47485715Y-111261628D02*
X47428572Y-111033057D01*
X47428572Y-111033057D02*
X47428572Y-110861628D01*
X47428572Y-110861628D02*
X47485715Y-110633057D01*
X47485715Y-110633057D02*
X47542858Y-110518771D01*
X47542858Y-110518771D02*
X47657143Y-110404485D01*
X47657143Y-110404485D02*
X47828572Y-110347342D01*
X47828572Y-110347342D02*
X47942858Y-110347342D01*
X47942858Y-110347342D02*
X48114286Y-110404485D01*
X48114286Y-110404485D02*
X48171429Y-110461628D01*
X48685715Y-111547342D02*
X48685715Y-110347342D01*
X48685715Y-110918771D02*
X49371429Y-110918771D01*
X49371429Y-111547342D02*
X49371429Y-110347342D01*
X49828572Y-110347342D02*
X50114286Y-111547342D01*
X50114286Y-111547342D02*
X50342858Y-110690200D01*
X50342858Y-110690200D02*
X50571429Y-111547342D01*
X50571429Y-111547342D02*
X50857144Y-110347342D01*
X51257144Y-111204485D02*
X51828573Y-111204485D01*
X51142858Y-111547342D02*
X51542858Y-110347342D01*
X51542858Y-110347342D02*
X51942858Y-111547342D01*
X52171429Y-110347342D02*
X52571429Y-111547342D01*
X52571429Y-111547342D02*
X52971429Y-110347342D01*
X53371429Y-110918771D02*
X53771429Y-110918771D01*
X53942857Y-111547342D02*
X53371429Y-111547342D01*
X53371429Y-111547342D02*
X53371429Y-110347342D01*
X53371429Y-110347342D02*
X53942857Y-110347342D01*
X55942857Y-110347342D02*
X55371429Y-110347342D01*
X55371429Y-110347342D02*
X55314286Y-110918771D01*
X55314286Y-110918771D02*
X55371429Y-110861628D01*
X55371429Y-110861628D02*
X55485715Y-110804485D01*
X55485715Y-110804485D02*
X55771429Y-110804485D01*
X55771429Y-110804485D02*
X55885715Y-110861628D01*
X55885715Y-110861628D02*
X55942857Y-110918771D01*
X55942857Y-110918771D02*
X56000000Y-111033057D01*
X56000000Y-111033057D02*
X56000000Y-111318771D01*
X56000000Y-111318771D02*
X55942857Y-111433057D01*
X55942857Y-111433057D02*
X55885715Y-111490200D01*
X55885715Y-111490200D02*
X55771429Y-111547342D01*
X55771429Y-111547342D02*
X55485715Y-111547342D01*
X55485715Y-111547342D02*
X55371429Y-111490200D01*
X55371429Y-111490200D02*
X55314286Y-111433057D01*
X57028572Y-110347342D02*
X56800000Y-110347342D01*
X56800000Y-110347342D02*
X56685714Y-110404485D01*
X56685714Y-110404485D02*
X56628572Y-110461628D01*
X56628572Y-110461628D02*
X56514286Y-110633057D01*
X56514286Y-110633057D02*
X56457143Y-110861628D01*
X56457143Y-110861628D02*
X56457143Y-111318771D01*
X56457143Y-111318771D02*
X56514286Y-111433057D01*
X56514286Y-111433057D02*
X56571429Y-111490200D01*
X56571429Y-111490200D02*
X56685714Y-111547342D01*
X56685714Y-111547342D02*
X56914286Y-111547342D01*
X56914286Y-111547342D02*
X57028572Y-111490200D01*
X57028572Y-111490200D02*
X57085714Y-111433057D01*
X57085714Y-111433057D02*
X57142857Y-111318771D01*
X57142857Y-111318771D02*
X57142857Y-111033057D01*
X57142857Y-111033057D02*
X57085714Y-110918771D01*
X57085714Y-110918771D02*
X57028572Y-110861628D01*
X57028572Y-110861628D02*
X56914286Y-110804485D01*
X56914286Y-110804485D02*
X56685714Y-110804485D01*
X56685714Y-110804485D02*
X56571429Y-110861628D01*
X56571429Y-110861628D02*
X56514286Y-110918771D01*
X56514286Y-110918771D02*
X56457143Y-111033057D01*
X57542857Y-110347342D02*
X58342857Y-110347342D01*
X58342857Y-110347342D02*
X57828571Y-111547342D01*
X59714286Y-111090200D02*
X60628572Y-111090200D01*
X62800000Y-111433057D02*
X62742857Y-111490200D01*
X62742857Y-111490200D02*
X62571429Y-111547342D01*
X62571429Y-111547342D02*
X62457143Y-111547342D01*
X62457143Y-111547342D02*
X62285714Y-111490200D01*
X62285714Y-111490200D02*
X62171429Y-111375914D01*
X62171429Y-111375914D02*
X62114286Y-111261628D01*
X62114286Y-111261628D02*
X62057143Y-111033057D01*
X62057143Y-111033057D02*
X62057143Y-110861628D01*
X62057143Y-110861628D02*
X62114286Y-110633057D01*
X62114286Y-110633057D02*
X62171429Y-110518771D01*
X62171429Y-110518771D02*
X62285714Y-110404485D01*
X62285714Y-110404485D02*
X62457143Y-110347342D01*
X62457143Y-110347342D02*
X62571429Y-110347342D01*
X62571429Y-110347342D02*
X62742857Y-110404485D01*
X62742857Y-110404485D02*
X62800000Y-110461628D01*
X63542857Y-110347342D02*
X63771429Y-110347342D01*
X63771429Y-110347342D02*
X63885714Y-110404485D01*
X63885714Y-110404485D02*
X64000000Y-110518771D01*
X64000000Y-110518771D02*
X64057143Y-110747342D01*
X64057143Y-110747342D02*
X64057143Y-111147342D01*
X64057143Y-111147342D02*
X64000000Y-111375914D01*
X64000000Y-111375914D02*
X63885714Y-111490200D01*
X63885714Y-111490200D02*
X63771429Y-111547342D01*
X63771429Y-111547342D02*
X63542857Y-111547342D01*
X63542857Y-111547342D02*
X63428572Y-111490200D01*
X63428572Y-111490200D02*
X63314286Y-111375914D01*
X63314286Y-111375914D02*
X63257143Y-111147342D01*
X63257143Y-111147342D02*
X63257143Y-110747342D01*
X63257143Y-110747342D02*
X63314286Y-110518771D01*
X63314286Y-110518771D02*
X63428572Y-110404485D01*
X63428572Y-110404485D02*
X63542857Y-110347342D01*
X64571429Y-111547342D02*
X64571429Y-110347342D01*
X64571429Y-110347342D02*
X65257143Y-111547342D01*
X65257143Y-111547342D02*
X65257143Y-110347342D01*
X65657143Y-110347342D02*
X66342858Y-110347342D01*
X66000000Y-111547342D02*
X66000000Y-110347342D01*
X67428572Y-111547342D02*
X67028572Y-110975914D01*
X66742858Y-111547342D02*
X66742858Y-110347342D01*
X66742858Y-110347342D02*
X67200001Y-110347342D01*
X67200001Y-110347342D02*
X67314286Y-110404485D01*
X67314286Y-110404485D02*
X67371429Y-110461628D01*
X67371429Y-110461628D02*
X67428572Y-110575914D01*
X67428572Y-110575914D02*
X67428572Y-110747342D01*
X67428572Y-110747342D02*
X67371429Y-110861628D01*
X67371429Y-110861628D02*
X67314286Y-110918771D01*
X67314286Y-110918771D02*
X67200001Y-110975914D01*
X67200001Y-110975914D02*
X66742858Y-110975914D01*
X68171429Y-110347342D02*
X68400001Y-110347342D01*
X68400001Y-110347342D02*
X68514286Y-110404485D01*
X68514286Y-110404485D02*
X68628572Y-110518771D01*
X68628572Y-110518771D02*
X68685715Y-110747342D01*
X68685715Y-110747342D02*
X68685715Y-111147342D01*
X68685715Y-111147342D02*
X68628572Y-111375914D01*
X68628572Y-111375914D02*
X68514286Y-111490200D01*
X68514286Y-111490200D02*
X68400001Y-111547342D01*
X68400001Y-111547342D02*
X68171429Y-111547342D01*
X68171429Y-111547342D02*
X68057144Y-111490200D01*
X68057144Y-111490200D02*
X67942858Y-111375914D01*
X67942858Y-111375914D02*
X67885715Y-111147342D01*
X67885715Y-111147342D02*
X67885715Y-110747342D01*
X67885715Y-110747342D02*
X67942858Y-110518771D01*
X67942858Y-110518771D02*
X68057144Y-110404485D01*
X68057144Y-110404485D02*
X68171429Y-110347342D01*
X69771429Y-111547342D02*
X69200001Y-111547342D01*
X69200001Y-111547342D02*
X69200001Y-110347342D01*
X72000002Y-111547342D02*
X72000002Y-110747342D01*
X72000002Y-110975914D02*
X72057145Y-110861628D01*
X72057145Y-110861628D02*
X72114288Y-110804485D01*
X72114288Y-110804485D02*
X72228573Y-110747342D01*
X72228573Y-110747342D02*
X72342859Y-110747342D01*
X73200002Y-111490200D02*
X73085716Y-111547342D01*
X73085716Y-111547342D02*
X72857145Y-111547342D01*
X72857145Y-111547342D02*
X72742859Y-111490200D01*
X72742859Y-111490200D02*
X72685716Y-111375914D01*
X72685716Y-111375914D02*
X72685716Y-110918771D01*
X72685716Y-110918771D02*
X72742859Y-110804485D01*
X72742859Y-110804485D02*
X72857145Y-110747342D01*
X72857145Y-110747342D02*
X73085716Y-110747342D01*
X73085716Y-110747342D02*
X73200002Y-110804485D01*
X73200002Y-110804485D02*
X73257145Y-110918771D01*
X73257145Y-110918771D02*
X73257145Y-111033057D01*
X73257145Y-111033057D02*
X72685716Y-111147342D01*
X73657144Y-110747342D02*
X73942858Y-111547342D01*
X73942858Y-111547342D02*
X74228573Y-110747342D01*
X74914287Y-110347342D02*
X75028573Y-110347342D01*
X75028573Y-110347342D02*
X75142859Y-110404485D01*
X75142859Y-110404485D02*
X75200002Y-110461628D01*
X75200002Y-110461628D02*
X75257144Y-110575914D01*
X75257144Y-110575914D02*
X75314287Y-110804485D01*
X75314287Y-110804485D02*
X75314287Y-111090200D01*
X75314287Y-111090200D02*
X75257144Y-111318771D01*
X75257144Y-111318771D02*
X75200002Y-111433057D01*
X75200002Y-111433057D02*
X75142859Y-111490200D01*
X75142859Y-111490200D02*
X75028573Y-111547342D01*
X75028573Y-111547342D02*
X74914287Y-111547342D01*
X74914287Y-111547342D02*
X74800002Y-111490200D01*
X74800002Y-111490200D02*
X74742859Y-111433057D01*
X74742859Y-111433057D02*
X74685716Y-111318771D01*
X74685716Y-111318771D02*
X74628573Y-111090200D01*
X74628573Y-111090200D02*
X74628573Y-110804485D01*
X74628573Y-110804485D02*
X74685716Y-110575914D01*
X74685716Y-110575914D02*
X74742859Y-110461628D01*
X74742859Y-110461628D02*
X74800002Y-110404485D01*
X74800002Y-110404485D02*
X74914287Y-110347342D01*
X75828573Y-111433057D02*
X75885716Y-111490200D01*
X75885716Y-111490200D02*
X75828573Y-111547342D01*
X75828573Y-111547342D02*
X75771430Y-111490200D01*
X75771430Y-111490200D02*
X75828573Y-111433057D01*
X75828573Y-111433057D02*
X75828573Y-111547342D01*
X77028573Y-111547342D02*
X76342859Y-111547342D01*
X76685716Y-111547342D02*
X76685716Y-110347342D01*
X76685716Y-110347342D02*
X76571430Y-110518771D01*
X76571430Y-110518771D02*
X76457145Y-110633057D01*
X76457145Y-110633057D02*
X76342859Y-110690200D01*
X79371431Y-111547342D02*
X79371431Y-110347342D01*
X80114288Y-111547342D02*
X80000003Y-111490200D01*
X80000003Y-111490200D02*
X79942860Y-111375914D01*
X79942860Y-111375914D02*
X79942860Y-110347342D01*
X80742859Y-111547342D02*
X80628574Y-111490200D01*
X80628574Y-111490200D02*
X80571431Y-111375914D01*
X80571431Y-111375914D02*
X80571431Y-110347342D01*
X81200002Y-111547342D02*
X81200002Y-110747342D01*
X81200002Y-110347342D02*
X81142859Y-110404485D01*
X81142859Y-110404485D02*
X81200002Y-110461628D01*
X81200002Y-110461628D02*
X81257145Y-110404485D01*
X81257145Y-110404485D02*
X81200002Y-110347342D01*
X81200002Y-110347342D02*
X81200002Y-110461628D01*
X82285717Y-111490200D02*
X82171431Y-111547342D01*
X82171431Y-111547342D02*
X81942859Y-111547342D01*
X81942859Y-111547342D02*
X81828574Y-111490200D01*
X81828574Y-111490200D02*
X81771431Y-111433057D01*
X81771431Y-111433057D02*
X81714288Y-111318771D01*
X81714288Y-111318771D02*
X81714288Y-110975914D01*
X81714288Y-110975914D02*
X81771431Y-110861628D01*
X81771431Y-110861628D02*
X81828574Y-110804485D01*
X81828574Y-110804485D02*
X81942859Y-110747342D01*
X81942859Y-110747342D02*
X82171431Y-110747342D01*
X82171431Y-110747342D02*
X82285717Y-110804485D01*
X82800002Y-111547342D02*
X82800002Y-110747342D01*
X82800002Y-110347342D02*
X82742859Y-110404485D01*
X82742859Y-110404485D02*
X82800002Y-110461628D01*
X82800002Y-110461628D02*
X82857145Y-110404485D01*
X82857145Y-110404485D02*
X82800002Y-110347342D01*
X82800002Y-110347342D02*
X82800002Y-110461628D01*
X83200002Y-110747342D02*
X83657145Y-110747342D01*
X83371431Y-110347342D02*
X83371431Y-111375914D01*
X83371431Y-111375914D02*
X83428574Y-111490200D01*
X83428574Y-111490200D02*
X83542859Y-111547342D01*
X83542859Y-111547342D02*
X83657145Y-111547342D01*
X84914288Y-111204485D02*
X85485717Y-111204485D01*
X84800002Y-111547342D02*
X85200002Y-110347342D01*
X85200002Y-110347342D02*
X85600002Y-111547342D01*
X86000002Y-110747342D02*
X86000002Y-111947342D01*
X86000002Y-110804485D02*
X86114288Y-110747342D01*
X86114288Y-110747342D02*
X86342859Y-110747342D01*
X86342859Y-110747342D02*
X86457145Y-110804485D01*
X86457145Y-110804485D02*
X86514288Y-110861628D01*
X86514288Y-110861628D02*
X86571430Y-110975914D01*
X86571430Y-110975914D02*
X86571430Y-111318771D01*
X86571430Y-111318771D02*
X86514288Y-111433057D01*
X86514288Y-111433057D02*
X86457145Y-111490200D01*
X86457145Y-111490200D02*
X86342859Y-111547342D01*
X86342859Y-111547342D02*
X86114288Y-111547342D01*
X86114288Y-111547342D02*
X86000002Y-111490200D01*
X87257144Y-111547342D02*
X87142859Y-111490200D01*
X87142859Y-111490200D02*
X87085716Y-111433057D01*
X87085716Y-111433057D02*
X87028573Y-111318771D01*
X87028573Y-111318771D02*
X87028573Y-110975914D01*
X87028573Y-110975914D02*
X87085716Y-110861628D01*
X87085716Y-110861628D02*
X87142859Y-110804485D01*
X87142859Y-110804485D02*
X87257144Y-110747342D01*
X87257144Y-110747342D02*
X87428573Y-110747342D01*
X87428573Y-110747342D02*
X87542859Y-110804485D01*
X87542859Y-110804485D02*
X87600002Y-110861628D01*
X87600002Y-110861628D02*
X87657144Y-110975914D01*
X87657144Y-110975914D02*
X87657144Y-111318771D01*
X87657144Y-111318771D02*
X87600002Y-111433057D01*
X87600002Y-111433057D02*
X87542859Y-111490200D01*
X87542859Y-111490200D02*
X87428573Y-111547342D01*
X87428573Y-111547342D02*
X87257144Y-111547342D01*
X88000001Y-110747342D02*
X88457144Y-110747342D01*
X88171430Y-110347342D02*
X88171430Y-111375914D01*
X88171430Y-111375914D02*
X88228573Y-111490200D01*
X88228573Y-111490200D02*
X88342858Y-111547342D01*
X88342858Y-111547342D02*
X88457144Y-111547342D01*
X88857144Y-111547342D02*
X88857144Y-110347342D01*
X89371430Y-111547342D02*
X89371430Y-110918771D01*
X89371430Y-110918771D02*
X89314287Y-110804485D01*
X89314287Y-110804485D02*
X89200001Y-110747342D01*
X89200001Y-110747342D02*
X89028572Y-110747342D01*
X89028572Y-110747342D02*
X88914287Y-110804485D01*
X88914287Y-110804485D02*
X88857144Y-110861628D01*
X90400001Y-111490200D02*
X90285715Y-111547342D01*
X90285715Y-111547342D02*
X90057144Y-111547342D01*
X90057144Y-111547342D02*
X89942858Y-111490200D01*
X89942858Y-111490200D02*
X89885715Y-111375914D01*
X89885715Y-111375914D02*
X89885715Y-110918771D01*
X89885715Y-110918771D02*
X89942858Y-110804485D01*
X89942858Y-110804485D02*
X90057144Y-110747342D01*
X90057144Y-110747342D02*
X90285715Y-110747342D01*
X90285715Y-110747342D02*
X90400001Y-110804485D01*
X90400001Y-110804485D02*
X90457144Y-110918771D01*
X90457144Y-110918771D02*
X90457144Y-111033057D01*
X90457144Y-111033057D02*
X89885715Y-111147342D01*
X91485715Y-111490200D02*
X91371429Y-111547342D01*
X91371429Y-111547342D02*
X91142857Y-111547342D01*
X91142857Y-111547342D02*
X91028572Y-111490200D01*
X91028572Y-111490200D02*
X90971429Y-111433057D01*
X90971429Y-111433057D02*
X90914286Y-111318771D01*
X90914286Y-111318771D02*
X90914286Y-110975914D01*
X90914286Y-110975914D02*
X90971429Y-110861628D01*
X90971429Y-110861628D02*
X91028572Y-110804485D01*
X91028572Y-110804485D02*
X91142857Y-110747342D01*
X91142857Y-110747342D02*
X91371429Y-110747342D01*
X91371429Y-110747342D02*
X91485715Y-110804485D01*
X92514286Y-111547342D02*
X92514286Y-110918771D01*
X92514286Y-110918771D02*
X92457143Y-110804485D01*
X92457143Y-110804485D02*
X92342857Y-110747342D01*
X92342857Y-110747342D02*
X92114286Y-110747342D01*
X92114286Y-110747342D02*
X92000000Y-110804485D01*
X92514286Y-111490200D02*
X92400000Y-111547342D01*
X92400000Y-111547342D02*
X92114286Y-111547342D01*
X92114286Y-111547342D02*
X92000000Y-111490200D01*
X92000000Y-111490200D02*
X91942857Y-111375914D01*
X91942857Y-111375914D02*
X91942857Y-111261628D01*
X91942857Y-111261628D02*
X92000000Y-111147342D01*
X92000000Y-111147342D02*
X92114286Y-111090200D01*
X92114286Y-111090200D02*
X92400000Y-111090200D01*
X92400000Y-111090200D02*
X92514286Y-111033057D01*
X93085714Y-111547342D02*
X93085714Y-110747342D01*
X93085714Y-110975914D02*
X93142857Y-110861628D01*
X93142857Y-110861628D02*
X93200000Y-110804485D01*
X93200000Y-110804485D02*
X93314285Y-110747342D01*
X93314285Y-110747342D02*
X93428571Y-110747342D01*
X93714285Y-110747342D02*
X93999999Y-111547342D01*
X94285714Y-110747342D02*
X93999999Y-111547342D01*
X93999999Y-111547342D02*
X93885714Y-111833057D01*
X93885714Y-111833057D02*
X93828571Y-111890200D01*
X93828571Y-111890200D02*
X93714285Y-111947342D01*
D11*
X32178572Y-103184178D02*
X33035715Y-103184178D01*
X32607143Y-104684178D02*
X32607143Y-103184178D01*
X33464286Y-104255607D02*
X34178572Y-104255607D01*
X33321429Y-104684178D02*
X33821429Y-103184178D01*
X33821429Y-103184178D02*
X34321429Y-104684178D01*
X34821428Y-104684178D02*
X34821428Y-103184178D01*
X34821428Y-103184178D02*
X35392857Y-103184178D01*
X35392857Y-103184178D02*
X35535714Y-103255607D01*
X35535714Y-103255607D02*
X35607143Y-103327035D01*
X35607143Y-103327035D02*
X35678571Y-103469892D01*
X35678571Y-103469892D02*
X35678571Y-103684178D01*
X35678571Y-103684178D02*
X35607143Y-103827035D01*
X35607143Y-103827035D02*
X35535714Y-103898464D01*
X35535714Y-103898464D02*
X35392857Y-103969892D01*
X35392857Y-103969892D02*
X34821428Y-103969892D01*
X53392857Y-13898464D02*
X52892857Y-13898464D01*
X52892857Y-14684178D02*
X52892857Y-13184178D01*
X52892857Y-13184178D02*
X53607143Y-13184178D01*
X55035714Y-14684178D02*
X54535714Y-13969892D01*
X54178571Y-14684178D02*
X54178571Y-13184178D01*
X54178571Y-13184178D02*
X54750000Y-13184178D01*
X54750000Y-13184178D02*
X54892857Y-13255607D01*
X54892857Y-13255607D02*
X54964286Y-13327035D01*
X54964286Y-13327035D02*
X55035714Y-13469892D01*
X55035714Y-13469892D02*
X55035714Y-13684178D01*
X55035714Y-13684178D02*
X54964286Y-13827035D01*
X54964286Y-13827035D02*
X54892857Y-13898464D01*
X54892857Y-13898464D02*
X54750000Y-13969892D01*
X54750000Y-13969892D02*
X54178571Y-13969892D01*
X55678571Y-13898464D02*
X56178571Y-13898464D01*
X56392857Y-14684178D02*
X55678571Y-14684178D01*
X55678571Y-14684178D02*
X55678571Y-13184178D01*
X55678571Y-13184178D02*
X56392857Y-13184178D01*
X58035714Y-14827035D02*
X57892857Y-14755607D01*
X57892857Y-14755607D02*
X57750000Y-14612750D01*
X57750000Y-14612750D02*
X57535714Y-14398464D01*
X57535714Y-14398464D02*
X57392857Y-14327035D01*
X57392857Y-14327035D02*
X57250000Y-14327035D01*
X57321429Y-14684178D02*
X57178572Y-14612750D01*
X57178572Y-14612750D02*
X57035714Y-14469892D01*
X57035714Y-14469892D02*
X56964286Y-14184178D01*
X56964286Y-14184178D02*
X56964286Y-13684178D01*
X56964286Y-13684178D02*
X57035714Y-13398464D01*
X57035714Y-13398464D02*
X57178572Y-13255607D01*
X57178572Y-13255607D02*
X57321429Y-13184178D01*
X57321429Y-13184178D02*
X57607143Y-13184178D01*
X57607143Y-13184178D02*
X57750000Y-13255607D01*
X57750000Y-13255607D02*
X57892857Y-13398464D01*
X57892857Y-13398464D02*
X57964286Y-13684178D01*
X57964286Y-13684178D02*
X57964286Y-14184178D01*
X57964286Y-14184178D02*
X57892857Y-14469892D01*
X57892857Y-14469892D02*
X57750000Y-14612750D01*
X57750000Y-14612750D02*
X57607143Y-14684178D01*
X57607143Y-14684178D02*
X57321429Y-14684178D01*
X68535714Y-13255607D02*
X68392857Y-13184178D01*
X68392857Y-13184178D02*
X68178571Y-13184178D01*
X68178571Y-13184178D02*
X67964285Y-13255607D01*
X67964285Y-13255607D02*
X67821428Y-13398464D01*
X67821428Y-13398464D02*
X67749999Y-13541321D01*
X67749999Y-13541321D02*
X67678571Y-13827035D01*
X67678571Y-13827035D02*
X67678571Y-14041321D01*
X67678571Y-14041321D02*
X67749999Y-14327035D01*
X67749999Y-14327035D02*
X67821428Y-14469892D01*
X67821428Y-14469892D02*
X67964285Y-14612750D01*
X67964285Y-14612750D02*
X68178571Y-14684178D01*
X68178571Y-14684178D02*
X68321428Y-14684178D01*
X68321428Y-14684178D02*
X68535714Y-14612750D01*
X68535714Y-14612750D02*
X68607142Y-14541321D01*
X68607142Y-14541321D02*
X68607142Y-14041321D01*
X68607142Y-14041321D02*
X68321428Y-14041321D01*
X69178571Y-14255607D02*
X69892857Y-14255607D01*
X69035714Y-14684178D02*
X69535714Y-13184178D01*
X69535714Y-13184178D02*
X70035714Y-14684178D01*
X70535713Y-14684178D02*
X70535713Y-13184178D01*
X71249999Y-14684178D02*
X71249999Y-13184178D01*
X71249999Y-13184178D02*
X72107142Y-14684178D01*
X72107142Y-14684178D02*
X72107142Y-13184178D01*
X81964284Y-14684178D02*
X81964284Y-13184178D01*
X81964284Y-13184178D02*
X82464284Y-14255607D01*
X82464284Y-14255607D02*
X82964284Y-13184178D01*
X82964284Y-13184178D02*
X82964284Y-14684178D01*
X83678570Y-14684178D02*
X83678570Y-13184178D01*
X84249999Y-13184178D02*
X85249999Y-14684178D01*
X85249999Y-13184178D02*
X84249999Y-14684178D01*
X53750001Y-57898464D02*
X53250001Y-57898464D01*
X53250001Y-58684178D02*
X53250001Y-57184178D01*
X53250001Y-57184178D02*
X53964287Y-57184178D01*
X54535715Y-58684178D02*
X54535715Y-57184178D01*
X55107144Y-57184178D02*
X56107144Y-57184178D01*
X56107144Y-57184178D02*
X55107144Y-58684178D01*
X55107144Y-58684178D02*
X56107144Y-58684178D01*
X56535715Y-57184178D02*
X57535715Y-57184178D01*
X57535715Y-57184178D02*
X56535715Y-58684178D01*
X56535715Y-58684178D02*
X57535715Y-58684178D01*
X69392856Y-58827035D02*
X69249999Y-58755607D01*
X69249999Y-58755607D02*
X69107142Y-58612750D01*
X69107142Y-58612750D02*
X68892856Y-58398464D01*
X68892856Y-58398464D02*
X68749999Y-58327035D01*
X68749999Y-58327035D02*
X68607142Y-58327035D01*
X68678571Y-58684178D02*
X68535714Y-58612750D01*
X68535714Y-58612750D02*
X68392856Y-58469892D01*
X68392856Y-58469892D02*
X68321428Y-58184178D01*
X68321428Y-58184178D02*
X68321428Y-57684178D01*
X68321428Y-57684178D02*
X68392856Y-57398464D01*
X68392856Y-57398464D02*
X68535714Y-57255607D01*
X68535714Y-57255607D02*
X68678571Y-57184178D01*
X68678571Y-57184178D02*
X68964285Y-57184178D01*
X68964285Y-57184178D02*
X69107142Y-57255607D01*
X69107142Y-57255607D02*
X69249999Y-57398464D01*
X69249999Y-57398464D02*
X69321428Y-57684178D01*
X69321428Y-57684178D02*
X69321428Y-58184178D01*
X69321428Y-58184178D02*
X69249999Y-58469892D01*
X69249999Y-58469892D02*
X69107142Y-58612750D01*
X69107142Y-58612750D02*
X68964285Y-58684178D01*
X68964285Y-58684178D02*
X68678571Y-58684178D01*
X81178570Y-57184178D02*
X81678570Y-58684178D01*
X81678570Y-58684178D02*
X82178570Y-57184178D01*
X82964284Y-57184178D02*
X83249998Y-57184178D01*
X83249998Y-57184178D02*
X83392855Y-57255607D01*
X83392855Y-57255607D02*
X83535712Y-57398464D01*
X83535712Y-57398464D02*
X83607141Y-57684178D01*
X83607141Y-57684178D02*
X83607141Y-58184178D01*
X83607141Y-58184178D02*
X83535712Y-58469892D01*
X83535712Y-58469892D02*
X83392855Y-58612750D01*
X83392855Y-58612750D02*
X83249998Y-58684178D01*
X83249998Y-58684178D02*
X82964284Y-58684178D01*
X82964284Y-58684178D02*
X82821427Y-58612750D01*
X82821427Y-58612750D02*
X82678569Y-58469892D01*
X82678569Y-58469892D02*
X82607141Y-58184178D01*
X82607141Y-58184178D02*
X82607141Y-57684178D01*
X82607141Y-57684178D02*
X82678569Y-57398464D01*
X82678569Y-57398464D02*
X82821427Y-57255607D01*
X82821427Y-57255607D02*
X82964284Y-57184178D01*
X84964284Y-58684178D02*
X84249998Y-58684178D01*
X84249998Y-58684178D02*
X84249998Y-57184178D01*
X100642857Y-103898464D02*
X100857143Y-103969892D01*
X100857143Y-103969892D02*
X100928572Y-104041321D01*
X100928572Y-104041321D02*
X101000000Y-104184178D01*
X101000000Y-104184178D02*
X101000000Y-104398464D01*
X101000000Y-104398464D02*
X100928572Y-104541321D01*
X100928572Y-104541321D02*
X100857143Y-104612750D01*
X100857143Y-104612750D02*
X100714286Y-104684178D01*
X100714286Y-104684178D02*
X100142857Y-104684178D01*
X100142857Y-104684178D02*
X100142857Y-103184178D01*
X100142857Y-103184178D02*
X100642857Y-103184178D01*
X100642857Y-103184178D02*
X100785715Y-103255607D01*
X100785715Y-103255607D02*
X100857143Y-103327035D01*
X100857143Y-103327035D02*
X100928572Y-103469892D01*
X100928572Y-103469892D02*
X100928572Y-103612750D01*
X100928572Y-103612750D02*
X100857143Y-103755607D01*
X100857143Y-103755607D02*
X100785715Y-103827035D01*
X100785715Y-103827035D02*
X100642857Y-103898464D01*
X100642857Y-103898464D02*
X100142857Y-103898464D01*
X101928572Y-103969892D02*
X101928572Y-104684178D01*
X101428572Y-103184178D02*
X101928572Y-103969892D01*
X101928572Y-103969892D02*
X102428572Y-103184178D01*
X102928571Y-104684178D02*
X102928571Y-103184178D01*
X102928571Y-103184178D02*
X103500000Y-103184178D01*
X103500000Y-103184178D02*
X103642857Y-103255607D01*
X103642857Y-103255607D02*
X103714286Y-103327035D01*
X103714286Y-103327035D02*
X103785714Y-103469892D01*
X103785714Y-103469892D02*
X103785714Y-103684178D01*
X103785714Y-103684178D02*
X103714286Y-103827035D01*
X103714286Y-103827035D02*
X103642857Y-103898464D01*
X103642857Y-103898464D02*
X103500000Y-103969892D01*
X103500000Y-103969892D02*
X102928571Y-103969892D01*
X104357143Y-104255607D02*
X105071429Y-104255607D01*
X104214286Y-104684178D02*
X104714286Y-103184178D01*
X104714286Y-103184178D02*
X105214286Y-104684178D01*
X105642857Y-104612750D02*
X105857143Y-104684178D01*
X105857143Y-104684178D02*
X106214285Y-104684178D01*
X106214285Y-104684178D02*
X106357143Y-104612750D01*
X106357143Y-104612750D02*
X106428571Y-104541321D01*
X106428571Y-104541321D02*
X106500000Y-104398464D01*
X106500000Y-104398464D02*
X106500000Y-104255607D01*
X106500000Y-104255607D02*
X106428571Y-104112750D01*
X106428571Y-104112750D02*
X106357143Y-104041321D01*
X106357143Y-104041321D02*
X106214285Y-103969892D01*
X106214285Y-103969892D02*
X105928571Y-103898464D01*
X105928571Y-103898464D02*
X105785714Y-103827035D01*
X105785714Y-103827035D02*
X105714285Y-103755607D01*
X105714285Y-103755607D02*
X105642857Y-103612750D01*
X105642857Y-103612750D02*
X105642857Y-103469892D01*
X105642857Y-103469892D02*
X105714285Y-103327035D01*
X105714285Y-103327035D02*
X105785714Y-103255607D01*
X105785714Y-103255607D02*
X105928571Y-103184178D01*
X105928571Y-103184178D02*
X106285714Y-103184178D01*
X106285714Y-103184178D02*
X106500000Y-103255607D01*
X107071428Y-104612750D02*
X107285714Y-104684178D01*
X107285714Y-104684178D02*
X107642856Y-104684178D01*
X107642856Y-104684178D02*
X107785714Y-104612750D01*
X107785714Y-104612750D02*
X107857142Y-104541321D01*
X107857142Y-104541321D02*
X107928571Y-104398464D01*
X107928571Y-104398464D02*
X107928571Y-104255607D01*
X107928571Y-104255607D02*
X107857142Y-104112750D01*
X107857142Y-104112750D02*
X107785714Y-104041321D01*
X107785714Y-104041321D02*
X107642856Y-103969892D01*
X107642856Y-103969892D02*
X107357142Y-103898464D01*
X107357142Y-103898464D02*
X107214285Y-103827035D01*
X107214285Y-103827035D02*
X107142856Y-103755607D01*
X107142856Y-103755607D02*
X107071428Y-103612750D01*
X107071428Y-103612750D02*
X107071428Y-103469892D01*
X107071428Y-103469892D02*
X107142856Y-103327035D01*
X107142856Y-103327035D02*
X107214285Y-103255607D01*
X107214285Y-103255607D02*
X107357142Y-103184178D01*
X107357142Y-103184178D02*
X107714285Y-103184178D01*
X107714285Y-103184178D02*
X107928571Y-103255607D01*
D10*
X103404761Y-47954819D02*
X103071428Y-47478628D01*
X102833333Y-47954819D02*
X102833333Y-46954819D01*
X102833333Y-46954819D02*
X103214285Y-46954819D01*
X103214285Y-46954819D02*
X103309523Y-47002438D01*
X103309523Y-47002438D02*
X103357142Y-47050057D01*
X103357142Y-47050057D02*
X103404761Y-47145295D01*
X103404761Y-47145295D02*
X103404761Y-47288152D01*
X103404761Y-47288152D02*
X103357142Y-47383390D01*
X103357142Y-47383390D02*
X103309523Y-47431009D01*
X103309523Y-47431009D02*
X103214285Y-47478628D01*
X103214285Y-47478628D02*
X102833333Y-47478628D01*
X103690476Y-46954819D02*
X104023809Y-47954819D01*
X104023809Y-47954819D02*
X104357142Y-46954819D01*
X105119047Y-46954819D02*
X104928571Y-46954819D01*
X104928571Y-46954819D02*
X104833333Y-47002438D01*
X104833333Y-47002438D02*
X104785714Y-47050057D01*
X104785714Y-47050057D02*
X104690476Y-47192914D01*
X104690476Y-47192914D02*
X104642857Y-47383390D01*
X104642857Y-47383390D02*
X104642857Y-47764342D01*
X104642857Y-47764342D02*
X104690476Y-47859580D01*
X104690476Y-47859580D02*
X104738095Y-47907200D01*
X104738095Y-47907200D02*
X104833333Y-47954819D01*
X104833333Y-47954819D02*
X105023809Y-47954819D01*
X105023809Y-47954819D02*
X105119047Y-47907200D01*
X105119047Y-47907200D02*
X105166666Y-47859580D01*
X105166666Y-47859580D02*
X105214285Y-47764342D01*
X105214285Y-47764342D02*
X105214285Y-47526247D01*
X105214285Y-47526247D02*
X105166666Y-47431009D01*
X105166666Y-47431009D02*
X105119047Y-47383390D01*
X105119047Y-47383390D02*
X105023809Y-47335771D01*
X105023809Y-47335771D02*
X104833333Y-47335771D01*
X104833333Y-47335771D02*
X104738095Y-47383390D01*
X104738095Y-47383390D02*
X104690476Y-47431009D01*
X104690476Y-47431009D02*
X104642857Y-47526247D01*
X68404761Y-19954819D02*
X68071428Y-19478628D01*
X67833333Y-19954819D02*
X67833333Y-18954819D01*
X67833333Y-18954819D02*
X68214285Y-18954819D01*
X68214285Y-18954819D02*
X68309523Y-19002438D01*
X68309523Y-19002438D02*
X68357142Y-19050057D01*
X68357142Y-19050057D02*
X68404761Y-19145295D01*
X68404761Y-19145295D02*
X68404761Y-19288152D01*
X68404761Y-19288152D02*
X68357142Y-19383390D01*
X68357142Y-19383390D02*
X68309523Y-19431009D01*
X68309523Y-19431009D02*
X68214285Y-19478628D01*
X68214285Y-19478628D02*
X67833333Y-19478628D01*
X68690476Y-18954819D02*
X69023809Y-19954819D01*
X69023809Y-19954819D02*
X69357142Y-18954819D01*
X69642857Y-19050057D02*
X69690476Y-19002438D01*
X69690476Y-19002438D02*
X69785714Y-18954819D01*
X69785714Y-18954819D02*
X70023809Y-18954819D01*
X70023809Y-18954819D02*
X70119047Y-19002438D01*
X70119047Y-19002438D02*
X70166666Y-19050057D01*
X70166666Y-19050057D02*
X70214285Y-19145295D01*
X70214285Y-19145295D02*
X70214285Y-19240533D01*
X70214285Y-19240533D02*
X70166666Y-19383390D01*
X70166666Y-19383390D02*
X69595238Y-19954819D01*
X69595238Y-19954819D02*
X70214285Y-19954819D01*
X68404761Y-47954819D02*
X68071428Y-47478628D01*
X67833333Y-47954819D02*
X67833333Y-46954819D01*
X67833333Y-46954819D02*
X68214285Y-46954819D01*
X68214285Y-46954819D02*
X68309523Y-47002438D01*
X68309523Y-47002438D02*
X68357142Y-47050057D01*
X68357142Y-47050057D02*
X68404761Y-47145295D01*
X68404761Y-47145295D02*
X68404761Y-47288152D01*
X68404761Y-47288152D02*
X68357142Y-47383390D01*
X68357142Y-47383390D02*
X68309523Y-47431009D01*
X68309523Y-47431009D02*
X68214285Y-47478628D01*
X68214285Y-47478628D02*
X67833333Y-47478628D01*
X68690476Y-46954819D02*
X69023809Y-47954819D01*
X69023809Y-47954819D02*
X69357142Y-46954819D01*
X70166666Y-46954819D02*
X69690476Y-46954819D01*
X69690476Y-46954819D02*
X69642857Y-47431009D01*
X69642857Y-47431009D02*
X69690476Y-47383390D01*
X69690476Y-47383390D02*
X69785714Y-47335771D01*
X69785714Y-47335771D02*
X70023809Y-47335771D01*
X70023809Y-47335771D02*
X70119047Y-47383390D01*
X70119047Y-47383390D02*
X70166666Y-47431009D01*
X70166666Y-47431009D02*
X70214285Y-47526247D01*
X70214285Y-47526247D02*
X70214285Y-47764342D01*
X70214285Y-47764342D02*
X70166666Y-47859580D01*
X70166666Y-47859580D02*
X70119047Y-47907200D01*
X70119047Y-47907200D02*
X70023809Y-47954819D01*
X70023809Y-47954819D02*
X69785714Y-47954819D01*
X69785714Y-47954819D02*
X69690476Y-47907200D01*
X69690476Y-47907200D02*
X69642857Y-47859580D01*
X102880952Y-72954819D02*
X102404762Y-72954819D01*
X102404762Y-72954819D02*
X102404762Y-71954819D01*
X103214286Y-72431009D02*
X103547619Y-72431009D01*
X103690476Y-72954819D02*
X103214286Y-72954819D01*
X103214286Y-72954819D02*
X103214286Y-71954819D01*
X103214286Y-71954819D02*
X103690476Y-71954819D01*
X104119048Y-72954819D02*
X104119048Y-71954819D01*
X104119048Y-71954819D02*
X104357143Y-71954819D01*
X104357143Y-71954819D02*
X104500000Y-72002438D01*
X104500000Y-72002438D02*
X104595238Y-72097676D01*
X104595238Y-72097676D02*
X104642857Y-72192914D01*
X104642857Y-72192914D02*
X104690476Y-72383390D01*
X104690476Y-72383390D02*
X104690476Y-72526247D01*
X104690476Y-72526247D02*
X104642857Y-72716723D01*
X104642857Y-72716723D02*
X104595238Y-72811961D01*
X104595238Y-72811961D02*
X104500000Y-72907200D01*
X104500000Y-72907200D02*
X104357143Y-72954819D01*
X104357143Y-72954819D02*
X104119048Y-72954819D01*
X105595238Y-71954819D02*
X105119048Y-71954819D01*
X105119048Y-71954819D02*
X105071429Y-72431009D01*
X105071429Y-72431009D02*
X105119048Y-72383390D01*
X105119048Y-72383390D02*
X105214286Y-72335771D01*
X105214286Y-72335771D02*
X105452381Y-72335771D01*
X105452381Y-72335771D02*
X105547619Y-72383390D01*
X105547619Y-72383390D02*
X105595238Y-72431009D01*
X105595238Y-72431009D02*
X105642857Y-72526247D01*
X105642857Y-72526247D02*
X105642857Y-72764342D01*
X105642857Y-72764342D02*
X105595238Y-72859580D01*
X105595238Y-72859580D02*
X105547619Y-72907200D01*
X105547619Y-72907200D02*
X105452381Y-72954819D01*
X105452381Y-72954819D02*
X105214286Y-72954819D01*
X105214286Y-72954819D02*
X105119048Y-72907200D01*
X105119048Y-72907200D02*
X105071429Y-72859580D01*
X100135714Y-74854819D02*
X99564286Y-74854819D01*
X99850000Y-74854819D02*
X99850000Y-73854819D01*
X99850000Y-73854819D02*
X99754762Y-73997676D01*
X99754762Y-73997676D02*
X99659524Y-74092914D01*
X99659524Y-74092914D02*
X99564286Y-74140533D01*
X121833333Y-72009580D02*
X121785714Y-72057200D01*
X121785714Y-72057200D02*
X121642857Y-72104819D01*
X121642857Y-72104819D02*
X121547619Y-72104819D01*
X121547619Y-72104819D02*
X121404762Y-72057200D01*
X121404762Y-72057200D02*
X121309524Y-71961961D01*
X121309524Y-71961961D02*
X121261905Y-71866723D01*
X121261905Y-71866723D02*
X121214286Y-71676247D01*
X121214286Y-71676247D02*
X121214286Y-71533390D01*
X121214286Y-71533390D02*
X121261905Y-71342914D01*
X121261905Y-71342914D02*
X121309524Y-71247676D01*
X121309524Y-71247676D02*
X121404762Y-71152438D01*
X121404762Y-71152438D02*
X121547619Y-71104819D01*
X121547619Y-71104819D02*
X121642857Y-71104819D01*
X121642857Y-71104819D02*
X121785714Y-71152438D01*
X121785714Y-71152438D02*
X121833333Y-71200057D01*
X122166667Y-71104819D02*
X122833333Y-71104819D01*
X122833333Y-71104819D02*
X122404762Y-72104819D01*
X63460172Y-60507282D02*
X63412553Y-60554902D01*
X63412553Y-60554902D02*
X63269696Y-60602521D01*
X63269696Y-60602521D02*
X63174458Y-60602521D01*
X63174458Y-60602521D02*
X63031601Y-60554902D01*
X63031601Y-60554902D02*
X62936363Y-60459663D01*
X62936363Y-60459663D02*
X62888744Y-60364425D01*
X62888744Y-60364425D02*
X62841125Y-60173949D01*
X62841125Y-60173949D02*
X62841125Y-60031092D01*
X62841125Y-60031092D02*
X62888744Y-59840616D01*
X62888744Y-59840616D02*
X62936363Y-59745378D01*
X62936363Y-59745378D02*
X63031601Y-59650140D01*
X63031601Y-59650140D02*
X63174458Y-59602521D01*
X63174458Y-59602521D02*
X63269696Y-59602521D01*
X63269696Y-59602521D02*
X63412553Y-59650140D01*
X63412553Y-59650140D02*
X63460172Y-59697759D01*
X63793506Y-59602521D02*
X64412553Y-59602521D01*
X64412553Y-59602521D02*
X64079220Y-59983473D01*
X64079220Y-59983473D02*
X64222077Y-59983473D01*
X64222077Y-59983473D02*
X64317315Y-60031092D01*
X64317315Y-60031092D02*
X64364934Y-60078711D01*
X64364934Y-60078711D02*
X64412553Y-60173949D01*
X64412553Y-60173949D02*
X64412553Y-60412044D01*
X64412553Y-60412044D02*
X64364934Y-60507282D01*
X64364934Y-60507282D02*
X64317315Y-60554902D01*
X64317315Y-60554902D02*
X64222077Y-60602521D01*
X64222077Y-60602521D02*
X63936363Y-60602521D01*
X63936363Y-60602521D02*
X63841125Y-60554902D01*
X63841125Y-60554902D02*
X63793506Y-60507282D01*
X102666667Y-93907200D02*
X102809524Y-93954819D01*
X102809524Y-93954819D02*
X103047619Y-93954819D01*
X103047619Y-93954819D02*
X103142857Y-93907200D01*
X103142857Y-93907200D02*
X103190476Y-93859580D01*
X103190476Y-93859580D02*
X103238095Y-93764342D01*
X103238095Y-93764342D02*
X103238095Y-93669104D01*
X103238095Y-93669104D02*
X103190476Y-93573866D01*
X103190476Y-93573866D02*
X103142857Y-93526247D01*
X103142857Y-93526247D02*
X103047619Y-93478628D01*
X103047619Y-93478628D02*
X102857143Y-93431009D01*
X102857143Y-93431009D02*
X102761905Y-93383390D01*
X102761905Y-93383390D02*
X102714286Y-93335771D01*
X102714286Y-93335771D02*
X102666667Y-93240533D01*
X102666667Y-93240533D02*
X102666667Y-93145295D01*
X102666667Y-93145295D02*
X102714286Y-93050057D01*
X102714286Y-93050057D02*
X102761905Y-93002438D01*
X102761905Y-93002438D02*
X102857143Y-92954819D01*
X102857143Y-92954819D02*
X103095238Y-92954819D01*
X103095238Y-92954819D02*
X103238095Y-93002438D01*
X103571429Y-92954819D02*
X103809524Y-93954819D01*
X103809524Y-93954819D02*
X104000000Y-93240533D01*
X104000000Y-93240533D02*
X104190476Y-93954819D01*
X104190476Y-93954819D02*
X104428572Y-92954819D01*
X104761905Y-93050057D02*
X104809524Y-93002438D01*
X104809524Y-93002438D02*
X104904762Y-92954819D01*
X104904762Y-92954819D02*
X105142857Y-92954819D01*
X105142857Y-92954819D02*
X105238095Y-93002438D01*
X105238095Y-93002438D02*
X105285714Y-93050057D01*
X105285714Y-93050057D02*
X105333333Y-93145295D01*
X105333333Y-93145295D02*
X105333333Y-93240533D01*
X105333333Y-93240533D02*
X105285714Y-93383390D01*
X105285714Y-93383390D02*
X104714286Y-93954819D01*
X104714286Y-93954819D02*
X105333333Y-93954819D01*
X67880952Y-72954819D02*
X67404762Y-72954819D01*
X67404762Y-72954819D02*
X67404762Y-71954819D01*
X68214286Y-72431009D02*
X68547619Y-72431009D01*
X68690476Y-72954819D02*
X68214286Y-72954819D01*
X68214286Y-72954819D02*
X68214286Y-71954819D01*
X68214286Y-71954819D02*
X68690476Y-71954819D01*
X69119048Y-72954819D02*
X69119048Y-71954819D01*
X69119048Y-71954819D02*
X69357143Y-71954819D01*
X69357143Y-71954819D02*
X69500000Y-72002438D01*
X69500000Y-72002438D02*
X69595238Y-72097676D01*
X69595238Y-72097676D02*
X69642857Y-72192914D01*
X69642857Y-72192914D02*
X69690476Y-72383390D01*
X69690476Y-72383390D02*
X69690476Y-72526247D01*
X69690476Y-72526247D02*
X69642857Y-72716723D01*
X69642857Y-72716723D02*
X69595238Y-72811961D01*
X69595238Y-72811961D02*
X69500000Y-72907200D01*
X69500000Y-72907200D02*
X69357143Y-72954819D01*
X69357143Y-72954819D02*
X69119048Y-72954819D01*
X70547619Y-71954819D02*
X70357143Y-71954819D01*
X70357143Y-71954819D02*
X70261905Y-72002438D01*
X70261905Y-72002438D02*
X70214286Y-72050057D01*
X70214286Y-72050057D02*
X70119048Y-72192914D01*
X70119048Y-72192914D02*
X70071429Y-72383390D01*
X70071429Y-72383390D02*
X70071429Y-72764342D01*
X70071429Y-72764342D02*
X70119048Y-72859580D01*
X70119048Y-72859580D02*
X70166667Y-72907200D01*
X70166667Y-72907200D02*
X70261905Y-72954819D01*
X70261905Y-72954819D02*
X70452381Y-72954819D01*
X70452381Y-72954819D02*
X70547619Y-72907200D01*
X70547619Y-72907200D02*
X70595238Y-72859580D01*
X70595238Y-72859580D02*
X70642857Y-72764342D01*
X70642857Y-72764342D02*
X70642857Y-72526247D01*
X70642857Y-72526247D02*
X70595238Y-72431009D01*
X70595238Y-72431009D02*
X70547619Y-72383390D01*
X70547619Y-72383390D02*
X70452381Y-72335771D01*
X70452381Y-72335771D02*
X70261905Y-72335771D01*
X70261905Y-72335771D02*
X70166667Y-72383390D01*
X70166667Y-72383390D02*
X70119048Y-72431009D01*
X70119048Y-72431009D02*
X70071429Y-72526247D01*
X65135714Y-74854819D02*
X64564286Y-74854819D01*
X64850000Y-74854819D02*
X64850000Y-73854819D01*
X64850000Y-73854819D02*
X64754762Y-73997676D01*
X64754762Y-73997676D02*
X64659524Y-74092914D01*
X64659524Y-74092914D02*
X64564286Y-74140533D01*
X102880952Y-32954819D02*
X102404762Y-32954819D01*
X102404762Y-32954819D02*
X102404762Y-31954819D01*
X103214286Y-32431009D02*
X103547619Y-32431009D01*
X103690476Y-32954819D02*
X103214286Y-32954819D01*
X103214286Y-32954819D02*
X103214286Y-31954819D01*
X103214286Y-31954819D02*
X103690476Y-31954819D01*
X104119048Y-32954819D02*
X104119048Y-31954819D01*
X104119048Y-31954819D02*
X104357143Y-31954819D01*
X104357143Y-31954819D02*
X104500000Y-32002438D01*
X104500000Y-32002438D02*
X104595238Y-32097676D01*
X104595238Y-32097676D02*
X104642857Y-32192914D01*
X104642857Y-32192914D02*
X104690476Y-32383390D01*
X104690476Y-32383390D02*
X104690476Y-32526247D01*
X104690476Y-32526247D02*
X104642857Y-32716723D01*
X104642857Y-32716723D02*
X104595238Y-32811961D01*
X104595238Y-32811961D02*
X104500000Y-32907200D01*
X104500000Y-32907200D02*
X104357143Y-32954819D01*
X104357143Y-32954819D02*
X104119048Y-32954819D01*
X105023810Y-31954819D02*
X105642857Y-31954819D01*
X105642857Y-31954819D02*
X105309524Y-32335771D01*
X105309524Y-32335771D02*
X105452381Y-32335771D01*
X105452381Y-32335771D02*
X105547619Y-32383390D01*
X105547619Y-32383390D02*
X105595238Y-32431009D01*
X105595238Y-32431009D02*
X105642857Y-32526247D01*
X105642857Y-32526247D02*
X105642857Y-32764342D01*
X105642857Y-32764342D02*
X105595238Y-32859580D01*
X105595238Y-32859580D02*
X105547619Y-32907200D01*
X105547619Y-32907200D02*
X105452381Y-32954819D01*
X105452381Y-32954819D02*
X105166667Y-32954819D01*
X105166667Y-32954819D02*
X105071429Y-32907200D01*
X105071429Y-32907200D02*
X105023810Y-32859580D01*
X100135714Y-34854819D02*
X99564286Y-34854819D01*
X99850000Y-34854819D02*
X99850000Y-33854819D01*
X99850000Y-33854819D02*
X99754762Y-33997676D01*
X99754762Y-33997676D02*
X99659524Y-34092914D01*
X99659524Y-34092914D02*
X99564286Y-34140533D01*
X64753819Y-63860864D02*
X64706200Y-63908484D01*
X64706200Y-63908484D02*
X64563343Y-63956103D01*
X64563343Y-63956103D02*
X64468105Y-63956103D01*
X64468105Y-63956103D02*
X64325248Y-63908484D01*
X64325248Y-63908484D02*
X64230010Y-63813245D01*
X64230010Y-63813245D02*
X64182391Y-63718007D01*
X64182391Y-63718007D02*
X64134772Y-63527531D01*
X64134772Y-63527531D02*
X64134772Y-63384674D01*
X64134772Y-63384674D02*
X64182391Y-63194198D01*
X64182391Y-63194198D02*
X64230010Y-63098960D01*
X64230010Y-63098960D02*
X64325248Y-63003722D01*
X64325248Y-63003722D02*
X64468105Y-62956103D01*
X64468105Y-62956103D02*
X64563343Y-62956103D01*
X64563343Y-62956103D02*
X64706200Y-63003722D01*
X64706200Y-63003722D02*
X64753819Y-63051341D01*
X65658581Y-62956103D02*
X65182391Y-62956103D01*
X65182391Y-62956103D02*
X65134772Y-63432293D01*
X65134772Y-63432293D02*
X65182391Y-63384674D01*
X65182391Y-63384674D02*
X65277629Y-63337055D01*
X65277629Y-63337055D02*
X65515724Y-63337055D01*
X65515724Y-63337055D02*
X65610962Y-63384674D01*
X65610962Y-63384674D02*
X65658581Y-63432293D01*
X65658581Y-63432293D02*
X65706200Y-63527531D01*
X65706200Y-63527531D02*
X65706200Y-63765626D01*
X65706200Y-63765626D02*
X65658581Y-63860864D01*
X65658581Y-63860864D02*
X65610962Y-63908484D01*
X65610962Y-63908484D02*
X65515724Y-63956103D01*
X65515724Y-63956103D02*
X65277629Y-63956103D01*
X65277629Y-63956103D02*
X65182391Y-63908484D01*
X65182391Y-63908484D02*
X65134772Y-63860864D01*
X32666667Y-93907200D02*
X32809524Y-93954819D01*
X32809524Y-93954819D02*
X33047619Y-93954819D01*
X33047619Y-93954819D02*
X33142857Y-93907200D01*
X33142857Y-93907200D02*
X33190476Y-93859580D01*
X33190476Y-93859580D02*
X33238095Y-93764342D01*
X33238095Y-93764342D02*
X33238095Y-93669104D01*
X33238095Y-93669104D02*
X33190476Y-93573866D01*
X33190476Y-93573866D02*
X33142857Y-93526247D01*
X33142857Y-93526247D02*
X33047619Y-93478628D01*
X33047619Y-93478628D02*
X32857143Y-93431009D01*
X32857143Y-93431009D02*
X32761905Y-93383390D01*
X32761905Y-93383390D02*
X32714286Y-93335771D01*
X32714286Y-93335771D02*
X32666667Y-93240533D01*
X32666667Y-93240533D02*
X32666667Y-93145295D01*
X32666667Y-93145295D02*
X32714286Y-93050057D01*
X32714286Y-93050057D02*
X32761905Y-93002438D01*
X32761905Y-93002438D02*
X32857143Y-92954819D01*
X32857143Y-92954819D02*
X33095238Y-92954819D01*
X33095238Y-92954819D02*
X33238095Y-93002438D01*
X33571429Y-92954819D02*
X33809524Y-93954819D01*
X33809524Y-93954819D02*
X34000000Y-93240533D01*
X34000000Y-93240533D02*
X34190476Y-93954819D01*
X34190476Y-93954819D02*
X34428572Y-92954819D01*
X35333333Y-93954819D02*
X34761905Y-93954819D01*
X35047619Y-93954819D02*
X35047619Y-92954819D01*
X35047619Y-92954819D02*
X34952381Y-93097676D01*
X34952381Y-93097676D02*
X34857143Y-93192914D01*
X34857143Y-93192914D02*
X34761905Y-93240533D01*
X70011663Y-63582701D02*
X69964044Y-63630321D01*
X69964044Y-63630321D02*
X69821187Y-63677940D01*
X69821187Y-63677940D02*
X69725949Y-63677940D01*
X69725949Y-63677940D02*
X69583092Y-63630321D01*
X69583092Y-63630321D02*
X69487854Y-63535082D01*
X69487854Y-63535082D02*
X69440235Y-63439844D01*
X69440235Y-63439844D02*
X69392616Y-63249368D01*
X69392616Y-63249368D02*
X69392616Y-63106511D01*
X69392616Y-63106511D02*
X69440235Y-62916035D01*
X69440235Y-62916035D02*
X69487854Y-62820797D01*
X69487854Y-62820797D02*
X69583092Y-62725559D01*
X69583092Y-62725559D02*
X69725949Y-62677940D01*
X69725949Y-62677940D02*
X69821187Y-62677940D01*
X69821187Y-62677940D02*
X69964044Y-62725559D01*
X69964044Y-62725559D02*
X70011663Y-62773178D01*
X70392616Y-62773178D02*
X70440235Y-62725559D01*
X70440235Y-62725559D02*
X70535473Y-62677940D01*
X70535473Y-62677940D02*
X70773568Y-62677940D01*
X70773568Y-62677940D02*
X70868806Y-62725559D01*
X70868806Y-62725559D02*
X70916425Y-62773178D01*
X70916425Y-62773178D02*
X70964044Y-62868416D01*
X70964044Y-62868416D02*
X70964044Y-62963654D01*
X70964044Y-62963654D02*
X70916425Y-63106511D01*
X70916425Y-63106511D02*
X70344997Y-63677940D01*
X70344997Y-63677940D02*
X70964044Y-63677940D01*
X68833333Y-59729580D02*
X68785714Y-59777200D01*
X68785714Y-59777200D02*
X68642857Y-59824819D01*
X68642857Y-59824819D02*
X68547619Y-59824819D01*
X68547619Y-59824819D02*
X68404762Y-59777200D01*
X68404762Y-59777200D02*
X68309524Y-59681961D01*
X68309524Y-59681961D02*
X68261905Y-59586723D01*
X68261905Y-59586723D02*
X68214286Y-59396247D01*
X68214286Y-59396247D02*
X68214286Y-59253390D01*
X68214286Y-59253390D02*
X68261905Y-59062914D01*
X68261905Y-59062914D02*
X68309524Y-58967676D01*
X68309524Y-58967676D02*
X68404762Y-58872438D01*
X68404762Y-58872438D02*
X68547619Y-58824819D01*
X68547619Y-58824819D02*
X68642857Y-58824819D01*
X68642857Y-58824819D02*
X68785714Y-58872438D01*
X68785714Y-58872438D02*
X68833333Y-58920057D01*
X69785714Y-59824819D02*
X69214286Y-59824819D01*
X69500000Y-59824819D02*
X69500000Y-58824819D01*
X69500000Y-58824819D02*
X69404762Y-58967676D01*
X69404762Y-58967676D02*
X69309524Y-59062914D01*
X69309524Y-59062914D02*
X69214286Y-59110533D01*
X33404761Y-47954819D02*
X33071428Y-47478628D01*
X32833333Y-47954819D02*
X32833333Y-46954819D01*
X32833333Y-46954819D02*
X33214285Y-46954819D01*
X33214285Y-46954819D02*
X33309523Y-47002438D01*
X33309523Y-47002438D02*
X33357142Y-47050057D01*
X33357142Y-47050057D02*
X33404761Y-47145295D01*
X33404761Y-47145295D02*
X33404761Y-47288152D01*
X33404761Y-47288152D02*
X33357142Y-47383390D01*
X33357142Y-47383390D02*
X33309523Y-47431009D01*
X33309523Y-47431009D02*
X33214285Y-47478628D01*
X33214285Y-47478628D02*
X32833333Y-47478628D01*
X33690476Y-46954819D02*
X34023809Y-47954819D01*
X34023809Y-47954819D02*
X34357142Y-46954819D01*
X35119047Y-47288152D02*
X35119047Y-47954819D01*
X34880952Y-46907200D02*
X34642857Y-47621485D01*
X34642857Y-47621485D02*
X35261904Y-47621485D01*
X32880952Y-32954819D02*
X32404762Y-32954819D01*
X32404762Y-32954819D02*
X32404762Y-31954819D01*
X33214286Y-32431009D02*
X33547619Y-32431009D01*
X33690476Y-32954819D02*
X33214286Y-32954819D01*
X33214286Y-32954819D02*
X33214286Y-31954819D01*
X33214286Y-31954819D02*
X33690476Y-31954819D01*
X34119048Y-32954819D02*
X34119048Y-31954819D01*
X34119048Y-31954819D02*
X34357143Y-31954819D01*
X34357143Y-31954819D02*
X34500000Y-32002438D01*
X34500000Y-32002438D02*
X34595238Y-32097676D01*
X34595238Y-32097676D02*
X34642857Y-32192914D01*
X34642857Y-32192914D02*
X34690476Y-32383390D01*
X34690476Y-32383390D02*
X34690476Y-32526247D01*
X34690476Y-32526247D02*
X34642857Y-32716723D01*
X34642857Y-32716723D02*
X34595238Y-32811961D01*
X34595238Y-32811961D02*
X34500000Y-32907200D01*
X34500000Y-32907200D02*
X34357143Y-32954819D01*
X34357143Y-32954819D02*
X34119048Y-32954819D01*
X35642857Y-32954819D02*
X35071429Y-32954819D01*
X35357143Y-32954819D02*
X35357143Y-31954819D01*
X35357143Y-31954819D02*
X35261905Y-32097676D01*
X35261905Y-32097676D02*
X35166667Y-32192914D01*
X35166667Y-32192914D02*
X35071429Y-32240533D01*
X30135714Y-34854819D02*
X29564286Y-34854819D01*
X29850000Y-34854819D02*
X29850000Y-33854819D01*
X29850000Y-33854819D02*
X29754762Y-33997676D01*
X29754762Y-33997676D02*
X29659524Y-34092914D01*
X29659524Y-34092914D02*
X29564286Y-34140533D01*
X75032265Y-60521195D02*
X74984646Y-60568815D01*
X74984646Y-60568815D02*
X74841789Y-60616434D01*
X74841789Y-60616434D02*
X74746551Y-60616434D01*
X74746551Y-60616434D02*
X74603694Y-60568815D01*
X74603694Y-60568815D02*
X74508456Y-60473576D01*
X74508456Y-60473576D02*
X74460837Y-60378338D01*
X74460837Y-60378338D02*
X74413218Y-60187862D01*
X74413218Y-60187862D02*
X74413218Y-60045005D01*
X74413218Y-60045005D02*
X74460837Y-59854529D01*
X74460837Y-59854529D02*
X74508456Y-59759291D01*
X74508456Y-59759291D02*
X74603694Y-59664053D01*
X74603694Y-59664053D02*
X74746551Y-59616434D01*
X74746551Y-59616434D02*
X74841789Y-59616434D01*
X74841789Y-59616434D02*
X74984646Y-59664053D01*
X74984646Y-59664053D02*
X75032265Y-59711672D01*
X75889408Y-59949767D02*
X75889408Y-60616434D01*
X75651313Y-59568815D02*
X75413218Y-60283100D01*
X75413218Y-60283100D02*
X76032265Y-60283100D01*
X33404761Y-19954819D02*
X33071428Y-19478628D01*
X32833333Y-19954819D02*
X32833333Y-18954819D01*
X32833333Y-18954819D02*
X33214285Y-18954819D01*
X33214285Y-18954819D02*
X33309523Y-19002438D01*
X33309523Y-19002438D02*
X33357142Y-19050057D01*
X33357142Y-19050057D02*
X33404761Y-19145295D01*
X33404761Y-19145295D02*
X33404761Y-19288152D01*
X33404761Y-19288152D02*
X33357142Y-19383390D01*
X33357142Y-19383390D02*
X33309523Y-19431009D01*
X33309523Y-19431009D02*
X33214285Y-19478628D01*
X33214285Y-19478628D02*
X32833333Y-19478628D01*
X33690476Y-18954819D02*
X34023809Y-19954819D01*
X34023809Y-19954819D02*
X34357142Y-18954819D01*
X35214285Y-19954819D02*
X34642857Y-19954819D01*
X34928571Y-19954819D02*
X34928571Y-18954819D01*
X34928571Y-18954819D02*
X34833333Y-19097676D01*
X34833333Y-19097676D02*
X34738095Y-19192914D01*
X34738095Y-19192914D02*
X34642857Y-19240533D01*
X32880952Y-72954819D02*
X32404762Y-72954819D01*
X32404762Y-72954819D02*
X32404762Y-71954819D01*
X33214286Y-72431009D02*
X33547619Y-72431009D01*
X33690476Y-72954819D02*
X33214286Y-72954819D01*
X33214286Y-72954819D02*
X33214286Y-71954819D01*
X33214286Y-71954819D02*
X33690476Y-71954819D01*
X34119048Y-72954819D02*
X34119048Y-71954819D01*
X34119048Y-71954819D02*
X34357143Y-71954819D01*
X34357143Y-71954819D02*
X34500000Y-72002438D01*
X34500000Y-72002438D02*
X34595238Y-72097676D01*
X34595238Y-72097676D02*
X34642857Y-72192914D01*
X34642857Y-72192914D02*
X34690476Y-72383390D01*
X34690476Y-72383390D02*
X34690476Y-72526247D01*
X34690476Y-72526247D02*
X34642857Y-72716723D01*
X34642857Y-72716723D02*
X34595238Y-72811961D01*
X34595238Y-72811961D02*
X34500000Y-72907200D01*
X34500000Y-72907200D02*
X34357143Y-72954819D01*
X34357143Y-72954819D02*
X34119048Y-72954819D01*
X35547619Y-72288152D02*
X35547619Y-72954819D01*
X35309524Y-71907200D02*
X35071429Y-72621485D01*
X35071429Y-72621485D02*
X35690476Y-72621485D01*
X30135714Y-74854819D02*
X29564286Y-74854819D01*
X29850000Y-74854819D02*
X29850000Y-73854819D01*
X29850000Y-73854819D02*
X29754762Y-73997676D01*
X29754762Y-73997676D02*
X29659524Y-74092914D01*
X29659524Y-74092914D02*
X29564286Y-74140533D01*
X67880952Y-32954819D02*
X67404762Y-32954819D01*
X67404762Y-32954819D02*
X67404762Y-31954819D01*
X68214286Y-32431009D02*
X68547619Y-32431009D01*
X68690476Y-32954819D02*
X68214286Y-32954819D01*
X68214286Y-32954819D02*
X68214286Y-31954819D01*
X68214286Y-31954819D02*
X68690476Y-31954819D01*
X69119048Y-32954819D02*
X69119048Y-31954819D01*
X69119048Y-31954819D02*
X69357143Y-31954819D01*
X69357143Y-31954819D02*
X69500000Y-32002438D01*
X69500000Y-32002438D02*
X69595238Y-32097676D01*
X69595238Y-32097676D02*
X69642857Y-32192914D01*
X69642857Y-32192914D02*
X69690476Y-32383390D01*
X69690476Y-32383390D02*
X69690476Y-32526247D01*
X69690476Y-32526247D02*
X69642857Y-32716723D01*
X69642857Y-32716723D02*
X69595238Y-32811961D01*
X69595238Y-32811961D02*
X69500000Y-32907200D01*
X69500000Y-32907200D02*
X69357143Y-32954819D01*
X69357143Y-32954819D02*
X69119048Y-32954819D01*
X70071429Y-32050057D02*
X70119048Y-32002438D01*
X70119048Y-32002438D02*
X70214286Y-31954819D01*
X70214286Y-31954819D02*
X70452381Y-31954819D01*
X70452381Y-31954819D02*
X70547619Y-32002438D01*
X70547619Y-32002438D02*
X70595238Y-32050057D01*
X70595238Y-32050057D02*
X70642857Y-32145295D01*
X70642857Y-32145295D02*
X70642857Y-32240533D01*
X70642857Y-32240533D02*
X70595238Y-32383390D01*
X70595238Y-32383390D02*
X70023810Y-32954819D01*
X70023810Y-32954819D02*
X70642857Y-32954819D01*
X65135714Y-34854819D02*
X64564286Y-34854819D01*
X64850000Y-34854819D02*
X64850000Y-33854819D01*
X64850000Y-33854819D02*
X64754762Y-33997676D01*
X64754762Y-33997676D02*
X64659524Y-34092914D01*
X64659524Y-34092914D02*
X64564286Y-34140533D01*
X103404761Y-19954819D02*
X103071428Y-19478628D01*
X102833333Y-19954819D02*
X102833333Y-18954819D01*
X102833333Y-18954819D02*
X103214285Y-18954819D01*
X103214285Y-18954819D02*
X103309523Y-19002438D01*
X103309523Y-19002438D02*
X103357142Y-19050057D01*
X103357142Y-19050057D02*
X103404761Y-19145295D01*
X103404761Y-19145295D02*
X103404761Y-19288152D01*
X103404761Y-19288152D02*
X103357142Y-19383390D01*
X103357142Y-19383390D02*
X103309523Y-19431009D01*
X103309523Y-19431009D02*
X103214285Y-19478628D01*
X103214285Y-19478628D02*
X102833333Y-19478628D01*
X103690476Y-18954819D02*
X104023809Y-19954819D01*
X104023809Y-19954819D02*
X104357142Y-18954819D01*
X104595238Y-18954819D02*
X105214285Y-18954819D01*
X105214285Y-18954819D02*
X104880952Y-19335771D01*
X104880952Y-19335771D02*
X105023809Y-19335771D01*
X105023809Y-19335771D02*
X105119047Y-19383390D01*
X105119047Y-19383390D02*
X105166666Y-19431009D01*
X105166666Y-19431009D02*
X105214285Y-19526247D01*
X105214285Y-19526247D02*
X105214285Y-19764342D01*
X105214285Y-19764342D02*
X105166666Y-19859580D01*
X105166666Y-19859580D02*
X105119047Y-19907200D01*
X105119047Y-19907200D02*
X105023809Y-19954819D01*
X105023809Y-19954819D02*
X104738095Y-19954819D01*
X104738095Y-19954819D02*
X104642857Y-19907200D01*
X104642857Y-19907200D02*
X104595238Y-19859580D01*
X75460361Y-64719440D02*
X75412742Y-64767060D01*
X75412742Y-64767060D02*
X75269885Y-64814679D01*
X75269885Y-64814679D02*
X75174647Y-64814679D01*
X75174647Y-64814679D02*
X75031790Y-64767060D01*
X75031790Y-64767060D02*
X74936552Y-64671821D01*
X74936552Y-64671821D02*
X74888933Y-64576583D01*
X74888933Y-64576583D02*
X74841314Y-64386107D01*
X74841314Y-64386107D02*
X74841314Y-64243250D01*
X74841314Y-64243250D02*
X74888933Y-64052774D01*
X74888933Y-64052774D02*
X74936552Y-63957536D01*
X74936552Y-63957536D02*
X75031790Y-63862298D01*
X75031790Y-63862298D02*
X75174647Y-63814679D01*
X75174647Y-63814679D02*
X75269885Y-63814679D01*
X75269885Y-63814679D02*
X75412742Y-63862298D01*
X75412742Y-63862298D02*
X75460361Y-63909917D01*
X76317504Y-63814679D02*
X76127028Y-63814679D01*
X76127028Y-63814679D02*
X76031790Y-63862298D01*
X76031790Y-63862298D02*
X75984171Y-63909917D01*
X75984171Y-63909917D02*
X75888933Y-64052774D01*
X75888933Y-64052774D02*
X75841314Y-64243250D01*
X75841314Y-64243250D02*
X75841314Y-64624202D01*
X75841314Y-64624202D02*
X75888933Y-64719440D01*
X75888933Y-64719440D02*
X75936552Y-64767060D01*
X75936552Y-64767060D02*
X76031790Y-64814679D01*
X76031790Y-64814679D02*
X76222266Y-64814679D01*
X76222266Y-64814679D02*
X76317504Y-64767060D01*
X76317504Y-64767060D02*
X76365123Y-64719440D01*
X76365123Y-64719440D02*
X76412742Y-64624202D01*
X76412742Y-64624202D02*
X76412742Y-64386107D01*
X76412742Y-64386107D02*
X76365123Y-64290869D01*
X76365123Y-64290869D02*
X76317504Y-64243250D01*
X76317504Y-64243250D02*
X76222266Y-64195631D01*
X76222266Y-64195631D02*
X76031790Y-64195631D01*
X76031790Y-64195631D02*
X75936552Y-64243250D01*
X75936552Y-64243250D02*
X75888933Y-64290869D01*
X75888933Y-64290869D02*
X75841314Y-64386107D01*
%TO.C,LED5*%
D12*
X100350000Y-73250000D02*
X107650000Y-73250000D01*
X100350000Y-78750000D02*
X107650000Y-78750000D01*
X107650000Y-78750000D02*
X107650000Y-77600000D01*
%TO.C,C7*%
X117562500Y-74152500D02*
X118350000Y-74152500D01*
X117956250Y-73758750D02*
X117956250Y-74546250D01*
X118590000Y-73654437D02*
X118590000Y-74940000D01*
X118590000Y-73654437D02*
X119654437Y-72590000D01*
X118590000Y-78345563D02*
X118590000Y-77060000D01*
X118590000Y-78345563D02*
X119654437Y-79410000D01*
X119654437Y-72590000D02*
X125410000Y-72590000D01*
X119654437Y-79410000D02*
X125410000Y-79410000D01*
X125410000Y-72590000D02*
X125410000Y-74940000D01*
X125410000Y-79410000D02*
X125410000Y-77060000D01*
%TO.C,C3*%
X63486259Y-61067702D02*
X63767419Y-61067702D01*
X63486259Y-62087702D02*
X63767419Y-62087702D01*
%TO.C,LED6*%
X65350000Y-73250000D02*
X72650000Y-73250000D01*
X65350000Y-78750000D02*
X72650000Y-78750000D01*
X72650000Y-78750000D02*
X72650000Y-77600000D01*
%TO.C,LED3*%
X100350000Y-33250000D02*
X107650000Y-33250000D01*
X100350000Y-38750000D02*
X107650000Y-38750000D01*
X107650000Y-38750000D02*
X107650000Y-37600000D01*
%TO.C,C5*%
X64779906Y-64421284D02*
X65061066Y-64421284D01*
X64779906Y-65441284D02*
X65061066Y-65441284D01*
%TO.C,C2*%
X70037750Y-64143121D02*
X70318910Y-64143121D01*
X70037750Y-65163121D02*
X70318910Y-65163121D01*
%TO.C,C1*%
X68859420Y-60290000D02*
X69140580Y-60290000D01*
X68859420Y-61310000D02*
X69140580Y-61310000D01*
%TO.C,LED1*%
X30350000Y-33250000D02*
X37650000Y-33250000D01*
X30350000Y-38750000D02*
X37650000Y-38750000D01*
X37650000Y-38750000D02*
X37650000Y-37600000D01*
%TO.C,C4*%
X75058352Y-61081615D02*
X75339512Y-61081615D01*
X75058352Y-62101615D02*
X75339512Y-62101615D01*
%TO.C,LED4*%
X30350000Y-73250000D02*
X37650000Y-73250000D01*
X30350000Y-78750000D02*
X37650000Y-78750000D01*
X37650000Y-78750000D02*
X37650000Y-77600000D01*
%TO.C,LED2*%
X65350000Y-33250000D02*
X72650000Y-33250000D01*
X65350000Y-38750000D02*
X72650000Y-38750000D01*
X72650000Y-38750000D02*
X72650000Y-37600000D01*
%TO.C,C6*%
X75486448Y-65279860D02*
X75767608Y-65279860D01*
X75486448Y-66299860D02*
X75767608Y-66299860D01*
%TD*%
%LPC*%
D13*
%TO.C,RV6*%
X101500000Y-57000000D03*
X104000000Y-57000000D03*
D14*
X99600000Y-50000000D03*
D13*
X106500000Y-57000000D03*
D14*
X108400000Y-50000000D03*
%TD*%
D15*
%TO.C,H3*%
X17000000Y-108500000D03*
%TD*%
D13*
%TO.C,RV2*%
X66500000Y-29000000D03*
X69000000Y-29000000D03*
D14*
X64600000Y-22000000D03*
D13*
X71500000Y-29000000D03*
D14*
X73400000Y-22000000D03*
%TD*%
D13*
%TO.C,RV5*%
X66500000Y-57000000D03*
X69000000Y-57000000D03*
D14*
X64600000Y-50000000D03*
D13*
X71500000Y-57000000D03*
D14*
X73400000Y-50000000D03*
%TD*%
D16*
%TO.C,LED5*%
X101550000Y-74350000D03*
X101550000Y-77650000D03*
X106450000Y-77650000D03*
X106450000Y-74350000D03*
%TD*%
D15*
%TO.C,H4*%
X121000000Y-108500000D03*
%TD*%
D17*
%TO.C,C7*%
X119300000Y-76000000D03*
X124700000Y-76000000D03*
%TD*%
D18*
%TO.C,C3*%
X62851839Y-61577702D03*
X64401839Y-61577702D03*
%TD*%
D15*
%TO.C,H1*%
X17000000Y-9500000D03*
%TD*%
D19*
%TO.C,SW2*%
X101000000Y-96000000D03*
X107000000Y-96000000D03*
%TD*%
D16*
%TO.C,LED6*%
X66550000Y-74350000D03*
X66550000Y-77650000D03*
X71450000Y-77650000D03*
X71450000Y-74350000D03*
%TD*%
%TO.C,LED3*%
X101550000Y-34350000D03*
X101550000Y-37650000D03*
X106450000Y-37650000D03*
X106450000Y-34350000D03*
%TD*%
D18*
%TO.C,C5*%
X64145486Y-64931284D03*
X65695486Y-64931284D03*
%TD*%
D19*
%TO.C,SW1*%
X31000000Y-96000000D03*
X37000000Y-96000000D03*
%TD*%
D18*
%TO.C,C2*%
X69403330Y-64653121D03*
X70953330Y-64653121D03*
%TD*%
%TO.C,C1*%
X68225000Y-60800000D03*
X69775000Y-60800000D03*
%TD*%
D13*
%TO.C,RV4*%
X31500000Y-57000000D03*
X34000000Y-57000000D03*
D14*
X29600000Y-50000000D03*
D13*
X36500000Y-57000000D03*
D14*
X38400000Y-50000000D03*
%TD*%
D16*
%TO.C,LED1*%
X31550000Y-34350000D03*
X31550000Y-37650000D03*
X36450000Y-37650000D03*
X36450000Y-34350000D03*
%TD*%
D18*
%TO.C,C4*%
X74423932Y-61591615D03*
X75973932Y-61591615D03*
%TD*%
D13*
%TO.C,RV1*%
X31500000Y-29000000D03*
X34000000Y-29000000D03*
D14*
X29600000Y-22000000D03*
D13*
X36500000Y-29000000D03*
D14*
X38400000Y-22000000D03*
%TD*%
D16*
%TO.C,LED4*%
X31550000Y-74350000D03*
X31550000Y-77650000D03*
X36450000Y-77650000D03*
X36450000Y-74350000D03*
%TD*%
D15*
%TO.C,H2*%
X121000000Y-9500000D03*
%TD*%
D16*
%TO.C,LED2*%
X66550000Y-34350000D03*
X66550000Y-37650000D03*
X71450000Y-37650000D03*
X71450000Y-34350000D03*
%TD*%
D13*
%TO.C,RV3*%
X101500000Y-29000000D03*
X104000000Y-29000000D03*
D14*
X99600000Y-22000000D03*
D13*
X106500000Y-29000000D03*
D14*
X108400000Y-22000000D03*
%TD*%
D18*
%TO.C,C6*%
X74852028Y-65789860D03*
X76402028Y-65789860D03*
%TD*%
D20*
%TO.C,J1*%
X96000000Y-104000000D03*
D21*
X96000000Y-101460000D03*
X98540000Y-104000000D03*
X98540000Y-101460000D03*
X101080000Y-104000000D03*
X101080000Y-101460000D03*
X103620000Y-104000000D03*
X103620000Y-101460000D03*
X106160000Y-104000000D03*
X106160000Y-101460000D03*
X108700000Y-104000000D03*
X108700000Y-101460000D03*
X111240000Y-104000000D03*
X111240000Y-101460000D03*
X113780000Y-104000000D03*
X113780000Y-101460000D03*
%TD*%
%LPD*%
M02*
